<svg width="77" height="116" fill="none" xmlns="http://www.w3.org/2000/svg"><path d="M76.984 104.125V116H2.531v-10.391l37.266-41.484c4.583-5.104 8.125-9.427 10.625-12.969 2.552-3.593 4.323-6.797 5.312-9.61 1.042-2.864 1.563-5.78 1.563-8.75 0-3.75-.781-7.134-2.344-10.155-1.51-3.073-3.75-5.521-6.719-7.344-2.968-1.823-6.562-2.735-10.78-2.735-5.053 0-9.272.99-12.657 2.97-3.334 1.926-5.834 4.635-7.5 8.124-1.667 3.49-2.5 7.5-2.5 12.032H.344c0-6.407 1.406-12.266 4.218-17.579 2.813-5.312 6.98-9.53 12.5-12.656C22.584 2.276 29.38.687 37.453.687c7.188 0 13.333 1.277 18.438 3.829 5.104 2.5 9.01 6.041 11.718 10.625 2.76 4.53 4.141 9.843 4.141 15.937 0 3.333-.573 6.719-1.719 10.156-1.094 3.386-2.63 6.771-4.61 10.157-1.926 3.385-4.192 6.718-6.796 10a155.513 155.513 0 01-8.203 9.687l-30.469 33.047h57.031z" fill="#FBD00C"/></svg>