<svg width="72" height="116" fill="none" xmlns="http://www.w3.org/2000/svg"><path d="M15.734 59.86L4.172 56.89 9.875.25h58.36v13.36H22.14l-3.438 30.937c2.084-1.198 4.714-2.318 7.89-3.36 3.23-1.041 6.928-1.562 11.095-1.562 5.26 0 9.973.911 14.14 2.734 4.167 1.771 7.708 4.323 10.625 7.657 2.969 3.333 5.234 7.343 6.797 12.03 1.563 4.688 2.344 9.923 2.344 15.704 0 5.469-.755 10.495-2.266 15.078-1.458 4.584-3.672 8.594-6.64 12.031-2.97 3.386-6.72 6.016-11.25 7.891-4.48 1.875-9.766 2.812-15.86 2.812-4.583 0-8.932-.624-13.047-1.874-4.062-1.303-7.708-3.256-10.937-5.86-3.177-2.656-5.781-5.937-7.813-9.844C1.802 94.026.552 89.391.031 84.078h13.75c.625 4.271 1.875 7.865 3.75 10.781 1.875 2.917 4.323 5.13 7.344 6.641 3.073 1.458 6.64 2.188 10.703 2.188 3.438 0 6.484-.599 9.14-1.797a18.179 18.179 0 006.72-5.157c1.822-2.24 3.203-4.947 4.14-8.125.99-3.177 1.484-6.744 1.484-10.703 0-3.594-.494-6.927-1.484-10-.99-3.073-2.474-5.755-4.453-8.047-1.927-2.291-4.297-4.062-7.11-5.312-2.812-1.302-6.041-1.953-9.687-1.953-4.844 0-8.516.65-11.016 1.953-2.447 1.302-4.974 3.073-7.578 5.312z" fill="#45BABC"/></svg>