<svg width="1313" height="16" fill="none" xmlns="http://www.w3.org/2000/svg"><path fill-rule="evenodd" clip-rule="evenodd" d="M3.838 4.447c.205.086-1.178.107-3.33.096-.206-.085 1.178-.105 3.33-.096zm1.099-.649c3.638-.004 5.227-.056 5.688.099-2.408.008-2.998-.131-4.1 0 3.741 0 .001.113.744.194-5.021.005-.359-.237-2.332-.293zM6.59 9.387c-3.177-.005-3.306-.128-3.178-.26 2.537.03 2.665.151 3.178.26zm8.036-3.408c-1.511.043-5.585-.022-5.688-.131 2.741-.09 5.432.025 5.688.13zM8.378 7.18c1.307-.047 4.56.011 5.714.067-1.512.053-5.047.005-5.714-.067zm-.052.095c2.716.012 3.587.096 7.353.068.257.178-3.484-.012-4.15.128 2.742.011 3.229.108 4.023.197-3.177-.017-4.535-.102-7.302-.134-.128-.098 1.972-.18.076-.259zm1.483-1.526c.077-.118 3.407-.104 4.176-.192.615.145-1.537.18-4.176.192zm1.513.325c.153.036.896.05 1.614.067 0 .098-.82.163-2.536.193.153-.1-1.87-.201.921-.26zm10.538 4.001c-2.178-.01-2.717-.086-3.204-.163 1.896.024 3.408.06 3.203.163zm1.316-6.791c2.357-.005 4.483-.002 4.048.099-1.409.055-4.816.025-4.048-.099zm7.892.686c-1.717.018-2.383.08-4.945.063-.308-.109 4.842-.165 4.945-.063zm.819.001c1.844-.148-3.972-.332-1.41-.52 4.995-.018 5.584-.214 9.145-.288 1.154.236 1.36.892-7.735.808zm15.409 5.986c-.05.044.36.07.77.098-2.153-.01-2.666-.068-2.486.064-2.152.009-2.075-.07-2.408-.13 2.305.026 2.152-.048 4.124-.032zm49.708-6.969c-.18-.046-1.332-.055-1.589-.099 1.64 0 1.076-.088 3.305-.063.103.082.077.158-1.716.162zm12.245.134c-5.892 0 1.896-.33 2.536-.162-.999.05-2.408.08-2.536.162zm53.849.477c.102-.056-.129-.102-.769-.13 3.356-.032 4.304.154.769.13zm83.639-.227c7.045-.184 3.664.195 0 0zm90.89.068c2.511.024 1.563.022 4.099 0 .026.178-3.1.103-4.099 0zm5.789-.159c2.613-.018 2.511.062 4.099 0-.051.045.359.072.769.097-2.434 0-4.996.004-4.868-.097zm8.172.035h4.099c.589.139-4.432.11-4.099 0zm4.842.196c.973-.036 2.92-.034 4.919-.031-.205.06.897.072.769.13-1.409.043-4.535-.037-5.688-.099zm23.747.008c1.409-.055 4.816-.025 4.048.099-2.101-.003-2.844-.06-4.048-.099zm31.639.696c-1.076.039-5.201.014-4.868-.099 2.024.018 4.919.001 4.868.1zm7.344 7.542c1.895-.03 2.638-.003 5.738-.03-.614.1-.589.062-.076.162-2.562-.016-1.896.099-4.945.064 1.332-.171 1.179-.063-.717-.197zm13.935-.027c-.588.13 4.279.048 4.023.163-1.947-.02-5.969.038-6.533-.035 1.691-.008.256-.143 2.51-.128zm32.689.207c-1.896-.011-3.51-.034-4.048-.099 2.049-.026 4.381-.04 4.048.1zm13.969-7.664c.436.194-3.33.162-4.995.192.179.046 1.332.055 1.588.098-1.178.007-1.408.054-2.484.064.563-.17-3.408.088-4.074-.035 1.793-.128 5.329-.016 3.356-.193 4.97 0 3.356-.088 6.609-.126zm3.126.36c-2.536-.012-5.405.097-6.559-.003.641-.007.974-.026.846-.064 2.587-.006 4.944.001 5.713.067zm-.743-.196c1.204-.05 4.278-.03 4.074.066-2.024.005-3.972.005-4.074-.066zm10.478.427c2.485.024 2.433-.056 4.918-.03.769.187 3.741.066 5.688.1-1.46.135-10.529.054-10.606-.07zm12.467 7.09c-.512.168-3.51.032-6.584.095.204-.112 4.534-.058 6.584-.095zm.947-.262c-2.024-.017-3.331-.062-4.868-.098 2.331-.04 4.15-.002 4.868.098zm26.626-6.616c2.895.005 4.637.055 6.507.099-1.665.048-6.277.006-6.507-.1zm3.381-.292c.153-.039-.103-.092.871-.096 1.921.055 4.611.057 6.533.035-1.255.132-4.151.053-7.404.06zm11.57 7.283c-.461.1-3.766.088-5.789.127.589-.097 2.331-.147 5.789-.127zm9.043-.061c-.359.157 4.099-.07 4.893.066-1.998.051-3.561.12-7.404.095.769-.057.051-.174 2.511-.161zm24.065-6.361c-.794-.044-2.152-.065-3.228-.098-.435.047-1.255.08-1.69.13-2.895-.026-2.972-.006-6.558-.035l.051-.096c3.048-.02 4.764-.051 6.558.035.512-.106 5.738-.118 6.558-.03-1.358-.002-.512.088-1.691.094zm3.73 6.534c-2.178.008-2.075-.068-2.408-.131 2.741-.03 2.664.046 2.408.13zm47.132-1.053c2.408-.022 3.561-.097 4.97-.16 1.614.16 2.921.334 8.864.329 2.459-.132 5.534-.037 9.069-.128.077.06.487.11 1.589.131 1.229-.097 5.2-.12 5.738.003-1.998.039-2.843.127-4.995.16-2.229.023.666-.154-1.589-.13-6.455.072-13.552-.012-19.649-.008 1.05-.113 1.255-.107 1.716-.194-2.562-.047-4.97.077-5.713-.003zm17.572-.839c4.739.025 10.426-.036 13.834.168-5.764.05-10.35-.186-13.911-.038.052.052 2.075.025 1.589.098-3.51-.038-5.713-.097-9.812-.035.486-.08.768-.166 3.33-.162.307.055-1.255.083-.051.098.717-.083 5.072-.017 5.021-.13zm-5.262-4.877c4.662-.01 6.097.052 8.147.068-2.741.074-6.687.059-8.147-.068zm2.209 2.472c-3.074.02.564.106-2.511.127-.999-.077.128-.06-.743-.162 1.204.007 3.023-.01 3.254.035zm3.329-.129c3.382.066 1.59.4-1.741.226 5.149-.12-3.536-.076 1.741-.226zm2.163 4.452c1.511.005 2.715.022 3.253.067-2.946-.012-2.279.127-4.97.127-.179-.094 1.896-.098 1.717-.194zm3.554-2.564c.871-.096 4.048-.1 5.816-.16-.384.115-2.664.154-5.816.16zm2.098-1.042c1.512-.07 4.176-.075 6.559-.028-.333.115-2.28.08-.896.194-2.332-.169-3.28-.019-5.663-.165zm6.987-2.856c3.228-.012 2.511-.022 5.764-.063 1.179.029 2.563.05 2.409.13-3.664-.055-6.789.044-8.173-.067zm5.366 4.616c-1.819.025.077.2-3.356.162-1.768-.068.435-.09.076-.194 1.23.005 3.023-.01 3.28.033zm2.667 1.399c-.999.058-5.893-.005-7.353-.035 3.151-.008 7.301-.077 7.353.035zm1.554-3.574c1.895.044 4.586.058 6.507.1-1.434.039-6.763.025-6.507-.1zm11.281 4.196c-.051.11-6.532.127-8.223.061 2.408-.033 4.739-.069 8.223-.06zm-3.751-4.583c3.664-.075 4.664.193 6.432.294-1 .002-1.947.008-1.666.064-2.766-.024-6.917-.157-4.791-.262-.384.051 2.998.11 3.254.035-.231-.076-3.894-.02-3.229-.131zm1.712-2.046c1.588.114 6.353-.09 5.687.098-2.382-.03-7.813.034-5.687-.098zm8.032 6.014c1.332-.073 4.406-.053 6.558.002-.947.059-6.045.116-6.558-.002zm3.194-3.604c7.558-.058 1.179.187 0 0zm-.531 3.118c2.819.02 4.33.088 5.663.163-2.05.057-5.893-.03-5.663-.163zm8.108-5.457c.385.04 6.661-.045 6.508.1-2.793.01-8.839-.018-6.508-.1zm6.975 2.798c-1.819.044-4.458.098-5.739-.003 2.562.046 4.995-.077 5.739.003zm3.695 2.796c.539.08-3.56.136-4.124.064 1.563-.014 1.537-.092 4.124-.064zm4.264-6.042c2.485-.04 6.686-.022 7.327.1-3.1.024-5.969.017-7.327-.1zm2.672 3.284c-.41-.05-1.178-.082-1.588-.13.973-.041 3.1-.014 4.073.034-.64.007-1.614 0-1.639.032 1.255.007.102.051-.846.064zm3.67 2.861c-.563.013-6.558.04-6.533-.068 2.844-.058 5.021-.01 6.533.067zm-4.337-3.219c2.588-.014 3.331.043 4.048.099-1.383.053-4.816.023-4.048-.099zm2.927 2.698c-2.101-.006-4.202-.009-4.049-.099.923-.036 4.894-.027 4.049.099zm-1.895.585c2.818.015 4.586-.011 6.558-.03.334.062 1.717.082 1.563.163-1.357-.001-2.715-.002-4.099 0 2.511-.175-6.815-.055-4.022-.133zm5.246-2.664h-1.639c.025-.032-.641-.039-.795-.065 1.179-.018 2.024-.05 2.511-.095-.641-.007-.948-.028-.795-.064 4.689.025-1.613.181.718.224zm1.529-3.508c3.868 0 7.788-.002 8.967.101-3.433-.018-8.916.045-8.967-.101zm-1.831 6.075c2.28-.027 6.302-.114 6.533.035-1.922-.021-5.944.038-6.533-.035zm17.984.105c-1.793.068-4.586.015-5.713-.035-.154.063-3.715.153-4.945.064 2.997-.117 7.301-.161 10.658-.029zm-.884-5.494c-.538-.103-2.639-.064-2.408-.13-.052.02-.128.037-.846.031-.692-.128 4.33-.022 4.945-.095 1.768.07.256.177-1.691.194zm9.081 5.464c3.279.012 6.507.025 8.147.1-3.28-.011-7.532.014-8.147-.1zm3.343-5.75l.051-.099c5.379.04 12.347-.024 15.524.103-4.816.105-10.426.002-15.575-.004zm-.446 6.662c.307.062 1.717.082 1.563.163h-3.279c1.255-.096-.872-.123 1.716-.163zm5.806-3.93c-.974.004-1.87.056-2.46 0 1.461-.04 4.33-.023 4.97-.096 1.179.077 1.691.06.744.162-2.613.036-1.999-.053-3.254-.066zm10.398-1.297c-2.485-.024-2.998.031-4.919.03-.026-.042-1.025-.046-.769-.096 2.613.03 1.178-.107 3.305-.096 4.125.1-1.947.066 2.383.162zm.059 3.577c-.871.1-3.279-.017-5.713-.035 1.973-.025 3.971-.025 5.713.035zm-4.002-2.05c2.562.138 8.685-.094 9.787.102-5.354-.014-3.663.078-8.224.06 1.23-.122-2.229-.062-1.563-.162z" fill="#45BABC"/><path fill-rule="evenodd" clip-rule="evenodd" d="M773.384 7.086c1.819.14-.973.214-.973.324-1.563.048-5.432-.001-3.254-.066 2.69.03 1.076-.197 4.227-.258zm5.479-1.296c2.305-.004 1.998.09 3.228.13h-3.279c.025-.045.025-.089.051-.13zm-.96 5.944c2.818.028 3.176-.047 5.738-.029.539.147-2.229-.05-1.69.096-.82-.022-6.2-.03-4.048-.067zm5.734-1.881c-2.588-.028-3.126.027-4.125.064.717-.092-1.127-.086-.743-.163 2.511-.001 4.15.03 4.868.1zm2.552-3.964c6.533-.087 14.884-.008 19.624.073-7.993.094-13.552.059-19.624-.073zm11.069.915c-2.638-.02-3.817.02-5.738.03-.718-.069-1.205-.144-2.383-.195 3.177.037 8.198.003 8.121.165zm.204-.456c-1.665.054-1.05-.003-3.279 0-.179.024-.051.064-.845.064-.026-.02-.103-.038-.82-.032l.025-.064c1.435.018 4.842-.04 4.919.032zm.799 1.918c-2.664.018-3.792-.023-5.713-.035.128-.06.589-.107 1.69-.13.334.096 3.485.078 4.023.165zm-1.385-.552l-.025.064c-2.229-.005-1.665.054-3.28 0l.026-.064c1.639-.056 1.025.001 3.279 0zm13.32-.517c-2.101-.005-3.895-.02-4.894-.067 2.665.002 4.458-.066 4.894.067zM808.021 8.4c-1.05.003-1.153.041-2.459.032-.487-.003-.974-.005-.795-.032 1.281 0-1.665-.23 2.536-.194-1.076.097-.691.126.718.195zm-3.505 2.404c-.026-.042-1.025-.045-.769-.098 3.177.003 3.766.016 7.379-.029.333.061 1.716.082 1.563.163-4.074.017-4.535-.122-8.173-.036zm3.259 1.952c.512.086-1.717.062-2.511.095 1.332-.115-2.767-.02-2.408-.098 1.742-.07 2.331.017 4.919.003zm5.862-2.209c.128.071-.718.103-2.511.095-.179-.025 0-.064-.794-.064-1.025.007-1.691.05-1.614-.032 2.587.016 3.253-.07 4.919 0zm3.176.262c-3.356-.016.743.088-2.51.096-1.128-.042-.436-.153-1.538-.195 2.332-.005 4.458-.002 4.048.099zm-.935-5.396c2.024-.068 3.587.074 4.868.131-2.587-.006-4.867-.023-4.868-.13zm2.703 5.071c-3.203-.053-.359.138-2.511.127.64-.087-1.614-.066-1.589-.13.513-.017 3.92-.073 4.1.003zm4.357 1.301c-2.741.035-2.792-.011-5.738.03-.513-.147 4.099-.064 5.738-.03zm-.361-1.04c.205.063-1.127.062-1.69.096.64.006 1.614.002 1.614.032-.513.02-3.92.075-4.099 0 2.331-.02.691-.208 4.175-.128zm7.254 2.115c-1.614-.054-6.071 0-7.353-.067 3.767-.003 6.866-.092 7.353.067zm-1.962-6.726c-.18-.026 0-.064-.795-.067-.051.034-1.075.025-.794-.032 2.229.025 1.691-.064 3.305-.063 1.255.049 1.102.185-1.716.162zm.395 4.678c-.64.007-.973.026-.845.064-1.512-.005-2.716-.024-3.254-.067.512-.017 3.945-.073 4.099.003zm-3.508.584c1.127 0 1.793.016 2.434.032l-.026.064c-1.511-.032-2.766.097-3.279 0 .948-.004.922-.05.871-.096zm3.895.424c-1.921-.032-5.2-.012-4.868-.131 1.614.044 5.867-.014 4.868.13zm7.683-.68c-2.023-.005-3.407.017-4.124.064 1.102.094-.691.173 1.512.262-4.073.104-2.921-.23-8.147-.102.307-.075-.077-.124-.743-.163 4.227-.03 8.53-.148 11.502-.06zm-8.359-3.416c1.434.019 4.842-.037 4.893.035-.589.025-5.687.085-4.893-.035zm2.825 2.928h-3.279c.486-.058.486-.134 1.716-.163-.666.1 2.229.063 1.563.163zm15.452 2.118c-2.536.123-9.069-.044-12.322.091.051-.044-.359-.07-.768-.098 4.611-.084 8.838-.028 13.09.006zm12.572-2.498c-1.588.058-5.431.023-8.198.03.051-.045-.359-.072-.769-.1 2.639-.031 3.587-.003 5.764-.094-.742.125 3.92.04 3.203.164zm6.601-3.898l-.051.13c-4.048-.146-9.709.065-13.04-.134 5.892-.055 6.84.063 13.091.004zm-4.252.358c-1.255.076-7.147.016-8.967-.068 3.024.02 8.455-.051 8.967.068zm2.671 3.281c-4.432-.037-6.661.03-8.992-.067 2.792-.04 5.815-.071 9.043-.093l-.051.16zm-4.005-3.965c1.511-.06 4.586-.014 5.713.035-1.306.051-4.381.006-5.713-.035zm9.642 4.195c.564.101-2.844.039-1.716.162-3.741.017-4.279-.09-6.482-.13 1.511-.048 5.482.003 4.175-.16 3.075-.026.462.17 4.023.128zm-.285-1.235c-.589.054-7.378-.009-5.713-.035 2.434.01 5.021-.087 5.713.035zm3.428-2.208c-.82 0-.999.026-1.666.031-.154-.182-6.507.063-6.507-.099 2.331-.067 6.917-.008 8.992.035-.486.002-.973.007-.819.032zm-8.032 5.261c3.356.108 8.761-.044 13.04.134-5.738.02-10.631.04-13.04-.134zm4.06-5.556l.051-.098c7.02.06 11.016-.057 17.139.137-4.56.038-9.914-.037-17.19-.039zm3.93 4.131c-2.614-.05-6.303.092-5.714-.035 2.434.008 5.022-.09 5.714.035zm-2.112-4.584c1.998-.066 5.944-.017 6.533.067-2.049-.027-7.071.06-6.533-.067zm10.657.004c1.639 0 3.279 0 4.918.002.974.194-5.277.128-4.918-.002zm2.243 6.144c-1.076.045-4.919.054-4.894-.034 2.101-.025 3.766-.047 4.894.034zm.194-4.194c1.666-.056 6.661-.045 7.353.035-2.229-.02-6.533.04-7.353-.035zm-1.376 3.154c3.895.02 5.816.034 9.018-.03-.793.222-7.199.015-8.3.224.41-.125.948-.116-.718-.195zm5.547-5.232c2.178 0 4.843-.018 4.894.066-1.153.045-4.97.03-4.894-.066zm3.025.587c3.279.012 4.56-.057 8.198-.029-.922.142-8.198.17-8.198.029zm5.509.489c-.077.162-2.895.048-4.099-.001 1.614-.06 1.486.019 4.099 0zm3.954 4.095c-2.946-.035-9.53.07-9.786-.07 3.997.123 8.556-.121 9.786.07zm-5.853-5.331c1.332-.047 4.1.029 7.379.003l-.051.13c-3.049-.02-6.533-.025-7.328-.133zm-.552 5.005l.051-.13c1.819.025 4.432.02 4.868.098-1.922-.001-2.434.056-4.919.032zm1.462.422c2.766-.032 1.23.101 1.563.163-2.895-.012-2.076-.085-1.563-.163zm6.676-4.089c.231.043 1.128.061.769.13-2.331.025-2.101-.047-4.073-.035-.205-.085 1.178-.106 3.304-.095zm1.377-1.268c0 .01.104.02.234.028a.795.795 0 01-.234-.028z" fill="#45BABC"/><path fill-rule="evenodd" clip-rule="evenodd" d="M903.566 5.866c.103.003.282.007.589.004 2.588-.146 7.379-.035 10.658-.028-2.152.11-9.889.114-11.247.024zm.527 5.789c-.513-.003-.974-.006-.795-.032 6.328.029 7.865.077 13.117-.029.64.093-1.204.083-.897.162-4.227-.018-5.277-.043-9.017.03.23-.085-.256-.14-2.408-.131zm5.457.587c-1.844-.023-6.404.057-5.713-.066 3.331-.03 3.792-.013 5.713.066zm5.161-6.206c-1.306.051-4.381.008-5.713-.035 1.306-.05 4.381-.006 5.713.035zm-3.381.227c-.077-.08-.077-.158 1.716-.162 1.281.049 1.128.185-1.716.162zm9.697 5.951c-1.05.006-7.608.093-8.992-.035 2.331-.022 8.198-.037 8.992.035zm-3.971-.262c1.204.161-6.02.056-3.279 0 .154.083 1.434-.046 3.279 0zm9.935-2.142c-1.358.195-10.53.022-11.478-.004 5.329.026 3.894-.13 2.562-.226 6.43-.152 2.229.297 8.916.23zm-.876-1.721c-.026-.042-1.025-.046-.769-.098 5.636.067 9.658-.162 11.452.037-5.124-.02-7.634.238-13.142.093 1.025-.003 1.127-.043 2.459-.032zm-.437-.878c2.152-.009 2.664.046 2.408.13-2.228-.002-3.92-.074-2.408-.13zm-1.402 3.183c3.536.006 7.429-.113 8.992.004-2.766.068-7.557.101-8.992-.004zm3.742.815c-2.024.004-3.381-.019-4.073-.067 1.255-.051 4.688-.045 4.073.067zm3.062-5.133c3.228.01 9.479-.092 7.353.067-.512-.007-8.788-.038-7.353-.067zm1.674 3.705c.154.084 1.435-.043 3.279 0 1.051.168-6.584.078-3.279 0zm1.508-1.625c.999-.036 2.92-.037 4.944-.031-.153.06-.589.107-1.69.13-.206-.068-3.638-.01-3.254-.099zm4.663.619c.026-.064-2.229-.043-1.588-.13 3.381-.024 4.176.05 7.353.035.487.129-3.151.091-5.765.095zm21.595-.706c.204-.05 1.357-.003 1.614.034-5.124.058-13.348-.123-13.962.06 3.945.061 7.429-.093 10.631.07-6.609.041-12.194-.026-18.803-.073 2.971-.067-1.589-.104-1.564-.162 7.737-.15 11.426.011 20.495-.025 1.947.043.461.062 1.589.096zm-18.01-.007c-.794.12 4.304.06 4.919.035-.103-.074-3.51-.016-4.919-.035zm4.613.653c1.537-.001 4.739-.07 5.713.035-1.665-.02-5.38.037-5.713-.035zm6.257 2.535a202.39 202.39 0 01-7.353-.035c3.612.026 5.79-.08 7.353.035zm-5.276.877c4.202.132 9.581.034 13.86.134-2.562.002-14.935.075-15.55-.038 2.843.03 2.843-.049 1.69-.096zm.23-.52c5.61-.003 10.605-.026 13.884.07-3.714.019-10.554.072-13.884-.07zm8.702-3.084h-4.099c1.383-.282.948-.103 4.099 0zm3.53-2.468l-2.51.096c0 .042 1.409.03 1.614.066-3.587.043-1.691-.126-4.868-.098-.18-.106 2.587-.092 3.33-.162.103.062 2.716.024 2.434.098zm-4.889 1.817c2.28-.03 7.404-.043 4.893.067-.102-.05-3.663.013-4.893-.067zm4.511.945c-1.435-.03-4.074-.013-4.893-.067.973-.038 6.327-.08 4.893.067zm-3.483.453c-.41-.047-1.179-.081-1.589-.13 3.484.004 5.713.057 9.812.035-.486.08-1.972.119-3.356.162-1.025-.086-2.613-.1-4.867-.067zm.735-3.543c1.409-.055 3.663.02 4.893.067-2.178 0-4.842.017-4.893-.067zm1.287 2.699c2.05.013 3.715.113 2.383.162-4.073.001-.487-.095-2.383-.162zm1.104 1.234c1.486-.03 5.072-.121 5.739.003-2.152-.027-4.56.097-5.739-.002zm1.737-2.142a81.259 81.259 0 002.485-.031c.103.037-.179.092.769.098.231-.05 1.358-.005 1.614.032-1.076.039-5.2.014-4.868-.099zm2.072-1.008c4.202-.062 8.352-.062 11.452.037-2.843.133-8.608.022-11.452-.037zm-1.168 4.583c3.408-.002 10.683-.042 12.272.038-4.099-.01-9.607.074-12.272-.038zm9.222-.485c0 .022-.025.043-.025.065-.051.02-.154.038-.846.031-.205-.049-1.793-.023-2.459 0 .051-.044-.359-.071-.769-.098 1.588-.06 1.486.02 4.099.002zm.897-.163c-1.537-.004-2.716-.021-3.254-.066 2.28.015-.564-.177 1.716-.162-.461.103 4.048.013 3.203.13-.026.055-2.28.018-2.485.064.512.005.974.008.82.034zm1.141-4.515c2.486.025 2.998-.032 4.919-.03 1.256.11-5.533.15-4.919.03zm2.205.586l4.099.002c.206.086-1.742.082-3.33.096-.026-.042-1.025-.046-.769-.098zm-.964 4.094c4.356.035.231-.07 2.511-.097.154.036.897.05 1.614.067.051-.02.128-.039.845-.032-.512.057 2.332.134-.076.162-.667-.097-1.255.075-3.279.031.589-.089-1.64-.066-1.615-.132zm3.755-4.841c1.69.02 5.405-.039 5.713.035-1.563.001-4.74.07-5.713-.035zm2.127.749c1.845.024 6.405-.057 5.713.067-.922.062-6.84.052-5.713-.067zm4.516 2.797c-.102.106-3.74.068-5.764.095l.051-.098c1.819.016 4.125.066 5.713.003zm-.799-1.918c3.408-.024 2.922.267 2.332.293-.948-.092-1.768-.188-2.332-.293zm5.224-.747c.205-.06-.897-.072-.743-.13 5.79.038 10.042-.052 12.247.101-2.23.031-6.688.004-11.504.029zm2.447 5.657c1.589.124-3.791.127-4.124.063 2.51.025 1.613-.09 4.124-.063zm2.956-6.759c2.511.026 1.614-.088 4.125-.063.666.088-4.176.207-4.125.063zm9.791.071l.05-.099c4.63.09 8.94-.072 13.88.07-4.71.111-8.17-.043-13.93.029zm6.12 1.009c-3.89-.025-5.41.024-6.53-.067 2.05.027 7.09-.06 6.53.067zm2.42 3.835c-.82-.147-4.05.095-5.72-.067.93-.006 1.28-.035 1.67-.064 1.72.012 6.69.058 4.05.13zm15.7 1.567c-2.17-.012-11.45.006-14.73-.039 2.95-.03 13.5-.081 14.73.038zm-12.74-2.769c3.59-.044 5.08-.236 9.05-.095-2.69.024-6.28.183-9.05.095zm-.81 1.885c2.59.006 2.18.129 2.36.228-2.79 0-2.36-.122-2.36-.228zm4.06-5.556c.97-.026 2.2-.041 4.1-.031.44.133-3.38.101-4.1.031zm12.33 3.645c.92-.006 1.28-.035 1.67-.064 2.1.006 2.84.06 4.04.1-1.97.022-3.94.022-5.71-.036zm3.72.878c2.15-.009 3.53.014 3.23.099-2.13.007-3.51-.014-3.23-.099zm5.66.165c-.44.103-1.1.196-3.38.226 1.15-.075 0-.242 3.38-.226zm-.8-3.803c3.12-.015 5.09.017 5.68.1-2.61-.005-6.27.03-5.68-.1zm3.46 3.349c.03.13-4.3.1-4.92.031.98-.038 2.9-.037 4.92-.031zm4.23-.291c-2.49-.022-7.07.038-8.17-.035 1.58-.026 5.91-.056 8.17.035zm6.64 1.693c-4.92.005-7.07.034-11.51.06-.02-.042-1.02-.046-.76-.098 3.71-.005 10.11-.09 12.27.037zm-8.52-3.024c3.23-.026 7.15-.01 9.82.069-3.26-.025-9.12.05-9.82-.07zM1058 9.928c-3.08-.047-7.02.012-10.61-.07 2.74.006 9.81-.144 10.61.07zm-5.08-3.415c2.48-.044 5.97-.046 6.53.067-2.87.06-4.33-.018-6.53-.067zm3.05 4.291c2.49 0 5.41-.017 4.87.098-2.3-.048-4.17.042-4.87-.098zm2.26-1.43c-1.03-.098-.64-.16 1.71-.194-.1.104 2.13.195-1.71.194zm6.1 2.896c1.59.18-7.04.164-7.4.061 3.28.013 6.07.006 7.4-.061zm7.6-2.37c-4.17.042-9.14.05-13.09-.038 3.72-.024 7.69-.025 13.09.038zm-8.83 1.426c-.85-.074-3.03-.095-4.02-.162 3.38-.004 6.32.011 8.14.067-2.28-.007-1.92.096-4.12.095zm.89-2.014c.46-.103-4.05-.012-3.2-.13 7.45.054 15.19.015 3.2.13zm3.76-1.136c1.44.041 4.77.008 5.72.067-3 .047-3.9-.01-5.77.096-.08-.082-1.51-.1.05-.163zm-1.07 2.504c2.49.024 2.44-.056 4.92-.032.18.046 1.33.055 1.59.098-1.61.002-5.92.082-6.51-.067zm4.18-.228c.95.062 4.3-.15 5.74.003-1.23.027-8.38.111-5.74-.003zm7.07-1.167c-1.67-.02-5.72.05-4.9-.067 3.1-.015 3.77-.038 4.9.067zm-2.65-3.315c5.89-.098 8.94.03 13.14-.061-1.59.184-10.37.07-13.14.06zm5.25 1.105c-1.43-.018-4.84.038-4.89-.034 1.05-.043 4.92-.054 4.89.034zm3.51-.517c4.1-.047 8.84-.002 11.48.004-1.85.13-8.74.106-11.48-.004zm1.39 2.438c-2.15.009-2.66-.046-2.41-.13 2.21.002 3.9.075 2.41.13zm-.8-1.95l8.2.003c.79.149-7.3.071-8.2-.003zm6.02 1.237c2.95.035 9.53-.07 9.79.069-2.43-.07-8.4.09-9.79-.07zm5.73 3.707c-.52-.076-6.28.083-6.51-.066 2 .051 8.22-.1 6.51.067zm-2.09-6.402c2.17 0 4.84-.015 4.89.066-1.69-.02-5.71.05-4.89-.066zm3.11 4.127l-4.92-.003.05-.098c3.2.072 2.87-.129 8.22-.061 1.26.157-6.17.044-3.35.162zm-1.11-1.203c2.18.023 5.1.016 6.53.067-2.07-.027-7.09.06-6.53-.067zm-.07 3.835c1.08-.045 4.03-.05 4.08.034-1.05.045-4.03.05-4.08-.034zm11-6.364c2.82.015 4.61-.011 6.59-.03-.41.143-4.49.083-6.59.03zm5.09 5.136c-3.2-.039-5.74.095-6.54-.035 1.82-.018 6.13-.08 6.54.035zm-5.05-1.529c2.97-.049 3.97-.007 8.2-.029.38.115-7.38.071-8.2.03zm1.26 2.665c-2.56.014-2.59-.07-2.38-.162 2.07.013 3.71.111 2.38.162zm3.14-5.165c3.23.009 6.79-.065 8.17.07-3.05-.05-6.1.048-8.17-.07zm7.22-1.493c2.41-.036 3.05-.017 4.07.067-1.53-.015-4.97.043-4.07-.067zm4.33 1.302c-2.1.023-3.79.047-4.89-.035 1.07-.042 4.92-.053 4.89.035zm-1.26-.846c-.05-.056.23-.1.87-.128 2.75.112 7.43-.047 8.15.133-4.1-.02-4.89-.02-9.02-.005zm-.48 1.104l.05-.096c4.79-.06 8.61-.04 9.79.134-4.23.034-5.33.03-9.84-.038zm2.33-1.523c5.68-.025 10.71-.019 17.21.042-5.4-.01-12.01.072-17.21-.042zm2.75 6.532c-3.15-.027-3.99-.143-5.61-.229 1.1.001 2.18.001 3.26.003.51.084 1.48.154 2.35.226zm5.37-6.366c-1.33.047-5 .005-6.56-.035 1.36-.048 5.02-.006 6.56.034zm-1.68 3.64c.1.053-5.08.05-4.92-.003 1.15-.01 5.02-.144 4.92.002zm16.45 1.536c-5.56-.015-16.14.095-19.58-.075 10.48.09 13.89-.166 19.58.075zm-12.9-3.909c-.28.074 2.36.036 2.41.098-.97.027-2.2.041-4.12.03-.18-.074.28-.12 1.71-.128zm.31 2.893c-.94.083 2.72.168-.89.162-.92-.07-1.64-.15-2.36-.228 10.4.06 22.06-.07 30.21.084-7.51.052-15.71.053-26.96-.018zm5.32-4.417c-.69-.048-.59-.125-3.22-.099l.05-.096c2.4-.007 4.92.147 3.17.195zm-2.37 1.591c1.56-.013 2.1-.069 4.12-.061.33.061 1.74.082 1.56.162-1.61.01-1.61-.044-2.43-.066-2.05.002-2.59.06-3.25-.035zm12.09.432c-4.2-.01-9.48.023-11.45-.072 3.79-.009 9.35-.06 11.45.072zm-10.37 4.64c-.38.06-.36.139-2.51.128l.05-.13 2.46.002zm9.65-6.558c1.84.023 6.43-.055 5.71.068-2.54 0-4.56-.02-5.71-.068zm10.85 6.311c-.44-.085.38-.117 2.48-.096 1.49.059-.38.095-.9.162-5.2-.052-6.96-.04-11.37-.106 2.74-.01 7.38-.127 9.79.04zm-6.73-4.684c-.59-.125 3.97-.121 3.28.003-1.07-.002-2.17-.003-3.28-.003zm2.5 4.975c2.33.18 4.84.058-.1.194.92.08 3.43-.076 3.23.066-2 .003-3.92.003-4.87-.035-.03-.101.46-.179 1.74-.226zm8.78-1.229c-4.45 0-7.3.051-8.99.027 1.21-.049 2.74-.084 3.33-.16 2.74.076 6.23-.072 5.66.133zm-5.51-3.775c1.71-.008-1.18-.09 1.69-.096 1.84.16 6.56.017 8.96.137-4.61-.005-8.83-.011-10.65-.041zm14.63.27c-3.69.087-10.25.106-12.3-.01 5.28-.016 8.04.068 12.3.01zm-10.96 3.924c1.2-.004.79-.077.87-.127 2.49-.01 1.64.106 2.36.164-1.21-.007-3.02.01-3.23-.036zm9.52-5.973c-1-.102-1.1.09-.05.096-3.51-.03-1.49-.128-3.16-.26l2.46.002c-1.58.107 3.67.11.75.162zm-5.53 4.482c9.89-.001 12.66.037 4.08.036-.67 0-3.9.113-4.08-.036zm10.41 2.024c-4.31-.08-2.56.06-4.95.125 1.34-.167-3.66-.091-3.97-.197 4.72.076 7.25-.124 8.92.072zm-3.31-1.531c-3.84.007-2.1-.151.08-.162.54.1.56.063-.08.162zm3.82 2.083c-2.43.028-5.3.057-6.48-.037 1.92.022 5.92-.035 6.48.037zm3.63-2.271c.59.125-3.97.121-3.25-.002 1.08 0 2.15 0 3.25.002zm-1.02.39l-.1.194c-3.28.014-1.1-.189.1-.194zm4.09-4.711c.08-.056-.13-.102-.74-.13.64-.008 1.61 0 1.66-.032 4.59.231 6-.052 13.09.11 1.15-.139-2.28-.105-3.2-.165 1.92-.008 3.15.009 4.1.037l-.1.194c-7.33-.047-8 .036-14.81-.014zm3.86 6.634c.05-.13-4.92-.066-6.43-.135.97-.014 1.87-.032 2.45-.062 2.03.02 6.54.11 3.98.197zm5.67-6.007c1.13 0 1.79.018 2.43.035l-.02.064c-.82.028-5.18.008-6.56-.04 1.28-.094 4.66.076 4.15-.059zm3.89.394c-1.43-.02-4.84.033-4.89-.037 1.08-.044 4.92-.051 4.89.037zm-2.12-.62c1.33-.047 5.02-.001 6.56.04-1.67.057-5.1.003-6.56-.04zm14.78 1.446c-3.71.04-9.96-.03-14.75.016l.05-.098c5.53.006 11.09.007 14.7.083zm-8.25-1.374c1-.062 6.02-.164 5.76.007-2.15-.03-4.58.092-5.76-.007zm5.39 3.551c1.2.101-5.38.095-4.08-.004l4.08.004zm4.46.784c-2.87-.031-4.26.078-4.87-.039 1.82-.01 4.46-.068 4.87.04zm2.91-5.066c-.11.056.12.101.74.13-2.38.004-4.18-.014-4.9-.07 1.57-.012 1.54-.092 4.16-.06zm-6.86 4.833l.15-.258c2.23.015 3.31.302-.15.258zm13.26-4.533c-.97.004-2.33-.009-2.48.03-.21.024-.06.064-.88.064.8-.156-5.3-.056-4.81-.201 2.74-.042 5.89.04 8.17.107zm4.72 4.43c-1.02.056-.25.188-1.76.224-1.31-.061-1.03-.24 1.76-.224zm12.91-1.088c-.61.026-5.71.08-4.87-.039 2.05-.02 3.39-.027 4.87.04zm8.81-3.497c1.05 0 1.18-.04 2.48-.028.54.125-5.38.06-4.1-.038 1.03.003 1.95.011 1.62.066zm15.57.124c-1.2.203-16.26.036-16.47.004 6.87.016 12.45.02 16.47-.004zm-9.55.731c-1.28.047-5.66.049-4.89-.073 2.2.005 4.86-.01 4.89.073zm2.19 4.069c-1.87.178-1.93.13-4.9.024 2.46.028 3-.027 4.9-.024zm6.85-4.052c-.66.072-4.61.005-6.58.02l.07-.097c2.62.072 5.05-.102 6.51.077zm-1.38-.36c4.71.049 11.6.017 13.88.158-3.89-.081-12.78.023-13.88-.158zm2.17-.81c3.1.029 4.54-.142 4.92.043-1.41-.021-4.84.029-4.92-.043zm21.24.338c5.36.14 12.35-.028 16.4.137-6.54-.09-13.07.12-16.4-.137zm-.7 5.302c.07.093-.03.176-2.57.156.34-.075.93-.137 2.57-.156zm.92.912c-1.26.14 2.66.091 2.28.2-1.74.066-2.61-.01-4.02-.042-.05-.08.51-.133 1.74-.158zm6.21-6.004l4.12.01c-.4.07-5.17.24-5.84.084l2.49.007c.05-.045-.36-.074-.77-.1zm-.35 4.718c-.74.083 2.31.182-.18.226-.41-.073-2.58-.22.18-.226zm13.69 1.142c-2.98.003-2.34-.125-3.08-.203 2.92 0 1.74.146 3.08.203zm8.6.35c-.02.043-.07.087-.1.131-3.12-.035-4.15-.044-6.48.015.08-.044-.31-.071-.72-.098 3.2.016 5.95.016 7.3-.047zM16.682 8.808c3.304-.02 3.688-.159 6.634-.192 1.384.045 6.405.112 7.353.068-2.332-.31-7.533-.55-7.816-.85 2.51-.045 4.38.017 7.352.036 2.485-.152.692-.274.204-.454-.845.024-3.099.154-4.124.064.64-.008 1.614 0 1.665-.032-.82 0-.973-.026-1.614-.032-1.383.053-4.816.023-7.377.029-2.69-.335-2.41-.661 1.253-.974-4.125-.073.384-.112-3.177-.23 3.612.03 5.994.109 9.76.134-1.05-.13-.155-.335-4.766-.326-.794-.13 1.332-.143 2.536-.194-4.406-.179-2.05-.531-2.948-.782.974-.016 1.87-.034 2.485-.064-1.23-.093.743-.162-1.512-.293 2.024-.003 3.945-.004 4.893.034-1.153-.065.896-.114-1.563-.162 2.587-.105 1.485-.23 5.046-.323.051.062 2.69.024 2.408.099-1.204.07-1.973-.042-2.46.031.308.064 3.152.027 2.41.131-1.512.004-2.742.02-3.305.064 3.586.03 1.973.114.743.195 5.534.134 7.403-.045 11.527-.125-1.332-.107-2.05-.105.897-.162-4.612-.118 2.612-.412-.565-.585 1.101-.033 3.074-.03 3.33-.096-1.46-.125 1.33-.645 7.709-.744 1.204.198 1.743.333-1.844.454 2.87.198-2.125.286-1.049.52 3.664.005 5.15-.076 7.43-.128.28-.063-1.077-.065-1.59-.098 1.563-.006 1.794.038 3.254.034-.231-.252 3.74-.331 3.534-.584 6.455-.035 1.075-.351 7.53-.386-2.663.215-1.612.668-5.275.843 1.64.022.462.151 2.383.163 11.579-.085 6.838-.845 16.854-1.066 2.357.127-.948.255-2.587.323 1.794.134 2.332.215.693.325 6.072.361 8.709-.335 12.5-.482.128.038 1.28.035 2.433.032-1.383.106-.768.16 1.563.195-4.918.032 1.64.21-2.612.325-1.434.018-4.79-.04-4.918.032.128.12 2.869.092 4.893.067 1.511.065.717.139 1.563.163 2.92-.047 3.919-.17 6.66-.224-1.076-.08-1.64-.02-2.434-.067 4.15-.058 2.689-.155 3.406-.323 2.895.03 4.252-.082 4.893.035-4.252.038 1.179.236-.153.358-2.126.063-3.74-.036-4.918.031 1.358.11 5.303.016 8.172.068.205-.09.589-.17 3.381-.227-1.973-.198 2.894-.225 3.483-.453 1.562-.036 3.894-.04 5.764-.064 1.767.096-2.049.185-3.381.259 2.228.05 0 .194-.922.227 2.024-.005 3.971-.006 4.073.066-1.588.06-1.486-.02-4.099 0 .897.102-1.331.08-1.69.13 5.738-.023-1.204.127 1.563.163 6.25-.229 10.374-.547 16.726-.773.487.174-2.279.236-1.023.454-1.204.017-4.202-.04-4.099.032 1.665.01 1.563.088 3.228.098-.692-.112 2.69-.054 3.305-.031 1.229-.188 4.252-.058 4.918.003 1.972-.03 2.228-.13 5.764-.096.307.055-1.255.083-.051.098 3.099-.145 2.126-.004 8.197-.028.205-.035 1.383-.078 1.665-.032-2.1.014-1.434.14-3.355.162 3.868-.067 15.14.081 11.553-.16 2.459-.045 2.766.029 4.918-.03.999.1-2.869.163-.896.194 1.563-.003.614-.108 2.51-.096.564.121 2.254 0 4.868.067.717-.038 1.127-.087.896-.162 6.225.055 12.885-.155 17.215-.026.307.055-1.256.083-.052.096 1.922-.008 3.1-.049 5.739-.029-.154-.046-1.333-.055-1.589-.099 6.277.046 17.241.097 21.314-.025 2.715.127 6.66.037 9.017-.028 2.152.183 8.633.082 11.425.102-.973.014-1.87.034-2.484.064.819 0 .973.026 1.639.032 1.896-.113.846 0 2.459 0 6.533.007 17.83-.109 22.083.106.076-.056-.129-.102-.769-.13 5.175.074 7.788.016 13.936-.027-.359.1 2.946.056 3.228.131 1.639-.031 2.894-.08 4.149-.127 1.999.04-1.741.122.744.162 1.92-.165 5.277.026 8.223-.06-1-.085-4.022.029-4.074-.035 1.691-.073 9.171-.07 7.353.035-.487-.031-.692.096-2.536.162 2.562-.016 2.638-.134 5.789-.128 1.665.01 2.152.066 3.228.1-.615-.08 3.945-.076 3.279 0 .205.102-2.331-.083-2.485.032.385.081-.102.196 2.383.195.359-.08-1.46-.071-.743-.163 1.588-.06 2.049-.003 4.099 0-1.691-.068 1.126-.12 2.535-.162.436.057-1.075.191.744.195.742-.21 7.3-.089 11.502-.093 1.921.17 2.587.103 5.61.262 1.409-.101-2.997-.133-.743-.162.538-.012 2.331.012 3.279 0 .435-.14-2.178-.043-2.408-.099 1.229-.005.794-.078.87-.13 4.253.032 7.481.009 9.761.166-2.049.04-3.945-.075-4.099 0 1.973.027 7.711.11 8.198.003-2.024-.042-2.562.016-3.254-.035 1.691-.008.82-.12 2.51-.128.078.122 7.865.114 4.023.197 5.687-.057 11.656-.037 14.73.039-.999.1-2.05-.006-3.305.063 1.051.046 3.536.034 5.713.035-1.23-.147 3.612-.215 4.15-.095-2.178-.02-4.227.132-2.536.162 2.28-.108 6.686-.146 10.682-.093.461-.057.487-.135 1.716-.162-.256.105 2.511.094 3.203.163.742-.104.717-.068-.769-.13 2.767.057 5.072-.013 8.197-.03.231.064-1.127.063-1.69.096 2.69.06 2.536.065 6.507.1-.564-.025-1.973-.16.871-.13-1.153.16 2.459.138 2.357.26-2.613-.027-1.691-.027-3.279.032.256-.074-.154-.122-1.589-.13-1.127.064-5.712-.013-5.763.095 4.099.027 1.973.24 2.332.262.845-.109 1.613.036 2.433.032-.922-.066 1.358-.153 1.665-.064-1.229.005-.794.078-.87.13 2.126-.083 3.97.01 4.892.068-.077-.08-.077-.159 1.717-.163.973.058 2.51.095 3.202.163-.026-.044.41-.07.871-.096-2.127-.045-4.458-.084-4.817-.198 3.843-.049 5.995.037 6.456.198 2.05-.08 1.717.069 4.893.035.051-.042 1.076-.044.871-.096-2.613-.02-2.562.06-4.099 0-1.23-.128 2.152-.068 2.51-.129-.819 0-.999-.058.026-.064.026.138 4.534.102 6.481.165-1.101.021-1.562.068-1.69.129 1.716 0 3.15-.176 4.15-.096-2.075.06 1.358.005 2.459 0-3.202.114-1.69.32-.998.422.384-.105 4.406-.062 5.789-.128l.026-.064c-2.511-.044-4.586.095-5.739-.003.641-.007 1.614 0 1.64-.032-.641-.006-1.614-.002-1.614-.032 7.121-.03 10.196.05 13.935-.06-.05.138 4.996-.048 6.533.067-.769.034-3.023.009-2.51.096.845.038 3.765.013 4.918-.031-1.742-.049.948-.093-1.563-.131 1.896-.01 3.125.007 4.073.035-2.023.133-.742.206-4.226.29 2.485.025 2.434-.056 4.919-.031-2.588-.103 5.789-.098 2.561-.227.871-.022 3.817-.125 4.918-.031-1.998-.052-2.459.11-.87.096.025-.064 2.254-.041 1.69-.13-1.076-.002-.717-.057-1.614-.067.333.054-3.049-.003-3.254-.032 3.945-.013 3.151-.07 1.716-.163 3.536.034 3.177.218 5.611.294-.307-.08 1.537-.07.897-.162 3.842-.021 3.791.11 6.481.131.051-.076 3.945-.165 4.969-.095-1.434.183-8.069.056-9.913.159 3.612.038-1.357.143 2.332.326 4.15.018.512-.258 4.969-.128-2.023.022-.204.096.794.032.052.198-6.992.361-1.023.486-.128-.05.589-.286 4.201-.226-2.254.079.666.046 1.639 0 .128.048-.333.119.769.13 1.793.006 2.305-.071 2.51-.128 1.666.109 3.484-.054 4.944-.063-3.125.143-1.306.153-4.201.226.974.008.487.037-.025.064 4.201.029 6.225-.032 9.017-.06.898.353 8.479-.154 9.017.003-.23.06-1.332-.02-1.665.032 1.512.058-1.152.1 1.589.13.256-.066 3.074-.029 3.33-.095-.052-.1.461-.18 1.741-.227.18.025.666.038 1.614.032 1.307.104-3.099.132-.896.163 1.998.021 3.074-.156 4.124-.064-3.048.075 4.688-.043 1.614.033a92.25 92.25 0 00-2.485.063c1.538.009-.486.054.795.067 1.844-.075 3.202.013 5.738.003 3.33-.088 3.867-.368 7.48-.224-1.46-.005-1.947.03-1.691.096l4.919.003c1.255.127-3.535.01-3.305.096 1.614 0 1 .09 3.254.066.102-.05-.052-.112 1.69-.098 2.511.065-2.894.161-.896.195.64-.148 4.688.037 4.944-.096-.154-.036-.897-.05-1.614-.066-.205.024-.051.064-.845.064 0-.11 2.459-.12 4.149-.162 1.896.024 1.128.148 3.203.163.973-.048.768-.144 3.33-.128 1.204.081 1.589.193 3.997.23 5.507.017 5.712.016 12.27.037-.102-.124.666-.011 2.46-.031-.564-.09 1.665-.064 1.69-.129 3.407.033 4.586.008 7.327.1-.538.055-3.894-.005-4.124.064h3.279c1.024.076-.436.073 1.588.13-1.204.018-4.227-.04-4.124.032 0 .022-.026.043-.026.065 5.943-.09 12.015.145 14.781-.093.513.098 2.767.129 5.662.132.128-.089-1.332-.067.051-.13 5.867.096 5.2-.099 11.502-.061 1.793.094 3.945.057 8.146.101l.051-.13c2.639-.026 1.666.084 3.228.099 1.332-.045 2.639-.09 4.15-.128.666.105-1.332.1-1.69.162 5.2.006.384.072-.871.097 4.893.008 6.122-.04 8.992.035.281-.077 2.561-.072 3.33-.128-1.179-.1-4.688.067-4.048-.067 7.198-.123 17.957-.075 24.541.042 1.358 0 .487-.09 1.691-.096 2.126.077 8.018.01 8.94.134-5.328-.036-2.228-.033-3.304.063-.205-.045-1.768-.038-2.434-.066.154.136-2.638.148-.102.259-1.357.055-5.149.01-4.969.128 7.762.132 6.608-.389 11.527-.157-1.306.091-2.946.005-4.149.128l11.45.003c-.205-.073.256-.123 1.691-.13.128.048-.333.12.769.13 2.177-.036 2.561-.027 1.69-.13 2.562.023 3.356-.001 4.073.035-1.024.013-1.69.042-1.69.096 13.756.035 23.747.142 37.632.08.589.083-3.279.148-.897.195 1.102-.02 1.563-.07 1.691-.13 16.677-.017 23.798.098 40.885.179.41-.04.897-.073 1.691-.097 2.357.186 5.175.057 8.966.1.436.118-1.024.157-1.741.227 1.05.001 1.127.041 2.433.034.512-.111 1.639-.198 3.381-.258 1.461.14 5.482.055 7.302.166.64.038-1.204.163 1.613.034 1.512.125-.46.186 1.513.293-3.177-.052-1.742.085-3.33.096-.513-.043-1.717-.06-3.254-.066 0 .032-.666.037-.845.064 1.768.122 1.46.169-.922.259 2.05-.005 2.536.05 3.228.099-1.229.004-3.023-.013-3.279.031.846.085 4.253.069 4.842.164-.384-.084-1.332-.126 1.691-.129-.333.108-.461.204 3.228.131 0-.054-2.28-.018-2.434-.066 4.073-.066 3.638.172 5.636.23 2.255.014.82-.12 2.511-.129 2.023.028 2.818.104 4.022.164.947-.06 1.024-.157 4.149-.128-1.895.096-3.918.24-.972.357-4.714-.174-7.993-.264-6.558.031-.999.079-3.074-.067-4.099.032 3.433.092 5.354.086 9.812.035.794.157 4.457.016 5.687.132-2.895.067-8.531-.07-6.609.127-2.28-.018-4.227-.048-6.532-.067-.743.018-2.049.175-2.511.096.384-.06 2.357-.057 1.716-.162h-2.459c1.025.043.999.12-.076.162-5.021.018-12.476.005-16.37-.006h1.64c-2.46-.057-.154-.146-1.563-.195h-1.64c1.794.182-4.149.3.641.421-2.536.024-1.537-.09-4.073-.066.718.056.205.162 1.563.195 3.099-.202 11.502-.075 16.37.006-2.998-.007-4.381-.038-5.739-.003 1.743.068-.153.105-.896.163-6.302-.052-9.094-.14-13.936.028.077-.057-.589-.083-1.588-.099-.512.056-3.894-.003-4.124.064 3.253.038-1.665.226 3.177.23 1.716-.019 1.767-.051.871-.1 3.253-.013 4.38.077 5.738-.028.102.038-.179.092.769.098.435-.04 2.074-.197 3.33-.096-1.973.113 4.662-.026 3.228.131 2.613.02 2.561-.06 4.098 0 .026-.031-.64-.038-.794-.065 2.536.026 10.683.141 6.558-.03 6.635.075 14.141-.062 17.958.138 3.433-.014.589-.026 3.33-.096.564.193 7.659-.026 8.941.166.922-.073 3.125-.094 4.175-.16-1.46-.02-3.382-.019-4.073-.067 1.127-.08 3.023.037 3.279-.032-.18-.114-2.203.001-2.434-.066 1.383-.114 9.145-.076 8.146.101-1.87-.01-3.074.007-3.304.064 1.178.02 1.972.052 2.408.099-2.049.04-3.356-.097-4.099 0 1.691.051 5.252.03 5.688.13l.051-.098c18.547.064 36.633.157 49.902.15-.512.078-1.331.152 1.563.163.717-.092-1.127-.086-.743-.163 2.895-.018 2.639.155 4.893.067-.153.08-.23.157 1.563.163.128-.12.948-.092.076-.195 5.124.027 14.987.074 21.263.106.717.056.205.162 1.563.195.256-.135 3.023.037 4.124-.064-1.024-.046-3.996-.015-4.047-.099 1.511-.017 11.783-.085 10.631.036.179-.07-2.895-.015-4.073-.035 0 .048-3.1.132-.897.163 1.614-.032 2.587-.16 4.944-.064.231.064-1.127.065-1.69.096 2.459.047 4.38-.014 6.583-.063-.487-.045-3.151-.007-3.253-.067 1.818-.018 6.148-.08 6.532.035-.999.005-1.947.009-1.665.065 1.384.11 6.763-.006 6.507.099-.742.096-2.049-.044-4.099 0-.102.088 1.333.064-.05.13-4.074.011-.411-.098-2.409-.131-.358.055-1.05-.008-2.459 0-10.119.085-19.392-.022-27.82-.077.461.001.947-.026.025-.032-.179.024-.692.038-1.665.032.026.042 1.025.046.769.098-4.125-.014-9.991-.131-13.065-.07 1.076 0 1.076-.089.051-.098-4.97.023-5.149.092-7.48.258-2.459-.059 2.28-.1.051-.13-.794.077-4.175.049-4.969.127-2.204-.143-3.997.007-5.764.063-.359-.101 1.998-.133-.743-.162-1.793.004-1.793.08-1.716.162-1.973-.031-3.945-.061-5.687-.1 2.561-.033 5.046-.071 5.763-.095-5.072-.098-9.247.1-11.578.224-1.973-.046-.487-.066-1.589-.1-3.689.05-2.177.036-5.738.032-.154-.106 3.202-.067 3.356-.162-4.868.057-4.791-.063-5.688-.1-4.585.075-11.963-.052-15.6.125 2.613-.026 3.099.029 4.073.067 2.228-.154 4.637-.05 9.043-.061.051.112-4.278.046-4.97.128-.179-.026 0-.065-.794-.067-4.713.05-3.816.232-3.457.421-2.306-.125-3.868.078-5.713-.067 2.357.007 4.457.006 4.15-.096-4.637.065-9.325-.118-14.781.093-8.993-.3-19.623.04-26.95-.173-6.917-.002-8.299.286-5.122.485 3.791-.067 3.356.06 7.377.003-2.254-.089 2.024-.056 2.511-.128-2.46.038-3.459-.138-1.563-.163.717.057 2.997.056 3.228.131-1.921.067.871.137-1.716.195 1.691.072 6.993.006 7.301.133-8.761.013-10.99-.155-21.313.058 2.51-.022 2.971.033 4.893.035.204-.025.051-.065.845-.065 1.179.17-3.791.09-4.175.194.307.042 1.024.066 2.433.067 4.227-.094 10.145-.085 15.525.07 3.919-.219 11.195.111 15.575-.025.82.042.743.12 1.563.163-1.691.034-5.149.066-6.635.192-2.536.024-1.537-.091-4.073-.067.026.044-.41.071-.871.096-4.739-.017-9.248-.039-13.91-.006-.794-.044-1.306-.1-2.408-.13-.333.046-.999.054-.051.098-4.252.03-3.51-.133-4.022-.164-1.87.023-.333.186-3.356.162.743-.142-1.819-.272-5.585-.326-.051.043-1.076.045-.871.097 2.92-.097 3.382.106 3.177.229-2.51-.024-1.563-.023-4.099 0-.768-.061 2.511-.109.051-.131-1.665.012-2.407.228-4.969.096.896-.008 1.998-.053.845-.065-2.357.026-4.38.065-6.583.096-.769-.085-6.379-.09-8.172-.036-.359-.137-3.869-.203-2.307-.325-2.561.022-7.659-.02-4.867-.1 1.511.021 8.915-.07 6.481.166 2.076.03 4.612.054 5.739-.029-1.614-.022-3.561-.11-.769-.13.948.047.641.144 3.228.13 2.587-.04.461-.067 1.716-.162 5.943.12 11.169.054 16.369.038-3.279-.064-4.637-.204-7.25-.296.897.066-1.357.156-1.665.064 2.075-.06-.794.02-2.459 0-1.614-.105 3.279-.1.87-.13-3.381.07-3.893.169-3.355.162-1.05.048-2.357-.08-4.099.031-2.1-.077-1.844-.152-5.687-.1-.538-.098.896-.118.896-.194-3.535.04-.948-.154-4.022-.131.513.13 2.511.237.641.39-1.383-.021-1.306-.1-2.408-.131-.256.085-5.636.059-7.378.029 1.255-.027-.205-.048.871-.13-7.07-.004-5.252-.21-11.375-.2l-.05.097c-5.995-.07-14.654-.064-14.654-.2-.154.038-1.306.034-2.459.031l-.051.097c-4.996.019-7.43-.134-10.657-.004-.103-.038.179-.093-.769-.099-2.433.094-5.072-.014-7.403.096-2.306-.14-4.765-.104-9.786-.102-1.025-.082 2.459-.134.077-.163-2.69.034-4.304.11-7.429.128.922-.083-3.484-.115-.743-.163 1.819.096 1.87-.053.025-.065 8.147.086 13.321-.05 19.598.138-.18-.046-1.333-.055-1.589-.099 4.099.035 9.222.057 10.657-.028 1.665.074 6.071.042 8.146.1 2.28-.178 8.121.015 10.632.035-.18-.046-1.333-.055-1.589-.099 4.022-.029 6.737-.117 9.017.004-.205-.058 3.894-.1 1.691-.13-.487-.003-.974-.006-.794-.033 2.177.025 8.633.165 9.017-.029-4.509.067-8.147-.003-11.426-.07l-.076.163c-5.149-.032-5.508-.084-9.017.029 1.075-.099.691-.126-.718-.195a923.62 923.62 0 019.862-.093c-.179-.026 0-.064-.794-.064-4.534.056-5.969-.073-10.682.06.281-.159-6.43-.05-7.301-.166 3.816-.028-.539-.09.05-.13 3.894-.258 20.264.1 22.159-.121-7.327-.084-12.142.114-17.138-.137 1.921-.02 2.228-.108 4.15-.128 1.998.043-1.512.097.768.13 5.482-.014 8.992-.129 13.91.006 1.05-.269 3.946.104 9.069-.127 3.74.186 7.3-.055 9.786.134 2.177-.01 2.894-.08 4.944-.095.102.037-.18.092.768.098.026-.054 2.28-.017 2.485-.064-1.153-.06-.128-.1-.718-.227 1.921-.058 3.433.09 5.738-.031-1.178-.072-2.101-.154-5.687-.131.257.171-4.406-.032-5.559.109-.025-.08-1.844-.15-.154-.177l-.025.065c3.919.009 7.045-.05 8.223-.061-.666-.115-3.971-.146-3.177-.23-2.126.228-8.147-.023-10.708.16 1.076.047 1.563.256-.921.258-.18-.025-.667-.038-1.614-.032 4.047-.088.332-.29-.616-.456-5.175.01-.999.13-2.536.194-.026-.02-.102-.038-.794-.032 0 .018-.666.036-.82 0 .64-.05 1.972-.207-1.588-.131.23-.18 4.073-.06 5.789-.128-1.128-.063-4.227-.05-5.687-.099-1.691.03-.769.168-3.356.162-.538-.085 1.87-.144 1.741-.259.641.047 3.843.012 4.099.001-3.202-.049.179-.038.051-.13-1.127-.022-.077-.125-1.588-.131-.923.006-1.281.035-1.665.064 0 .042 1.409.03 1.614.064-1.589.012-.692.126-3.33.096.588-.136-2.998-.13.076-.195-1.102-.047-3.894-.019-3.33.096-4.329.018-.461-.133-2.383-.163-3.278.225-2.74.235-3.279.032-.922.006-1.281.035-1.665.064 0 .042 1.435.03 1.614.064-.64.008-.973.027-.845.065-2.331-.06-6.661-.101-7.403.06 2.664-.094.718.186 4.867.132.154.162-5.455.261-8.273.192 5.02-.026.025-.095-.744-.163 1.23-.005 3.023.013 3.305-.032-1.691-.052.614-.258-3.177-.23-.589.118 1.716.125 1.537.228a85.873 85.873 0 01-5.712-.067c-.666.156-2.972.04-4.97.128-1.179-.092-1.614-.215-2.306-.326 2.254-.023 1.614.064 3.253.067-.025-.045.41-.072.871-.099-5.943-.06-9.965-.161-14.704-.07-.103-.038.179-.093-.769-.099-2.946.063-1.639.042-4.919-.003.923.195.436.25 3.946.326-2.049.116-9.35-.016-9.811-.035 2.357.006 4.175-.008 4.944-.064-4.586.019-1.614-.122.051-.13-1.947-.042-3.51-.098-5.688-.132-2.382.028-.947.049-.87.13-3.561-.007-1.461-.056-1.563-.162-2.203.037-4.791-.065-4.919-.003l-.102.227c-4.227-.105-3.843-.168-8.864-.329-.435.102 1.102.128 1.537.196-5.763.033-.231-.179-4.842-.166-.204.06.897.072.769.13-1.69.065-1.588-.014-3.253-.034-.948.159-5.584.288-1.818.422-.794.078-1.562.156-2.561.226 1.459-.204-9.3-.103-10.504-.297 1.639 0 1.076-.088 3.304-.063.052.05-.153.112 1.589.098-1.358-.083.999-.112-.743-.163-1.409.05-3.664-.04-4.944.064-.461.103 1.434.115.717.227-2.228.001-1.614-.054-3.279 0-.461-.09 1.153-.258-.692-.294.077.11-1.793.229-4.226.323-5.943-.04-13.167-.018-18.419.034a63.298 63.298 0 00-2.1.023l2.1-.023c2.946.01 5.073.195 8.531.093-1.691.036-3.868-.053-1.614-.066.717.088 2.587-.045 4.918.002 1.256.048.641.167.718.26-3.356-.13-10.195.081-13.065-.103 1.23-.005 3.023.013 3.279-.032-.666-.112-3.279.008-5.712-.067.281.062-2.562.257 1.537.262 3.279-.15 10.401.012 10.606.102 2.1-.003 1.229-.126 3.33-.128 1.102.113 5.251.04 8.172.035.384.095-4.15.158-1.742.227.103-.04.282-.077 1.665-.064 1.076 0 .718.056 1.614.064.026-.032.692-.038.846-.064-2.101-.043-1.512-.107-.744-.195-2.1-.047-3.791.019-5.712-.035.794-.056.05-.175 2.535-.162 2.229-.023-.64.154 1.589.13 1.588-.045 5.021-.015 4.149-.16 2.562.009 2.178.13 5.688.1-.59-.113.973-.137 1.716-.195-1.332.01-2.178-.045-.795-.064 2.972.113 2.332.197 3.946.326-3.151.047-.103-.146-3.228-.1 1.742.07-.153.106-.896.163 5.098.177 10.758-.297 15.575-.025-2.075.043-2.511-.129-3.253-.033 0 .032-.666.038-.846.064 3.74-.037.949.273 4.023.163.845.085-2.562.155-.077.195-1.23-.115 2.792-.018 2.511-.096-2.229-.03 1.178-.1.076-.195-1.588.064-3.663.087-3.254-.066 3.92.07 2.383-.084 9.018-.03l-.077.164c-2.408.03-3.048.047-4.124.063-.512.094.539.292 2.281.39 1.972-.079 1.511.049 4.073.035 3.919-.023.358-.147 2.561-.227 1.23.12 1.255-.075 3.279-.031.154.058-.896.162 1.589.13-.026-.042-1.025-.045-.769-.098h3.279c.436.14-1.844.167-3.381.227 1.306-.08-2.741-.096-2.434-.033.154.036.897.05 1.614.065 1.46-.017 3.407-.016 4.124-.064-.64-.153 5.124-.164 3.381-.258 4.073-.012.41.097 2.409.13 4.611-.034 4.918-.03 6.532.068 3.715.076 4.995-.038 1.691-.096 5.123.004 7.967.112 12.27.004.59.072-3.842.1-.896.162 1.896-.062 2.485-.074 3.254.035-1.973.018-3.766.045-6.558.029.41.151-4.97.041-2.536.194-3.125.048-.103-.146-3.228-.099.051.1-1.076.155-1.741.227-2.588-.006-4.945-.003-5.764.064 1.793-.005 2.587.028 2.408.098-3.586-.048-2.254.106-2.536.195-.897-.155-5.789.009-8.121-.166 1.23-.005 3.023.013 3.279-.032-4.047-.013.717-.086.077-.162-1.204.046-2.613.024-2.434-.067 1.409-.092 3.715.126 5.738.003-1.076-.002-.717-.057-1.614-.067-1.306.053-3.176-.013-4.893-.035-1.511.042 1.717.207-2.535.195 1.152-.143-.923-.213 2.561-.259-7.045-.048-1.486.006-6.584.063-1.23-.161-8.556-.169-9.76-.134 2.741.092-2.382.2-2.612.39 5.43-.055-.512.258 3.228.13-2.279.293-8.351.088-13.961.06-.667-.104 1.331-.099 1.716-.162-3.612.023.691-.063-1.614-.066-.026.042-1.435.03-1.665.064-2.612.417 6.789.241 10.503.36-4.483 0-4.585.144-7.428.128 1.025.066 4.585.036 4.842.132-4.535-.076-2.126.055-4.15.16-3.074.033-1.255-.122-4.048-.1-.179.166 1.307.1 2.383.196-.153.072-2.049-.044-4.099 0-.307-.056 1.255-.084.051-.097-5.251.172-11.425-.064-18.059.09 2.561.072.384.171 2.357.229 1.332-.067 9.221-.284 9.837-.06-2.075-.018-2.844-.044-4.099.03 3.458-.05.052.169 2.383.164.102-.04.256-.077 1.665-.064.743.094.846.192.718.227-1.948-.078-1.127.275-1.767.29 1.537-.055 5.892-.039 6.532.036-7.198.08-9.145.015-15.524-.07-.077.056.128.101.769.13-1.691-.034-4.304-.119-6.533-.035-.384-.04-.845-.075-1.588-.099-3.612.169-16.549-.124-13.987.157h-3.279c-.461-.058 2.459-.135.077-.164-3.023.01-2.997.142-7.403.096.511-.202-5.15-.057-5.739-.003a59.456 59.456 0 00-3.202-.131c-2.895.119-4.048.027-9.068.127-.795-.12 2.792-.063 3.33-.128-1.409-.041-5.79-.003-6.558-.003-.026.054 2.254.019 2.433.067-2.561-.01 2.05.093-.87.096.537-.098-3.382-.185-4.868-.1-.025.055 2.254.02 2.434.067-3.919.017-3.792-.121-7.352-.035-2.255-.07 1.588-.176-1.563-.195-1.076.077-6.456-.021-7.404.063 2.998.01 3.126.045 5.739.003.205.066 1.614.087 2.408.131-2.101.003-1.229.127-3.33.128.589-.222-5.098-.117-7.301-.166.64-.007 1.614 0 1.665-.032-1.051-.017-4.868-.085-4.893-.034.692.056 2.69.102-.051.13-.129-.152-4.381-.008-4.919.031-.538-.079 0-.132-4.047-.13.589.148-.948.092-1.691.127.154.036.871.05 1.614.067.384-.063.359-.14 2.51-.128-1.331.143-3.842.24-9.119.223-1.998-.043 1.511-.097-.769-.13-1.921.117-7.556.12-5.738-.003-3.023-.013-2.203.131-5.764.095-.666-.104 2.152-.067 2.511-.128-3.638.027-7.352.031-8.172-.067-2.332-.007-4.458-.006-4.15.096.973-.005 1.895-.057 2.459 0-1.793.092-4.38.052-7.378.03.795.098-1.844.056-3.304.063 1.742.068-.461.093-.076.195-1.537-.005-2.742-.022-3.254-.067 3.484.006.102-.169-1.563-.163-1.076.077.077.06-.896.163-2.639.028-1.666-.085-3.228-.1-.154.081-2.792.01-3.279 0 .179.046 1.332.055 1.588.099-2.818-.028-3.151.047-5.738.03-.307-.056 1.255-.084.051-.097a139.12 139.12 0 00-4.944.095c-2.254-.08 3.919-.22 1.767-.29-2.613.005-3.56.176-6.583.063l-.051.13c-3.689-.011-6.943-.004-4.97.128-7.48-.071-14.064-.09-21.313.057l.076-.163c-1.409.014-2.075-.05-2.459 0 2.203.07 2.152.19-1.716.194-1.998-.043 1.511-.097-.769-.13-5.814.17-13.525 0-22.158.089-.769-.06 2.51-.108.051-.13-1.921.054-3.535.12-6.609.127.153-.08-.359-.136-1.563-.163-1.794-.006-2.613.026-2.485.096 1.409-.001 2.075.025 2.434.067-.641.007-.973.026-.845.064-2.203-.037-6.251-.064-5.79.095-4.559.031-1.614-.05-3.228-.098-2.766.148-6.609.073-11.476.028-.103-.048.333-.12-.769-.13-.743.093-2.049-.044-4.099-.001-1.69.148.769.122 4.048.099-1.383.167-6.045.03-8.172-.036-5.379.023-10.605.211-15.575.058.641-.003 2.536-.106.871-.096-2.869.113-9.478.204-13.142.092-3.201.112-7.787.07-12.27-.004l-.051.097a251.28 251.28 0 01-7.327-.1c-2.51.102-5.098.046-8.197.03l-.051.13c-8.403.015-15.96-.054-23.722-.042-4.227.006-7.634.146-10.708.16-.538.003-4.252-.174-4.893-.036-.743-.06 2.511-.108.051-.13-8.709.036-12.757.065-21.339.089-.128-.048.359-.12-.768-.13-.282.044-1.204.06-.871.13-7.941.046-12.45-.106-17.189-.007-2.255-.049 1.485-.132-.743-.163-1.64.06-.308.12-.077.195-3.74.059-1.383-.117-3.228-.13l-3.279-.001c1.358.2-7.838.124-4.918.031.179.076 3.612.022 3.279-.032-1.589-.03-8.659-.042-4.944.096-3.126-.1-6.302-.108-9.017.029-1.691-.07 1.946-.22-3.203-.195.641.092-1.204.083-.896.162-4.406.024-5.047-.055-9.043.061-1.153-.082-1.922-.128-.718-.227h-4.099c-.563.185-5.302.202-10.733.19-.102-.06-.487-.109-1.588-.13-.026-.012-8.326.171-4.15.128-6.763.071-17.599.02-18.803-.105-1.46.188-5.815.053-9.888.125-.794-.043-1.307-.1-2.408-.131-.154.038.102.092-.871.096-.257-.162-2.562.01-4.099 0-2.664-.065.333-.164-2.383-.196-1.691.03-.768.167-3.33.16-.768-.06 2.51-.108.051-.13h-1.639c-.308.075.077.124.743.162-6.481-.07-10.426-.1-15.524-.102-1.23-.116 2.792-.019 2.51-.096-12.706.077-25.489.054-32.714-.144l-9.862.093c-.564-.308-14.781-.088-17.881-.3 2.817-.054 6.173.06 9.017-.028-3.1-.04-4.38-.055-3.203-.196-3.022.12-2.639-.22-6.532-.067-.308-.056 1.255-.083.05-.099-2.023-.005-3.406.016-4.123.064 3.458-.004-.026.05-.052.099.948.028 2.178.043 4.074.034.077.08.051.157-.896.195-3.664.012-5.97-.026-8.172-.067l.076-.163c-4.765.025-4.38-.15-8.121-.166.742-.156-.948-.218-3.997-.23-.948-.174.845-.26-2.306-.325 1.69-.008.82-.12 2.51-.128.026.114 2.74-.069 2.434.032-.897.008-1.998.053-.845.064.589-.063 4.56.01 4.944-.063-6.738-.131-4.177-.432-11.248-.524-.537.055-2.51.052-3.33.096-.512.067.923.214-.921.227-.795-.067-1.538-.133-2.383-.196-.384.073-4.355 0-4.944.064.076-.099-2.844-.082-4.868-.1 2.331-.155-4.022-.132-3.971-.293 3.125.017 5.226-.008 6.583-.063 1.128.095 1.948.202 3.972.261 1.05 0 1.152-.04 2.484-.031.308.055-1.255.083-.05.096 1.408-.108 3.38-.106.82 0 6.941-.02 4.61-.217 8.35-.354-2.87.055-8.326-.007-6.482-.132-2.715.065-7.787-.006-9.786-.07-1.665.01-1.64.089-3.33.096-3.996-.089-5.97-.259-9.658-.36.435-.13-.129-.109-.18-.257zm748.581-1.887c-.641-.093 1.178-.083.896-.162-2.946-.018-4.944.171-.896.162zm93.047 2.637c-.077-.072-3.458-.016-4.893-.035.308.11 3.152.05 4.893.035zm-85.946-.131c-1.716-.014-2.177.02-3.278.031-.18.081 1.204.102 2.408.131 1.255-.017.077-.034-.794-.032.025-.066 2.228-.041 1.664-.13zm-7.632.583c1.921.028 3.868-.16 4.099 0 2.997-.08 4.918-.002 7.403-.094.973.005.666.058.769.098 2.92-.145 11.886.111 13.961-.092.666.129 4.047.033 4.048.13 4.38-.105 7.915.055 13.935-.025-.154-.026-.82-.032-.794-.065-.692.006-.769-.012-.794-.032-2.331.156-4.535-.052-7.353-.067-1.511.094-9.042.08-11.451-.036 1.717.012 6.815.032 7.455-.16-1.46-.004-1.742.04-3.279.032.384-.051 2.587-.026 1.69-.13-3.945-.017-2.92.167-5.814.192-.615-.083-2.306-.125-2.358-.23-2.049-.035-3.996.12-.871.097.231.057-4.61.056-3.253-.035-1.46.092-1.05.075-3.33.096-1.255-.037-1.665-.107-4.048-.1 0 .033.999.027 1.614.033-.563.044-1.767.06-3.304.064.512.043 1.742.06 3.253.067-.538.065-4.15.007-3.33.128-.717-.059-3.843-.19-2.357-.23-3.459-.106-2.049.268-6.66.225-.358.07.538.089.769.134zm22.469 1.112c-3.254.042-1.614-.106-4.893-.067.077.098 4.663.254 4.893.067zm-13.91-.038c-4.407-.058-.871.207-4.995.16 1.87.198 4.047-.104 4.995-.16zm-33.585-.013c-.256.057 3.126.115 2.46 0 .666.007.794.033 1.614.033.333.101-2.101.09-3.33.128 1.153.095 3.202-.042 5.738.003-1.384-.188 2.997-.09 3.33-.128-.41-.136-7.865-.048-9.812-.036zm-22.443-1.146c-1.639.114 2.998.175 3.997.23 1.127-.01.717-.082.871-.131-2.485.002-4.151-.03-4.868-.1zm-15.295-.591c-3.099.063-3.433-.064-6.558-.003-.384.083 7.071.12 6.558.003zm15.499.169c2.126-.037-7.275-.021-.794-.064-.231-.044-2.05-.028-3.254-.035 1.409.113-1.587.21 2.383.195-.563.044-1.767.06-3.304.064 2.177.083 5.02-.082 3.228.13l2.459.001c1.306-.131-5.303-.236-.718-.291zm12.194.2c-.077-.071-3.458-.013-4.893-.034-.025.088 3.817.077 4.893.035zm2.638-.455c-2.895.057-6.148.004-4.022-.131-2.485.042-4.534.1-5.815.192 3.638-.045 2.101.111 4.867.1.052-.057-.563-.086-1.588-.1 1.153-.093 2.05.088 4.073.067-1.153-.121 3.638-.002 2.485-.128zm13.808.267c3.1.148 4.252-.046 5.815-.16-2.69.02-2.818.15-5.815.16zm1.283.844c1.05.008 1.025.098-.051.098.154.048 2.434.013 2.434.067.486-.055 3.534-.237 3.279-.031 3.304-.04-.206-.068.076-.163.256-.069 2.178.047 3.279-.032.282.056-.666.06-1.665.064.666.049 2.613.048 4.073.067-.256-.192-4.97-.213-8.889-.264.435-.025.87-.052.87-.097 1.025-.046 3.151-.047 4.15-.095-3.228-.11-6.507.063-5.84.226.717.024 1.844.036 3.253.034-.307.043-1.46.05-1.69.096-.718-.12-5.406-.09-8.147-.133.538-.034 1.896-.033 1.691-.096.948.005.666.058.768.098 1.281.011 1.871-.006 2.537-.02.23.004.461.005.742-.012-.281.003-.512.008-.742.012-1.051-.02-1.41-.2.793-.108-3.253-.135-5.559-.033-9.042.093 4.739.023-.154.169-.947.293 2.894-.039 5.686-.081 9.068-.097zm-4.613-.716c-1.716-.014-2.177.021-3.279.032.436.025.846.052.769.099 2.152.009 2.152-.07 2.51-.13zm-7.352-.003c.666.039 1.05.088.743.163 1.717.014 2.178-.021 3.279-.032-.82-.092-3.228-.04-1.563-.163-.666.018-1.332.034-2.459.032zm4.15-.128a75.466 75.466 0 00-2.434-.034c1.998.14 8.402.043 8.223-.061-3.458-.03-4.662.03-5.789.095zm1.741-.226c.359.11 4.253.064 3.305-.064-1.23.015-2.101.047-3.305.064zm-35.818-2.42c-.743-.095-.385-.081-2.409-.099-1.767.048.564.08-.896.163 3.715-.025 8.198-.017 8.274-.192-.461.092-4.662.031-4.969.128zm23.951-.412c.051.082 2.715.066 4.867.067-.128-.122-2.869-.092-4.867-.067zm-.23.486c-.384.067.513.087.744.13 1.076-.01 1.306-.057 2.484-.063.026.088-1.383.065-.051.13 2.844-.024 3.433.063 4.919.003-1.256-.126-1.281-.04.076-.163-3.612-.05-5.072.008-8.172-.037zm8.096.232c.179.058 1.383.075 3.254.067-.077-.058 1.024-.069.87-.13-2.613-.03-2.561.05-4.124.063zm.331-.75c-.281.086.231.14 2.409.132.256-.083-.257-.14-2.409-.131zm3.844.588c-.717-.014-1.46-.029-1.614-.065-2.459.02.743.069-.051.131 2.101-.003 4.227-.004 4.15-.096-1.332-.01-1.46.03-2.485.03zm2.408.099c-3.611.088-.332.283-1.817.421.794 0 .64-.04.845-.064 1.46-.003 1.716.04 3.253.033-.487-.03-.973-.058.026-.064-3.92-.054-1.025-.213-2.307-.326zm.744.13c-.307.13 3.74.09 4.022.198 3.612-.016 2.69-.01 5.738-.03-.692-.118-2.408-.02-4.893-.034-.512-.087 1.716-.062 2.51-.096-2.408-.067-5.097-.005-7.377-.038zm7.53-.322c-2.715-.108-5.353.067-5.789.16 4.048-.01 2.741-.063 2.409.099 3.663-.08 3.817.115 8.146.1 0-.057.64-.084 1.691-.097-1.845-.052-1.512-.069-.744-.163-2.049-.033-4.637-.107-5.738-.002-1.05-.008-1.051-.096.025-.097zm.897-.162c1.562.046 2.382.12 3.202.195 1.998-.003.231-.107-.769-.099.231-.066 3.612-.008 4.125-.063-.539-.117-3.305.007-6.558-.033zm8.864.328c.205-.092.179-.177-2.383-.163 1.614.023-.614.192 2.383.163zm9.455.817c1.05-.098 3.099.05 4.098-.031-.666-.049-2.024-.072-4.073-.067.077.058-1.025.068-.871.13 1.486.009 1.717-.03.846-.032zm-5.713-.035c-1.896-.01-.948.093-2.51.096 4.149-.025 3.484.139 7.275.198 1.332-.1-3.125-.207-4.765-.294zm-.998.422c-.487-.077-2.485-.093-6.507-.1l-.051.097c2.689-.036 4.995.1 6.558.003zm-5.356-.847c-1.87-.065-4.509.037-4.175.16 1.998-.028 3.381-.081 4.175-.16zm-2.689.518c-1.178-.077-1.691-.062-.743-.163-1.742-.002-3.97.142-4.944.064-2.126.103 3.279.139 5.687.1zm-4.252.323c-1.46-.06-2.946-.12-6.507-.1.744.087 5.585.12 6.507.1zm-4.149.162c.281-.085-1.102-.108-3.228-.099-.282.085 1.076.106 3.228.1zm-8.941-.198c2.536-.04 2.664-.094.896-.163-2.075.003-1.972.121-.896.163zm-4.867-.067c1.28.015.666.103 3.253.067.307-.075-.077-.125-.743-.163h-2.459c-1.153.018-.179.124-1.691.13.487.053 1.87.018 1.64-.034zm-2.307-.326c1.46-.067 4.381 0 2.434.067.359-.015 3.894-.007 5.738-.031 2.255-.024 1.614.064 3.254.066.102.07-2.921.013-4.099.032-.794.12 4.304.06 4.893.035-1.46-.125.538-.144 3.33-.096.128-.1-2.536-.095-1.537-.227-1.102.056-4.765.177-4.919-.003-3.022.221-2.639-.137-4.97.095-.999-.013-1.665-.042-1.588-.098-1.46.027-2.895.057-2.536.16zm.153-.357c2.69-.023 5.252-.05 8.223-.061.051-.049-4.842-.05-.794-.067-1.076-.128-5.841-.103-6.558.031-.871-.024-.052-.098-1.563-.163-2.177.088-2.459-.04-4.893-.034-.384.029-.743.057-1.665.064 1.332.117 7.173.061 7.25.23zm-4.766-.393c-2.382-.072 2.818-.293-2.331-.293-1.409.063.051.042-.051.13-2.895-.05.947-.162-3.203-.163-.23.105 1.384.137.692.261 3.1-.035 2.332.08 4.893.065zm-5.865.355c-4.253-.12 3.381-.076.896-.195-.999.037-1.511.092-4.124.064 1.332.065-.102.04-.051.13h3.279zm-.616-.488c.435-.102-1.998-.118-3.254-.067.641-.1-.794-.119-.743-.195-1.486-.03-.589.186-1.665.064-.487.035-.871.098-1.716.195 3.253-.122 2.946-.037 7.378.003zm-12.449.386c.794 0 .64-.04.845-.065 1.46-.003 1.717.04 3.254.035.128.038-.205.059-.846.064 2.588.1.974-.092.897-.162l-4.099-.001c.026.088-1.383.063-.051.129zm-.998.421c-1.512-.109-3.305-.022-6.533-.035 1.025.09 4.381.068 6.533.035zm-12.373.16c2.716-.001.922-.184 2.561-.228-.461-.077-1.613.084-3.304.064 1.025.076-.128.06.743.163zm2.816-.812c1.691-.03 1.742-.126 4.15-.128-1.23-.091-.641-.251-3.971-.262.922.048.896.083-.051.13-1.128-.083-5.585-.038-5.662-.165-2.408.012-1.665.153-3.356.195 1.973.114 8.172.065 8.89.23zm-10.758.288c-2.357-.081 1.28-.146 1.665-.032 1.613-.064-1.128-.232-3.178-.262.129.038-.204.057-.845.064 3.536.076-3.227.21 2.358.23zm-3.127-.358c1.025.062 1.717-.077 4.099 0 .307-.129-3.74-.09-4.022-.197-3.484.124 2.383.15-.077.197zm2.536-.195c.922-.066 3.97-.131 1.742-.226-5.354-.014-2.049.143-5.79.16.667.048 2.588.048 4.048.066zm-4.791-.262a98.127 98.127 0 00-3.253-.034c-.077.052.333.123-.871.13.026.042 4.867.003 4.124-.096zm-3.457.39c.948-.01 2.1-.057.845-.065.154-.038 1.511-.027 2.459-.031.282-.085-1.665-.085-3.228-.1-1.819.067-1.844.125-.076.196zm-3.254-.067c.922-.12-1.691-.107-2.383-.163-1.793.03.667.163 2.383.163zm-7.327-.068c-1.383-.115.59-.08.897-.194-2.793-.052-3.971.216-.897.194zm-2.586.291c.128.038 1.486.027 2.434.033-.154-.028.332-.031.845-.032-2.357-.005-.359-.178-3.203-.163-1.101.08 2.332.135-.076.162zm-12.912-.427c1.895.01.947-.095 2.51-.097 1.486.063-2.792.181 2.383.196-1.025-.102.256-.093.102-.227-2.792-.002-5.482-.002-4.995.128zM638.767 7.75l.077-.13c-2.178.01-2.792.084-3.33.16a104.87 104.87 0 013.253-.03zm-3.381.29c2.485-.055.973-.118.922-.226-.666.017-1.358.033-2.485.032-.179.092 2.741.063 1.563.195zm-2.332-.325c-.153-.026-.794-.032-.794-.064 1.768-.015 1.537.046 1.589.098.973-.052 3.253-.102 1.716-.162-1.076.044-3.587.03-5.739.029.052.046.103.092-.845.098.641.095 2.049-.04 4.073 0zM630.54 5.99c1.204.028 1.127.106 1.563.163 2.408-.068 7.249-.035 7.454-.192-1.563.014-2.075.07-4.124.064 2.203-.127.896-.197 5.02-.226-1.076-.136-4.227.008-6.532-.067 2.075.083 1.563.064 1.563.195-1.819.008-2.895.08-6.558.029l-.051.098c1.383.013 1.537-.023 1.665-.064zm-27.897.12c3.049.038 2.357-.08 4.944-.063 1.511.005.461.11 1.589.13.973-.003.717-.059.845-.095 1.434.028.999.132 4.047.099.282-.1-2.562-.127-.743-.195 2.741.034 3.664.158 6.533.035 1.024.048-1.46.071-.077.195.794-.026 2.715-.171 4.124-.064 1.999-.019 1.87-.123 2.536-.194-3.433-.053.103.18-3.33.128-2.101-.01 1.127-.055.051-.131-3.843-.03-6.379-.045-11.451-.038-1.383.064.051.042-.051.13-2.305-.006-.948-.154-4.022-.13 1.153.095-3.714.092-2.459 0-1.461-.006-1.742.04-3.279.03-.308.076.051.125.743.164zm-1.589-.13c-.512-.043-1.716-.062-3.253-.067.128.038-.205.059-.845.064.564.113 2.459.025 4.098.003zm79.601 3.378c2.408-.052.358-.103 1.716-.162l5.738.002c.205-.054-1.358-.085.051-.096-1.46-.043-4.355.064-7.378-.003-1.229.037-1.331.121-2.535.162.077.06 2.689.022 2.408.097zm-57.204-.25c.077.105 1.794.145 1.538.262 1.69-.048 1.229-.282-1.538-.262zm9.196-.418c-.205-.078-2.203.037-3.279.032.692.048.589.127 3.228.098.794-.062-2.434-.11.051-.13zm17.754.591l-4.868-.099c-2.1.079 1.691.07.744.195 2.741-.05 2.151-.03 4.124-.096zm-6.788.517c2.998.011 4.56-.034 6.584-.063-.615-.07-2.818-.082-4.022-.131 1.024-.047 3.304-.042 3.33-.128-.41-.051-.846-.002-.846.032-.948-.028-2.177-.043-4.073-.035-.538.166-1.46.19-.973.325zm.153-.325l.051-.13c-1.742-.017-1.588.045-1.69.096h-2.459c-.154.072 2.92.017 4.098.034zm.204-.52c-.615-.113-3.894-.128-6.481-.166-.077-.058 1.05-.068.87-.13 1.537-.03 2.69.098 3.279 0-.077-.154-3.253.01-5.712-.035-.513.058 2.331.135-.077.163 3.279.037 4.535.148 8.121.168zm-3.712 1.04c-2.587-.05-3.023-.182-6.456-.198.666.083 3.766.236 3.152.261 1.178.108 2.331-.055 3.304-.063zm-.127.29c1.331-.097-4.97-.056-1.589-.13-.128-.038-1.486-.029-2.434-.034.154.027-.333.03-.819.032.82.076 2.408.12 4.842.133zm-4.817-.229c-1.307-.045-.948-.154-4.048-.131.129.092 1.384.14 4.048.131zm-2.561.227c1.46-.106-3.843-.158.076-.163-.435-.027-.82-.052-.768-.098-.743.02-1.486.04-1.64 0-1.127.008-.717.081-.871.13 1.409-.002 2.127.025 2.434.066-1.742.056-6.455-.039-9.043.061 1.948.164 5.021-.068 9.812.004zm-10.504-.295c2.869.013 4.764-.218.896-.195.538.1-1.46.094-.896.195zM602.316 8.71c1.076.075 6.174-.005 6.507.099 2.613-.07 1.101-.103 4.124-.032.641-.03.922-.072.871-.13-1.844.038-7.583.021-11.502.063zm10.941 1.206h-2.459c1.127.042.436.153 1.563.195 2.101-.061-.717-.115.896-.195zm3.636-.843c-.282.085 1.102.106 3.228.1.307-.088-1.076-.109-3.228-.1zm8.894 2.18c1.025-.008.845-.063.026-.063.179-.037.819-.018.819 0 3.1-.132-4.176-.197-1.486-.326-3.791 0-.23.147-.922.227-.179.026-.845.032-.845.064-2.793-.082-6.276-.062-8.992-.036 3.382.121 8.889-.028 11.4.135zm-14.449-.688c1.255-.081 4.713-.073 5.789-.16-2.588-.052-3.715.05-7.378.029 0 .066 2.229.043 1.589.13zm-2.383-.163l.051-.099c-1.845-.046-3.1.084-3.279 0-2.383.043 1.332.115 3.228.099zm-5.866.29c2.024.044 2.613-.126 3.305-.032 1.101-.008.717-.082.87-.13-.999.079-3.842-.037-1.614-.067-1.23-.099-2.228.082-4.124.064.82.046.743.123 1.563.165zm-52.111-2.587c-.64.166 3.509-.054 4.073.067 3.151-.105-2.485-.116-4.073-.067zm1.644 1.919c1.101-.121 7.505-.026 7.454-.192-1.383.075-4.816.07-8.223.061.615.029.845.072.769.13zm4.816.163c.692-.005.769.012.794.032a120.71 120.71 0 014.099-.031c-1.127-.096-1.819-.03-4.893-.067v.066zm-1.266-4.581c.026.032.999.025 1.614.032 1.179.04.718.143 4.048.099-1.153-.072-2.101-.154-5.662-.131zm1.725 3.575l.051-.098c-1.127.008-.717.081-.871.13 1.614.03 3.843.107 5.713.035-1.051-.118-2.69-.012-4.893-.067zm.284 1.201l-.051.097c.795 0 .641-.04.846-.065 1.511.005 2.715.022 3.253.067 1.87-.084-1.307-.15-4.048-.099zm5.785-2.012c-.87.09-.998.14 2.409.131-.308-.063-.231-.14-2.409-.13zM577.189 10c2.433-.056 5.814-.187.076-.195 1.768.07-.435.093-.076.194zm9.119-.256c-.334-.124-4.406.026-4.868-.132-2.51.064-2.331.034-6.558.03.846.168 8.454.104 11.426.102zm-.361-1.04c-.282-.044-1.435-.052-1.589-.1-1.972-.013-1.793.059-4.099.032 1.64.102 3.305.02 5.688.067zm-9.298.646c-.358.142 2.767.149 4.817.198 1.255-.051-3.203-.153-4.817-.198zm9.701-3.473l-6.558-.003c2.152.086-1.896.035-.896.163 1.537.06 1.486-.02 4.099 0 .64-.09-1.589-.066-1.563-.13 4.534-.01 2.843.053 6.507.099.025-.064-2.229-.041-1.589-.129zm-3.402 2.175c.077.062 2.69.024 2.408.099 1.127-.01.717-.082.871-.13-1.691-.015-2.178.022-3.279.03zm-.871.098c-1.947.047 1.666.147 2.383.195.896-.128 4.842.043 6.558-.029-1.64-.106-8.479-.012-8.941-.166zm7.098.652c1.87-.034.409-.204 4.175-.16-.923-.136-2.818.024-4.944.031-.359.067.538.085.769.129zm5.147-.55c-1.921.02-1.587.157-4.2.227 2.715 0 5.789.015 5.763-.096-3.74.051-1.665-.02-1.563-.13zm-.891 2.08c-1.23.012.307.04-.051.098 7.48-.112 6.48-.102.051-.099zm1.461.389c1.46.005 1.742-.04 3.304-.032-.128-.037-1.486-.028-2.434-.032-1.434-.009-1.844-.056-1.562-.131-1.563-.016-3.561.098-3.254-.035-1.127.009-.717.082-.871.13-.153.04-1.511.028-2.484.033 1.076.121 8.351-.068 7.301.067zm-9.684-.295c.922-.006.461-.033.025-.032.359-.063 3.177-.025 2.51-.128-3.868.013-1.204-.03-1.563-.13-2.203.02-1.562-.07-2.408-.1-.768.034-3.023.01-2.51.096 3.893-.113 2.229.218 3.946.294zm-9.837-.037c1.178.135 2.818.252 7.25.262-3.356-.137-1.819-.158-7.25-.262zm6.252.718c-1.23-.09-4.919-.005-5.738.03-.026.04 4.636-.006 5.738-.03zm-7.2-.425c-.665.072-1.767.126-1.741.226 3.791-.022 3.33.039 2.383.131.845-.02.871-.074 2.484-.063-.614-.03-.845-.075-.768-.131h-2.46c.717-.08 1.153-.174.947-.293-.666.021-2.254.049-2.459 0-.896.007-.589.063-1.665.063-1.511.056 2.536-.022 3.279.067zm-2.973-.651c2.357-.054 3.253-.205 1.793-.326-1.076.01-1.332.058-2.485.064 3.049.114-.871.16.692.262zm-2.565-1.66c.41.047 1.178.082 1.588.131 2.767-.014 1.665-.168-1.588-.13zm.004 1.886c2.152-.055-1.204-.164-4.022-.131.179.088 3.407.058 4.022.131zm.255-.618c1.947-.009-.897-.089-.769-.131-.666.006-.82.032-1.639.032-.718-.015-1.461-.029-1.614-.065-2.229.068 2.843.122 4.022.164zm-4.736 1.525c-.948-.048-.641-.145-3.228-.13.077.08.077.158-1.69.162 1.358.105 2.151-.083 4.918-.032zm-1.563-.227c.461-.047-3.151-.08-.769-.098-.717-.057-2.818-.086-4.073-.035 1.358.055 1.973.138 4.842.133zm-4.918.03c.281-.087-1.666-.085-3.228-.1-.641.03-.922.073-.871.131 1.947-.047 1.537-.068 4.099-.031zm-3.895-.457h-3.279c-.692.126 3.868.127 3.279 0zm-12.564-4.975c-2.101.003-1.998.121-.896.163 2.561-.022 1.101-.087.896-.163zm5.662.164c-1.563-.015-.59-.127-3.228-.1-.051.077 1.383.096.743.196 2.613.03 1.178-.107 3.33-.096-.179-.038-.845-.018-.845 0zm-5.598 5.327c2.075-.095 4.022-.025 6.583-.063-1.972-.042-3.868-.117.026-.064-1.025-.174-4.816.08-7.352-.036-.308.075.077.125.743.163zm1.894-.584c-2.024-.005-2.561.05-4.124.064.589.075 5.047.032 4.124-.064zm-10.27 1.003c-.077-.072-2.024-.072-4.073-.067-.179.13 2.075.088 4.073.067zm-18.727-.3c-2.485-.025-2.997.03-4.918.031 0 .05 6.045.075 4.918-.031zm-22.158.155c-1.922.02-2.254.108-4.15.128 1.665.099 3.945-.057 4.15-.128zm-12.925-6.05c-1.128-.065-2.844.031-4.893-.034l-.051.098c1.921-.01 3.407-.038 4.944-.063zm-21.034-.625c-1.716.04-4.175.05-4.175.16 2.536.004 3.92-.04 5.764-.063-.256-.042-1.409-.051-1.589-.097zm2.434.032c-.461.102 1.871.135-.896.163-.64.088 3.868-.021 3.228.067.23-.059.64-.22-2.332-.23zm4.664.588c-1.153-.168 2.536-.139 1.767-.291h-3.279c4.176.176-2.408.205-3.432.356 2.894-.04 2.715-.048 4.944-.065zm-9.761-.167c.18.036 1.614.023 1.614.065.512-.1 3.484-.1 3.381-.227-1.998.021-4.252.064-4.073-.066-1.614.021-2.229.085-2.536.162 1.332-.103 5.611.071 1.614.066zm-3.253-.034c-4.637-.098 1.255.137-2.536.162 3.766.14 1.281-.155 2.536-.162zm-9.786-.1c-.538-.1.896-.119.896-.195-1.896-.08-1.537.048-4.099.032 2.357.08 3.023.13-.896.162.666.095 2.075-.043 4.099 0zm-8.147-.102c2.229-.047-2.203-.103-2.382-.163-1.256.027.205.05-.871.13 1.281.002 3.125-.015 3.253.033zm-48.186-.31c1.357-.045 2.945-.212-.744-.195-.614.098 1.384.095.744.195zm-2.409-.099c.026-.074-4.048-.211.897-.195-1.948-.172-3.279.09-4.176.16.257.046 2.05.028 3.279.035zm-3.996-.23c2.638.043.665-.105 3.304-.063-.026-.12-3.202-.003-3.253-.067-2.101.007 1.101.058-.051.13zm-10.886.517c-1.23-.115-3.484-.008-6.533-.067-.538.127 4.509.04 6.533.067zm-12.76-.785c2.101.065 5.15.128 3.152.261 3.561.018 1.793-.1 4.918-.03-.128-.113-4.816-.05-3.177-.23-3.638-.086-8.3.067-9.786-.102-1.383.033-.947.136-1.716.194 2.46-.021 5.815-.005 6.609-.093zm-35.172-.112c2.1.003 1.255.122 2.383.163 4.328-.196-7.379-.244-4.894-.067.871-.032 1.691-.064 2.511-.096zm-6.66.29c1.101-.042 3.074-.04 3.279.035 2.536.01-2.05-.096.845-.096-.359-.066-5.738-.063-4.124.061zm-8.274.16c2.997-.067-1.589-.105-1.563-.163-2.997.067 1.588.105 1.563.163zm-18.625-.463c-1.87-.012-.717-.143-3.202-.131-.41.11 1.64.193 3.202.131zm-93.298-.166c.897-.03.307-.12 2.51-.097-1.076-.142-3.381.002-4.944.032.333.04 1.025.066 2.434.065zm-7.378-.004c-.615-.086-3.893.072-4.047-.066-.539-.063-1.307.035-.026.032.128.128-3.099.117-4.995.16 2.562.072 6.583-.082 9.068-.126zm-6.846 8.22c-.077-.072-3.459-.014-4.893-.035.307.108 3.151.047 4.893.035zm-22.97-7.45c2.382.006 2.535-.13 1.716-.163-1.794.004-1.793.082-1.716.162zm-17.215.025c2.613.03 1.742-.084 3.304-.096-.896-.086-4.329-.004-3.304.096zm15.061-.709c.282-.075-.077-.124-.743-.163-3.971-.009-4.175.202.743.163zm-5.967.55c1.588-.046 5.021-.016 4.149-.16l-3.279-.001c-.691.038-1.101.087-.87.16zm3.431-.388c.001.16-2.407.02-4.124.096 1.025.136 2.69 0 4.919.003.153-.08.204-.157-.743-.195-1.153-.003-2.306-.007-2.485.032-.82-.022-.795-.075-2.434-.067.487.087 2.203.127 4.867.131zm-2.382-.197c-1.64-.074-4.253-.074-5.739-.003.769.083 3.202-.043 5.739.003zm-8.499 2.63c2.024.005 3.945.007 4.918-.031-.948-.076-5.584.08-3.228-.1-1.434.008-1.895.057-1.69.131zm.382-.878c1.435-.007 1.896-.054 1.69-.128-.666.022-2.254.05-2.459 0-.896.008-.589.063-1.665.064-2.1.077 2.895-.055 2.434.064zm-5.687-.131c-2.178.031-4.688.05-4.97.16 1.87-.044 5.277-.026 4.97-.16zm-17.423-1.34c1.178-.055 1.639-.227.922-.26-2.46.039.077.181-4.176.195-.614.088 3.869-.023 3.254.065zm-8.992-.068c1.793-.004 1.793-.08 1.716-.162-.948-.028-2.177-.043-4.073-.035 1.153.051 1.665.129 2.357.197zM22.594 6.471c1.307.055 4.765.126 6.532.067-1.306-.057-4.124-.099-6.532-.067zm13.243-.287c-.538-.1.897-.119.897-.195-1.793.07-4.304.112-7.43.128.898.146 4.535-.081 6.533.067zM53.97 4.045c-1.331.116 2.767.022 2.409.1 1.23-.028 1.793-.081 1.716-.163-1 .036-1.537.092-4.125.063zm-2.047.942c.795.044 2.152.065 3.228.099 2.562-.006 3.382-.082 4.97-.128-2.511-.112-5.175.052-8.198.03zm5.56.36c.358-.077-3.74.017-2.408-.098-2.716.01-1.69.198 1.563.163-.103-.038.205-.059.845-.064zm.981 3.379c-.666-.095-2.075.04-4.098 0 2.254.167 3.817.386 5.508.488 2.843-.199-5.585-.334-1.41-.488zm3.819.685c3.125-.135-3.408-.158-4.893-.067 1.204.11 4.841-.073 4.893.067zm-3.865 1.364c1.562-.014 3.535-.01 3.304-.096-1.511-.033-2.766.096-3.279 0-1.46.02-.128.056-.025.096zM49.09 9.568c1.358-.021 2.28-.186 4.1 0 1.562-.013 4.918.048 4.123-.063-5.174.006-5.2-.082-7.326-.134-2.92.03-.103.083-.897.197zm1.988-4.549c-1.102-.142-5.072-.01-6.558.03 1.845.105 3.689-.067 6.558-.03zM47.85 4.92c3.432-.16 1.358-.071 4.97-.095-.513-.122-1.41-.224 1.74-.26-1.946-.03-2.382-.12-5.686-.099.435-.047 1.255-.08 1.69-.13 1.563.015 2.024.072 4.073.067-.538-.099.897-.118.896-.195-2.177-.079-2.945.1-6.583.062.718.14-.666.194-4.175.16.922.06 2.1.111 3.202.163-.512.107-3.125.045-4.918.031 1.69.053 3.305.107 5.687.132.231.075-2.382.035-2.51.096-2.46-.023.82-.07.05-.13-.665.02-2.279.049-2.458-.001-2.408.027.435.105-.077.163 1.204.02 4.252-.034 4.099.036zm-4.944.096c-3.56-.01-12.758-.193-13.141.092 2.92.018 4.713.056 7.377.003-1.178-.08-3.381-.072-4.047-.099 1.741-.074 7.557.093 9.811.004zm-7.17 1.395c1.589-.012.718-.126 3.33-.096 2.485-.038-5.763-.037-.768-.099-1.281-.091-3.1.07-4.944.064.282.061 3.15.027 2.383.13zm-5.58 1.525c-1.435.008-1.896.055-1.691.129.794 0 .666-.04.845-.064 2.05-.005 2.537.05 3.228.098 2.587-.062-1.845-.118-2.383-.163z" fill="#45BABC"/><path fill-rule="evenodd" clip-rule="evenodd" d="M736.857 8.743c0 .016-.051.034-.259.05.052-.02.13-.036.259-.05zm38.807-1.233c1.23-.123-2.229-.063-1.563-.162.973-.05 5.457-.127 5.79-.095-2.152.067-1.716.238-3.407.321-2.331.026-2.101-.047-4.073-.034l.051-.13c3.099-.045.077.148 3.202.1zM35.14 4.038c-.153.177-5.098.122-4.175.16-.487-.003-.974-.006-.794-.032 3.202-.036.255-.085-.77-.13l5.74.002zm259.066-.614c2.742.107-2.972-.006-2.408-.099h4.099c.205.066-1.127.065-1.691.099zm86.714.26c1.332-.06 7.456.035 8.122.037-2.203.101-6.841.012-8.122-.037zm28.539.303c.973-.004 2.331.007 2.485-.032-1.64-.034-9.095-.009-6.508-.099 1.435.083 7.609-.017 8.147.1-1.537.03-2.971.174-4.124.031zm49.851.248c1.281-.003 2.844.005 2.485-.064-1.486.001-5.201-.07-3.229-.099.539.081 2.204-.059 4.1-.031.077.124 3.843.105 5.662.165-2.178.065-5.944.08-9.018.029zm14.671 7.676c.307-.069-7.276.085-4.919-.003.154-.068 7.788-.1 4.919.003zm18.009.006c-2.894.009 3.433.066-.051.098-2.024-.087-6.404.063-5.713-.067-1.127.065-3.663.07-5.763.096-1.486-.105-3.792.02-4.868-.099 8.172-.033 13.244-.043 16.395-.028zm24.346-7.011c-.923-.114-7.199-.02-8.122-.133 3.766-.03 7.789.03 9.812.035-.922.006-1.28.035-1.665.064.462 0 .923.028-.025.034zm21.288.01c-3.125.089-5.277.02-8.249.095.179-.07-.615-.103-2.408-.099-.026.064 2.203.043 1.588.13-4.278-.065-10.016.046-11.784-.036h.333c.025-.033-.641-.04-.794-.065 2.562.038 2.023-.05 3.304-.064.513.043 1.717.06 3.254.067 1.588-.098 6.302-.159 7.429-.095-.999.002-1.947.008-1.665.064 2.459.086 6.609-.174 8.992.003z" fill="#45BABC"/><path fill-rule="evenodd" clip-rule="evenodd" d="M516.311 4.971c.102.014.281.023.461.033-.359-.001-.436-.017-.461-.033zm27.769.175c2.613.036 3.714-.153 5.738-.031-.922.032-7.378.105-5.738.031zm93.387 5.593c-.051.108-4.637.03-5.764.095.461-.047-.897-.168.897-.162 0 .032 1.409.04 1.639 0 .051-.02.128-.038.82-.032.154.062-.948.07-.871.13 2.588.066 2.613-.128 3.279-.031zm8.121.164c-2.023.145-6.917-.02-11.631-.039 2.28-.017 4.509-.072 6.789-.124.589.073-.307.2 4.842.163zm15.499.137l-4.918-.002c.179-.17-5.457-.024-8.121-.134 3.893-.083 3.535-.168 3.406-.29 2.357.026 2.818.16-.102.226 2.664-.036 4.996.101 6.558.004.026-.055-2.254-.02-2.434-.067 2.204.02 6.507-.04 7.353.035-5.559.009-.82.104-1.742.229zm5.177 1.27c.385.214 4.842.077 8.147.068-4.175.113-10.221.13-14.781.124.614-.096 5.789-.008 5.789-.128-4.944-.024-9.248.152-13.142.06 4.073-.039 7.66-.131 13.987-.123zm-11.175-2.508c3.126-.05 3.125-.225 7.481-.223.282.171 1.922.173-.153.324-2.767-.141-5.688-.01-7.328-.101zm9.171-.386c-2.972.064-3.971-.005-6.533-.035-.154.038.103.091-.871.096-2.255-.101 1.973-.139 4.176-.16-.692.136 3.151-.041 3.228.099zm15.477 2.054c-1.127-.021-.077-.124-1.589-.13-.768.123-4.815.05-4.893-.035-2.177.08-6.02-.077-5.789.127-1.844-.046-3.125.084-3.279 0 2.536-.032-1.742-.055-1.588-.099 1.819-.024 1.127-.153 3.355-.162.769.143 5.021.087 7.353.035.051.082 3.022.053 4.047.1 1.742-.17-3.791-.016-1.588-.1 1.229-.057 4.201.063 4.15-.095-3.075-.024-7.276-.108-9.837-.004-.001-.128-7.353-.141-5.637-.23.692.025 4.765.001 5.687.1 2.69-.097 6.892.072 11.502-.061-.127.08-1.613.102.769.13 4.739-.18 14.909-.128 19.649.008 5.148-.213 16.164.073 23.772-.023-.691.114-2.356.106-.076.195-3.433.026-3.202-.09-4.868-.131-1.588.118-2.459.174.718.227-2.229-.025-1.665.064-3.304.063-.205-.1-2.972-.195-.693-.293-6.353-.104-7.3.13-11.451-.004.667.105-1.306.102-2.51.129-.128-.048.359-.122-.769-.131-3.765.137-11.656-.126-16.394.058-.154-.058.896-.163-1.589-.131 2.588.175-2.28.06-4.15.128.359.111 10.298.02 5.662.133 2.024.044 3.996-.071 4.099 0-3.868.058.205.099 1.588.132-5.482.076-7.429-.02-12.347.064zM665.36 8.767c-.666-.038-1.051-.088-.744-.162 2.255-.033 3.843-.02 4.894.066-1.947.009-1.588.112-4.15.096zm13.498-.872c-2.024-.07-.794.06-.897.163-.973.026-2.203.041-4.099.031-.025.032.641.039.795.067h-2.46l.026-.065c2.869-.027 3.535-.142 5.021-.226-.974-.006-2.332.005-2.434-.033 1.075-.114 7.173-.052 4.048.063zm-5.174.55c.026.02.103.037.795.032 3.305 0 3.765-.091 4.15-.128.179.046 1.332.055 1.588.099-2.664.07-1.152.187-2.612.323-1.973.012-1.742-.06-4.074-.035-.666-.105 2.716-.045 2.511-.128-.436-.05-4.023-.138-2.358-.163zm17.143 2.021c-1.101.01.385.235-4.175.193-.231-.063 1.127-.065 1.665-.096-2.101-.015-3.766-.015-5.687-.099l-.051.098c-2.793-.027-3.817.003-7.353-.035.487-.057-.897-.19.896-.194 4.509-.022 9.992.12 13.091.038.487.071-2.357.102.769.098.025-.022.717-.04.845-.003zm-7.836 1.037c-1.358.123 2.614.178-.153.325-2.024.004-3.382-.018-4.074-.067 1.23-.037 3.356-.04 4.125-.095-2.562-.008-3.305-.085-4.843-.131.795.098-1.844.056-3.304.063-.359-.159 5.2-.076 8.249-.095zm10.575-1.686c-3.126-.005-5.124-.004-5.713-.035 1.511-.003.538-.109 1.69-.13 3.305.021 15.27.125 5.663.164-1.486-.093-6.021-.067-1.64.001zm-.314-3.022c.411.111 3.972.1 5.663.165-1.537.06-10.018-.097-5.663-.165zm-3.215 5.491c.026.096 4.406.188 6.507.099-.999-.004-1.921-.01-1.614-.066 2.382 0 5.149.08 8.197.003-.461-.001-.922-.026.026-.032.231.065 2.203.065 2.408.13-6.583.095-8.838.004-16.42.092 1.767-.082-.692-.183.896-.226zm7.323-1.753c.845-.024 3.125-.153 4.124-.063h-1.639c2.306.05-1.665.155-2.485.063z" fill="#45BABC"/><path fill-rule="evenodd" clip-rule="evenodd" d="M702.664 11.478c4.253.006-1.486-.19 2.536-.194 1.281.101 2.537.054 4.048.099-1.152.008-.973.07-1.69.096-1.947-.024-6.636.079-4.894-.001zm1.228-.909c2.972.03.743-.146 3.33-.128 3.331.192 10.324-.066 13.014.2-7.326-.077-9.709.049-16.344-.072zm13.83-1.683c-.897-.072-5.406-.004-5.688-.099 2.485-.01 7.507.047 5.688.099zm-5.119 2.368c-.486.001-.973.004-.845.032 1.076.026 5.483.082 3.228.13-1.511-.018-6.072-.235-2.383-.162zm35.109-5.411c-1.614.008-1.614-.044-2.434-.066 0 .018-.666.035-.819 0 .64-.008.973-.027.845-.064h2.459c-.102.088 1.358.065-.051.13zm25.748 1.1c1.614-.13-4.996-.222-1.538-.248.18.026 0 .065.794.065.923-.006 1.281-.035 1.666-.064-.231-.076-2.511-.075-3.229-.131 3.1-.024 3.894.04 6.533.035-.563.15-2.407.246-4.226.343zm0 .001c-.179.014-.435.029-.845.044.282-.013.563-.03.845-.044zm-2.833 4.593a79.357 79.357 0 002.46-.031c1.153.111-2.408.122-1.742.259 1.896.011 3.151-.004 4.099-.032.538.121-3.535.054-4.15.128.641.007 1.614.002 1.614.032-4.048.05-1.153-.168-4.868-.13-.026-.141 4.919-.078 2.587-.226zm16.025-4.834c1.793-.006 2.588.028 2.408.098-4.739 0-5.943-.05-9.018.029-.64-.06-1.306-.12-1.563-.195 2.075 0 6.072.059 8.404.041-.18.003-.308.01-.231.027zm4.8 4.031c-4.073.05-5.508-.097-7.353-.035l.051-.096c3.049.01 4.663.055 5.714.067-.513 0-.974.004-.82.031.922.004 2.306-.007 2.408.033zm2.476-3.802l-.051.096c-2.255.024-1.614-.064-3.254-.066-.205.024-.051.064-.845.064-.026-.042-1.025-.046-.769-.098.82 0 .999-.027 1.665-.032.666.096 1.204.039 3.254.036zm4.511.912c-1.409.18-7.148.01-9.838-.004 4.509.038 5.687-.057 9.838.004zm-2.23-.49c0-.158-1.895.073-3.253-.034 2.381-.216 13.474-.065 13.09.038-2.177-.011-4.073-.057-7.327-.1 2.127.086-1.46.052-2.51.096zm12.305 3.709c-3.586-.016-2.741.098-5.738.03-1.639.021.436.192-2.536.161-.743-.06 2.485-.107.051-.13-1.076 0-.768.056-1.665.064 1.332-.11-3.33-.142-3.228-.099-.051.02-.128.039-.845.032 1.485-.203 11.451-.126 13.961-.058zm-5.994.584c-.64.008-.947.026-.845.064 5.457-.027 10.452.014 14.705.07-5.277.028-8.607.092-13.911-.038.897.048.846.08-.845.098-.051-.082-2.715-.066-4.893-.066.205-.093 5.174-.16 5.789-.128zm13.774-3.406c2.511.062 8.506-.01 8.942.133-2.588.036-1.973-.051-3.254-.066.487.147-4.739.085-6.584.063 1.742-.01-1.128-.087.896-.13zm7.23 2.213c-3.1-.005-1.306.188-4.176.191-1.025-.155 3.305-.316 4.176-.191zm-1.945.714c-.051-.02-.103-.038-.794-.032-.103.04-.282.077-1.665.064-.59-.093 1.844-.228 3.33-.128-2.921 0 1.665.106-.871.096zm11.221.556c-1.152.238 11.734.208 14.578.396-3.485-.044-12.169-.01-17.984-.073 1.05-.16.153-.37 3.406-.323zm9.12-.254c-.717.03-5.815.14-4.124.063 1.357 0 .486-.09 1.665-.096-.282.099 2.408-.084 2.459.032zm3.1.388c-.846-.13-5.61.031-7.327-.1 7.992-.081 15.063.173 16.421-.093.512.11 1.46.199 3.996.23 8.582-.189 25.797-.05 32.74.044-7.199-.024-14.423.047-19.623-.073.128.07-.718.102-2.511.096-8.275-.135-17.65.138-27.001-.076.282-.11 3.023.087 3.305-.028zm11.68-.481c1.076 0 .769-.056 1.665-.064.871.03.205.12 2.409.098.358-.054-1.179-.083.051-.098.205.076 2.152.075 3.253.035-.179.092 2.741.063 1.563.194-4.432-.068-8.863.063-10.606-.101 1.23.099-4.278.083-4.124.031 1.332.025 3.586-.062 1.665-.064-3.1.04-5.38.11-9.863.093 1.562-.164-.743-.076-1.563-.195 3.919-.033 2.972.12 6.507.1-.923-.126 9.607-.107 9.043-.03zm36.553-1.187c8.531.285 18.701.03 29.409.173-.051.174-3.919.063-5.764.063-8.863 0-18.828.025-26.206-.01 1.332.071 2.306.23.667.358-1-.128-11.273-.143-12.272-.07-.64-.117-2.562-.18.922-.227-.461.137 10.248.16 9.837.003-1.563-.133-9.171-.049-12.271-.038 1.691-.156 0-.247 3.407-.323-2.613.143 3.484.119 1.537.228.82 0 .974.025 1.64.032 1.357-.168 7.275-.003 6.635-.192.384.04.845.074 1.588.099.564-.072-2.255-.105.871-.097zm4.847 2.046c-3.996.029-5.688-.211-7.352-.003-1.948 0-2.383-.057-4.919-.035 1.972-.219 9.837-.13 12.271.038zm4.226-.322c-4.202-.032-8.352.16-10.632-.035 2.818-.027 3.817.005 7.378-.03-1.767.133 5.764-.037 3.254.065z" fill="#45BABC"/><path fill-rule="evenodd" clip-rule="evenodd" d="M896.537 12.041c.23-.165 7.916.002 9.888-.159 1.153.128 1.281.007 2.485-.031 1.742.068-.154.104-.897.162 2.024-.005 3.971-.005 4.074.066-2.998-.039-6.84.026-4.893-.067-1.179.007-1.409.054-2.485.064-1.793-.048 1.05-.078-.769-.098-2.203-.023-1.614.066-2.51.096-1.921.002-2.383-.055-4.893-.033zm21.288.009c.947-.007.922-.05.845-.097 4.098-.003.973-.106 4.175-.16-1.076-.001-.717-.056-1.614-.064-1.076 0-.768.056-1.665.064-.128-.038-1.281-.035-2.434-.033 2.767-.177-.922-.164 3.381-.226 4.202.114 9.223.055 10.555.232-8.044.003-9.017.256-9.17.354-.999-.108-3.919.066-4.073-.07zm16.025-4.803h-1.639c.025.041 1.024.045.768.096h-2.459l.051-.097c1.512.03 2.767-.096 3.279 0zm10.207 4.781c-1.922-.01-3.357-.064-4.919-.003 1.511-.195-3.715.023-4.868-.098 2.562-.026 9.735-.065 9.787.101zm-4.741-.457c.718.088 1.87-.098 3.28 0-.308.075-.589.152-3.331.128 1.153-.072-2.05-.121.051-.128zm29.409.206c-.513.083.282.118 2.408.099.128-.12.948-.093.076-.195.974-.036 2.921-.037 4.919-.031 2.485.214 11.99.14 18.778.137.974.106-2.664.024-1.69.13.64.007 1.614.002 1.614.033-3.561-.046-6.148.02-9.018.028-.128-.047.333-.119-.769-.13-2.126.055-2.843-.038-4.124.031 1.409 0 2.101.026 2.434.067-1.179.007-1.409.053-2.485.064-3.638-.122-12.604.037-14.654-.201h1.64c.102-.02.179-.038.871-.032zm21.696-.933c-1.639 0-1.076.089-3.304.064-2.024-.052-6.38-.178-3.972-.294-.179.07.615.103 2.408.099.384-.134 2.46-.018 2.511-.128-1.973.066-5.764-.017-4.048-.067-.384.053 3.048-.001 3.304-.032-2.331-.007-3.381-.06-5.712-.067-2.126.223-5.79-.053-9.094.223-.333-.061-2.306-.058-1.563-.162 2.331-.026 4.714-.052 4.175-.193 9.837.056 13.603.087 19.7-.09 2.459.06-2.28.1-.051.131 2.049-.137 4.509.14 6.555.003-1.867.009-3.071-.009-3.225-.066 2.795.031 6.735.016 8.145.101-.97.004-.92.05-.87.097-4.02-.047-3.89.097-1.69.13-3.66-.026-9.94-.228-12.245-.102 3.023 0 3.663.093 5.662.13-1.281.004-2.844-.005-2.485.065 3.433.056 4.406.018 5.688.131 1.71-.25 6.61-.025 11.48-.028 6.27-.005 11.73-.121 16.34.07 3.82-.189 15.45.047 22.18-.153-.66.142 1.64-.026 1.62.065-2.28.055 5.74.09 2.35.195-2.71-.064-5.43-.1-7.37-.003-6.97-.251-16.5.116-22.09-.074-2.97.011-5.5.041-8.22.061-.79-.044-.72-.12-2.41-.13-.92.162-2.1.014-4.91-.003-1.52.16-17.424.126-18.859.027zm-5.28-1.011c-4.1-.123-10.376.024-12.195-.2 10.094.08 20.418.067 35.174.079-4.89.23-20.393-.125-22.979.12zm14.068 1.533c-2.921.049-3.664-.02-6.559.03-.333-.126-1.742-.21-4.816-.23-.794.134-3.126.004-5.764.064.819-.132-4.381-.114-5.688-.067 3.612-.184 13.45-.021 18.855-.058-1.972.087 1.256.217 3.228.131.154-.044-4.714-.043-1.588-.098 1.076.121.153-.097 1.665-.064 3.378.054 5.248-.006 10.628.035-.05.044.36.072.77.099-2.82.138-12.064-.079-10.731.158z" fill="#45BABC"/><path fill-rule="evenodd" clip-rule="evenodd" d="M981.429 10.84h-1.639l-.051.13a79.08 79.08 0 01-2.434-.032c0-.022.025-.044.025-.064 2.05.032 2.921-.142 4.099-.033zm15.231-4.901c2.69-.016 5.33.131 4.02.162.31-.116-5.531.003-4.02-.162zm11.29 6.047c-4.49-.075-8.766.069-12.25-.07 5.05.009 9.3-.065 12.25.07zm21.65-6.456c2.33-.026 2.31-.148 4.97-.16 1.03.077-.13.06.75.162-1.85.054-5.38.018-5.72-.003zm22.61 6.41c-2.23-.031 1.51-.114-.74-.162 2.23.028 5.76.132 2.38.194 1.56.014 2.03.07 4.08.067-.24-.064 1.12-.065 1.69-.096-1.82.052-4.51-.006-2.44-.067 1.03.02 3.31-.053 4.9.067-.95.004-.93.05-.88.096-4.76.075-17.21.124-16.37-.038 1.75.03 5.72.045 7.38-.061zm16.86-1.098l.28.014-.57.005c.11-.006.24-.012.29-.019zm.28.014c5.94-.046 15.78-.006 21.77.06.64-.156 4.95.01 6.59-.061-.72.073-1.87.06-4.15.127-4-.08-16.45-.012-22.11.023-.05-.074-1.21-.107-2.1-.15zm-7.71.079c.15-.104 2.79-.107 3.35-.194-.18.08 1.21.101 2.41.13l1.38-.013c-1.28.081-5.94.104-7.14.077zm1.15 1.106c1.64.014 6.05.082 7.38.003-3.1.015.67-.167.92-.226.75.168 5.2.018 7.33.1-.59.109-3.05.138-5.79.159-1.15-.124 3.66-.005 2.51-.128-2.02-.005-3.41.016-4.12.063.64.007.94.028.79.064-3.36.028-7.99.137-9.02-.035zm32.84-2.035c-4.07.015-2.97-.003-7.35-.035-5.92-.043-14.45.027-15.53-.07 8.94-.073 19.68-.05 28.67-.054 10.07-.004 18.37.003 25.33.075-3.1.07-9.73-.033-11.52.157-.11-.038.17-.093-.77-.098h-3.28c1.02.077-.13.06.74.161-3.48-.116-10.83.037-15.52-.038 4.94-.01.05-.1-.77-.098zm11.42.07c1.44-.03 3.18-.072 1.69-.128-2.53-.016-2.97.08-1.69.128zm-6.12-.945c-3.31.03-5.89-.014-8.15-.101l4.1.002c-.54.126 3.38-.025 4.05.099zm-5.53 3.248c-3.12.025 4.64.043.77.098-.23-.075-3.56-.034-4.05-.099.52-.009 3.18-.079 3.28 0zm1.71-2.047c1.98.043.49.065 1.59.098h1.64c1.16-.072-2.05-.123.05-.13.46.077 1.62-.083 3.31-.063.31.055-1.26.083-.05.098 5.5-.17 10.83.015 16.34.008-.77.056-.05.174-2.53.16-2.57.008 2.12-.093-.77-.098-1.31.047-1.67.13-4.95.095.98-.094.54-.119-1.56-.162-1.49.04-4.77.003-5.76.061-.06.044.35.071.76.098-5.63.077-10.52-.043-8.07-.165zm12.87.495c1.3.115 2.2.039 2.46 0 1.35.101 5.2.064 4.89.003 1.43.173 9.3-.072 8.94.133-9.25-.036-18.32.073-26.95-.078 3.97-.055 7.68.053 10.66-.058zm.33 1.103c-.46 0-.92-.025.03-.031.89.076 3.2-.046 4.04.066-2.43 0-2.81.083-4.94.096-.15-.062.95-.072.87-.13zm14.88-2.203c-1.23.051-4.28.11-4.07-.034 5.4.03-1.21-.09 1.69-.128 0 .042 1.43.03 1.61.066-2.36.016 1.23.051.77.096zm-4.41.746c1.31-.057 4.41-.04 5.77-.093-1.85-.084-5.1.008-4.87-.099 2.67.056 3.61-.014 5.77-.06 2.58.103 1.43.154 3.12.292-2.33-.077-7.15.062-9.79-.04zm25.82-4.438c1.15-.003 3.12.008 1.61.034-2.56-.038-2.18.009-4.1-.035-.1-.081 1.31-.1 2.54-.128 1.33.065-.1.04-.05.129zm19.85-.311c3.05-.007 15.22-.161 14.78.044-5.1-.11-11.37.054-14.78-.044zm-1.83 5.329c3.51-.102-2.54-.255 2.58-.29-.02.086-.53.189 1.54.196 1.31-.047 6.51-.06 5.69.07-3.43.079-5.87-.013-8.97-.008-.07.02-.15.038-.84.032zm16.43-4.991c1.31-.001.69-.082 2.49-.062-.18.214-7.92 0-3.26-.069 2.03.046-1.51.096.77.13zm13.89.175c-3.64-.112-8.58-.05-9.76-.204 2.71-.054 3.87.16 4.1.005 2.99.125 6.94.016 9.78.139-.79.08-4.17-.092-4.12.06zm101.83.305c-6.66.02-10.66-.024-15.58-.102 6.23.011 12.02.03 15.58.102zm-3.49.251c.13.037.87.052 1.59.068.03-.032 1.49-.037 1.64.004-2.33-.01-1.69.106-4.97.054.16-.06.62-.108 1.74-.126zM24.663 3.642c-2.536.142-.922.103-.922.227 0 .12-6.096.435-6.044.712 0 .02 1.819.034 1.588.099-.844.249-5.763.414-1.894.584-8.454.037-5.56-.268-4.715-.457.103-.022-3.587-.367.179-.39-.948-.05-3.382-.04-3.228-.13.717-.11 5.353-.059 3.355-.195 1.127-.078 3.023.038 3.279-.031-1.947-.096 1.844-.171 2.587-.259-.205-.068-3.638-.01-3.228-.099 4.714.051 5.226-.072 9.043-.06zm414.077.81c.948-.004 2.331.007 2.459-.031-4.022-.017-5.738-.017-8.223.06 1.332-.114-2.767-.019-2.408-.098 2.1-.067 2.1 0 5.764-.095 2.126.013 2.433.098 4.867.099.026-.044 1.46-.03 1.665-.064-1.742-.06-4.073-.097-4.816-.197 3.483-.01 7.583.212 11.323.296-2.485-.06-6.839.096-10.631.03zm41.527.568c-3.791-.1-6.686-.002-8.966-.133h1.639c.461-.1-1.87-.133.896-.162 4.048.145 10.709.008 13.834.2-2.638.065-6.02-.052-7.403.096zm246.081.977c-.102.088 1.332.065-.051.13-5.662-.087-10.504-.012-15.525-.103 1.537-.087 2.767-.004 4.124-.063-1.511-.005-2.715-.022-3.253-.067 6.174-.066 15.345-.009 23.748.01-.41.12-6.507.1-9.043.093zm83.181.843c-.103-.038.179-.092-.769-.098h-1.64c-1.434.083.872.114-.896.162-.692-.089-3.048.063-3.254-.067.641-.007 1.614 0 1.64-.032-3.971-.013-2.716-.085-5.739-.002 1.973-.101.256-.18 2.561-.226 2.69-.027 6.098.14 8.173.035.077.1 4.612.221-.076.228zm.65 4.16c2.1.003 3.894.019 4.893.067-1.409-.003-2.101.024-2.485.063 1.922.068 3.843-.064 4.048.067-.205.05-3.023-.02-4.125.064 2.511.042 3.177-.026 4.868.066-2.203-.02-6.507.04-7.352-.035 4.611-.064-3.767-.157.153-.292zm-1.139-4.94c-.026-.041-1.025-.045-.769-.097 3.945-.147 11.964.03 17.19.038-3.33.218-10.375-.034-16.421.06zm4.613.75c.282-.075-.077-.124-.743-.162 5.405-.119 7.891.172 10.631.035.077.06.487.11 1.589.13.359-.05 4.816.003 5.713.035-7.506-.004-11.041.082-17.19-.038zm65.103 4.672c2.741-.035 11.452-.045 14.705.07 1.051-.012 1.691-.042 1.691-.096 2.255.051 6.123.04 7.301.134-5.533-.112-10.401-.01-13.167.156-.666-.094-1.204-.037-3.253-.034.921-.135-5.304-.155-6.508-.1.743.035 3.023.011 2.409.1-5.713-.066-11.581-.28-14.731-.04.974.007 2.331-.005 2.459.035-1.998.025-3.97.025-5.713-.035 3.459.006 0-.05.052-.096 3.202.043 2.459-.076 2.535-.162 2.562.038 2.024-.051 3.305-.064.974.048 3.1.05 4.048.099 1.562-.16 5.405-.063 4.867.033zm27.682-5.254c-6.046-.046-9.914.005-15.525-.07 3.535-.135 4.688-.035 9.837-.03 1.153-.04.563-.152 1.716-.193 2.05-.005 2.511.052 4.073.067.231.101-1.946.154-.101.226zm231.482 4.286c-1.3-.175-4.94-.153-7.25-.232 6.87-.091 12.09.09 17.99-.021.28.055-1.26.083-.05.098 2.28-.151 5.81.03 9.78.008 2.08-.025 2.64-.112 4.18-.16 1.38.065 4.2.072 7.32.071.7.16-2.53.16-4.99.192-1.08-.002-.72-.059-1.62-.067-.66.082-6.73.044-4.14.16-6.28-.258-11.64.017-21.22-.05z" fill="#45BABC"/></svg>