<svg width="1920" height="531" fill="none" xmlns="http://www.w3.org/2000/svg"><path fill-rule="evenodd" clip-rule="evenodd" d="M1736.83 462.281c-2.91 1.492-14.94 9.828-16.14 8.435-.97-1.144.46-3.895 1.54-4.57 4.14-2.593 8.4-5.047 12.87-7.315-1.62-1.352-11.59-7.585-8.34-9.196 1.59-.79 1.96-.954 3.18-.081 2.32 1.637 4.65 3.273 6.97 4.91 2.29 1.62 1.59 1.366 4.42.317 1.09-.399 2.19-.813 3.27-1.213 3.97 1.765 2 1.725-1.74 4.736-1.91 1.536-1.62 1.142-2.16 3.353-.8 3.172-1.6 6.344-2.39 9.516-.46 1.846-.12 1.59-1.8 2.762-3.7 2.538-.12-8.768.32-11.654zm22.71-39.536c-2.35-2.09-14.32-10.063-13.19-11.545.94-1.2 4.2-.801 5.19-.066 3.84 2.831 7.55 5.807 11.14 9.033.97-1.839 4.78-12.51 7.34-10.162 1.26 1.147 1.53 1.424.95 2.765l-3.24 7.631c-1.07 2.508-1 1.812.87 3.976.71.825 1.44 1.662 2.15 2.487-.77 4.033-1.26 2.292-5.42-.057-2.12-1.205-1.63-1.068-4.09-.863l-10.59.847c-2.05.166-1.7.387-3.37-.718-3.66-2.463 9.13-2.818 12.26-3.328zm34.98 46.005c-3.1 1.115-16.23 7.878-17.21 6.344-.78-1.259 1.04-3.811 2.21-4.346 4.48-2.053 9.05-3.954 13.82-5.642-1.4-1.547-10.31-8.995-6.87-10.186 1.69-.584 2.08-.7 3.16.321l6.15 5.755c2.02 1.899 1.36 1.557 4.32.873 1.13-.26 2.28-.533 3.4-.793 3.67 2.255 1.73 1.965-2.42 4.485-2.12 1.284-1.77.93-2.64 3.057-1.27 3.051-2.53 6.101-3.79 9.151-.74 1.775-.36 1.564-2.19 2.517-4.04 2.053 1.2-8.725 2.06-11.536zm28.37-36.405c-2-2.371-12.62-11.8-11.29-13.129 1.11-1.074 4.27-.267 5.14.589 3.36 3.294 6.59 6.719 9.64 10.375 1.24-1.704 6.61-11.822 8.78-9.167 1.07 1.298 1.3 1.608.52 2.865-1.45 2.391-2.89 4.781-4.34 7.171-1.44 2.357-1.26 1.674.25 4.058.58.91 1.18 1.833 1.76 2.742-1.37 3.91-1.59 2.118-5.35-.74-1.91-1.464-1.45-1.266-3.91-1.373l-10.59-.494c-2.05-.094-1.73.171-3.22-1.137-3.24-2.908 9.44-1.648 12.61-1.76zm32.82 51.139c-3.09 1.116-16.23 7.878-17.2 6.344-.78-1.258 1.04-3.811 2.2-4.345 4.48-2.054 9.06-3.954 13.82-5.642-1.4-1.547-10.31-8.996-6.86-10.186 1.68-.585 2.08-.7 3.15.32l6.15 5.756c2.02 1.898 1.36 1.557 4.32.872 1.13-.26 2.28-.532 3.41-.792 3.66 2.254 1.72 1.965-2.43 4.484-2.12 1.284-1.77.93-2.64 3.058-1.26 3.05-2.53 6.1-3.79 9.15-.73 1.775-.36 1.564-2.19 2.517-4.03 2.054 1.2-8.724 2.06-11.536zm28.38-36.405c-2.01-2.371-12.63-11.799-11.29-13.129 1.1-1.074 4.26-.266 5.13.589 3.36 3.295 6.59 6.719 9.64 10.375 1.24-1.703 6.61-11.822 8.79-9.167 1.07 1.298 1.29 1.608.52 2.866l-4.35 7.171c-1.44 2.356-1.26 1.673.26 4.058.57.909 1.17 1.832 1.75 2.742-1.37 3.909-1.59 2.117-5.34-.741-1.92-1.464-1.46-1.265-3.92-1.372l-10.58-.494c-2.06-.094-1.73.171-3.22-1.138-3.24-2.907 9.44-1.648 12.61-1.76zm26.95 56.835c-3.1 1.116-16.23 7.878-17.21 6.344-.78-1.258 1.04-3.811 2.21-4.345 4.48-2.054 9.05-3.954 13.82-5.642-1.4-1.547-10.31-8.996-6.87-10.186 1.69-.585 2.08-.7 3.16.32l6.15 5.756c2.01 1.898 1.36 1.557 4.32.872 1.13-.26 2.27-.532 3.4-.792 3.67 2.254 1.72 1.965-2.42 4.485-2.13 1.283-1.77.93-2.65 3.057-1.26 3.05-2.52 6.1-3.79 9.151-.73 1.774-.35 1.563-2.18 2.516-4.04 2.054 1.2-8.724 2.06-11.536zm28.37-36.405c-2-2.371-12.63-11.799-11.29-13.129 1.11-1.074 4.27-.266 5.14.589 3.36 3.295 6.58 6.72 9.64 10.375 1.24-1.703 6.6-11.822 8.78-9.167 1.07 1.299 1.3 1.608.52 2.866l-4.35 7.171c-1.43 2.356-1.25 1.673.26 4.058.58.909 1.18 1.832 1.75 2.742-1.36 3.909-1.58 2.117-5.34-.74-1.92-1.465-1.45-1.266-3.91-1.373l-10.59-.494c-2.05-.094-1.73.171-3.22-1.138-3.24-2.907 9.44-1.648 12.61-1.76zm-258.06-3.214c-2.6 1.91-13 11.934-14.44 10.748-1.16-.978-.25-3.898.7-4.725 3.62-3.179 7.39-6.24 11.41-9.15-1.85-1.082-12.84-5.69-9.93-7.767 1.43-1.018 1.77-1.236 3.14-.564 2.59 1.254 5.19 2.509 7.79 3.763 2.56 1.245 1.81 1.102 4.43-.361 1-.557 2.01-1.132 3.01-1.689 4.25 1.129 2.3 1.389-.86 4.919-1.62 1.801-1.39 1.368-1.53 3.625-.22 3.238-.43 6.477-.64 9.716-.12 1.884.17 1.58-1.27 2.986-3.21 3.058-1.71-8.598-1.81-11.501zm15.3-42.313c-2.7-1.696-15.99-7.709-15.14-9.337.71-1.322 4-1.426 5.12-.856 4.31 2.199 8.53 4.557 12.66 7.182.63-1.955 2.46-13.023 5.42-11.106 1.45.937 1.77 1.168 1.44 2.573-.61 2.665-1.21 5.329-1.82 7.994-.61 2.628-.66 1.932 1.58 3.775.85.703 1.72 1.414 2.58 2.117-.03 4.08-.83 2.444-5.38.769-2.31-.861-1.8-.801-4.2-.225l-10.32 2.445c-2 .475-1.61.638-3.47-.192-4.06-1.864 8.52-4.16 11.53-5.139zM1622 475.094c-2.44 2.088-11.96 12.812-13.5 11.735-1.24-.89-.58-3.862.29-4.753 3.35-3.425 6.85-6.742 10.62-9.927-1.94-.945-13.32-4.741-10.58-7.018 1.34-1.116 1.66-1.357 3.08-.787l8.1 3.187c2.66 1.054 1.91.966 4.39-.678.95-.626 1.91-1.271 2.86-1.897 4.35.818 2.42 1.217-.43 4.957-1.46 1.909-1.28 1.462-1.22 3.719.06 3.238.13 6.477.19 9.716.04 1.884.31 1.561-1.01 3.064-2.94 3.274-2.45-8.436-2.79-11.318zm11.65-43.215c-2.84-1.494-16.62-6.525-15.91-8.207.59-1.366 3.87-1.707 5.04-1.219 4.49 1.879 8.9 3.923 13.25 6.239.46-1.991 1.35-13.139 4.47-11.443 1.52.828 1.86 1.034 1.65 2.457-.38 2.696-.75 5.392-1.13 8.087-.38 2.661-.5 1.971 1.9 3.645.91.638 1.84 1.283 2.75 1.922.33 4.063-.62 2.492-5.29 1.15-2.39-.69-1.88-.666-4.22.078l-10.1 3.176c-1.96.617-1.55.75-3.48.057-4.21-1.563 8.15-4.751 11.07-5.942zm-75.48 60.398c-2.42 2.105-11.84 12.897-13.39 11.831-1.25-.88-.62-3.857.24-4.754 3.32-3.449 6.79-6.79 10.53-10.003-1.94-.93-13.35-4.642-10.64-6.939 1.33-1.125 1.65-1.369 3.08-.809 2.71 1.042 5.41 2.085 8.12 3.127 2.68 1.035 1.92.952 4.39-.71.95-.633 1.9-1.285 2.85-1.918 4.35.786 2.42 1.2-.39 4.96-1.45 1.919-1.27 1.471-1.19 3.726.09 3.238.18 6.476.28 9.714.05 1.883.32 1.558-.99 3.071-2.91 3.294-2.52-8.417-2.89-11.296zm11.28-43.292c-2.85-1.473-16.68-6.402-15.99-8.089.58-1.37 3.86-1.735 5.03-1.256 4.51 1.846 8.94 3.858 13.31 6.142.44-1.995 1.23-13.147 4.37-11.475 1.53.817 1.87 1.021 1.67 2.446-.35 2.698-.71 5.395-1.06 8.093-.36 2.663-.48 1.975 1.93 3.63.92.632 1.86 1.27 2.77 1.901.36 4.061-.59 2.497-5.28 1.19-2.4-.672-1.88-.653-4.22.109-3.36 1.082-6.72 2.165-10.07 3.248-1.96.631-1.54.762-3.48.083-4.23-1.532 8.11-4.81 11.02-6.022zm-83.69 52.879c-2.73 1.763-13.75 11.201-15.11 9.935-1.09-1.042.01-3.91 1-4.683 3.83-2.975 7.79-5.823 11.99-8.507-1.77-1.185-12.43-6.403-9.38-8.316 1.49-.938 1.85-1.137 3.16-.389 2.51 1.398 5.01 2.797 7.52 4.196 2.47 1.386 1.73 1.202 4.44-.114 1.03-.501 2.08-1.019 3.11-1.52 4.17 1.366 2.2 1.517-1.18 4.868-1.73 1.709-1.48 1.29-1.77 3.537-.43 3.225-.85 6.449-1.28 9.674-.25 1.876.06 1.589-1.47 2.914-3.4 2.877-1.13-8.689-1.03-11.595zm18.06-41.432c-2.58-1.845-15.43-8.597-14.47-10.177.79-1.281 4.09-1.201 5.16-.568 4.15 2.437 8.2 5.03 12.14 7.883.76-1.919 3.33-12.877 6.15-10.795 1.38 1.016 1.69 1.265 1.26 2.651-.78 2.629-1.56 5.258-2.35 7.887-.78 2.593-.78 1.894 1.33 3.861.8.75 1.62 1.509 2.43 2.259-.3 4.077-.99 2.396-5.41.469-2.25-.99-1.75-.901-4.17-.46l-10.46 1.867c-2.03.364-1.64.548-3.44-.385-3.93-2.09 8.77-3.681 11.83-4.492zm-88.68 45.141c-2.73 1.763-13.75 11.201-15.11 9.935-1.09-1.042.01-3.91 1-4.683 3.83-2.975 7.79-5.823 11.99-8.508-1.77-1.184-12.42-6.403-9.38-8.315 1.49-.938 1.85-1.137 3.17-.389 2.5 1.398 5 2.797 7.51 4.195 2.47 1.387 1.74 1.203 4.44-.113 1.03-.501 2.08-1.019 3.11-1.52 4.17 1.366 2.2 1.517-1.18 4.868-1.73 1.709-1.48 1.289-1.77 3.537-.43 3.224-.85 6.449-1.28 9.674-.25 1.876.06 1.589-1.47 2.914-3.39 2.877-1.13-8.689-1.03-11.595zm18.06-41.432c-2.58-1.845-15.42-8.597-14.47-10.177.79-1.281 4.09-1.201 5.17-.568 4.14 2.437 8.19 5.029 12.13 7.883.76-1.919 3.33-12.877 6.15-10.796 1.39 1.017 1.69 1.266 1.26 2.652l-2.34 7.886c-.78 2.594-.79 1.895 1.32 3.862.8.75 1.63 1.509 2.43 2.259-.3 4.077-.99 2.396-5.41.468-2.25-.989-1.75-.9-4.17-.459l-10.46 1.867c-2.03.363-1.64.548-3.44-.385-3.93-2.09 8.77-3.681 11.83-4.492zm-85.12 47.171c-2.85 1.592-14.53 10.336-15.79 8.988-1.01-1.11.3-3.906 1.34-4.617 4.04-2.735 8.19-5.334 12.58-7.755-1.68-1.293-11.91-7.169-8.73-8.89 1.55-.845 1.92-1.021 3.18-.193l7.17 4.659c2.36 1.538 1.64 1.309 4.44.162 1.06-.437 2.15-.889 3.21-1.325 4.05 1.623 2.08 1.651-1.54 4.789-1.85 1.601-1.57 1.197-2.02 3.424-.67 3.195-1.33 6.39-1.99 9.586-.39 1.858-.06 1.591-1.68 2.82-3.6 2.663-.49-8.751-.17-11.648zm21.06-40.272c-2.43-2.004-14.74-9.546-13.67-11.065.89-1.231 4.16-.947 5.19-.248 3.95 2.692 7.79 5.534 11.51 8.629.9-1.869 4.26-12.658 6.92-10.403 1.31 1.101 1.59 1.369 1.07 2.727-.98 2.578-1.95 5.156-2.93 7.733-.97 2.543-.92 1.844 1.04 3.94.74.799 1.51 1.609 2.25 2.408-.6 4.054-1.16 2.333-5.42.132-2.18-1.128-1.68-1.008-4.13-.718l-10.55 1.216c-2.05.238-1.68.446-3.4-.598-3.76-2.332 9.01-3.133 12.12-3.753zm-97.47 47.334c-2.84 1.592-14.53 10.336-15.78 8.988-1.02-1.11.29-3.906 1.34-4.617 4.04-2.735 8.19-5.334 12.58-7.755-1.68-1.293-11.91-7.169-8.73-8.89 1.55-.845 1.92-1.021 3.18-.193l7.17 4.659c2.36 1.538 1.64 1.309 4.44.162 1.06-.437 2.15-.889 3.21-1.325 4.05 1.623 2.08 1.651-1.54 4.789-1.85 1.601-1.57 1.197-2.02 3.424-.67 3.195-1.33 6.39-2 9.586-.38 1.858-.05 1.591-1.67 2.82-3.6 2.663-.49-8.751-.18-11.648zm21.07-40.272c-2.44-2.004-14.74-9.546-13.67-11.065.89-1.231 4.16-.947 5.19-.248 3.95 2.692 7.79 5.534 11.51 8.629.9-1.869 4.26-12.658 6.92-10.403 1.31 1.102 1.59 1.369 1.06 2.727-.97 2.578-1.94 5.156-2.92 7.733-.97 2.543-.92 1.844 1.03 3.94l2.26 2.408c-.6 4.054-1.16 2.333-5.42.132-2.18-1.128-1.68-1.008-4.13-.718l-10.55 1.216c-2.05.238-1.68.446-3.41-.598-3.75-2.332 9.02-3.133 12.13-3.753zm-95.53 36.773c-3.11 1.064-16.38 7.608-17.32 6.057-.76-1.272 1.11-3.794 2.29-4.309 4.52-1.979 9.13-3.804 13.92-5.412-1.36-1.571-10.12-9.17-6.65-10.303 1.69-.557 2.09-.665 3.14.373l6.03 5.86c1.98 1.932 1.33 1.58 4.3.945 1.14-.241 2.29-.495 3.42-.736 3.62 2.316 1.69 1.994-2.51 4.445-2.15 1.249-1.79.901-2.7 3.014-1.33 3.03-2.65 6.059-3.97 9.089-.77 1.763-.39 1.558-2.24 2.481-4.07 1.986 1.37-8.706 2.29-11.504zm29.09-35.938c-1.96-2.405-12.39-12.013-11.03-13.32 1.13-1.056 4.27-.196 5.13.675 3.29 3.352 6.44 6.831 9.42 10.538 1.28-1.683 6.84-11.714 8.97-9.021 1.04 1.316 1.26 1.629.46 2.874-1.5 2.367-2.99 4.733-4.49 7.1-1.48 2.333-1.29 1.653.18 4.063l1.69 2.772c-1.44 3.887-1.63 2.091-5.32-.83-1.89-1.497-1.43-1.29-3.88-1.438l-10.58-.672c-2.05-.128-1.73.142-3.19-1.192-3.18-2.962 9.46-1.49 12.64-1.549zm-91.9 23.15c-3.12 1.064-16.38 7.608-17.32 6.057-.76-1.272 1.11-3.794 2.29-4.309 4.52-1.979 9.13-3.804 13.92-5.412-1.36-1.571-10.12-9.17-6.65-10.303 1.69-.557 2.09-.665 3.14.374l6.03 5.859c1.98 1.932 1.33 1.58 4.3.945 1.14-.241 2.29-.495 3.42-.736 3.62 2.316 1.69 1.995-2.51 4.445-2.15 1.249-1.79.901-2.7 3.014-1.33 3.03-2.65 6.059-3.97 9.089-.77 1.763-.39 1.558-2.24 2.481-4.08 1.986 1.37-8.706 2.29-11.504zm29.09-35.938c-1.96-2.405-12.39-12.013-11.03-13.32 1.13-1.056 4.27-.195 5.13.675 3.29 3.352 6.44 6.831 9.42 10.538 1.27-1.683 6.84-11.714 8.97-9.021 1.04 1.316 1.26 1.629.46 2.874-1.5 2.367-3 4.733-4.49 7.1-1.48 2.333-1.29 1.653.18 4.063l1.69 2.772c-1.44 3.887-1.63 2.091-5.32-.83-1.89-1.497-1.43-1.29-3.89-1.438l-10.57-.672c-2.05-.128-1.73.143-3.19-1.192-3.19-2.962 9.46-1.49 12.64-1.549zm-94.17 11.904c-3.19.838-16.95 6.419-17.76 4.802-.64-1.324 1.44-3.708 2.65-4.138 4.67-1.651 9.41-3.141 14.32-4.403-1.22-1.666-9.29-9.883-5.74-10.765 1.74-.434 2.14-.514 3.1.599 1.83 2.094 3.67 4.189 5.5 6.283 1.8 2.072 1.19 1.674 4.2 1.253 1.15-.159 2.32-.329 3.47-.489 3.4 2.573 1.5 2.113-2.89 4.258-2.24 1.093-1.85.771-2.94 2.815-1.58 2.93-3.16 5.86-4.73 8.79-.92 1.705-.52 1.528-2.44 2.317-4.23 1.69 2.11-8.595 3.26-11.322zm32.03-33.793c-1.74-2.543-11.3-12.886-9.83-14.093 1.21-.973 4.26.112 5.04 1.042 2.99 3.583 5.83 7.284 8.48 11.2 1.41-1.589 7.81-11.205 9.69-8.364.93 1.389 1.12 1.718.22 2.904-1.69 2.255-3.39 4.51-5.08 6.766-1.67 2.223-1.42 1.557-.17 4.07l1.45 2.889c-1.77 3.778-1.8 1.971-5.23-1.211-1.75-1.63-1.31-1.391-3.74-1.715l-10.46-1.43c-2.03-.276-1.74.017-3.08-1.42-2.92-3.186 9.55-.807 12.71-.638zm-82.91-6.58c-3.29.384-17.78 3.99-18.3 2.275-.415-1.403 2.03-3.476 3.3-3.732 4.87-.983 9.79-1.796 14.84-2.359-.93-1.824-7.5-11.099-3.86-11.476 1.79-.187 2.2-.21 2.96 1.027 1.45 2.333 2.91 4.666 4.37 7 1.43 2.306.89 1.824 3.93 1.829 1.15.003 2.33-.002 3.49.001 2.92 3.026 1.13 2.305-3.55 3.817-2.39.769-1.96.504-3.37 2.378-2.04 2.684-4.09 5.368-6.13 8.052-1.18 1.562-.76 1.442-2.78 1.955-4.45 1.084 3.51-8.224 5.1-10.767zm37.19-29.016c-1.29-2.764-8.99-14.355-7.34-15.346 1.36-.796 4.19.707 4.8 1.739 2.34 3.97 4.53 8.036 6.48 12.289 1.66-1.378 9.57-10.014 10.95-6.934.68 1.506.81 1.859-.27 2.908-2.05 1.999-4.09 3.998-6.13 5.997-2.03 1.969-1.67 1.344-.85 4.011.31 1.016.63 2.05.94 3.067-2.37 3.498-2.1 1.702-4.95-1.933-1.45-1.861-1.05-1.562-3.39-2.224l-10.08-2.882c-1.95-.558-1.71-.226-2.79-1.839-2.34-3.566 9.54.537 12.63 1.147zm-62.853-43.32c-3.081-1.041-17.624-3.913-17.224-5.673.341-1.433 3.531-2.262 4.772-1.958 4.778 1.173 9.513 2.518 14.231 4.141.1-2.027-1.022-13.121 2.37-11.923 1.662.584 2.034.737 2.08 2.167l.326 8.122c.1 2.673-.135 2.012 2.538 3.297 1.01.491 2.05.984 3.07 1.475 1.05 3.946-.17 2.543-5.039 1.928-2.488-.319-1.974-.373-4.159.711l-9.426 4.641c-1.827.902-1.398.971-3.431.58-4.453-.903 7.217-5.898 9.892-7.508zm47.253-10.357c.25-3.024-.69-16.665 1.26-16.859 1.59-.143 3.32 2.398 3.34 3.581.07 4.551-.06 9.119-.47 13.759 2.14-.539 13.43-4.953 13.1-1.608-.16 1.638-.22 2.011-1.7 2.494l-8.4 2.796c-2.77.914-2.14.504-2.76 3.241-.24 1.043-.47 2.108-.71 3.151-3.84 2.139-2.7.641-3.38-3.821-.34-2.281-.14-1.846-1.87-3.427-2.47-2.277-4.93-4.554-7.4-6.831-1.44-1.324-1.39-.926-1.54-2.829-.26-4.185 8.12 4.504 10.53 6.353zm-47.992-49.209c-3.081-1.042-17.624-3.914-17.224-5.674.341-1.433 3.531-2.262 4.772-1.958 4.778 1.173 9.513 2.519 14.231 4.141.1-2.027-1.022-13.121 2.37-11.923 1.662.584 2.034.737 2.08 2.167l.326 8.122c.1 2.673-.135 2.012 2.537 3.297 1.01.491 2.05.984 3.07 1.475 1.05 3.947-.17 2.543-5.038 1.928-2.488-.318-1.974-.373-4.159.712l-9.426 4.641c-1.827.901-1.398.97-3.431.579-4.453-.903 7.217-5.898 9.892-7.507zm47.252-10.358c.25-3.024-.69-16.665 1.26-16.858 1.59-.143 3.32 2.397 3.34 3.58.07 4.551-.05 9.12-.47 13.759 2.14-.539 13.43-4.953 13.1-1.608-.16 1.638-.22 2.011-1.7 2.494l-8.4 2.797c-2.77.914-2.14.503-2.76 3.24-.24 1.043-.47 2.108-.71 3.151-3.84 2.139-2.7.641-3.38-3.82-.34-2.282-.14-1.847-1.87-3.428-2.47-2.277-4.93-4.554-7.4-6.831-1.44-1.324-1.39-.926-1.54-2.829-.26-4.184 8.12 4.504 10.53 6.353zm-53.312-43.486c-3.081-1.041-17.624-3.914-17.225-5.674.342-1.432 3.532-2.261 4.773-1.957 4.777 1.172 9.512 2.518 14.231 4.141.1-2.027-1.022-13.121 2.37-11.923 1.662.584 2.034.736 2.08 2.167l.326 8.121c.1 2.673-.135 2.012 2.533 3.298 1.016.49 2.057.984 3.073 1.474 1.047 3.947-.166 2.544-5.037 1.929-2.489-.319-1.974-.374-4.159.711l-9.427 4.641c-1.826.901-1.397.971-3.43.58-4.453-.903 7.216-5.898 9.892-7.508zm47.252-10.357c.25-3.024-.69-16.665 1.26-16.859 1.59-.143 3.32 2.397 3.34 3.58.07 4.552-.06 9.12-.47 13.759 2.14-.539 13.43-4.952 13.1-1.607-.16 1.637-.22 2.011-1.7 2.494l-8.4 2.796c-2.77.914-2.14.504-2.76 3.241-.24 1.043-.47 2.107-.71 3.15-3.84 2.139-2.7.642-3.38-3.82-.34-2.281-.14-1.847-1.87-3.427-2.47-2.278-4.93-4.555-7.4-6.832-1.44-1.323-1.39-.925-1.54-2.829-.26-4.184 8.12 4.505 10.53 6.354zm-70.454-42.521c-3.253-.479-18.183-.741-18.156-2.532.038-1.461 3.008-2.83 4.294-2.75 4.952.31 9.899.797 14.887 1.558-.324-2-3.744-12.65-.151-12.073 1.759.28 2.157.364 2.501 1.755l2.016 7.884c.656 2.596.286 1.991 3.183 2.78 1.104.302 2.232.602 3.336.904 1.856 3.676.367 2.516-4.561 2.768-2.519.123-2.023-.02-3.95 1.423l-8.321 6.188c-1.612 1.201-1.174 1.194-3.259 1.167-4.577-.103 5.88-7.03 8.181-9.072zm44.404-18.399c-.38-3.001-4.15-16.174-2.28-16.705 1.54-.418 3.78 1.763 4.04 2.916 1.02 4.439 1.85 8.927 2.41 13.536 2-.902 12.2-7.194 12.57-3.865.18 1.629.2 2.005-1.16 2.736-2.56 1.402-5.12 2.803-7.69 4.205-2.53 1.378-2 .867-2.04 3.651-.02 1.062-.03 2.144-.04 3.205-3.34 2.763-2.53 1.1-4.13-3.144-.81-2.171-.53-1.78-2.56-3.024-2.9-1.794-5.81-3.589-8.716-5.383-1.692-1.043-1.566-.661-2.103-2.498-1.132-4.045 8.939 2.984 11.699 4.37zm-89.469-25.464c-3.254-.478-18.184-.741-18.157-2.532.038-1.46 3.008-2.829 4.295-2.749 4.951.31 9.898.797 14.886 1.557-.324-1.999-3.744-12.65-.151-12.072 1.759.28 2.157.364 2.501 1.754l2.016 7.884c.656 2.596.286 1.991 3.183 2.781 1.104.302 2.232.602 3.336.904 1.856 3.675.367 2.515-4.561 2.767-2.519.124-2.023-.02-3.95 1.423l-8.321 6.188c-1.612 1.201-1.175 1.194-3.259 1.168-4.577-.103 5.881-7.03 8.182-9.073zm44.4-18.398c-.381-3.001-4.151-16.175-2.273-16.705 1.537-.418 3.771 1.763 4.037 2.916 1.017 4.438 1.848 8.927 2.405 13.536 2.001-.903 12.203-7.195 12.573-3.866.184 1.63.204 2.005-1.156 2.737l-7.692 4.204c-2.534 1.378-2.002.867-2.043 3.652-.016 1.061-.024 2.143-.04 3.204-3.338 2.764-2.53 1.1-4.127-3.144-.812-2.17-.528-1.78-2.558-3.023l-8.719-5.384c-1.692-1.042-1.566-.661-2.103-2.497-1.132-4.045 8.939 2.983 11.696 4.37zm-100.455-13.619c-3.302-.095-18.186 1.381-18.407-.394-.165-1.449 2.599-3.149 3.89-3.22 4.967-.269 9.954-.362 15.02-.19-.6-1.94-5.477-12.08-1.824-11.927 1.788.073 2.196.11 2.731 1.446l3.096 7.565c1.013 2.492.562 1.937 3.552 2.381 1.14.17 2.303.336 3.442.506 2.355 3.421.714 2.447-4.152 3.269-2.488.415-2.014.216-3.731 1.867l-7.417 7.09c-1.437 1.376-1.002 1.318-3.079 1.534-4.566.431 4.874-7.639 6.879-9.927zm41.604-23.367c-.795-2.925-6.369-15.52-4.575-16.263 1.47-.592 3.995 1.305 4.418 2.416 1.627 4.272 3.076 8.616 4.268 13.112 1.865-1.126 11.139-8.537 11.968-5.287.408 1.59.48 1.96-.771 2.842l-7.066 5.054c-2.33 1.658-1.871 1.091-1.526 3.851.131 1.052.273 2.123.404 3.175-2.937 3.122-2.363 1.382-4.54-2.631-1.108-2.053-.771-1.699-2.962-2.694l-9.417-4.312c-1.827-.835-1.649-.472-2.437-2.226-1.687-3.87 9.302 1.912 12.236 2.963zm-112.002-1.425c-3.302-.095-18.186 1.381-18.407-.394-.165-1.449 2.599-3.149 3.89-3.22 4.967-.269 9.954-.362 15.02-.19-.6-1.94-5.477-12.08-1.824-11.927 1.788.073 2.196.11 2.731 1.446l3.096 7.565c1.012 2.492.561 1.937 3.552 2.381 1.139.17 2.303.336 3.442.506 2.355 3.421.714 2.447-4.152 3.269-2.488.415-2.014.216-3.731 1.867l-7.417 7.09c-1.437 1.376-1.003 1.318-3.079 1.534-4.566.431 4.873-7.639 6.879-9.927zm41.604-23.367c-.795-2.925-6.37-15.52-4.575-16.263 1.47-.592 3.995 1.306 4.418 2.416 1.627 4.272 3.075 8.616 4.268 13.112 1.865-1.126 11.139-8.537 11.968-5.286.408 1.59.48 1.959-.771 2.841l-7.066 5.054c-2.33 1.658-1.872 1.091-1.526 3.85.131 1.053.273 2.124.404 3.176-2.937 3.122-2.363 1.382-4.54-2.63-1.108-2.054-.771-1.7-2.962-2.695a85909.61 85909.61 0 00-9.418-4.312c-1.826-.835-1.648-.472-2.436-2.226-1.687-3.87 9.302 1.912 12.236 2.963zM721.178 82.28c-3.268.516-17.584 4.699-18.191 3.008-.481-1.383 1.865-3.551 3.119-3.858 4.827-1.178 9.711-2.188 14.732-2.953-1.016-1.782-8.039-10.776-4.412-11.299 1.774-.258 2.184-.298 3.003.907l4.707 6.81c1.542 2.245.977 1.786 4.016 1.668 1.158-.044 2.338-.096 3.497-.14 3.066 2.903 1.239 2.255-3.367 3.953-2.356.864-1.934.582-3.26 2.51l-5.739 8.283c-1.111 1.607-.696 1.47-2.692 2.064-4.396 1.26 3.117-8.35 4.587-10.952zm35.792-30.46c-1.424-2.707-9.672-13.967-8.07-15.023 1.316-.849 4.216.538 4.876 1.543 2.538 3.868 4.916 7.84 7.076 12.005 1.587-1.442 9.082-10.38 10.611-7.362.751 1.476.903 1.823-.134 2.914l-5.841 6.233c-1.927 2.046-1.601 1.408-.655 4.037.36 1.002.734 2.021 1.094 3.023-2.203 3.587-2.021 1.784-5.043-1.73-1.541-1.798-1.132-1.516-3.505-2.082l-10.209-2.472c-1.98-.477-1.726-.156-2.886-1.723-2.509-3.465 9.569.152 12.686.636zm-103.4 18.683c-3.268.516-17.584 4.698-18.191 3.007-.48-1.383 1.865-3.55 3.119-3.857 4.827-1.178 9.711-2.188 14.732-2.953-1.016-1.783-8.039-10.776-4.412-11.3 1.775-.258 2.184-.297 3.003.907l4.707 6.81c1.543 2.245.977 1.786 4.016 1.669 1.158-.044 2.339-.097 3.497-.14 3.067 2.903 1.239 2.254-3.366 3.953-2.356.864-1.935.582-3.26 2.51l-5.739 8.282c-1.111 1.607-.697 1.47-2.692 2.064-4.397 1.261 3.116-8.35 4.586-10.952zm35.792-30.461c-1.424-2.707-9.672-13.967-8.07-15.023 1.316-.848 4.216.538 4.876 1.543 2.538 3.869 4.917 7.84 7.076 12.006 1.588-1.442 9.082-10.381 10.611-7.363.751 1.477.903 1.823-.134 2.914l-5.841 6.233c-1.927 2.047-1.601 1.409-.655 4.037.36 1.002.735 2.021 1.094 3.024-2.203 3.587-2.02 1.784-5.043-1.73-1.54-1.799-1.131-1.516-3.505-2.083l-10.209-2.471c-1.98-.478-1.725-.157-2.886-1.723-2.508-3.465 9.57.151 12.686.636zM587.207 58.457c-3.151.973-16.627 7.133-17.516 5.554-.711-1.293 1.245-3.762 2.436-4.243 4.583-1.848 9.252-3.539 14.097-5.008-1.31-1.61-9.797-9.465-6.292-10.497 1.715-.508 2.114-.605 3.13.464l5.821 6.035c1.91 1.99 1.272 1.62 4.263 1.07 1.14-.208 2.301-.428 3.442-.636 3.532 2.421 1.611 2.044-2.665 4.373-2.188 1.186-1.818.848-2.804 2.935l-4.28 8.975c-.828 1.74-.441 1.547-2.317 2.416-4.142 1.869 1.67-8.667 2.685-11.438zM617.5 23.359c-1.871-2.463-11.957-12.375-10.548-13.642 1.159-1.024 4.268-.072 5.093.823 3.173 3.448 6.204 7.02 9.052 10.814 1.328-1.646 7.236-11.517 9.264-8.763.995 1.347 1.204 1.667.362 2.889l-4.729 6.97c-1.562 2.29-1.348 1.615.036 4.069.527.935 1.071 1.886 1.598 2.821-1.574 3.846-1.699 2.045-5.291-.984-1.832-1.552-1.379-1.332-3.827-1.552l-10.537-.978c-2.043-.188-1.736.092-3.152-1.285-3.074-3.055 9.509-1.215 12.679-1.182zM518.113 52.11c-3.152.974-16.627 7.134-17.516 5.555-.711-1.294 1.245-3.762 2.436-4.243 4.583-1.848 9.251-3.539 14.096-5.008-1.309-1.61-9.796-9.465-6.291-10.498 1.715-.507 2.114-.604 3.13.465l5.821 6.035c1.91 1.99 1.271 1.62 4.263 1.07 1.14-.208 2.301-.428 3.441-.636 3.533 2.421 1.611 2.044-2.664 4.373-2.188 1.186-1.818.848-2.804 2.935l-4.28 8.975c-.828 1.74-.441 1.547-2.317 2.416-4.142 1.869 1.67-8.667 2.685-11.438zm30.293-35.097c-1.871-2.463-11.957-12.375-10.549-13.642 1.16-1.024 4.269-.072 5.094.823 3.172 3.448 6.204 7.02 9.051 10.814 1.328-1.646 7.237-11.517 9.265-8.763.994 1.347 1.204 1.667.362 2.889l-4.729 6.97c-1.563 2.29-1.348 1.615.036 4.069.527.935 1.071 1.886 1.598 2.82-1.574 3.847-1.699 2.046-5.291-.983-1.832-1.552-1.379-1.332-3.827-1.552l-10.537-.978c-2.043-.188-1.736.092-3.152-1.285-3.075-3.055 9.508-1.215 12.679-1.182zM451.93 51.676c-2.969 1.387-15.343 9.284-16.48 7.848-.914-1.18.628-3.879 1.732-4.514 4.248-2.443 8.607-4.742 13.176-6.846-1.558-1.411-11.243-8.008-7.933-9.5 1.619-.733 1.999-.882 3.18.035l6.747 5.163c2.216 1.704 1.522 1.425 4.401.479 1.098-.36 2.214-.734 3.312-1.094 3.894 1.91 1.927 1.797-1.938 4.673-1.979 1.466-1.667 1.082-2.308 3.274l-2.799 9.429c-.541 1.829-.188 1.585-1.909 2.696-3.808 2.403.259-8.773.819-11.643zm24.392-38.708c-2.253-2.175-13.857-10.584-12.664-12.025.985-1.166 4.223-.648 5.186.123 3.703 2.97 7.285 6.082 10.722 9.438 1.052-1.803 5.322-12.335 7.777-9.894 1.204 1.193 1.464 1.48.826 2.8l-3.568 7.512c-1.181 2.47-1.076 1.776.692 4.008.673.851 1.367 1.714 2.04 2.566-.941 4.005-1.356 2.246-5.407-.255-2.068-1.282-1.583-1.127-4.047-1.012l-10.61.46c-2.057.092-1.707.326-3.334-.84-3.542-2.596 9.236-2.485 12.387-2.881zm-92.045 50.904c-2.519 2.007-12.449 12.415-13.942 11.286-1.208-.931-.431-3.882.473-4.743 3.481-3.314 7.109-6.515 10.994-9.575-1.898-1.01-13.106-5.184-10.283-7.37 1.38-1.072 1.71-1.302 3.107-.684l7.961 3.456c2.617 1.143 1.866 1.03 4.416-.532.973-.595 1.959-1.208 2.932-1.802 4.307.962 2.361 1.298-.631 4.943-1.534 1.86-1.332 1.42-1.368 3.678l-.191 9.724c-.035 1.885.244 1.57-1.134 3.03-3.063 3.177-2.107-8.517-2.334-11.411zm13.35-42.831c-2.779-1.588-16.344-7.078-15.569-8.736.646-1.347 3.939-1.579 5.084-1.052 4.406 2.028 8.733 4.22 12.983 6.68.54-1.976 1.866-13.095 4.915-11.295 1.494.878 1.824 1.097 1.557 2.513l-1.455 8.05c-.486 2.647-.571 1.954 1.752 3.707.885.67 1.792 1.345 2.677 2.014.161 4.075-.717 2.472-5.336.975-2.359-.77-1.845-.73-4.214-.063l-10.211 2.84c-1.979.552-1.576.699-3.474-.058-4.149-1.704 8.329-4.481 11.291-5.575zm-64.463 63.327c-1.546 2.705-6.626 15.669-8.481 15.137-1.507-.448-1.975-3.43-1.478-4.53 1.917-4.237 4.016-8.419 6.414-12.559-2.185-.284-14.368-.32-12.611-3.294.858-1.456 1.074-1.78 2.631-1.686l8.852.478c2.913.163 2.164.314 3.919-1.992.669-.878 1.345-1.778 2.014-2.656 4.422-.577 2.736.393 1.411 4.768-.682 2.235-.672 1.761.209 3.854l3.76 9.022c.731 1.749.864 1.365.165 3.178-1.58 3.967-5.421-7.13-6.805-9.72zm-4.849-43.994c-3.245-.519-18.167-.966-18.113-2.757.059-1.46 3.048-2.792 4.333-2.697 4.946.371 9.884.92 14.859 1.742-.295-2.004-3.557-12.699.026-12.077 1.754.302 2.152.391 2.475 1.786l1.898 7.91c.618 2.605.258 1.995 3.142 2.82 1.099.316 2.222.63 3.321.946 1.801 3.699.331 2.52-4.6 2.711-2.52.093-2.022-.044-3.969 1.375l-8.409 6.087c-1.629 1.181-1.192 1.18-3.276 1.127-4.573-.16 5.982-6.959 8.313-8.973zm-34.566 83.092c-.292 3.021.472 16.675-1.478 16.848-1.59.126-3.287-2.434-3.291-3.617-.011-4.553.171-9.121.648-13.756-2.152.516-13.492 4.809-13.117 1.467.181-1.636.245-2.009 1.733-2.476l8.431-2.707c2.776-.884 2.144-.481 2.799-3.212.251-1.04.498-2.102.749-3.143 3.866-2.098 2.709-.612 3.329 3.857.312 2.286.121 1.849 1.826 3.448l7.313 6.912c1.419 1.339 1.38.941 1.498 2.846.209 4.188-8.058-4.592-10.44-6.467zm-23.125-38.492c-3.236.678-17.295 5.569-18.004 3.913-.562-1.356 1.652-3.636 2.887-4.005 4.755-1.417 9.577-2.67 14.55-3.685-1.122-1.727-8.68-10.344-5.086-11.048 1.758-.347 2.165-.407 3.056.754l5.112 6.556c1.676 2.161 1.083 1.732 4.114 1.462 1.155-.102 2.332-.214 3.487-.315 3.24 2.741 1.374 2.186-3.128 4.112-2.303.98-1.899.677-3.109 2.666l-5.241 8.55c-1.014 1.659-.608 1.502-2.567 2.194-4.319 1.478 2.616-8.486 3.929-11.154zm10.013 90.617c1.424 2.707 9.675 13.965 8.073 15.021-1.315.849-4.215-.537-4.876-1.542-2.539-3.868-4.918-7.838-7.079-12.003-1.587 1.442-9.079 10.382-10.609 7.364-.751-1.476-.904-1.823.133-2.914l5.839-6.234c1.927-2.047 1.601-1.409.655-4.037-.36-1.002-.735-2.021-1.095-3.023 2.202-3.588 2.02-1.785 5.043 1.728 1.541 1.799 1.132 1.516 3.506 2.082l10.21 2.47c1.98.477 1.725.156 2.886 1.722 2.509 3.465-9.57-.15-12.686-.634zm-41.529-21.959c-2.442 2.086-11.971 12.802-13.508 11.724-1.243-.891-.581-3.863.29-4.753 3.354-3.423 6.858-6.736 10.625-9.919-1.937-.946-13.308-4.752-10.569-7.026 1.339-1.116 1.66-1.356 3.081-.785l8.096 3.194c2.66 1.056 1.906.968 4.395-.675.95-.625 1.913-1.269 2.863-1.894 4.344.821 2.411 1.219-.441 4.956-1.461 1.908-1.277 1.462-1.225 3.718l.185 9.717c.038 1.884.304 1.561-1.018 3.063-2.94 3.272-2.436-8.438-2.774-11.32zm20.734 72.767c1.425 2.706 9.676 13.965 8.074 15.021-1.315.849-4.216-.537-4.876-1.542-2.539-3.868-4.919-7.838-7.079-12.004-1.587 1.442-9.08 10.383-10.61 7.365-.751-1.476-.903-1.823.134-2.914l5.839-6.234c1.927-2.047 1.601-1.409.654-4.038-.36-1.002-.735-2.021-1.094-3.023 2.201-3.587 2.02-1.784 5.043 1.729 1.541 1.798 1.132 1.516 3.505 2.082l10.211 2.469c1.98.478 1.725.156 2.886 1.722 2.509 3.465-9.57-.149-12.687-.633zm-41.529-21.96c-2.442 2.086-11.97 12.803-13.507 11.724-1.244-.891-.581-3.862.29-4.752 3.353-3.423 6.858-6.737 10.625-9.919-1.937-.946-13.308-4.752-10.569-7.027 1.339-1.115 1.66-1.356 3.081-.784l8.095 3.193c2.661 1.057 1.906.969 4.396-.674.95-.626 1.913-1.269 2.862-1.895 4.345.822 2.412 1.22-.44 4.957-1.462 1.908-1.277 1.462-1.226 3.718l.186 9.717c.037 1.883.304 1.561-1.018 3.063-2.94 3.272-2.436-8.438-2.775-11.321zm-4.533 72.854c.816 2.919 6.482 15.479 4.692 16.233-1.466.601-4.004-1.281-4.436-2.389-1.658-4.262-3.137-8.597-4.362-13.084-1.857 1.136-11.079 8.603-11.931 5.357-.42-1.587-.495-1.956.75-2.845l7.03-5.096c2.318-1.672 1.864-1.102 1.499-3.859-.139-1.051-.288-2.122-.427-3.173 2.914-3.139 2.353-1.396 4.559 2.603 1.123 2.046.784 1.695 2.982 2.676l9.45 4.255c1.832.823 1.652.461 2.453 2.211 1.714 3.86-9.317-1.856-12.259-2.889zm-35.9-29.039c-2.829 1.618-14.418 10.47-15.69 9.133-1.025-1.099.254-3.907 1.294-4.628 4.005-2.771 8.133-5.409 12.491-7.87-1.691-1.278-11.99-7.056-8.831-8.807 1.546-.859 1.91-1.038 3.177-.222l7.229 4.59c2.375 1.516 1.656 1.294 4.438.121 1.061-.447 2.139-.909 3.199-1.355 4.07 1.585 2.097 1.632-1.484 4.803-1.834 1.617-1.559 1.211-1.989 3.442l-1.885 9.601c-.364 1.862-.035 1.592-1.646 2.835-3.569 2.697-.585-8.744-.303-11.643zm-13.471 62.818c.371 3.003 4.099 16.187 2.218 16.712-1.537.414-3.765-1.773-4.026-2.927-1.003-4.441-1.82-8.932-2.362-13.543-2.004.897-12.226 7.162-12.585 3.832-.178-1.63-.197-2.005 1.165-2.734l7.705-4.184c2.539-1.371 2.005-.861 2.054-3.646.02-1.061.032-2.143.051-3.204 3.347-2.755 2.533-1.094 4.117 3.155.805 2.173.522 1.781 2.547 3.031l8.702 5.407c1.688 1.047 1.564.665 2.095 2.503 1.119 4.048-8.929-3.008-11.681-4.402zm-31.143-33.332c-3.036 1.254-15.803 8.599-16.861 7.113-.849-1.221.833-3.85 1.968-4.436 4.369-2.253 8.84-4.358 13.511-6.258-1.48-1.48-10.795-8.507-7.412-9.851 1.654-.661 2.041-.794 3.171.176l6.459 5.463c2.12 1.802 1.443 1.492 4.366.674 1.114-.311 2.248-.635 3.362-.946 3.785 2.083 1.829 1.883-2.181 4.585-2.053 1.378-1.721 1.009-2.477 3.171l-3.293 9.303c-.637 1.804-.271 1.576-2.048 2.61-3.927 2.233.724-8.759 1.435-11.604zm-31.409 60.57c-.204 3.026.954 16.649-.991 16.869-1.587.164-3.359-2.352-3.397-3.534-.142-4.549-.092-9.117.251-13.76-2.137.568-13.355 5.132-13.076 1.784.133-1.639.186-2.013 1.66-2.516l8.355-2.909c2.751-.951 2.131-.532 2.707-3.276.221-1.046.438-2.114.658-3.159 3.807-2.19 2.693-.678 3.442 3.773.378 2.276.174 1.844 1.925 3.401l7.514 6.728c1.458 1.304 1.408.906 1.581 2.807.33 4.179-8.192-4.393-10.629-6.208zm-24.24-37.898c-3.218.756-17.139 5.983-17.895 4.346-.602-1.341 1.547-3.672 2.772-4.071 4.715-1.531 9.501-2.899 14.446-4.034-1.172-1.699-8.98-10.125-5.406-10.915 1.748-.39 2.153-.459 3.078.678l5.303 6.427c1.738 2.119 1.133 1.704 4.157 1.361 1.152-.13 2.326-.27 3.478-.4 3.32 2.661 1.438 2.152-3.01 4.185-2.275 1.035-1.88.723-3.032 2.739l-4.995 8.67c-.967 1.681-.565 1.515-2.505 2.254-4.277 1.582 2.372-8.542 3.609-11.24zm-44.091 48.519c-.91 2.928-2.983 16.519-4.925 16.352-1.582-.152-2.713-2.969-2.473-4.136.93-4.49 2.051-8.961 3.475-13.448-2.211.136-14.19 2.403-13.133-.826.515-1.582.653-1.938 2.205-2.141l8.806-1.207c2.899-.391 2.197-.102 3.402-2.681.46-.982.921-1.986 1.381-2.968 4.215-1.398 2.777-.134 2.46 4.379-.166 2.306-.263 1.843 1.074 3.715l5.726 8.081c1.112 1.566 1.156 1.166.878 3.065-.66 4.164-6.933-5.924-8.876-8.185zm-14.671-41.95c-3.306.107-18.069 2.492-18.42.736-.27-1.434 2.367-3.297 3.652-3.446 4.943-.573 9.918-.972 14.992-1.111-.74-1.897-6.354-11.701-2.693-11.772 1.791-.038 2.202-.026 2.834 1.272l3.646 7.349c1.194 2.421.702 1.895 3.723 2.154 1.15.1 2.325.194 3.476.294 2.602 3.264.892 2.393-3.91 3.511-2.455.567-1.997.339-3.59 2.09l-6.893 7.519c-1.335 1.459-.905 1.375-2.965 1.718-4.53.708 4.311-7.911 6.148-10.314zm445.31 94.955v9.519c-34.519 0-63.16-22.232-75.277-54.557l2.236-.831c10.711 28.599 42.504 45.869 73.041 45.869zm-1.362-177.875c-30.132 1.47-58.071 13.224-73.062 42.866 1.98-31.132 7.666-68.505 16.588-89.927 3.493 24.872 11.925 39.246 26.512 40.545 27.513-18.292 49.915-17.526 73.424-11.052-37.116 3.897-42.057 10.349-36.925 9.306 21.955-4.472 49.66 5.302 51.363 5.898-41.737 3.429 9.902 31.325 45.549 4.685 4.877 5.196 3.173 21.231-3.428 31.921h-3.45c1.491-8.305.852-17.866-1.938-19.165-43.079 18.122-55.217-16.993-94.633-15.077zm64.394 183.133c-3.109-4.727-20.123-23.935-17.504-26.149 2.108-1.789 7.538.276 8.922 2.001 5.324 6.644 10.371 13.522 15.098 20.763 2.47-2.918 13.693-20.571 17.036-15.311 1.64 2.555 1.98 3.194.426 5.366-2.96 4.152-5.941 8.284-8.901 12.436-2.939 4.089-2.513 2.853-.256 7.496.873 1.788 1.725 3.577 2.598 5.345-3.088 6.963-3.173 3.62-9.263-2.3-3.109-3.024-2.321-2.577-6.623-3.216-6.175-.915-12.329-1.852-18.505-2.768-3.599-.532-3.066.021-5.451-2.662-5.239-5.898 16.823-1.363 22.423-1.001z" fill="#fff"/><path fill-rule="evenodd" clip-rule="evenodd" d="M504.603 281.28c-7.368 0-14.203 2.151-19.995 5.835-5.43-17.377-21.572-29.429-40.056-29.429-23.19 0-41.971 18.803-41.971 41.971 0 21.87 16.716 39.821 38.074 41.781h-.042c15.226 8.134 21.933 15.523 26.81 33.709l2.321 1.065c12.521-15.482 20.06-19.911 34.859-20.039 20.677 0 37.458-16.759 37.458-37.457 0-20.656-16.781-37.436-37.458-37.436zm-93.079 20.124c0-19.208 15.567-34.775 34.775-34.775 15.247 0 28.641 9.945 33.155 24.404-7.538 6.857-12.287 16.695-12.287 27.683 0 3.279.469 6.431 1.257 9.455-6.218 5.132-14.012 7.985-22.104 7.985-19.229.022-34.796-15.545-34.796-34.752zm71.465 47.913c-4.748 1.873-8.88 4.961-11.882 10.285-1.235-7.475-4.642-14.502-11.073-20.933l-.149.021a41.172 41.172 0 0010.093-5.706 37.417 37.417 0 0013.096 16.354l-.085-.021zm21.976-.661c-17.589 0-31.835-14.246-31.835-31.835 0-17.59 14.246-31.836 31.835-31.836 17.59 0 31.836 14.246 31.836 31.836.021 17.568-14.246 31.835-31.836 31.835z" fill="#fff"/><path d="M494.191 293.438c-1.767.171-1.426 1.342-2.065 4.004-.682 3.194 4.472.617 5.281-1.917.617-1.874-1.129-1.746-3.216-2.087z" fill="#fff"/><path d="M500.175 286.199c-7.603 0-14.523 3.088-19.549 8.071-2.704-14.076-15.119-24.787-29.962-24.787-16.822 0-30.536 13.714-30.536 30.536 0 16.823 13.714 30.537 30.536 30.537 8.902 0 16.908-3.876 22.509-9.987 2.96 12.202 13.948 21.316 27.023 21.316 15.332 0 27.832-12.5 27.832-27.832-.021-15.354-12.521-27.854-27.853-27.854zm-48.041 2.79a8.323 8.323 0 01-1.959.83c-2.023 1.001-4.281 1.193-6.367-.064-3.855-1.107-6.623-4.046-4.472-7.666a6.21 6.21 0 01.234-1.448c.021-1.533.575-2.725 1.469-3.62 1.044-1.916 3.131-3.428 6.58-3.961 3.045-.489 5.345.149 6.942 1.385 1.81.489 2.556 2.044 2.513 4.003 1.001 3.918-.788 8.795-4.94 10.541zm50.788 11.797c-.618 1.618-2.492 2.832-4.6 3.386-.213.106-.405.213-.618.298-6.154 2.811-8.432-.639-8.07-4.408-.085-.532-.107-1.129-.085-1.789-.384-1.469-.235-2.96.787-4.046 1.448-3.535 4.643-3.854 7.432-2.576.597.042 1.193.298 1.746.788 3.684 1.213 6.431 5.174 3.408 8.347z" fill="#fff"/><path d="M442.913 281.706c1.597 1.555 3.237.171 4.579.767 3.875 1.746 5.962-4.217 2.874-7.24-2.917-2.449-8.581 2.619-7.453 6.473z" fill="#fff"/><path fill-rule="evenodd" clip-rule="evenodd" d="M370.575 299.061c-9.327 5.303-19.634 7.816-30.366 7.645-.767-.021-1.448.256-2.066.703-1.427-4.834-2.215-9.859-2.215-14.928-.021-6.367.618-13.799 5.643-18.377 2.322-2.129 5.686-3.556 8.88-3.322 1.427.107 2.343.703 3.599 1.193.554.213.809.617.937.873.362 3.279 1.448 7.027 4.706 8.347 3.216 1.299 5.963-1.405 6.474-4.599 1.916-12.181-6.814-27.066-20.613-25.724-12.671 1.213-20.103 13.905-22.253 25.213-4.77 25.106 3.897 52.406 20.805 71.23 5.451 6.09 10.327-.788 10.775-6.409.362-4.536.042-9.157-.916-13.672 8.262-1.107 16.227-3.748 23.658-7.794 8.156-4.408 2.194-25.617-7.048-20.379zm-15.545-26.128c.042.128.042.17 0 0zm-.107-.873c0-.149-.021-.298-.042-.469.021.149.021.298.042.469zm257.964 30.664c-5.132-3.812-11.521-5.387-17.845-5.217-6.665.17-14.033 3.045-20.677 1.789-.597-.107-1.406-.277-1.959-.618a6.95 6.95 0 01-.192-.937c-.362-2.342-.447-4.706.256-7.006.873-2.832 2.832-5.558 5.281-7.24 1.192-.83 2.96-1.725 4.408-1.959 1.767-.277 2.768 1.001 1.426-.958 1.576 2.278 4.515 4.919 7.368 3.066 2.662-1.725 2.47-6.303 1.235-8.837-3.471-6.985-9.88-11.584-17.908-9.732-7.134 1.64-12.245 8.007-14.332 14.736-4.557 14.566 1.406 35.924 18.846 37.436 7.219.618 14.331-1.916 21.55-1.831 3.152.042 5.814.66 8.582 2.151-.49-.277.085.191.575.532-.043.064-.064.128-.106.213-1.406 2.406-2.236 4.493-4.196 6.58-2.47 2.619-5.323 4.919-8.432 6.729-6.048 3.535-12.372 5.26-19.165 6.069-.724.021-1.47.085-2.215.234-10.392 1.895-4.749 20.997 4.387 20.763 13.671-.362 28.13-7.56 36.69-18.25 9.242-11.584 9.072-28.301-3.577-37.713zm-40.481-3.982c.319.341.213.724 0 0zm104.025-13.991c-2.683-10.712-12.479-17.355-23.467-14.204-10.051 2.875-17.078 12.351-19.506 22.147-1.469 5.92-1.511 11.903-.276 17.866 1.086 5.26 3.173 11.52 8.688 13.288 4.663 1.49 6.473-6.942 6.495-9.562.042-5.217-3.343-10.966-2.364-15.736.831-4.089 5.175-7.539 9.647-8.199 2.193-.319 5.025-.128 6.793 1.384 1.575 1.342 1.533 3.046 1.661 5.005.489 7.517-.299 14.672-1.491 22.103-.596 3.706.404 9.753 4.578 11.052 4.408 1.363 7.091-3.002 8.518-6.473l.426-1.065c.511-1.235.767-2.917.703-4.642 1.831-10.605 2.193-22.7-.405-32.964zm40.033 16.142c-5.537-2.704-12.521-4.94-18.931-4.216.064-4.728-.106-9.604-1.554-13.778-.724-2.108-1.81-4.365-4.408-4.216-2.343.128-4.259 2.683-4.792 4.812-1.597 6.41-1.192 13.075-1.533 19.634-.085 1.682-.192 3.343-.298 5.026-1.065 4.663-.937 9.944-1.193 14.352-.213 3.642.299 9.796 5.026 10.435 4.387.596 7.283-5.196 7.581-8.753.213-2.619.383-5.259.554-7.9 1.959-.064 4.791.49 5.856.724 3.236.703 6.239 2.044 9.39 3.003 4.004 1.214 6.879-4.898 7.496-7.688.746-3.492.639-9.561-3.194-11.435zm75.107-13.396c-6.367-5.75-14.779-6.474-22.381-4.004a184.043 184.043 0 00-2.257-10.264c-.639-2.534-2.023-6.367-5.26-6.367-2.896 0-4.515 3.386-4.323 6.005.341 4.345.703 8.667 1.086 13.011-2.577-.212-5.536.405-8.816 2.002-19.101 9.221-28.897 37.841-8.433 51.278 6.772 4.45 14.502 4.748 21.849 2.747.979 1.895 2.427 3.407 4.45 3.79 4.302.809 6.304-4.088 6.304-7.581v-.766c8.922-5.026 19.527-13.267 23.85-22.296 4.408-9.284 1.384-20.826-6.069-27.555zm-30.367 36.712c-4.322 1.491-8.773 1.916-13.053.511-5.792-1.895-7.858-4.621-4.685-10.03 2.917-4.961 7.709-9.135 12.649-11.946 2.917-1.661 3.386-3.109 3.727-.703.617 7.368 1.107 14.757 1.362 22.168zm26.001-19.826c-.468 1.768-3.364 3.855-4.706 5.175-2.662 2.577-5.877 5.494-9.433 8.113-.32-5.877-.767-11.776-1.427-17.632 4.025-1.064 8.241-1.618 11.882-.085a10.142 10.142 0 013.493 2.321c1.362.895 1.426 1.597.191 2.108zm65.588 7.646c-1.427-12.585-8.411-26.597-22.338-22.338a18.437 18.437 0 00-5.452 2.725c-.575-7.793-1.597-13.053-5.92-18.952-2.15-2.938-5.898-3.173-7.9.192-3.237 5.451.66 13.799 1.406 20.336.489 4.472.66 9.029.873 13.522.149 3.535.234 7.07.298 10.605-1.108 7.07-.873 14.268.17 19.676.66 3.429 3.152 7.454 7.113 6.729 4.088-.745 5.195-6.239 5.259-9.603a401.41 401.41 0 000-12.415c.81-3.684 2.428-10.711 5.132-12.82 2.385-1.852 5.75-1.788 7.858.618 2.257 2.555 1.129 7.283.98 10.371-.256 5.43 6.665 13.884 10.796 6.452.575-1.15 1.235-2.257 2.023-3.28 1.789-2.661 1.597-8.411-.298-11.818zm50.915-5.621a4.908 4.908 0 01-.064-.277c.383-.831.681-1.619.937-2.364 2.96-8.816 2.087-24.851-10.264-27.278-3.918-.767-6.687 2.938-7.347 5.749-1.469 6.431-.916 12.564.234 18.803-4.386 4.344-5.536 3.684-7.602-1.128-3.13-7.304-4.216-16.142-1.98-23.957-.022.043-.043.064-.085.107.34-1.47.383-2.96.213-4.004l-.064-.383c-.533-3.556-4.408-8.965-9.498-6.431-5.558 2.768-5.43 10.243-5.771 14.928a57.895 57.895 0 001.385 17.461c2.001 8.433 6.175 22.7 17.44 25.128 3.556.766 6.963-.128 10.051-1.959.618 2.811 1.256 5.6 1.98 8.369.788 3.045 2.385 6.835 6.197 7.9 3.088.873 6.58-.511 7.709-3.428.298-.767.575-1.512.873-2.279 1.469-3.833 1.363-8.071-1.257-11.35-.979-4.536-2.044-9.072-3.087-13.607z" fill="#fff"/></svg>