<svg width="360" height="299" fill="none" xmlns="http://www.w3.org/2000/svg"><path fill-rule="evenodd" clip-rule="evenodd" d="M91.256 107.996v4.571c-16.573 0-30.325-10.674-36.142-26.194l1.074-.399c5.142 13.73 20.406 22.022 35.068 22.022zm-.654-85.401c-14.467.705-27.88 6.349-35.078 20.58.95-14.947 3.68-32.89 7.964-43.175 1.677 11.941 5.725 18.843 12.729 19.466 13.21-8.782 23.965-8.414 35.252-5.306-17.82 1.871-20.192 4.969-17.728 4.468 10.541-2.147 23.842 2.546 24.66 2.832-20.04 1.646 4.754 15.04 21.869 2.25 2.341 2.494 1.523 10.193-1.646 15.325h-1.657c.716-3.987.409-8.578-.93-9.202-20.683 8.701-26.511-8.158-45.435-7.238zm30.916 87.925c-1.492-2.27-9.661-11.492-8.404-12.555 1.012-.859 3.62.133 4.284.961a126.777 126.777 0 017.249 9.968c1.186-1.4 6.574-9.876 8.179-7.351.787 1.227.951 1.534.205 2.577-1.422 1.994-2.853 3.977-4.274 5.971-1.411 1.963-1.207 1.37-.123 3.599.419.858.828 1.717 1.248 2.566-1.483 3.343-1.524 1.738-4.448-1.104-1.493-1.452-1.114-1.238-3.18-1.544-2.964-.44-5.919-.89-8.884-1.329-1.728-.256-1.472.01-2.617-1.278-2.516-2.832 8.076-.655 10.765-.481z" fill="#fff"/><path fill-rule="evenodd" clip-rule="evenodd" d="M110.671 50.067a17.81 17.81 0 00-9.601 2.801 20.148 20.148 0 00-19.23-14.13c-11.135 0-20.152 9.029-20.152 20.152 0 10.5 8.026 19.119 18.28 20.06h-.02c7.31 3.905 10.53 7.453 12.872 16.184l1.114.511c6.012-7.433 9.631-9.56 16.737-9.62 9.927 0 17.984-8.047 17.984-17.985 0-9.917-8.057-17.973-17.984-17.973zm-44.69 9.661c0-9.221 7.475-16.695 16.697-16.695 7.32 0 13.75 4.774 15.918 11.716-3.619 3.292-5.899 8.016-5.899 13.291 0 1.575.225 3.088.603 4.54a16.672 16.672 0 01-10.612 3.834c-9.232.01-16.706-7.463-16.706-16.686zm34.312 23.004c-2.28.9-4.263 2.383-5.705 4.939-.592-3.59-2.228-6.963-5.316-10.05l-.072.01a19.77 19.77 0 004.847-2.74 17.963 17.963 0 006.287 7.852l-.041-.01zm10.551-.317c-8.444 0-15.284-6.84-15.284-15.284 0-8.445 6.84-15.285 15.284-15.285 8.445 0 15.285 6.84 15.285 15.285.01 8.434-6.84 15.284-15.285 15.284z" fill="#fff"/><path d="M105.672 55.904c-.849.082-.685.644-.992 1.922-.327 1.534 2.147.297 2.536-.92.296-.9-.542-.838-1.544-1.002z" fill="#fff"/><path d="M108.544 52.428c-3.65 0-6.972 1.483-9.385 3.875-1.299-6.758-7.26-11.9-14.385-11.9-8.077 0-14.661 6.584-14.661 14.66 0 8.078 6.584 14.662 14.66 14.662 4.274 0 8.119-1.861 10.808-4.795 1.42 5.858 6.696 10.234 12.974 10.234 7.361 0 13.362-6.002 13.362-13.363-.01-7.371-6.011-13.373-13.373-13.373zm-23.065 1.34a4.002 4.002 0 01-.94.398c-.972.48-2.055.573-3.057-.03-1.85-.532-3.18-1.943-2.147-3.68.01-.246.05-.481.112-.696.01-.736.276-1.309.706-1.738.5-.92 1.502-1.646 3.159-1.902 1.462-.235 2.566.072 3.333.665.869.235 1.227.981 1.206 1.922.48 1.881-.378 4.222-2.372 5.06zm24.384 5.664c-.296.777-1.196 1.36-2.208 1.625-.102.051-.194.103-.297.143-2.954 1.35-4.048-.306-3.874-2.116a4.49 4.49 0 01-.041-.859c-.184-.705-.113-1.42.378-1.942.695-1.697 2.229-1.85 3.568-1.237.286.02.573.143.838.378 1.769.583 3.088 2.484 1.636 4.008z" fill="#fff"/><path d="M81.052 50.271c.767.747 1.554.082 2.198.368 1.861.839 2.863-2.024 1.38-3.476-1.4-1.176-4.12 1.258-3.578 3.108z" fill="#fff"/><path fill-rule="evenodd" clip-rule="evenodd" d="M46.322 58.603c-4.479 2.546-9.427 3.752-14.58 3.67-.368-.01-.695.123-.992.338-.684-2.32-1.063-4.734-1.063-7.167-.01-3.057.297-6.625 2.71-8.823 1.114-1.023 2.73-1.708 4.263-1.595.685.051 1.125.337 1.728.572a.825.825 0 01.45.42c.173 1.574.695 3.374 2.26 4.008 1.543.623 2.862-.675 3.107-2.209.92-5.848-3.271-12.995-9.896-12.35-6.084.582-9.652 6.676-10.684 12.105-2.29 12.054 1.87 25.16 9.988 34.199 2.618 2.924 4.959-.379 5.173-3.078a22.858 22.858 0 00-.44-6.563c3.968-.532 7.792-1.8 11.36-3.742 3.915-2.117 1.053-12.3-3.384-9.785zM38.858 46.06c.02.06.02.081 0 0zm-.051-.42c0-.071-.01-.143-.02-.225.01.072.01.144.02.225zm123.852 14.722c-2.464-1.83-5.531-2.587-8.567-2.505-3.2.082-6.738 1.462-9.928.859-.286-.051-.675-.133-.94-.297a3.188 3.188 0 01-.092-.45c-.174-1.124-.215-2.26.122-3.363.419-1.36 1.36-2.669 2.536-3.476.572-.4 1.421-.829 2.116-.941.849-.133 1.329.48.685-.46.757 1.094 2.168 2.362 3.538 1.472 1.278-.828 1.186-3.026.593-4.243-1.667-3.353-4.744-5.562-8.599-4.672-3.425.787-5.878 3.844-6.88 7.075-2.188 6.993.674 17.248 9.048 17.974 3.466.296 6.88-.92 10.346-.88 1.514.02 2.792.317 4.121 1.033-.236-.133.041.092.276.255-.021.031-.031.062-.051.103-.675 1.155-1.074 2.157-2.015 3.159a18.173 18.173 0 01-4.048 3.23c-2.904 1.698-5.94 2.526-9.202 2.915-.347.01-.705.04-1.063.112-4.989.91-2.28 10.08 2.106 9.968 6.564-.174 13.506-3.63 17.616-8.762 4.437-5.561 4.355-13.587-1.718-18.106zm-19.435-1.912c.153.163.102.347 0 0zm49.944-6.717c-1.288-5.143-5.991-8.333-11.267-6.82-4.825 1.38-8.199 5.93-9.365 10.633-.705 2.843-.726 5.715-.133 8.578.522 2.525 1.524 5.531 4.172 6.38 2.239.715 3.108-3.333 3.118-4.59.02-2.506-1.605-5.266-1.135-7.556.399-1.963 2.484-3.62 4.631-3.936 1.054-.154 2.413-.062 3.262.664.756.644.736 1.462.797 2.403.236 3.609-.143 7.044-.715 10.612-.287 1.78.194 4.683 2.198 5.306 2.116.655 3.404-1.441 4.089-3.108l.205-.51c.245-.594.368-1.401.337-2.23.88-5.091 1.053-10.898-.194-15.826zm19.22 7.751c-2.658-1.299-6.011-2.372-9.089-2.025.031-2.27-.051-4.61-.746-6.615-.348-1.012-.869-2.096-2.116-2.024-1.125.061-2.045 1.288-2.301 2.31-.767 3.078-.572 6.278-.736 9.427-.041.808-.092 1.605-.143 2.413-.511 2.239-.45 4.775-.573 6.89-.102 1.75.144 4.704 2.413 5.01 2.106.287 3.497-2.494 3.64-4.202.102-1.257.184-2.525.266-3.793.94-.03 2.3.236 2.811.348 1.554.338 2.996.982 4.509 1.442 1.922.582 3.303-2.352 3.599-3.691.358-1.677.307-4.59-1.534-5.49zm36.06-6.433c-3.057-2.76-7.095-3.108-10.745-1.922a88.008 88.008 0 00-1.084-4.928c-.307-1.216-.971-3.057-2.525-3.057-1.391 0-2.168 1.626-2.076 2.883.164 2.086.338 4.162.522 6.247-1.237-.102-2.658.194-4.233.961-9.171 4.427-13.874 18.168-4.049 24.62 3.252 2.136 6.963 2.28 10.49 1.318.471.91 1.166 1.636 2.137 1.82 2.065.389 3.026-1.963 3.026-3.64v-.367c4.284-2.413 9.376-6.37 11.451-10.705 2.116-4.458.665-9.999-2.914-13.23zm-14.579 17.626c-2.076.716-4.212.92-6.267.246-2.781-.91-3.773-2.219-2.25-4.816 1.401-2.382 3.701-4.386 6.073-5.735 1.401-.798 1.626-1.493 1.79-.338.296 3.538.531 7.085.654 10.643zm12.483-9.518c-.225.848-1.615 1.85-2.259 2.484-1.278 1.237-2.822 2.638-4.529 3.896a147.277 147.277 0 00-.685-8.466c1.932-.511 3.956-.777 5.705-.04a4.856 4.856 0 011.676 1.114c.655.43.685.767.092 1.012zm31.49 3.671c-.685-6.042-4.038-12.77-10.725-10.725a8.853 8.853 0 00-2.617 1.309c-.276-3.742-.767-6.267-2.842-9.1-1.033-1.41-2.832-1.523-3.793.093-1.554 2.617.317 6.625.674 9.763.236 2.147.317 4.335.42 6.492.071 1.698.112 3.395.143 5.092-.532 3.394-.419 6.85.082 9.447.317 1.646 1.513 3.578 3.414 3.23 1.963-.357 2.495-2.995 2.526-4.61.03-1.984.03-3.977 0-5.96.388-1.77 1.165-5.144 2.464-6.156 1.145-.89 2.76-.858 3.772.297 1.084 1.227.542 3.496.471 4.979-.123 2.607 3.2 6.666 5.183 3.098a9.607 9.607 0 01.971-1.575c.859-1.278.767-4.038-.143-5.674zm24.445-2.7l-.031-.132c.184-.399.328-.777.45-1.135 1.421-4.233 1.002-11.931-4.928-13.097-1.881-.368-3.21 1.411-3.527 2.76-.705 3.088-.44 6.033.113 9.028-2.107 2.086-2.659 1.77-3.65-.541-1.503-3.507-2.025-7.75-.951-11.502-.01.02-.021.03-.041.05.163-.705.184-1.42.102-1.921l-.031-.184c-.255-1.708-2.116-4.305-4.559-3.088-2.669 1.33-2.607 4.918-2.771 7.167a27.78 27.78 0 00.664 8.384c.962 4.048 2.965 10.898 8.374 12.064 1.707.368 3.343-.062 4.826-.94.296 1.349.603 2.688.95 4.017.379 1.462 1.145 3.282 2.976 3.793 1.482.42 3.159-.245 3.701-1.646.143-.368.276-.726.419-1.094.705-1.84.654-3.875-.603-5.45-.471-2.177-.982-4.355-1.483-6.532zM-26.046 78.632c-.187 1.364-1.88 7.35-1.103 7.592.636.19 1.587-.8 1.708-1.325a64.803 64.803 0 001.13-6.151c.824.41 5.014 3.273 5.2 1.76.091-.74.103-.91-.456-1.244l-3.164-1.913c-1.043-.627-.826-.395-.817-1.66.003-.483.01-.975.013-1.457-1.364-1.257-1.043-.5-1.748 1.428-.358.986-.236.809-1.093 1.373l-3.683 2.445c-.714.473-.658.3-.899 1.135-.51 1.838 3.751-1.354 4.912-1.983zm13.329-15.103c1.25.574 6.489 3.932 6.945 3.258.367-.553-.305-1.751-.771-2.02a64.859 64.859 0 00-5.56-2.864c.632-.67 4.587-3.85 3.193-4.466-.682-.303-.842-.364-1.323.075l-2.749 2.473c-.902.816-.617.676-1.826.3-.46-.143-.929-.292-1.39-.435-1.598.941-.781.853.86 2.088.84.629.705.46.997 1.444l1.272 4.233c.246.821.096.717.825 1.19 1.611 1.02-.208-3.982-.473-5.276zm.933 41.935c.015 1.377-.781 7.548.023 7.672.657.095 1.452-1.024 1.496-1.561a64.82 64.82 0 00.213-6.251c.876.286 5.441 2.502 5.402.978-.018-.746-.031-.916-.633-1.164l-3.411-1.427c-1.124-.467-.875-.269-1.052-1.523l-.2-1.443c-1.535-1.043-1.106-.342-1.52 1.67-.21 1.028-.115.835-.88 1.519l-3.283 2.959c-.638.573-.607.393-.723 1.254-.234 1.893 3.511-1.89 4.568-2.683zM-.819 88.568c1.322.384 6.996 2.936 7.349 2.202.281-.601-.56-1.687-1.06-1.884A64.826 64.826 0 00-.45 86.87c.527-.756 3.972-4.482 2.502-4.886-.72-.2-.886-.236-1.297.268l-2.356 2.85c-.773.94-.511.76-1.762.565-.477-.073-.962-.152-1.439-.226-1.443 1.166-.648.959 1.157 1.939.923.499.765.352 1.199 1.282l1.88 4c.363.776.2.696.99 1.056 1.744.773-.79-3.908-1.243-5.15zm5.04 41.589c.015 1.376-.78 7.547.024 7.672.657.095 1.452-1.025 1.495-1.561.164-2.064.249-4.138.213-6.251.877.285 5.442 2.501 5.403.978-.018-.746-.031-.917-.634-1.164l-3.41-1.428c-1.124-.467-.875-.269-1.052-1.522-.068-.478-.133-.965-.201-1.443-1.534-1.043-1.105-.342-1.52 1.669-.21 1.029-.115.835-.88 1.52l-3.283 2.959c-.637.573-.607.393-.723 1.254-.234 1.893 3.512-1.89 4.568-2.683zm10.966-16.897c1.321.385 6.996 2.937 7.348 2.203.282-.601-.559-1.687-1.06-1.884a64.79 64.79 0 00-5.92-2.017c.527-.756 3.972-4.482 2.502-4.887-.719-.199-.886-.236-1.297.269l-2.356 2.85c-.772.94-.51.759-1.761.565-.477-.074-.963-.153-1.44-.226-1.443 1.165-.647.958 1.157 1.938.924.499.766.353 1.2 1.283l1.879 4c.363.776.2.695.99 1.056 1.744.773-.79-3.909-1.242-5.15zm3.409 40.926c.109 1.372-.268 7.582.543 7.652.662.051 1.38-1.12 1.387-1.658a64.813 64.813 0 00-.211-6.251c.894.225 5.598 2.127 5.456.609-.068-.743-.093-.912-.71-1.118l-3.5-1.193c-1.153-.39-.892-.21-1.153-1.448-.1-.472-.198-.954-.298-1.426-1.601-.937-1.126-.266-1.403 1.768-.14 1.041-.058.841-.775 1.576l-3.075 3.174c-.597.615-.58.434-.636 1.301-.105 1.905 3.375-2.123 4.375-2.986zm9.796-17.601c1.345.294 7.179 2.455 7.481 1.699.24-.618-.672-1.645-1.185-1.807a64.393 64.393 0 00-6.044-1.611c.475-.79 3.66-4.741 2.166-5.045-.731-.15-.9-.176-1.276.356l-2.157 3.003c-.708.99-.459.792-1.72.683l-1.45-.129c-1.362 1.261-.582 1.001 1.284 1.856.955.435.788.3 1.284 1.199l2.146 3.863c.415.75.247.68 1.06.986 1.792.653-1.054-3.846-1.59-5.053zm6.386 45.113c.109 1.372-.268 7.582.543 7.652.662.051 1.38-1.121 1.387-1.658a64.813 64.813 0 00-.211-6.251c.894.225 5.598 2.127 5.456.609-.068-.743-.093-.912-.71-1.118l-3.5-1.194c-1.153-.389-.892-.209-1.153-1.447-.1-.472-.198-.954-.298-1.426-1.601-.937-1.126-.266-1.403 1.768-.14 1.041-.058.841-.775 1.576l-3.075 3.174c-.597.615-.58.434-.636 1.301-.106 1.904 3.375-2.124 4.375-2.986zm9.796-17.601c1.345.294 7.179 2.455 7.481 1.699.24-.618-.672-1.645-1.185-1.807a64.393 64.393 0 00-6.044-1.611c.475-.791 3.66-4.741 2.166-5.046-.731-.149-.9-.175-1.276.356l-2.157 3.004c-.708.99-.459.792-1.72.682-.48-.041-.97-.086-1.451-.128-1.36 1.261-.581 1.001 1.285 1.856.955.435.788.3 1.283 1.199l2.147 3.863c.415.75.247.68 1.06.986 1.792.653-1.054-3.846-1.59-5.053zm9.836 41.7c.373 1.326 1.204 7.492 2.013 7.404.66-.079 1.137-1.366 1.04-1.896a64.879 64.879 0 00-1.416-6.092c.92.048 5.904 1.005 5.472-.457-.211-.715-.268-.877-.914-.959l-3.664-.495c-1.206-.159-.915-.033-1.41-1.197-.19-.444-.38-.898-.569-1.342-1.752-.609-1.156-.043-1.035 2.006.065 1.048.106.837-.455 1.696l-2.404 3.709c-.467.719-.484.537-.373 1.399.265 1.889 2.901-2.736 3.716-3.776zm6.21-19.162c1.376.029 7.518 1.022 7.669.222.116-.654-.978-1.485-1.513-1.545a64.84 64.84 0 00-6.24-.412c.313-.867 2.673-5.359 1.15-5.369-.747-.006-.918.002-1.184.596l-1.536 3.363c-.503 1.108-.297.866-1.555 1.003-.48.052-.97.102-1.449.155-1.091 1.499-.377 1.093 1.62 1.572 1.021.242.831.141 1.49.928l2.853 3.376c.553.655.374.619 1.23.762 1.885.295-1.776-3.57-2.535-4.651zm14.011 36.921c.372 1.325 1.203 7.492 2.012 7.403.66-.078 1.137-1.366 1.04-1.895a64.847 64.847 0 00-1.415-6.092c.92.048 5.904 1.005 5.471-.457-.21-.716-.268-.877-.913-.96l-3.665-.494c-1.206-.16-.915-.033-1.41-1.198-.19-.443-.379-.897-.568-1.341-1.752-.61-1.156-.044-1.035 2.006.064 1.048.105.836-.456 1.696l-2.404 3.709c-.466.718-.484.537-.373 1.398.265 1.89 2.902-2.735 3.716-3.775zm6.209-19.162c1.377.028 7.519 1.022 7.67.221.115-.653-.979-1.484-1.513-1.544a64.836 64.836 0 00-6.241-.413c.313-.867 2.674-5.359 1.15-5.368-.747-.006-.917.001-1.184.596l-1.536 3.363c-.502 1.108-.297.866-1.555 1.002-.48.053-.969.103-1.448.155-1.092 1.5-.378 1.094 1.62 1.572 1.02.243.83.142 1.49.928l2.852 3.376c.553.656.374.62 1.231.763 1.885.294-1.777-3.57-2.536-4.651zm18.753 34.743c.475 1.292 1.787 7.374 2.587 7.223.651-.13 1.026-1.451.888-1.971-.535-2-1.149-3.984-1.889-5.963.922-.024 5.965.539 5.419-.884-.267-.697-.336-.854-.986-.885l-3.692-.206c-1.215-.064-.915.039-1.5-1.083-.223-.428-.448-.865-.672-1.293-1.794-.47-1.156.047-.874 2.081.146 1.04.17.826-.321 1.726l-2.106 3.887c-.409.753-.44.573-.262 1.423.412 1.863 2.678-2.954 3.408-4.055zm4.688-19.59c1.374-.08 7.575.429 7.662-.381.064-.66-1.091-1.403-1.629-1.421a64.753 64.753 0 00-6.254.078c.244-.889 2.246-5.552.725-5.442-.744.053-.914.074-1.133.687l-1.267 3.473c-.414 1.144-.228.887-1.472 1.122-.474.09-.958.178-1.432.268-.97 1.58-.29 1.12 1.738 1.44 1.037.162.84.076 1.559.808l3.109 3.142c.602.61.421.588 1.286.664 1.902.145-2.051-3.42-2.892-4.438zm22.858 26.133c.667 1.205 2.893 7.015 3.66 6.743.623-.228.793-1.591.576-2.084a64.921 64.921 0 00-2.777-5.604c.907-.164 5.977-.379 5.219-1.702-.369-.648-.462-.792-1.109-.724l-3.68.361c-1.211.122-.898.178-1.648-.841-.286-.389-.575-.787-.861-1.175-1.845-.191-1.135.223-.546 2.19.303 1.005.295.79-.054 1.755l-1.487 4.162c-.289.807-.348.635-.042 1.447.693 1.778 2.195-3.329 2.749-4.528zm1.639-20.076c1.346-.289 7.552-.734 7.515-1.547-.038-.663-1.293-1.22-1.827-1.156a65.015 65.015 0 00-6.169 1.033c.106-.916 1.371-5.83-.115-5.489-.727.166-.892.212-1.014.852l-.722 3.626c-.235 1.194-.09.911-1.284 1.333-.454.161-.919.322-1.374.484-.717 1.71-.115 1.151 1.938 1.158 1.05.001.841-.053 1.664.56l3.552 2.63c.688.511.506.517 1.373.46 1.902-.147-2.55-3.066-3.537-3.944zm31.588 9.793c1.146.763 5.795 4.898 6.351 4.303.449-.489-.028-1.777-.446-2.115a65.114 65.114 0 00-5.044-3.698c.729-.564 5.132-3.086 3.852-3.912-.627-.406-.775-.491-1.319-.133l-3.101 2.013c-1.019.665-.715.571-1.85.011-.433-.213-.873-.434-1.305-.647-1.726.68-.906.72.522 2.196.732.753.625.566.76 1.583l.594 4.38c.114.849-.017.723.629 1.304 1.432 1.26.417-3.966.357-5.285zm-7.779-18.581c1.062-.875 6.368-4.125 5.961-4.83-.338-.571-1.709-.488-2.154-.185a64.647 64.647 0 00-5.002 3.754c-.328-.861-1.465-5.807-2.627-4.821-.57.482-.695.599-.509 1.223l1.027 3.552c.341 1.168.339.85-.527 1.774-.329.352-.668.709-.997 1.061.15 1.849.427 1.076 2.253.137.933-.481.722-.434 1.735-.267l4.364.701c.846.137.687.226 1.43-.223 1.622-1.006-3.674-1.55-4.954-1.876zm30.12 3.261c1.146.763 5.795 4.898 6.352 4.304.448-.489-.028-1.777-.447-2.115a64.923 64.923 0 00-5.044-3.698c.729-.564 5.133-3.086 3.852-3.913-.626-.405-.775-.49-1.318-.132L183 216.536c-1.019.665-.715.571-1.85.011-.433-.213-.872-.434-1.305-.647-1.726.68-.906.72.522 2.196.732.753.625.566.76 1.583l.594 4.38c.114.849-.017.723.629 1.304 1.432 1.26.417-3.966.357-5.286zm-7.779-18.58c1.062-.875 6.368-4.125 5.961-4.83-.338-.571-1.709-.488-2.154-.185a64.647 64.647 0 00-5.002 3.754c-.328-.862-1.465-5.807-2.627-4.821-.57.482-.695.599-.509 1.223l1.027 3.552c.341 1.168.339.85-.526 1.774-.33.352-.669.709-.998 1.061.15 1.849.427 1.076 2.253.137.933-.481.723-.434 1.735-.267l4.364.701c.846.137.687.226 1.43-.224 1.622-1.005-3.674-1.549-4.954-1.875zm29.301 6.545c1.146.763 5.795 4.898 6.352 4.303.448-.489-.028-1.777-.447-2.115a64.923 64.923 0 00-5.044-3.698c.729-.563 5.133-3.086 3.852-3.912-.626-.406-.775-.491-1.318-.133l-3.102 2.013c-1.019.665-.715.572-1.85.011-.433-.213-.872-.434-1.305-.647-1.726.68-.905.721.522 2.196.732.753.625.566.76 1.583l.594 4.38c.114.849-.017.723.629 1.304 1.432 1.26.417-3.966.357-5.285zm-7.779-18.58c1.063-.876 6.368-4.126 5.961-4.83-.338-.572-1.709-.489-2.154-.186a64.904 64.904 0 00-5.002 3.754c-.328-.861-1.465-5.807-2.627-4.821-.57.482-.694.599-.509 1.223l1.027 3.552c.341 1.168.339.851-.526 1.774-.33.353-.669.709-.998 1.062.15 1.849.427 1.075 2.253.136.933-.481.723-.434 1.735-.267l4.364.701c.846.137.687.226 1.43-.223 1.622-1.006-3.674-1.55-4.954-1.875zm33.162 12.555c.979.968 4.753 5.915 5.412 5.438.534-.395.312-1.75-.034-2.162a65.074 65.074 0 00-4.245-4.594c.824-.413 5.628-2.048 4.529-3.104-.537-.518-.667-.63-1.269-.382l-3.429 1.384c-1.127.458-.811.424-1.818-.343-.384-.292-.773-.593-1.157-.885-1.824.338-1.027.534.093 2.256.574.878.505.674.443 1.699l-.254 4.412c-.049.856-.155.707.369 1.4 1.165 1.511 1.167-3.813 1.36-5.119zm-4.086-19.724c1.21-.657 7.039-2.833 6.774-3.603-.223-.625-1.584-.806-2.079-.593a64.648 64.648 0 00-5.627 2.729c-.157-.908-.328-5.98-1.658-5.234-.651.364-.796.455-.733 1.103l.33 3.683c.111 1.212.17.9-.856 1.641-.391.283-.791.568-1.182.851-.206 1.843.213 1.137 2.186.565 1.007-.295.792-.288 1.754.069l4.149 1.522c.805.296.632.353 1.447.054 1.783-.677-3.31-2.223-4.505-2.787zm31.498 23.4c.979.968 4.752 5.915 5.412 5.438.534-.395.312-1.75-.034-2.162a65.074 65.074 0 00-4.245-4.594c.824-.413 5.628-2.048 4.529-3.104-.538-.517-.667-.629-1.269-.382l-3.429 1.384c-1.127.458-.811.424-1.818-.343l-1.158-.884c-1.824.337-1.026.534.094 2.255.574.879.505.675.443 1.699l-.254 4.412c-.05.856-.155.707.368 1.401 1.165 1.51 1.168-3.813 1.361-5.12zm-4.086-19.724c1.21-.656 7.039-2.833 6.773-3.602-.222-.626-1.584-.807-2.078-.594a64.937 64.937 0 00-5.627 2.729c-.157-.908-.329-5.98-1.658-5.234-.651.364-.796.456-.733 1.104l.329 3.682c.112 1.212.171.9-.855 1.641-.391.283-.791.568-1.182.851-.207 1.844.213 1.137 2.185.565 1.008-.295.792-.288 1.755.069l4.149 1.522c.804.296.631.353 1.447.054 1.783-.677-3.311-2.223-4.505-2.787zm29.797 30.187c.848 1.085 3.963 6.471 4.678 6.081.579-.323.531-1.696.24-2.148a65.01 65.01 0 00-3.627-5.096c.869-.305 5.842-1.317 4.886-2.504-.468-.582-.582-.709-1.21-.54a6383.6 6383.6 0 01-3.577.937c-1.176.311-.859.318-1.76-.571-.344-.338-.692-.685-1.036-1.024-1.852.103-1.086.4-.194 2.249.458.945.416.733.224 1.742l-.811 4.344c-.159.843-.244.682.187 1.436.964 1.646 1.642-3.634 2-4.906zm-1.55-20.083c1.284-.497 7.341-1.916 7.176-2.713-.141-.649-1.469-1.001-1.986-.853a64.915 64.915 0 00-5.929 1.993c-.04-.921.434-5.973-.979-5.402-.693.278-.848.351-.868 1.001l-.14 3.695c-.044 1.216.055.914-1.057 1.519-.424.231-.857.463-1.281.694-.438 1.803.068 1.155 2.096.838 1.037-.164.823-.185 1.732.291l3.922 2.036c.761.396.582.431 1.429.237 1.855-.445-3.002-2.625-4.115-3.336zm28.103 37.253c.849 1.085 3.963 6.471 4.678 6.081.58-.323.532-1.696.24-2.148a64.735 64.735 0 00-3.626-5.096c.869-.305 5.842-1.317 4.885-2.504-.467-.582-.581-.709-1.21-.54l-3.576.937c-1.177.312-.859.318-1.76-.571-.344-.338-.692-.685-1.036-1.024-1.852.103-1.086.4-.194 2.249.458.945.416.734.224 1.742l-.812 4.345c-.158.842-.243.681.188 1.435.964 1.646 1.642-3.634 1.999-4.906zm-1.549-20.083c1.283-.497 7.341-1.916 7.176-2.713-.142-.649-1.469-1.001-1.987-.853A64.896 64.896 0 00307 211.67c-.04-.921.434-5.973-.98-5.402-.692.279-.847.351-.867 1.002l-.141 3.694c-.043 1.216.055.914-1.057 1.519-.423.231-.856.463-1.28.694-.439 1.803.067 1.155 2.096.838 1.037-.164.822-.185 1.732.291l3.922 2.037c.76.395.582.43 1.428.237 1.855-.445-3.001-2.626-4.114-3.337zm24.792 39.417c.613 1.233 2.582 7.135 3.36 6.898.633-.201.862-1.555.667-2.056a64.709 64.709 0 00-2.528-5.721c.913-.125 5.988-.116 5.29-1.471-.341-.664-.427-.812-1.077-.772l-3.692.199c-1.215.068-.905.138-1.609-.913-.269-.401-.54-.811-.809-1.212-1.835-.272-1.144.173-.642 2.164.259 1.017.26.802-.131 1.751l-1.669 4.093c-.324.793-.375.618-.105 1.444.614 1.806 2.34-3.23 2.945-4.404zm2.521-19.984c1.357-.229 7.577-.401 7.575-1.215-.008-.664-1.238-1.276-1.774-1.235a64.773 64.773 0 00-6.208.76c.145-.91 1.625-5.764.126-5.488-.734.133-.9.173-1.051.806l-.881 3.591c-.287 1.183-.13.906-1.34 1.275-.462.142-.933.282-1.394.423-.792 1.677-.166 1.145 1.885 1.242 1.048.048.842-.016 1.637.633l3.433 2.784c.665.54.483.539 1.351.519 1.907-.063-2.412-3.175-3.359-4.095zm18.505 39.618c.613 1.233 2.581 7.135 3.36 6.898.632-.201.861-1.555.667-2.057a64.82 64.82 0 00-2.528-5.72c.913-.125 5.987-.116 5.289-1.471-.341-.664-.427-.812-1.077-.772l-3.692.199c-1.215.068-.905.138-1.609-.913-.269-.401-.54-.811-.809-1.212-1.835-.271-1.144.173-.642 2.164.259 1.017.26.802-.131 1.751l-1.668 4.093c-.324.793-.376.618-.105 1.444.613 1.806 2.339-3.23 2.945-4.404zm2.52-19.984c1.358-.229 7.577-.401 7.575-1.215-.008-.664-1.238-1.276-1.774-1.235a64.773 64.773 0 00-6.208.76c.145-.91 1.626-5.764.126-5.488-.734.133-.9.173-1.051.806l-.88 3.591c-.287 1.183-.13.906-1.341 1.275-.461.142-.933.282-1.394.423-.792 1.677-.166 1.145 1.885 1.242 1.048.048.843-.016 1.638.633l3.433 2.784c.665.54.482.539 1.351.519 1.906-.063-2.412-3.175-3.36-4.095zm18.299 39.13c.413 1.313 1.439 7.45 2.246 7.336.656-.099 1.093-1.402.979-1.927a64.944 64.944 0 00-1.608-6.045c.922.019 5.933.818 5.454-.63-.233-.708-.295-.868-.943-.93l-3.678-.378c-1.211-.121-.916-.004-1.448-1.152l-.61-1.323c-1.771-.554-1.157-.007-.971 2.038.097 1.045.132.833-.402 1.709l-2.285 3.784c-.444.733-.467.552-.328 1.409.324 1.88 2.813-2.826 3.594-3.891zm5.599-19.349c1.376-.015 7.547.783 7.672-.022.095-.657-1.025-1.452-1.561-1.496a65.044 65.044 0 00-6.251-.214c.286-.877 2.503-5.441.979-5.402-.746.017-.916.03-1.164.633l-1.428 3.41c-.468 1.123-.269.875-1.523 1.051-.478.068-.965.133-1.443.201-1.043 1.534-.342 1.105 1.669 1.52 1.028.21.835.115 1.519.88l2.958 3.284c.573.637.394.607 1.254.723 1.894.235-1.888-3.512-2.681-4.568z" fill="#fff"/></svg>