<svg width="1421" height="561" fill="none" xmlns="http://www.w3.org/2000/svg"><path fill-rule="evenodd" clip-rule="evenodd" d="M1296.79 500.808c-2.32.962-12.11 6.724-12.89 5.463-.63-1.034.67-3.172 1.54-3.629 3.35-1.755 6.77-3.385 10.34-4.841-1.11-1.266-8.1-7.337-5.51-8.364 1.26-.505 1.56-.605 2.4.228 1.62 1.567 3.23 3.133 4.84 4.7 1.59 1.55 1.08 1.275 3.31.672.85-.229 1.72-.468 2.57-.697 2.85 1.826 1.36 1.609-1.71 3.747-1.58 1.09-1.32.792-1.92 2.566l-2.61 7.632c-.51 1.48-.23 1.301-1.59 2.112-3.01 1.751.65-7.247 1.23-9.589zm20.49-30.519c-1.6-1.942-9.95-9.634-8.97-10.752.81-.904 3.23-.272 3.92.427 2.65 2.692 5.2 5.494 7.63 8.489.89-1.427 4.67-9.88 6.41-7.704.85 1.063 1.03 1.317.48 2.369-1.03 1.999-2.06 3.998-3.1 5.997-1.02 1.971-.9 1.403.32 3.362.47.747.95 1.505 1.41 2.253-.92 3.257-1.14 1.774-4.08-.551-1.5-1.192-1.14-1.032-3.01-1.092l-8.06-.285c-1.57-.054-1.31.162-2.49-.905-2.54-2.372 7.13-1.478 9.54-1.608zm22.48 41.217c-2.43.633-12.92 4.994-13.52 3.637-.48-1.111 1.11-3.048 2.03-3.381 3.56-1.279 7.17-2.422 10.91-3.373-.93-1.406-7.02-8.381-4.32-9.043 1.33-.326 1.63-.385 2.36.557 1.38 1.774 2.76 3.547 4.15 5.321 1.36 1.754.89 1.411 3.18 1.121.87-.109 1.76-.228 2.64-.337 2.57 2.201 1.13 1.782-2.21 3.476-1.71.862-1.42.603-2.26 2.278l-3.63 7.199c-.71 1.397-.4 1.258-1.86 1.875-3.23 1.319 1.64-7.089 2.53-9.33zm24.49-27.409c-1.31-2.143-8.52-10.911-7.4-11.884.93-.784 3.24.176 3.83.963 2.25 3.031 4.39 6.157 6.39 9.458 1.08-1.291 5.98-9.143 7.4-6.75.7 1.171.84 1.447.15 2.414-1.3 1.838-2.59 3.676-3.89 5.514-1.28 1.811-1.09 1.264-.15 3.373.36.804.73 1.621 1.09 2.425-1.36 3.1-1.38 1.601-3.97-1.107-1.32-1.386-.99-1.179-2.83-1.496l-7.95-1.391c-1.54-.268-1.32-.02-2.33-1.238-2.2-2.701 7.26-.483 9.66-.281zm20.42 45.254c-2.43.633-12.91 4.994-13.52 3.637-.48-1.111 1.11-3.049 2.03-3.382 3.56-1.278 7.17-2.422 10.91-3.372-.93-1.407-7.02-8.382-4.32-9.044 1.33-.326 1.63-.385 2.36.558 1.38 1.773 2.76 3.547 4.15 5.32 1.36 1.755.89 1.412 3.18 1.122.87-.11 1.76-.228 2.64-.338 2.57 2.201 1.13 1.782-2.21 3.476-1.71.863-1.42.603-2.26 2.278l-3.63 7.2c-.71 1.397-.4 1.258-1.86 1.874-3.23 1.32 1.64-7.089 2.53-9.329zm24.49-27.41c-1.31-2.143-8.52-10.911-7.4-11.884.93-.784 3.24.176 3.83.964 2.25 3.031 4.39 6.157 6.39 9.457 1.08-1.29 5.98-9.143 7.4-6.749.7 1.17.84 1.447.15 2.413-1.3 1.838-2.59 3.676-3.89 5.514-1.28 1.812-1.09 1.265-.15 3.374.36.804.73 1.621 1.09 2.425-1.36 3.1-1.38 1.6-3.97-1.107-1.32-1.387-.99-1.18-2.83-1.496l-7.95-1.392c-1.54-.268-1.32-.019-2.33-1.238-2.2-2.7 7.26-.483 9.66-.281zm15.51 49.41c-2.43.633-12.91 4.994-13.52 3.637-.48-1.111 1.11-3.049 2.03-3.382 3.56-1.278 7.17-2.422 10.91-3.372-.93-1.407-7.02-8.382-4.32-9.044 1.33-.326 1.63-.385 2.36.558 1.38 1.773 2.76 3.547 4.15 5.32 1.36 1.755.89 1.412 3.18 1.122.87-.11 1.76-.228 2.64-.338 2.57 2.201 1.13 1.782-2.21 3.476-1.71.863-1.42.603-2.26 2.278l-3.63 7.2c-.71 1.397-.4 1.258-1.86 1.874-3.23 1.32 1.64-7.089 2.53-9.329zm24.49-27.41c-1.31-2.143-8.52-10.911-7.4-11.884.93-.784 3.24.176 3.83.964 2.25 3.031 4.39 6.157 6.39 9.457 1.08-1.29 5.98-9.143 7.4-6.749.7 1.171.84 1.447.15 2.413-1.3 1.838-2.59 3.676-3.89 5.514-1.28 1.812-1.09 1.265-.15 3.374.36.804.73 1.621 1.09 2.425-1.36 3.1-1.38 1.6-3.97-1.107-1.32-1.387-.99-1.18-2.83-1.496l-7.95-1.392c-1.54-.268-1.32-.019-2.33-1.238-2.2-2.7 7.26-.483 9.66-.281zm-194.39-26.623c-2.13 1.334-10.82 8.641-11.81 7.529-.79-.915.15-3.241.93-3.835 3-2.287 6.11-4.463 9.39-6.492-1.31-1.064-9.21-5.889-6.83-7.331 1.16-.708 1.43-.856 2.41-.175l5.55 3.829c1.83 1.265 1.28 1.078 3.38.114.8-.367 1.61-.748 2.41-1.115 3.12 1.327 1.62 1.36-1.06 3.98-1.37 1.336-1.17 1-1.47 2.849-.43 2.653-.87 5.307-1.3 7.96-.26 1.543-.01 1.32-1.22 2.346-2.67 2.227-.56-7.255-.38-9.659zm15.13-33.5c-1.89-1.651-11.41-7.848-10.63-9.113.65-1.025 3.14-.805 3.94-.23 3.06 2.215 6.04 4.553 8.94 7.103.64-1.555 2.96-10.519 5.03-8.662 1.02.908 1.24 1.128.87 2.257-.69 2.143-1.37 4.285-2.06 6.428-.68 2.113-.66 1.534.87 3.262.59.66 1.19 1.328 1.77 1.987-.37 3.365-.83 1.94-4.12.135-1.67-.925-1.29-.828-3.15-.576l-7.99 1.059c-1.55.207-1.27.378-2.6-.48-2.91-1.916 6.78-2.641 9.13-3.17zm-60.82 36.899c-2.02 1.497-10.11 9.463-11.18 8.431-.86-.85-.11-3.242.62-3.896 2.82-2.515 5.74-4.928 8.85-7.207-1.38-.959-9.64-5.149-7.38-6.774 1.1-.797 1.37-.966 2.39-.363 1.95 1.127 3.89 2.255 5.84 3.382 1.92 1.118 1.36.975 3.37-.152.77-.428 1.55-.871 2.32-1.299 3.21 1.079 1.72 1.229-.75 4.05-1.26 1.44-1.09 1.089-1.24 2.956-.22 2.679-.45 5.358-.67 8.037-.13 1.558.09 1.317-1.03 2.435-2.49 2.429-1.13-7.189-1.14-9.6zm12.46-34.583c-2.02-1.497-11.99-6.929-11.31-8.251.56-1.073 3.07-1.049 3.91-.538 3.22 1.967 6.38 4.065 9.46 6.38.52-1.601 2.13-10.719 4.34-9.03 1.09.826 1.32 1.028 1.04 2.182-.51 2.19-1.03 4.38-1.54 6.569-.51 2.16-.54 1.581 1.12 3.184.64.612 1.29 1.231 1.92 1.842-.1 3.384-.68 2-4.09.458-1.75-.791-1.36-.724-3.19-.327l-7.89 1.682c-1.53.328-1.23.476-2.63-.275-3.04-1.682 6.56-3.165 8.86-3.876zm-62.07 42.835c-2 1.513-10.03 9.544-11.11 8.52-.87-.843-.14-3.24.59-3.9 2.8-2.538 5.7-4.974 8.79-7.278-1.39-.948-9.68-5.072-7.43-6.715 1.09-.806 1.36-.977 2.38-.382 1.96 1.112 3.91 2.224 5.87 3.335 1.93 1.103 1.36.964 3.37-.178.77-.435 1.54-.884 2.31-1.318 3.22 1.053 1.73 1.215-.72 4.056-1.25 1.45-1.07 1.097-1.21 2.965-.21 2.681-.41 5.362-.61 8.043-.12 1.559.1 1.315-1.01 2.443-2.47 2.448-1.19-7.18-1.22-9.591zm12.19-34.681c-2.03-1.481-12.05-6.833-11.38-8.161.55-1.077 3.06-1.073 3.9-.569 3.24 1.942 6.42 4.014 9.52 6.304.5-1.604 2.04-10.736 4.27-9.064 1.09.817 1.33 1.017 1.06 2.174-.5 2.194-1 4.387-1.49 6.581-.5 2.164-.53 1.585 1.14 3.175.64.607 1.3 1.22 1.93 1.827-.07 3.384-.66 2.005-4.09.49-1.75-.777-1.36-.713-3.19-.302-2.62.582-5.24 1.164-7.87 1.746-1.53.339-1.23.485-2.63-.255-3.06-1.657 6.53-3.216 8.83-3.946zm-67.63 35.867c-2.2 1.202-11.32 7.966-12.24 6.796-.74-.962.34-3.226 1.16-3.772 3.14-2.1 6.37-4.082 9.76-5.907-1.23-1.143-8.83-6.439-6.37-7.735 1.21-.635 1.49-.766 2.42-.027l5.31 4.161c1.75 1.373 1.21 1.154 3.36.318.82-.317 1.66-.647 2.48-.964 3.03 1.514 1.53 1.455-1.3 3.907-1.46 1.25-1.23.927-1.64 2.755-.6 2.621-1.19 5.243-1.79 7.865-.34 1.525-.08 1.317-1.35 2.268-2.81 2.059-.12-7.276.2-9.665zm17.15-32.516c-1.79-1.763-10.91-8.528-10.06-9.743.71-.984 3.19-.612 3.95.01 2.92 2.397 5.75 4.913 8.48 7.634.74-1.513 3.6-10.319 5.56-8.339.96.968 1.16 1.201.73 2.306-.82 2.097-1.63 4.194-2.45 6.29-.8 2.068-.75 1.491.67 3.31.55.694 1.1 1.397 1.65 2.091-.58 3.336-.95 1.885-4.12-.116-1.62-1.026-1.25-.906-3.11-.767l-8.05.569c-1.56.112-1.28.3-2.56-.637-2.79-2.09 6.93-2.223 9.31-2.608zm-70.73 29.017c-2.21 1.202-11.33 7.966-12.24 6.796-.74-.962.33-3.226 1.15-3.772 3.14-2.1 6.37-4.082 9.77-5.907-1.24-1.142-8.84-6.439-6.37-7.734 1.2-.636 1.48-.767 2.41-.028 1.77 1.387 3.55 2.774 5.32 4.161 1.74 1.373 1.2 1.154 3.36.319.82-.318 1.65-.648 2.47-.965 3.03 1.514 1.53 1.455-1.3 3.907-1.45 1.25-1.23.927-1.64 2.755-.59 2.621-1.19 5.243-1.79 7.865-.34 1.525-.08 1.317-1.35 2.268-2.81 2.059-.12-7.276.21-9.665zm17.14-32.515c-1.79-1.763-10.91-8.529-10.05-9.744.7-.984 3.18-.612 3.94.011 2.92 2.396 5.76 4.912 8.49 7.633.73-1.513 3.6-10.319 5.55-8.338.96.967 1.17 1.201.73 2.305-.81 2.097-1.63 4.194-2.44 6.291-.81 2.068-.76 1.49.67 3.309.54.694 1.1 1.397 1.64 2.091-.57 3.336-.95 1.885-4.12-.116-1.62-1.026-1.24-.906-3.11-.767l-8.04.57c-1.56.111-1.29.3-2.57-.638-2.78-2.089 6.93-2.223 9.31-2.607zm-68.221 31.022c-2.282 1.049-11.839 7.181-12.672 5.951-.67-1.009.556-3.196 1.407-3.685 3.275-1.882 6.631-3.642 10.144-5.232-1.155-1.223-8.375-7.023-5.831-8.148 1.245-.553 1.536-.664 2.414.136l5.018 4.511c1.651 1.489 1.131 1.233 3.331.546.84-.261 1.7-.534 2.54-.795 2.92 1.716 1.42 1.556-1.57 3.81-1.53 1.149-1.29.842-1.82 2.638l-2.31 7.725c-.453 1.499-.18 1.309-1.509 2.172-2.941 1.864.375-7.267.858-9.629zm19.311-31.279c-1.67-1.881-10.31-9.248-9.37-10.403.77-.933 3.22-.394 3.93.278 2.75 2.589 5.41 5.291 7.95 8.191.84-1.46 4.29-10.051 6.11-7.943.89 1.03 1.08 1.277.57 2.35-.96 2.036-1.91 4.073-2.86 6.11-.95 2.009-.86 1.436.44 3.347.49.729 1 1.469 1.5 2.197-.8 3.291-1.08 1.817-4.1-.394-1.55-1.133-1.18-.988-3.06-.976l-8.06.023c-1.57.006-1.3.212-2.52-.81-2.63-2.273 7.07-1.748 9.47-1.97zm-77.544 30.01c-2.283 1.05-11.839 7.181-12.673 5.951-.669-1.009.556-3.195 1.407-3.685 3.276-1.882 6.632-3.641 10.144-5.232-1.154-1.223-8.374-7.022-5.83-8.148 1.244-.553 1.536-.664 2.414.137l5.018 4.511c1.647 1.488 1.127 1.233 3.332.545.841-.261 1.696-.533 2.536-.795 2.919 1.716 1.428 1.556-1.566 3.81-1.533 1.149-1.287.842-1.819 2.638l-2.317 7.726c-.448 1.498-.175 1.308-1.505 2.171-2.94 1.864.376-7.267.859-9.629zm19.309-31.279c-1.667-1.88-10.306-9.248-9.371-10.402.772-.934 3.22-.395 3.935.277 2.751 2.589 5.408 5.291 7.949 8.191.836-1.46 4.292-10.051 6.107-7.943.89 1.031 1.081 1.277.569 2.35l-2.861 6.11c-.947 2.009-.854 1.437.444 3.348.493.729 1.002 1.468 1.496 2.197-.796 3.29-1.075 1.817-4.1-.395-1.544-1.133-1.179-.987-3.052-.976l-8.066.024c-1.564.005-1.303.212-2.515-.81-2.636-2.274 7.064-1.749 9.465-1.971zm-75.182 21.475c-2.442.588-13.003 4.757-13.584 3.39-.462-1.12 1.164-3.028 2.093-3.344 3.578-1.214 7.211-2.291 10.964-3.173-.896-1.423-6.859-8.509-4.146-9.121 1.328-.302 1.636-.355 2.342.6l4.052 5.396c1.329 1.779.867 1.428 3.164 1.179.875-.093 1.767-.195 2.642-.289 2.531 2.247 1.1 1.802-2.273 3.435-1.726.831-1.426.577-2.295 2.236l-3.767 7.133c-.729 1.383-.424 1.25-1.895 1.839-3.245 1.261 1.773-7.057 2.703-9.281zm24.99-26.958c-1.271-2.166-8.324-11.065-7.183-12.017.938-.767 3.235.235 3.807 1.033 2.199 3.072 4.284 6.236 6.216 9.573 1.102-1.271 6.154-9.032 7.527-6.613.674 1.183.814 1.462.105 2.415l-3.989 5.443c-1.317 1.787-1.115 1.244-.211 3.37.343.81.699 1.634 1.043 2.444-1.417 3.075-1.406 1.575-3.947-1.179-1.296-1.411-.966-1.197-2.806-1.548l-7.918-1.536c-1.535-.296-1.319-.043-2.31-1.28-2.148-2.74 7.268-.351 9.666-.105zm-71.286 10.57c-2.442.588-13.003 4.757-13.584 3.389-.462-1.12 1.164-3.028 2.093-3.344 3.578-1.213 7.211-2.29 10.964-3.172-.896-1.424-6.859-8.509-4.145-9.122 1.327-.301 1.635-.354 2.341.601l4.052 5.396c1.329 1.778.867 1.427 3.164 1.179.875-.094 1.767-.196 2.642-.289 2.532 2.247 1.1 1.802-2.273 3.435-1.726.831-1.426.577-2.295 2.236l-3.766 7.132c-.729 1.384-.425 1.25-1.896 1.84-3.245 1.261 1.773-7.058 2.703-9.281zm24.99-26.958c-1.271-2.167-8.324-11.065-7.183-12.017.938-.767 3.235.235 3.807 1.033 2.199 3.072 4.284 6.236 6.216 9.572 1.102-1.27 6.154-9.032 7.527-6.612.674 1.183.814 1.462.105 2.415l-3.989 5.442c-1.317 1.788-1.115 1.244-.211 3.37.343.811.7 1.634 1.043 2.445-1.417 3.074-1.406 1.575-3.947-1.179-1.296-1.411-.965-1.198-2.805-1.548l-7.919-1.536c-1.535-.296-1.319-.044-2.31-1.281-2.148-2.74 7.268-.35 9.666-.104zm-72.041 1.077c-2.481.395-13.336 3.723-13.808 2.314-.372-1.153 1.398-2.928 2.349-3.17 3.661-.929 7.368-1.718 11.179-2.303-.782-1.489-6.171-9.02-3.418-9.418 1.348-.197 1.658-.225 2.288.782l3.616 5.697c1.185 1.878.753 1.492 3.061 1.424.88-.025 1.777-.056 2.657-.081 2.348 2.439.955 1.883-2.535 3.246-1.786.693-1.467.464-2.464 2.05l-4.314 6.814c-.835 1.322-.521 1.213-2.034 1.686-3.334 1.002 2.321-6.897 3.423-9.041zm27.028-24.915c-1.098-2.259-7.431-11.683-6.219-12.543.995-.691 3.207.488 3.714 1.328 1.951 3.235 3.781 6.553 5.447 10.031 1.198-1.18 6.842-8.522 8.022-6.002.579 1.232.696 1.521-.085 2.416l-4.404 5.113c-1.453 1.678-1.209 1.153-.475 3.343.279.835.57 1.684.849 2.519-1.654 2.954-1.525 1.46-3.842-1.486-1.182-1.507-.869-1.269-2.676-1.762l-7.773-2.153c-1.508-.416-1.312-.147-2.203-1.458-1.926-2.9 7.273.221 9.645.654zm-61.985-13.131c-2.512.012-13.749 1.642-13.999.177-.192-1.196 1.828-2.679 2.805-2.773 3.761-.359 7.544-.573 11.4-.568-.546-1.591-4.72-9.857-1.939-9.83 1.362.011 1.673.031 2.142 1.123l2.703 6.182c.884 2.037.516 1.589 2.808 1.875.873.11 1.764.216 2.638.325 1.947 2.77.656 2.007-3.002 2.821-1.871.413-1.52.234-2.747 1.649l-5.305 6.076c-1.028 1.179-.701 1.119-2.268 1.355-3.448.481 3.347-6.462 4.764-8.412zm30.517-20.493c-.74-2.401-5.558-12.682-4.23-13.346 1.089-.531 3.095.972 3.468 1.88 1.434 3.495 2.736 7.054 3.85 10.745 1.365-.983 8.065-7.376 8.845-4.706.384 1.307.456 1.61-.453 2.375l-5.133 4.38c-1.692 1.437-1.371.955-.98 3.231.148.868.306 1.752.454 2.619-2.086 2.667-1.731 1.21-3.57-2.055-.938-1.67-.665-1.387-2.375-2.151l-7.354-3.314c-1.426-.642-1.274-.346-1.954-1.778-1.46-3.16 7.155 1.33 9.432 2.12zm-43.734-41.589c-2.236-1.146-12.963-4.867-12.511-6.283.379-1.15 2.855-1.538 3.766-1.172 3.504 1.411 6.962 2.962 10.384 4.739.247-1.663.343-10.923 2.8-9.619 1.204.636 1.471.796 1.385 1.981l-.444 6.733c-.151 2.215-.273 1.648 1.631 2.957.725.499 1.468 1.003 2.193 1.502.455 3.355-.341 2.084-3.963 1.124-1.851-.494-1.458-.492-3.198.2l-7.505 2.955c-1.455.574-1.137.672-2.637.16-3.283-1.159 5.944-4.197 8.099-5.277zm36.523-4.159c.448-2.472.899-13.817 2.384-13.796 1.211.029 2.301 2.287 2.214 3.265-.334 3.762-.815 7.521-1.524 11.311 1.664-.245 10.554-2.84 10.019-.11-.26 1.337-.336 1.639-1.495 1.9l-6.573 1.528c-2.163.498-1.656.217-2.356 2.419-.268.838-.534 1.695-.802 2.534-3.078 1.408-2.093.278-2.225-3.467-.063-1.914.048-1.537-1.119-3.002l-5.004-6.326c-.972-1.225-.973-.893-.918-2.477.157-3.478 5.741 4.472 7.399 6.221zm-32.023-45.07c-2.236-1.146-12.963-4.867-12.511-6.283.379-1.15 2.855-1.538 3.766-1.172 3.504 1.411 6.962 2.962 10.384 4.739.247-1.663.343-10.923 2.8-9.619 1.204.636 1.471.796 1.385 1.981l-.444 6.733c-.151 2.215-.273 1.648 1.631 2.957.725.499 1.468 1.003 2.193 1.502.455 3.355-.341 2.084-3.963 1.124-1.851-.494-1.458-.492-3.198.2l-7.505 2.955c-1.455.574-1.137.672-2.637.16-3.283-1.159 5.944-4.198 8.099-5.277zm36.523-4.159c.448-2.472.899-13.818 2.384-13.796 1.211.029 2.301 2.287 2.214 3.264-.334 3.763-.815 7.522-1.524 11.312 1.664-.245 10.554-2.84 10.019-.11-.26 1.337-.336 1.639-1.495 1.9l-6.573 1.528c-2.163.498-1.656.217-2.356 2.418-.268.839-.534 1.696-.802 2.535-3.078 1.408-2.093.278-2.225-3.467-.063-1.914.048-1.537-1.119-3.002l-5.004-6.326c-.972-1.226-.973-.893-.918-2.477.157-3.478 5.741 4.471 7.399 6.221zm-36.523-40.841c-2.236-1.146-12.963-4.867-12.511-6.283.379-1.15 2.855-1.538 3.766-1.172 3.504 1.411 6.962 2.962 10.384 4.739.247-1.663.343-10.923 2.8-9.619 1.204.636 1.471.796 1.385 1.981l-.444 6.733c-.151 2.215-.273 1.648 1.631 2.957.725.499 1.468 1.003 2.193 1.502.455 3.355-.341 2.084-3.963 1.124-1.851-.494-1.458-.492-3.198.2l-7.505 2.955c-1.455.574-1.137.672-2.637.16-3.283-1.159 5.944-4.198 8.099-5.277zm36.523-4.159c.448-2.472.899-13.818 2.384-13.796 1.211.029 2.301 2.287 2.214 3.264-.334 3.763-.815 7.522-1.524 11.312 1.664-.245 10.554-2.84 10.019-.11-.26 1.337-.336 1.639-1.495 1.9l-6.573 1.528c-2.163.498-1.656.217-2.356 2.418-.268.839-.534 1.696-.802 2.535-3.078 1.408-2.093.278-2.225-3.467-.063-1.914.048-1.537-1.119-3.002l-5.004-6.326c-.972-1.226-.973-.893-.918-2.477.157-3.478 5.741 4.471 7.399 6.221zm-49.535-41.637c-2.414-.697-13.654-2.301-13.482-3.776.153-1.202 2.509-2.056 3.473-1.87 3.709.715 7.4 1.577 11.098 2.668-.075-1.681-1.75-10.788.911-9.978 1.303.395 1.596.501 1.738 1.681l.85 6.693c.275 2.204.048 1.67 2.166 2.591.807.352 1.633.704 2.44 1.056 1.087 3.206.063 2.11-3.676 1.86-1.911-.132-1.524-.204-3.1.808l-6.803 4.334c-1.318.841-.987.876-2.558.661-3.443-.511 5.034-5.256 6.943-6.728zm35.055-11.06c-.032-2.512-1.758-13.735-.296-13.998 1.195-.202 2.695 1.806 2.798 2.782.39 3.757.636 7.539.664 11.395 1.587-.559 9.817-4.804 9.813-2.023.001 1.362-.016 1.674-1.104 2.151l-6.159 2.756c-2.029.901-1.584.529-1.851 2.824-.103.874-.201 1.766-.303 2.64-2.753 1.971-2.001.673-2.846-2.977-.429-1.867-.247-1.519-1.673-2.734l-6.12-5.253c-1.188-1.017-1.125-.69-1.375-2.256-.51-3.443 6.49 3.293 8.452 4.693zm-65.327-29.326c-2.413-.697-13.654-2.3-13.481-3.776.152-1.202 2.509-2.056 3.473-1.87 3.709.715 7.399 1.577 11.097 2.668-.074-1.68-1.75-10.788.911-9.978 1.303.395 1.597.501 1.738 1.681l.851 6.694c.275 2.203.047 1.669 2.166 2.59.807.352 1.632.704 2.439 1.056 1.088 3.206.064 2.11-3.675 1.86-1.911-.131-1.525-.204-3.101.808l-6.802 4.334c-1.318.842-.988.876-2.558.661-3.444-.51 5.033-5.256 6.942-6.728zm35.056-11.06c-.033-2.512-1.758-13.734-.296-13.997 1.194-.203 2.695 1.805 2.797 2.781.391 3.758.636 7.539.665 11.395 1.586-.559 9.817-4.804 9.813-2.022 0 1.361-.016 1.673-1.104 2.15l-6.16 2.756c-2.029.902-1.584.529-1.851 2.824-.102.874-.2 1.766-.303 2.641-2.752 1.97-2.001.672-2.846-2.978-.428-1.867-.247-1.519-1.672-2.733l-6.121-5.253c-1.187-1.018-1.125-.691-1.374-2.257-.51-3.443 6.49 3.293 8.452 4.693zm-74.622-20.571c-2.483-.385-13.836-.549-13.852-2.034-.001-1.212 2.228-2.358 3.207-2.296 3.771.239 7.54.625 11.347 1.238-.287-1.657-3.105-10.479-.363-10.013 1.343.226 1.647.295 1.937 1.447l1.694 6.531c.552 2.151.259 1.651 2.477 2.295.845.246 1.708.491 2.554.738 1.485 3.041.33 2.085-3.41 2.311-1.912.112-1.538-.009-2.973 1.195a33879.85 33879.85 0 00-6.197 5.163c-1.201 1.002-.868.994-2.453.98-3.481-.069 4.325-5.853 6.032-7.555zm33.368-15.42c-.351-2.487-3.487-13.4-2.07-13.847 1.159-.352 2.902 1.449 3.127 2.404.865 3.678 1.588 7.398 2.106 11.218 1.503-.755 9.128-6.011 9.477-3.251.173 1.351.196 1.662-.822 2.274l-5.76 3.515c-1.898 1.152-1.504.726-1.478 3.036.01.88.026 1.777.035 2.658-2.48 2.304-1.9.921-3.201-2.593-.662-1.797-.438-1.474-2.006-2.499l-6.738-4.433c-1.307-.859-1.203-.543-1.649-2.064-.944-3.351 6.855 2.442 8.979 3.582zm-84.368-11.58c-2.483-.385-13.836-.549-13.852-2.034-.001-1.212 2.228-2.358 3.207-2.296 3.771.239 7.54.625 11.347 1.238-.287-1.657-3.105-10.479-.363-10.013 1.343.226 1.647.294 1.937 1.447l1.694 6.531c.552 2.151.259 1.651 2.477 2.295.845.246 1.708.491 2.554.738 1.485 3.041.33 2.085-3.41 2.311-1.912.112-1.538-.009-2.973 1.195a33879.85 33879.85 0 00-6.197 5.163c-1.201 1.002-.868.994-2.453.98-3.481-.069 4.325-5.853 6.032-7.555zm33.368-15.42c-.351-2.487-3.487-13.4-2.07-13.846 1.159-.353 2.902 1.448 3.127 2.403.865 3.678 1.588 7.398 2.106 11.219 1.503-.756 9.128-6.011 9.477-3.252.173 1.35.196 1.662-.822 2.274l-5.76 3.515c-1.898 1.152-1.504.726-1.478 3.036.01.88.026 1.777.035 2.658-2.48 2.304-1.9.921-3.201-2.593-.662-1.797-.438-1.474-2.006-2.499l-6.738-4.433c-1.307-.859-1.203-.543-1.649-2.064-.944-3.35 6.855 2.442 8.979 3.582zm-84.866-4.379c-2.509.121-13.663 2.244-13.978.792-.245-1.187 1.709-2.758 2.681-2.894 3.741-.524 7.511-.904 11.363-1.069-.614-1.566-5.149-9.64-2.369-9.735 1.361-.048 1.673-.043 2.189 1.027l2.972 6.058c.973 1.996.586 1.565 2.888 1.75.878.071 1.773.137 2.65.209 2.067 2.68.744 1.976-2.875 2.95-1.851.494-1.508.3-2.672 1.768l-5.033 6.303c-.974 1.223-.65 1.149-2.206 1.454-3.423.632 3.06-6.603 4.39-8.613zm29.586-21.815c-.844-2.366-6.11-12.426-4.812-13.148 1.065-.578 3.134.835 3.547 1.726 1.586 3.429 3.043 6.927 4.319 10.566 1.32-1.043 7.732-7.724 8.629-5.09.441 1.287.527 1.588-.348 2.392l-4.935 4.601c-1.628 1.51-1.328 1.014-.837 3.271.186.86.382 1.736.568 2.597-1.966 2.755-1.676 1.284-3.657-1.896-1.01-1.628-.725-1.357-2.467-2.045l-7.492-2.988c-1.453-.578-1.288-.29-2.031-1.69-1.598-3.092 7.206 1.014 9.516 1.704zm-79.586 5.815c-2.509.121-13.663 2.244-13.978.792-.245-1.187 1.709-2.758 2.681-2.894 3.741-.524 7.511-.904 11.363-1.069-.614-1.566-5.149-9.64-2.368-9.735 1.36-.048 1.672-.043 2.188 1.027l2.972 6.058c.973 1.996.586 1.565 2.888 1.75.878.071 1.773.137 2.65.209 2.067 2.68.744 1.976-2.875 2.95-1.851.494-1.508.3-2.672 1.768l-5.033 6.303c-.974 1.223-.65 1.149-2.206 1.454-3.423.632 3.06-6.603 4.39-8.613zm29.586-21.815c-.844-2.366-6.11-12.425-4.812-13.148 1.065-.578 3.134.835 3.547 1.726 1.586 3.429 3.043 6.927 4.319 10.566 1.32-1.043 7.732-7.724 8.629-5.09.441 1.287.527 1.588-.348 2.392l-4.935 4.601c-1.628 1.51-1.328 1.014-.837 3.271.186.86.382 1.736.568 2.597-1.966 2.755-1.676 1.284-3.657-1.896-1.01-1.628-.725-1.357-2.467-2.045l-7.492-2.988c-1.453-.578-1.288-.29-2.031-1.69-1.598-3.092 7.206 1.014 9.516 1.704zm-78.624 5.708c-2.46.511-13.148 4.343-13.685 2.958-.426-1.134 1.259-2.99 2.198-3.276 3.614-1.1 7.279-2.061 11.059-2.824-.851-1.45-6.586-8.721-3.855-9.248 1.337-.26 1.646-.303 2.322.674l3.878 5.522c1.272 1.82.822 1.454 3.125 1.28.878-.067 1.773-.14 2.65-.207 2.459 2.327 1.042 1.837-2.381 3.362-1.751.776-1.443.531-2.364 2.162l-3.991 7.01c-.772 1.36-.464 1.236-1.953 1.778-3.283 1.157 1.996-6.998 2.997-9.19zm25.831-26.152c-1.202-2.206-7.969-11.323-6.799-12.239.962-.736 3.226.338 3.773 1.153 2.1 3.14 4.084 6.37 5.91 9.765 1.141-1.235 6.436-8.832 7.732-6.37.636 1.203.767 1.486.028 2.417l-4.159 5.313c-1.373 1.745-1.154 1.208-.318 3.361.318.821.648 1.656.965 2.477-1.513 3.028-1.455 1.53-3.907-1.304-1.251-1.45-.927-1.227-2.755-1.635l-7.866-1.787c-1.525-.345-1.317-.085-2.269-1.353-2.059-2.807 7.276-.12 9.665.202zM412.273 49.09c-2.46.51-13.148 4.342-13.685 2.957-.426-1.134 1.259-2.99 2.198-3.276 3.614-1.1 7.28-2.06 11.059-2.823-.851-1.451-6.586-8.722-3.854-9.248 1.336-.26 1.645-.303 2.321.674l3.879 5.521c1.272 1.82.822 1.455 3.125 1.28.878-.066 1.772-.14 2.65-.206 2.459 2.326 1.042 1.836-2.381 3.361-1.751.776-1.443.532-2.365 2.163l-3.99 7.01c-.773 1.359-.464 1.235-1.953 1.778-3.284 1.157 1.995-6.998 2.996-9.191zm25.832-26.152c-1.202-2.206-7.969-11.324-6.799-12.24.961-.736 3.226.338 3.772 1.154 2.101 3.14 4.084 6.369 5.91 9.765 1.142-1.235 6.437-8.833 7.732-6.371.637 1.204.768 1.487.029 2.417l-4.16 5.313c-1.373 1.745-1.153 1.209-.318 3.362.318.82.648 1.656.966 2.477-1.514 3.028-1.455 1.53-3.908-1.304-1.25-1.451-.927-1.227-2.755-1.636l-7.865-1.786c-1.526-.345-1.318-.086-2.269-1.354-2.06-2.806 7.276-.12 9.665.203zm-75.72 19.646c-2.357.868-12.363 6.236-13.098 4.945-.589-1.058.803-3.142 1.69-3.564 3.412-1.621 6.895-3.114 10.521-4.426-1.056-1.31-7.802-7.653-5.178-8.577 1.283-.454 1.583-.543 2.396.324l4.651 4.888c1.527 1.612 1.027 1.317 3.279.804.859-.195 1.733-.4 2.591-.595 2.776 1.938 1.302 1.662-1.858 3.676-1.618 1.026-1.349.739-2.02 2.488l-2.911 7.522c-.564 1.459-.277 1.29-1.669 2.047-3.077 1.63.94-7.216 1.606-9.532zm21.687-29.68c-1.515-2.005-9.554-10.023-8.532-11.101.842-.87 3.24-.143 3.901.583 2.541 2.796 4.98 5.696 7.287 8.786.947-1.39 5.062-9.687 6.707-7.444.807 1.097.978 1.358.385 2.387l-3.329 5.87c-1.101 1.928-.963 1.365.182 3.371.435.765.885 1.542 1.32 2.307-1.05 3.218-1.213 1.728-4.057-.713-1.451-1.25-1.098-1.076-2.967-1.21l-8.043-.606c-1.559-.116-1.315.11-2.443-1.003-2.452-2.472 7.178-1.193 9.589-1.227zm-73.756 33.46c-2.071 1.423-10.445 9.09-11.476 8.02-.832-.88.004-3.243.759-3.87 2.908-2.412 5.916-4.717 9.107-6.882-1.346-1.009-9.447-5.495-7.131-7.037 1.132-.757 1.4-.916 2.401-.276l5.713 3.591c1.876 1.187 1.32 1.024 3.376-.029.784-.4 1.58-.814 2.364-1.214 3.168 1.194 1.671 1.29-.895 4.02-1.315 1.393-1.126 1.049-1.345 2.91l-.969 8.006c-.186 1.553.051 1.32-1.113 2.396-2.58 2.337-.866-7.225-.791-9.635zm13.707-34.107c-1.962-1.57-11.728-7.36-11.004-8.657.602-1.051 3.106-.937 3.925-.396 3.152 2.084 6.23 4.294 9.227 6.72.575-1.58 2.519-10.635 4.667-8.866 1.052.864 1.282 1.075.96 2.218l-1.78 6.509c-.592 2.14-.597 1.56 1.007 3.223.61.634 1.237 1.276 1.848 1.91-.225 3.378-.751 1.974-4.108.309-1.714-.854-1.33-.773-3.173-.443l-7.945 1.395c-1.54.272-1.247.43-2.615-.37-2.985-1.792 6.663-2.925 8.991-3.552zm-54.005 46.275c-1.396 2.09-6.328 12.316-7.683 11.705-1.099-.51-1.199-3.014-.73-3.877 1.806-3.318 3.744-6.574 5.904-9.768-1.624-.438-10.811-1.6-9.233-3.89.771-1.122.961-1.37 2.128-1.147l6.637 1.216c2.183.406 1.606.461 3.125-1.279.58-.663 1.166-1.342 1.745-2.005 3.385-.066 2.031.579.66 4.066-.704 1.781-.656 1.391-.169 3.2l2.07 7.795c.402 1.511.536 1.207-.145 2.638-1.53 3.127-3.485-6.388-4.309-8.654zm.077-36.759c-2.404-.73-13.622-2.484-13.429-3.957.169-1.2 2.536-2.022 3.498-1.823 3.699.765 7.377 1.676 11.061 2.817-.053-1.681-1.605-10.81 1.045-9.964 1.297.412 1.589.522 1.715 1.704l.76 6.704c.245 2.207.025 1.67 2.131 2.62.802.362 1.623.726 2.425 1.088 1.044 3.22.035 2.111-3.7 1.81-1.909-.157-1.522-.224-3.111.767l-6.86 4.242c-1.33.823-1 .863-2.567.626-3.436-.557 5.103-5.188 7.032-6.634zm-33.129 65.365c-.477 2.467-1.06 13.806-2.545 13.768-1.211-.044-2.274-2.314-2.176-3.29.378-3.76.904-7.512 1.657-11.294-1.667.226-10.587 2.716-10.019-.007.275-1.334.354-1.635 1.517-1.883l6.589-1.45c2.17-.473 1.659-.198 2.385-2.391.277-.835.554-1.69.831-2.525 3.095-1.372 2.096-.253 2.185 3.493.041 1.915-.066 1.537 1.084 3.015l4.929 6.384c.957 1.237.962.904.889 2.488-.198 3.475-5.688-4.539-7.326-6.308zM222.79 53.223c-2.499.26-13.52 2.99-13.914 1.557-.309-1.171 1.555-2.847 2.518-3.037 3.707-.728 7.451-1.313 11.288-1.69-.699-1.529-5.669-9.343-2.898-9.59 1.355-.123 1.667-.135 2.241.906l3.3 5.886c1.081 1.939.67 1.53 2.979 1.588.88.024 1.778.04 2.658.064 2.21 2.564.85 1.932-2.71 3.103-1.82.595-1.489.383-2.571 1.912l-4.679 6.57c-.907 1.274-.587 1.182-2.124 1.571-3.383.82 2.694-6.76 3.912-8.84zm-.141 75.717c.845 2.366 6.113 12.424 4.815 13.146-1.064.579-3.135-.835-3.548-1.725-1.587-3.428-3.044-6.926-4.32-10.565-1.32 1.043-7.731 7.726-8.629 5.093-.441-1.288-.527-1.588.348-2.393l4.934-4.602c1.628-1.511 1.327-1.014.836-3.271-.186-.861-.382-1.737-.569-2.597 1.966-2.756 1.676-1.285 3.658 1.895 1.01 1.628.725 1.356 2.468 2.044l7.492 2.986c1.453.578 1.288.29 2.031 1.69 1.599 3.092-7.206-1.012-9.516-1.701zm-29.463-21.981c-2.019 1.494-10.117 9.453-11.185 8.421-.862-.851-.11-3.242.622-3.896 2.821-2.513 5.745-4.922 8.857-7.199-1.38-.96-9.635-5.158-7.376-6.78 1.105-.796 1.368-.965 2.391-.361l5.836 3.387c1.917 1.119 1.355.976 3.373-.149.769-.427 1.551-.87 2.32-1.297 3.208 1.082 1.716 1.23-.753 4.05-1.265 1.438-1.088 1.087-1.24 2.954l-.685 8.037c-.132 1.558.096 1.316-1.028 2.433-2.496 2.427-1.121-7.19-1.132-9.6zm9.463 61.981c.845 2.366 6.113 12.424 4.815 13.146-1.064.579-3.135-.835-3.548-1.725-1.587-3.428-3.044-6.926-4.32-10.565-1.32 1.043-7.731 7.726-8.629 5.093-.441-1.288-.527-1.588.348-2.393l4.934-4.602c1.628-1.511 1.327-1.014.836-3.271-.186-.861-.382-1.737-.569-2.597 1.966-2.756 1.676-1.285 3.658 1.895 1.01 1.628.725 1.356 2.468 2.044l7.492 2.986c1.453.578 1.288.29 2.031 1.69 1.599 3.092-7.206-1.012-9.516-1.701zm-29.463-21.981c-2.019 1.494-10.117 9.453-11.185 8.421-.862-.851-.11-3.242.622-3.896 2.821-2.513 5.745-4.922 8.857-7.199-1.38-.96-9.635-5.158-7.376-6.78 1.105-.796 1.368-.965 2.391-.362l5.836 3.388c1.917 1.119 1.355.976 3.373-.149.769-.427 1.551-.869 2.32-1.297 3.208 1.082 1.716 1.23-.753 4.05-1.265 1.438-1.088 1.087-1.24 2.954l-.685 8.037c-.132 1.558.096 1.316-1.028 2.433-2.496 2.427-1.121-7.19-1.132-9.6zm-9.606 59.705c.368 2.485 3.576 13.377 2.162 13.832-1.157.36-2.912-1.429-3.144-2.383-.888-3.672-1.637-7.386-2.179-11.204-1.498.766-9.088 6.071-9.456 3.314-.182-1.35-.207-1.661.808-2.279l5.736-3.553c1.891-1.164 1.5-.736 1.458-3.046-.015-.88-.037-1.777-.052-2.657 2.465-2.321 1.893-.934 3.218 2.571.673 1.793.447 1.472 2.022 2.486l6.767 4.389c1.313.85 1.207.534 1.663 2.052.965 3.345-6.871-2.396-9.003-3.522zm-24.615-27.301c-2.272 1.073-11.765 7.301-12.611 6.08-.68-1.002.523-3.201 1.369-3.699 3.256-1.915 6.594-3.709 10.09-5.335-1.167-1.212-8.445-6.937-5.913-8.088 1.238-.566 1.529-.68 2.415.111l5.064 4.46c1.662 1.471 1.139 1.221 3.337.512.838-.27 1.691-.551 2.529-.821 2.935 1.686 1.443 1.541-1.528 3.826-1.521 1.164-1.279.854-1.792 2.656l-2.238 7.749c-.433 1.502-.162 1.31-1.482 2.186-2.921 1.894.301-7.27.76-9.637zm-15.496 50.593c.026 2.512 1.718 13.739.255 13.998-1.195.199-2.69-1.813-2.789-2.79-.38-3.758-.614-7.54-.631-11.396-1.588.554-9.831 4.775-9.819 1.993.004-1.361.021-1.673 1.11-2.147l6.168-2.738c2.031-.896 1.586-.525 1.859-2.818.105-.874.206-1.766.311-2.64 2.758-1.963 2.003-.667 2.837 2.986.423 1.868.243 1.519 1.665 2.738l6.105 5.271c1.184 1.021 1.123.694 1.367 2.26.501 3.445-6.48-3.311-8.438-4.717zm-20.662-30.402c-2.397.753-12.651 5.629-13.323 4.304-.537-1.086.955-3.1 1.861-3.479 3.487-1.453 7.038-2.775 10.723-3.909-.991-1.359-7.42-8.024-4.755-8.819 1.304-.391 1.608-.465 2.378.44l4.408 5.108c1.446 1.685.962 1.366 3.237.962.866-.153 1.749-.315 2.616-.468 2.678 2.071 1.219 1.724-2.035 3.582-1.665.946-1.383.672-2.138 2.387l-3.273 7.371c-.634 1.43-.339 1.276-1.767 1.964-3.152 1.478 1.29-7.162 2.068-9.443zm-28.836 47.07c-.411 2.479-.694 13.829-2.18 13.83-1.211-.012-2.334-2.253-2.262-3.232.279-3.767.705-7.532 1.357-11.333-1.66.27-10.51 2.996-10.016.258.24-1.34.312-1.644 1.467-1.922l6.55-1.625c2.155-.529 1.652-.241 2.32-2.452.255-.843.509-1.704.764-2.546 3.057-1.454 2.089-.309 2.276 3.434.092 1.913-.025 1.537 1.163 2.985l5.097 6.251c.99 1.211.986.879.954 2.464-.105 3.479-5.806-4.387-7.49-6.112zm-15.068-33.528c-2.492.325-13.436 3.346-13.868 1.924-.34-1.162 1.479-2.887 2.437-3.102 3.686-.826 7.413-1.51 11.24-1.988-.74-1.51-5.916-9.19-3.152-9.51 1.352-.159 1.663-.179 2.265.846l3.454 5.796c1.132 1.91.71 1.512 3.02 1.51.88 0 1.778-.007 2.658-.007 2.278 2.504.902 1.909-2.626 3.174-1.804.643-1.479.422-2.52 1.979l-4.504 6.691c-.872 1.298-.555 1.198-2.08 1.628-3.361.908 2.513-6.829 3.676-8.941zm-37.38 35.947c-.934 2.332-3.652 13.356-5.103 13.037-1.18-.271-1.795-2.702-1.514-3.642 1.082-3.619 2.308-7.205 3.763-10.776-1.68-.093-10.91.665-9.837-1.902.522-1.257.657-1.539 1.845-1.562l6.746-.178c2.22-.053 1.666.119 2.793-1.896.43-.768.864-1.554 1.294-2.322 3.299-.763 2.107.147 1.484 3.842-.321 1.888-.355 1.497.495 3.166 1.21 2.401 2.422 4.801 3.633 7.201.706 1.396.773 1.07.402 2.611-.851 3.376-4.727-5.532-6-7.579zm-7.505-35.985c-2.503-.218-13.841.379-13.957-1.102-.082-1.209 2.065-2.502 3.047-2.506 3.777-.014 7.564.119 11.404.476-.398-1.634-3.8-10.247-1.033-9.966 1.355.136 1.664.183 2.03 1.314l2.127 6.403c.695 2.109.369 1.629 2.625 2.124.86.189 1.738.376 2.597.565 1.686 2.935.47 2.058-3.247 2.535-1.9.239-1.535.094-2.886 1.391l-5.838 5.566c-1.13 1.08-.8 1.05-2.382 1.142-3.478.164 3.924-6.129 5.513-7.942zm272.373 199.503v8.53c-30.931 0-56.596-19.921-67.454-48.888l2.004-.744c9.598 25.627 38.087 41.102 65.45 41.102zm-1.22-159.39c-27.001 1.316-52.036 11.849-65.47 38.411 1.775-27.897 6.87-61.386 14.865-80.582 3.13 22.288 10.686 35.168 23.757 36.332 24.654-16.392 44.728-15.705 65.794-9.904-33.26 3.492-37.687 9.274-33.088 8.339 19.673-4.007 44.499 4.751 46.025 5.286-37.4 3.072 8.873 28.069 40.816 4.198 4.37 4.656 2.843 19.024-3.072 28.603h-3.091c1.335-7.442.763-16.009-1.737-17.173-38.602 16.238-49.479-15.228-84.799-13.51zm57.702 164.102c-2.785-4.236-18.032-21.448-15.685-23.432 1.889-1.603 6.755.248 7.996 1.793 4.77 5.954 9.292 12.117 13.528 18.605 2.214-2.614 12.27-18.433 15.266-13.72 1.469 2.29 1.775 2.863.382 4.809-2.653 3.721-5.324 7.423-7.977 11.144-2.633 3.663-2.251 2.557-.229 6.716.783 1.603 1.546 3.206 2.328 4.79-2.767 6.24-2.843 3.244-8.3-2.061-2.786-2.709-2.08-2.309-5.935-2.881-5.533-.821-11.048-1.66-16.582-2.481-3.225-.477-2.747.019-4.885-2.385-4.694-5.286 15.075-1.221 20.093-.897z" fill="#fff"/><path fill-rule="evenodd" clip-rule="evenodd" d="M322.628 304.444c-6.603 0-12.728 1.927-17.918 5.228-4.866-15.571-19.33-26.371-35.893-26.371-20.78 0-37.61 16.849-37.61 37.61 0 19.597 14.979 35.683 34.118 37.439h-.038c13.643 7.289 19.654 13.91 24.024 30.206l2.08.954c11.22-13.872 17.975-17.841 31.237-17.956 18.528 0 33.564-15.017 33.564-33.565 0-18.509-15.036-33.545-33.564-33.545zm-83.407 18.032c0-17.212 13.949-31.161 31.161-31.161 13.662 0 25.665 8.912 29.71 21.868-6.755 6.144-11.01 14.96-11.01 24.806 0 2.939.42 5.763 1.126 8.473-5.572 4.598-12.556 7.155-19.807 7.155-17.231.019-31.18-13.929-31.18-31.141zm64.039 42.934c-4.256 1.679-7.957 4.446-10.648 9.216-1.107-6.697-4.16-12.994-9.923-18.757l-.133.019a36.893 36.893 0 009.045-5.114 33.523 33.523 0 0011.735 14.655l-.076-.019zm19.692-.592c-15.762 0-28.527-12.765-28.527-28.527 0-15.761 12.765-28.527 28.527-28.527s28.527 12.766 28.527 28.527c.019 15.743-12.765 28.527-28.527 28.527z" fill="#fff"/><path d="M313.297 315.338c-1.583.153-1.278 1.203-1.851 3.588-.61 2.862 4.008.553 4.733-1.718.553-1.679-1.012-1.564-2.882-1.87z" fill="#fff"/><path d="M318.659 308.852c-6.812 0-13.014 2.766-17.517 7.231-2.424-12.613-13.548-22.211-26.848-22.211-15.075 0-27.363 12.289-27.363 27.364 0 15.074 12.288 27.363 27.363 27.363 7.976 0 15.151-3.473 20.169-8.95 2.653 10.934 12.499 19.101 24.215 19.101 13.739 0 24.94-11.201 24.94-24.94-.019-13.758-11.22-24.958-24.959-24.958zm-43.049 2.499a7.397 7.397 0 01-1.755.744c-1.813.897-3.836 1.069-5.706-.057-3.453-.992-5.934-3.625-4.007-6.869.019-.458.096-.897.21-1.298.019-1.374.515-2.442 1.317-3.244.935-1.717 2.805-3.072 5.896-3.549 2.729-.439 4.79.134 6.221 1.24 1.622.439 2.29 1.832 2.251 3.588.897 3.511-.706 7.881-4.427 9.445zm45.51 10.572c-.553 1.45-2.232 2.537-4.121 3.034-.191.095-.363.19-.554.267-5.514 2.518-7.556-.573-7.232-3.95a8.556 8.556 0 01-.076-1.603c-.343-1.317-.21-2.653.706-3.626 1.298-3.167 4.16-3.453 6.66-2.309.534.039 1.068.268 1.564.706 3.302 1.088 5.763 4.637 3.053 7.481z" fill="#fff"/><path d="M267.348 304.825c1.431 1.393 2.9.153 4.103.687 3.472 1.565 5.342-3.778 2.576-6.488-2.615-2.194-7.69 2.347-6.679 5.801z" fill="#fff"/><path fill-rule="evenodd" clip-rule="evenodd" d="M202.527 320.377c-8.358 4.752-17.593 7.003-27.211 6.851-.687-.02-1.297.229-1.851.629-1.278-4.331-1.984-8.835-1.984-13.376-.019-5.706.553-12.365 5.057-16.468 2.08-1.908 5.094-3.186 7.957-2.976 1.278.095 2.099.629 3.225 1.068.496.191.725.554.839.783.325 2.938 1.298 6.297 4.217 7.48 2.882 1.164 5.343-1.26 5.801-4.122 1.717-10.915-6.106-24.253-18.471-23.051-11.354 1.088-18.013 12.461-19.941 22.593-4.274 22.497 3.492 46.96 18.643 63.828 4.885 5.458 9.255-.706 9.656-5.743.324-4.065.038-8.205-.821-12.251 7.404-.992 14.541-3.358 21.2-6.984 7.308-3.949 1.966-22.955-6.316-18.261zm-13.93-23.413c.038.114.038.153 0 0zm-.095-.783c0-.133-.019-.267-.038-.419.019.133.019.267.038.419zm231.156 27.478c-4.598-3.415-10.323-4.827-15.99-4.675-5.973.153-12.575 2.729-18.529 1.603-.534-.095-1.259-.248-1.755-.553a6.232 6.232 0 01-.172-.84c-.324-2.099-.4-4.217.229-6.278.783-2.538 2.538-4.98 4.732-6.487 1.069-.745 2.653-1.546 3.95-1.756 1.584-.248 2.481.897 1.279-.859 1.412 2.042 4.045 4.408 6.602 2.748 2.385-1.546 2.214-5.648 1.107-7.919-3.11-6.259-8.854-10.38-16.048-8.72-6.392 1.469-10.972 7.175-12.842 13.204-4.083 13.052 1.26 32.191 16.888 33.546 6.468.554 12.842-1.717 19.31-1.641 2.824.038 5.21.592 7.69 1.927-.439-.248.077.172.515.477-.038.058-.057.115-.095.191-1.259 2.156-2.004 4.026-3.759 5.896-2.214 2.348-4.771 4.408-7.556 6.03-5.42 3.168-11.087 4.714-17.174 5.439a11.84 11.84 0 00-1.985.21c-9.311 1.698-4.255 18.814 3.931 18.604 12.251-.324 25.207-6.774 32.878-16.353 8.282-10.38 8.129-25.359-3.206-33.794zm-36.274-3.568c.286.305.191.649 0 0zm93.215-12.537c-2.404-9.599-11.182-15.552-21.028-12.728-9.006 2.576-15.303 11.068-17.479 19.845-1.316 5.305-1.354 10.667-.248 16.01.973 4.713 2.844 10.323 7.786 11.907 4.179 1.335 5.801-6.221 5.82-8.568.038-4.675-2.996-9.827-2.118-14.101.744-3.664 4.636-6.755 8.644-7.347 1.965-.286 4.503-.114 6.087 1.24 1.412 1.203 1.374 2.729 1.488 4.485.439 6.736-.267 13.147-1.336 19.807-.534 3.32.363 8.739 4.103 9.903 3.95 1.221 6.354-2.691 7.633-5.801l.381-.954c.458-1.107.687-2.614.63-4.16 1.641-9.503 1.965-20.341-.363-29.538zm35.873 14.464c-4.961-2.423-11.22-4.427-16.964-3.778.058-4.236-.095-8.606-1.392-12.346-.649-1.889-1.622-3.911-3.95-3.778-2.099.115-3.817 2.404-4.294 4.313-1.431 5.743-1.068 11.716-1.374 17.593-.076 1.507-.171 2.996-.267 4.503-.954 4.179-.839 8.911-1.068 12.861-.191 3.263.267 8.778 4.503 9.35 3.931.535 6.526-4.655 6.793-7.842.191-2.347.343-4.713.496-7.079 1.756-.058 4.294.438 5.248.648 2.9.63 5.591 1.832 8.415 2.691 3.587 1.088 6.163-4.389 6.716-6.889.668-3.129.573-8.567-2.862-10.247zm67.302-12.004c-5.706-5.152-13.243-5.8-20.055-3.587a164.935 164.935 0 00-2.023-9.197c-.572-2.271-1.813-5.706-4.713-5.706-2.595 0-4.045 3.034-3.874 5.381.306 3.893.63 7.767.973 11.659-2.308-.191-4.961.363-7.899 1.794-17.117 8.262-25.894 33.908-7.557 45.949 6.068 3.988 12.995 4.255 19.578 2.461.878 1.699 2.175 3.053 3.988 3.397 3.855.725 5.648-3.664 5.648-6.793v-.687c7.996-4.503 17.498-11.888 21.372-19.979 3.95-8.319 1.24-18.662-5.438-24.692zm-27.211 32.897c-3.874 1.336-7.862 1.718-11.697.458-5.19-1.698-7.041-4.14-4.198-8.987 2.614-4.446 6.908-8.186 11.335-10.705 2.614-1.488 3.034-2.786 3.339-.63.553 6.603.992 13.224 1.221 19.864zm23.299-17.765c-.42 1.584-3.015 3.454-4.217 4.637-2.385 2.309-5.267 4.923-8.453 7.27-.287-5.266-.687-10.552-1.279-15.799 3.607-.954 7.385-1.451 10.648-.077a9.08 9.08 0 013.129 2.08c1.221.802 1.279 1.431.172 1.889zm58.772 6.851c-1.278-11.277-7.537-23.833-20.017-20.017a16.532 16.532 0 00-4.885 2.443c-.515-6.984-1.431-11.697-5.304-16.983-1.928-2.633-5.286-2.843-7.08.172-2.9 4.885.592 12.365 1.26 18.223.438 4.007.591 8.09.782 12.117.134 3.167.21 6.335.267 9.502-.992 6.336-.782 12.785.153 17.632.591 3.072 2.824 6.679 6.373 6.03 3.664-.668 4.656-5.591 4.713-8.606a355.67 355.67 0 000-11.125c.725-3.301 2.176-9.598 4.599-11.487 2.137-1.66 5.152-1.603 7.041.553 2.023 2.29 1.011 6.526.878 9.293-.229 4.866 5.973 12.442 9.674 5.782.516-1.03 1.107-2.023 1.813-2.939 1.603-2.385 1.431-7.537-.267-10.59zm45.624-5.037a5.057 5.057 0 01-.057-.248c.343-.744.61-1.45.839-2.118 2.653-7.9 1.87-22.269-9.197-24.444-3.511-.687-5.992 2.633-6.583 5.152-1.317 5.763-.821 11.258.209 16.849-3.93 3.893-4.961 3.301-6.812-1.011-2.805-6.545-3.778-14.464-1.774-21.467-.019.038-.039.057-.077.095.306-1.316.344-2.652.191-3.587l-.057-.343c-.477-3.187-3.95-8.034-8.511-5.763-4.98 2.48-4.865 9.178-5.171 13.376a51.862 51.862 0 001.241 15.647c1.793 7.557 5.533 20.341 15.628 22.517 3.186.687 6.239-.115 9.006-1.756.554 2.519 1.126 5.019 1.775 7.499.706 2.729 2.137 6.126 5.553 7.08 2.766.782 5.896-.458 6.907-3.073.267-.686.515-1.354.783-2.041 1.316-3.435 1.221-7.232-1.126-10.171-.878-4.064-1.832-8.129-2.767-12.193z" fill="#fff"/></svg>