<svg width="304" height="128" fill="none" xmlns="http://www.w3.org/2000/svg"><path fill-rule="evenodd" clip-rule="evenodd" d="M73.625 116.492v4.929c-17.876 0-32.71-11.513-38.984-28.254l1.157-.43c5.548 14.811 22.013 23.755 37.827 23.755zm-.705-92.12c-15.605.761-30.074 6.849-37.838 22.2C36.108 30.45 39.052 11.094 43.673 0c1.809 12.881 6.176 20.325 13.73 20.998 14.249-9.474 25.85-9.077 38.026-5.724-19.222 2.018-21.781 5.36-19.123 4.82 11.37-2.317 25.718 2.745 26.6 3.054-21.616 1.776 5.128 16.223 23.589 2.427 2.526 2.69 1.643 10.995-1.775 16.53h-1.787c.772-4.3.441-9.252-1.003-9.925-22.31 9.385-28.597-8.8-49.01-7.808zm33.349 94.843c-1.61-2.449-10.422-12.396-9.065-13.543 1.092-.926 3.904.143 4.621 1.037 2.757 3.44 5.37 7.003 7.819 10.752 1.279-1.511 7.091-10.653 8.822-7.929.85 1.323 1.026 1.654.221 2.779-1.533 2.151-3.077 4.29-4.61 6.441-1.522 2.117-1.301 1.477-.132 3.881.452.927.893 1.853 1.345 2.769-1.599 3.606-1.643 1.874-4.797-1.191-1.61-1.566-1.202-1.335-3.43-1.666-3.198-.474-6.385-.959-9.583-1.433-1.864-.276-1.589.011-2.824-1.379-2.713-3.055 8.713-.706 11.613-.518z" fill="#fff"/><path fill-rule="evenodd" clip-rule="evenodd" d="M94.568 54.005a19.21 19.21 0 00-10.355 3.022 21.735 21.735 0 00-20.745-15.24c-12.01 0-21.736 9.737-21.736 21.736 0 11.326 8.657 20.623 19.718 21.637h-.022c7.885 4.213 11.36 8.04 13.885 17.458l1.202.551c6.484-8.017 10.388-10.311 18.053-10.377 10.708 0 19.399-8.68 19.399-19.399 0-10.697-8.691-19.388-19.399-19.388zM46.364 64.427c0-9.947 8.061-18.009 18.009-18.009 7.896 0 14.833 5.15 17.17 12.638-3.903 3.552-6.363 8.647-6.363 14.337 0 1.698.243 3.33.651 4.897a17.983 17.983 0 01-11.447 4.135c-9.959.011-18.02-8.05-18.02-17.998zm37.01 24.814c-2.459.97-4.598 2.57-6.153 5.326-.64-3.87-2.405-7.51-5.735-10.84l-.077.01a21.326 21.326 0 005.227-2.955 19.376 19.376 0 006.782 8.47l-.044-.011zm11.382-.342c-9.11 0-16.488-7.378-16.488-16.487 0-9.11 7.378-16.488 16.487-16.488 9.11 0 16.488 7.378 16.488 16.488.011 9.098-7.378 16.487-16.487 16.487z" fill="#fff"/><path d="M89.175 60.302c-.915.088-.738.695-1.07 2.073-.352 1.655 2.317.32 2.736-.992.32-.97-.585-.905-1.665-1.081z" fill="#fff"/><path d="M92.274 56.553c-3.937 0-7.52 1.599-10.124 4.18-1.4-7.29-7.83-12.837-15.516-12.837-8.713 0-15.815 7.102-15.815 15.814 0 8.713 7.102 15.815 15.815 15.815 4.61 0 8.756-2.007 11.657-5.172 1.532 6.319 7.223 11.039 13.994 11.039 7.941 0 14.414-6.474 14.414-14.414-.011-7.951-6.484-14.425-14.425-14.425zm-24.88 1.445c-.32.187-.661.33-1.014.43-1.048.518-2.217.617-3.297-.033-1.996-.574-3.43-2.096-2.316-3.97.01-.265.055-.519.121-.75.011-.794.298-1.412.76-1.875.541-.993 1.622-1.776 3.409-2.051 1.577-.254 2.768.077 3.595.716.937.254 1.323 1.059 1.301 2.074.519 2.029-.408 4.554-2.558 5.459zm26.303 6.11c-.32.837-1.29 1.466-2.382 1.753-.11.055-.21.11-.32.154-3.187 1.456-4.367-.33-4.18-2.283a4.927 4.927 0 01-.044-.926c-.198-.761-.121-1.533.408-2.095.75-1.831 2.404-1.996 3.85-1.335.308.022.617.155.904.408 1.907.629 3.33 2.68 1.764 4.323z" fill="#fff"/><path d="M62.62 54.226c.826.805 1.676.088 2.37.397 2.008.904 3.088-2.184 1.49-3.75-1.512-1.268-4.445 1.357-3.86 3.353z" fill="#fff"/><path fill-rule="evenodd" clip-rule="evenodd" d="M25.156 63.214c-4.83 2.746-10.168 4.047-15.726 3.96-.397-.012-.75.132-1.07.363-.739-2.503-1.147-5.106-1.147-7.73-.01-3.298.32-7.147 2.923-9.518 1.202-1.103 2.944-1.842 4.599-1.72.739.055 1.213.363 1.863.617.287.11.42.32.486.452.187 1.699.75 3.64 2.437 4.323 1.665.673 3.088-.727 3.352-2.382.993-6.308-3.529-14.017-10.675-13.322-6.562.629-10.41 7.202-11.524 13.058-2.47 13.002 2.018 27.14 10.774 36.89 2.823 3.153 5.349-.409 5.58-3.32a24.705 24.705 0 00-.474-7.08c4.28-.574 8.404-1.942 12.253-4.037 4.224-2.283 1.136-13.267-3.65-10.554zm-8.05-13.532c.022.067.022.089 0 0zm-.056-.452c0-.077-.01-.154-.021-.242.01.077.01.154.021.242zm133.597 15.881c-2.658-1.974-5.967-2.79-9.242-2.702-3.452.089-7.268 1.577-10.708.927-.309-.055-.728-.144-1.015-.32a3.614 3.614 0 01-.099-.485c-.188-1.214-.232-2.438.132-3.629.452-1.467 1.467-2.878 2.735-3.75.618-.43 1.533-.893 2.283-1.014.915-.143 1.434.518.739-.496.816 1.18 2.338 2.547 3.816 1.588 1.378-.893 1.279-3.264.639-4.577-1.797-3.617-5.117-6-9.275-5.04-3.694.85-6.341 4.147-7.422 7.632-2.36 7.543.728 18.604 9.76 19.387 3.739.32 7.422-.992 11.161-.948 1.632.022 3.011.342 4.444 1.114-.253-.144.044.1.298.275-.022.034-.033.067-.055.11-.728 1.247-1.158 2.328-2.173 3.409a19.587 19.587 0 01-4.367 3.484c-3.132 1.831-6.407 2.725-9.925 3.144a6.878 6.878 0 00-1.147.12c-5.382.982-2.459 10.875 2.272 10.753 7.08-.187 14.568-3.915 19.001-9.45 4.787-6 4.698-14.657-1.852-19.532zm-20.965-2.062c.165.176.11.375 0 0zm53.874-7.246c-1.39-5.547-6.463-8.988-12.154-7.356-5.205 1.489-8.844 6.396-10.101 11.47-.761 3.065-.783 6.164-.144 9.252.563 2.724 1.643 5.966 4.5 6.882 2.415.772 3.352-3.596 3.363-4.952.022-2.702-1.731-5.68-1.224-8.15.43-2.117 2.68-3.904 4.996-4.246 1.136-.165 2.603-.066 3.518.717.816.695.794 1.577.86 2.592.254 3.893-.154 7.598-.772 11.447-.309 1.919.21 5.051 2.371 5.724 2.283.705 3.673-1.555 4.412-3.353l.22-.551c.265-.64.397-1.511.364-2.404.948-5.493 1.136-11.757-.209-17.072zm20.732 8.36c-2.867-1.4-6.485-2.559-9.804-2.184.033-2.448-.055-4.974-.805-7.135-.375-1.092-.938-2.26-2.283-2.184-1.213.067-2.206 1.39-2.481 2.493-.827 3.32-.618 6.771-.794 10.168-.044.871-.1 1.731-.155 2.603-.551 2.415-.485 5.15-.617 7.432-.111 1.886.154 5.074 2.602 5.404 2.272.31 3.772-2.69 3.926-4.532.111-1.357.199-2.724.287-4.092 1.015-.033 2.482.254 3.033.375 1.676.364 3.231 1.059 4.863 1.555 2.074.629 3.562-2.536 3.882-3.981.386-1.809.331-4.952-1.654-5.922zm38.897-6.938c-3.298-2.978-7.654-3.353-11.591-2.073a95.166 95.166 0 00-1.169-5.316c-.331-1.312-1.048-3.297-2.724-3.297-1.5 0-2.338 1.753-2.239 3.11.177 2.25.364 4.488.563 6.738-1.335-.11-2.868.21-4.566 1.036-9.892 4.776-14.965 19.598-4.367 26.556 3.507 2.305 7.51 2.46 11.315 1.423.507.982 1.257 1.765 2.305 1.963 2.228.42 3.264-2.117 3.264-3.926v-.397c4.621-2.603 10.113-6.87 12.352-11.546 2.283-4.809.717-10.786-3.143-14.271zm-15.727 19.013c-2.238.772-4.543.992-6.76.264-2.999-.981-4.069-2.393-2.426-5.194 1.511-2.57 3.992-4.731 6.551-6.187 1.511-.86 1.753-1.61 1.93-.364.32 3.816.573 7.643.705 11.48zm13.466-10.268c-.243.916-1.742 1.996-2.437 2.68-1.379 1.335-3.044 2.846-4.886 4.202a157.814 157.814 0 00-.739-9.131c2.085-.552 4.268-.839 6.154-.044.684.275 1.29.672 1.809 1.202.706.463.739.827.099 1.091zm33.967 3.96c-.739-6.518-4.356-13.774-11.569-11.569a9.554 9.554 0 00-2.823 1.412c-.298-4.037-.827-6.76-3.066-9.815-1.114-1.522-3.055-1.643-4.091.099-1.676 2.823.342 7.146.728 10.532.253 2.316.342 4.676.452 7.003.077 1.83.121 3.661.154 5.492-.573 3.661-.452 7.389.088 10.19.342 1.776 1.633 3.86 3.684 3.485 2.117-.386 2.691-3.231 2.724-4.974.033-2.14.033-4.29 0-6.43.419-1.907 1.257-5.546 2.658-6.638 1.235-.96 2.977-.927 4.069.32 1.169 1.323.585 3.771.507 5.37-.132 2.813 3.452 7.19 5.592 3.342a10.36 10.36 0 011.047-1.698c.927-1.379.828-4.357-.154-6.121zm26.368-2.911c-.011-.045-.022-.089-.033-.144.199-.43.353-.838.485-1.224 1.533-4.566 1.081-12.87-5.315-14.127-2.029-.397-3.463 1.522-3.805 2.977-.761 3.331-.474 6.507.121 9.739-2.272 2.25-2.867 1.907-3.937-.585-1.621-3.783-2.183-8.36-1.025-12.407a.182.182 0 01-.045.055c.177-.76.199-1.533.111-2.073l-.033-.198c-.276-1.842-2.283-4.643-4.919-3.331-2.878 1.434-2.812 5.304-2.989 7.73-.22 3.034.022 6.11.717 9.044 1.037 4.367 3.198 11.756 9.032 13.013 1.842.397 3.607-.066 5.206-1.014.32 1.455.65 2.9 1.025 4.334.408 1.577 1.236 3.54 3.21 4.091 1.599.452 3.407-.264 3.992-1.775.154-.397.298-.783.452-1.18.761-1.985.706-4.18-.651-5.878-.507-2.35-1.058-4.698-1.599-7.047z" fill="#fff"/></svg>