<svg width="73" height="118" fill="none" xmlns="http://www.w3.org/2000/svg"><path d="M23.547 52.016h10.312c5.052 0 9.22-.834 12.5-2.5 3.334-1.72 5.808-4.037 7.422-6.953 1.667-2.97 2.5-6.303 2.5-10 0-4.376-.729-8.047-2.187-11.016-1.459-2.969-3.646-5.209-6.563-6.719-2.916-1.51-6.614-2.265-11.093-2.265-4.063 0-7.657.807-10.782 2.421-3.073 1.563-5.494 3.803-7.265 6.72-1.72 2.916-2.578 6.353-2.578 10.312H1.358c0-5.782 1.459-11.042 4.375-15.782C8.651 11.494 12.74 7.72 18 4.906 23.313 2.094 29.458.688 36.438.688c6.874 0 12.89 1.223 18.046 3.671 5.157 2.396 9.167 5.99 12.032 10.782 2.864 4.74 4.296 10.65 4.296 17.734 0 2.865-.677 5.938-2.03 9.219-1.303 3.229-3.36 6.25-6.173 9.062-2.76 2.813-6.354 5.13-10.78 6.953-4.428 1.771-9.74 2.657-15.938 2.657H23.547v-8.75zm0 11.875v-8.672H35.89c7.24 0 13.229.86 17.968 2.578 4.74 1.719 8.464 4.01 11.172 6.875 2.76 2.865 4.688 6.016 5.781 9.453 1.146 3.385 1.72 6.77 1.72 10.156 0 5.313-.912 10.026-2.735 14.14-1.771 4.115-4.297 7.605-7.578 10.47-3.23 2.864-7.032 5.026-11.407 6.484-4.374 1.458-9.14 2.187-14.296 2.187-4.948 0-9.61-.703-13.985-2.109-4.323-1.406-8.15-3.437-11.484-6.094-3.333-2.708-5.938-6.015-7.813-9.921C1.36 95.478.422 90.974.422 85.921h14.453c0 3.958.86 7.422 2.578 10.39 1.771 2.97 4.271 5.287 7.5 6.954 3.281 1.614 7.136 2.422 11.563 2.422 4.427 0 8.229-.756 11.406-2.266 3.229-1.563 5.703-3.906 7.422-7.031C57.114 93.266 58 89.333 58 84.594c0-4.74-.99-8.62-2.969-11.64-1.979-3.074-4.791-5.34-8.437-6.798-3.594-1.51-7.839-2.265-12.735-2.265H23.547z" fill="#F37121"/></svg>