<svg width="73" height="118" viewBox="0 0 73 118" fill="none" xmlns="http://www.w3.org/2000/svg">
<path d="M23.5469 52.0156H33.8594C38.9115 52.0156 43.0781 51.1823 46.3594 49.5156C49.6927 47.7969 52.1667 45.4792 53.7812 42.5625C55.4479 39.5938 56.2812 36.2604 56.2812 32.5625C56.2812 28.1875 55.5521 24.5156 54.0938 21.5469C52.6354 18.5781 50.4479 16.3385 47.5312 14.8281C44.6146 13.3177 40.9167 12.5625 36.4375 12.5625C32.375 12.5625 28.7812 13.3698 25.6562 14.9844C22.5833 16.5469 20.1615 18.7865 18.3906 21.7031C16.6719 24.6198 15.8125 28.0573 15.8125 32.0156H1.35938C1.35938 26.2344 2.81771 20.974 5.73438 16.2344C8.65104 11.4948 12.7396 7.71875 18 4.90625C23.3125 2.09375 29.4583 0.6875 36.4375 0.6875C43.3125 0.6875 49.3281 1.91146 54.4844 4.35938C59.6406 6.75521 63.651 10.349 66.5156 15.1406C69.3802 19.8802 70.8125 25.7917 70.8125 32.875C70.8125 35.7396 70.1354 38.8125 68.7812 42.0938C67.4792 45.3229 65.4219 48.3438 62.6094 51.1562C59.849 53.9688 56.2552 56.2865 51.8281 58.1094C47.401 59.8802 42.0885 60.7656 35.8906 60.7656H23.5469V52.0156ZM23.5469 63.8906V55.2188H35.8906C43.1302 55.2188 49.1198 56.0781 53.8594 57.7969C58.599 59.5156 62.3229 61.8073 65.0312 64.6719C67.7917 67.5365 69.7188 70.6875 70.8125 74.125C71.9583 77.5104 72.5312 80.8958 72.5312 84.2812C72.5312 89.5938 71.6198 94.3073 69.7969 98.4219C68.026 102.536 65.5 106.026 62.2188 108.891C58.9896 111.755 55.1875 113.917 50.8125 115.375C46.4375 116.833 41.6719 117.562 36.5156 117.562C31.5677 117.562 26.9062 116.859 22.5312 115.453C18.2083 114.047 14.3802 112.016 11.0469 109.359C7.71354 106.651 5.10938 103.344 3.23438 99.4375C1.35938 95.4792 0.421875 90.974 0.421875 85.9219H14.875C14.875 89.8802 15.7344 93.3438 17.4531 96.3125C19.224 99.2812 21.724 101.599 24.9531 103.266C28.2344 104.88 32.0885 105.688 36.5156 105.688C40.9427 105.688 44.7448 104.932 47.9219 103.422C51.151 101.859 53.625 99.5156 55.3438 96.3906C57.1146 93.2656 58 89.3333 58 84.5938C58 79.8542 57.0104 75.974 55.0312 72.9531C53.0521 69.8802 50.2396 67.6146 46.5938 66.1562C43 64.6458 38.7552 63.8906 33.8594 63.8906H23.5469Z" fill="#F37121"/>
</svg>
