<svg width="72" height="116" viewBox="0 0 72 116" fill="none" xmlns="http://www.w3.org/2000/svg">
<path d="M15.7344 59.8594L4.17188 56.8906L9.875 0.25H68.2344V13.6094H22.1406L18.7031 44.5469C20.7865 43.349 23.4167 42.2292 26.5938 41.1875C29.8229 40.1458 33.5208 39.625 37.6875 39.625C42.9479 39.625 47.6615 40.5365 51.8281 42.3594C55.9948 44.1302 59.5365 46.6823 62.4531 50.0156C65.4219 53.349 67.6875 57.3594 69.25 62.0469C70.8125 66.7344 71.5938 71.9688 71.5938 77.75C71.5938 83.2188 70.8385 88.2448 69.3281 92.8281C67.8698 97.4115 65.6562 101.422 62.6875 104.859C59.7188 108.245 55.9688 110.875 51.4375 112.75C46.9583 114.625 41.6719 115.562 35.5781 115.562C30.9948 115.562 26.6458 114.938 22.5312 113.688C18.4688 112.385 14.8229 110.432 11.5938 107.828C8.41667 105.172 5.8125 101.891 3.78125 97.9844C1.80208 94.026 0.552083 89.3906 0.03125 84.0781H13.7812C14.4062 88.349 15.6562 91.9427 17.5312 94.8594C19.4062 97.776 21.8542 99.9896 24.875 101.5C27.9479 102.958 31.5156 103.688 35.5781 103.688C39.0156 103.688 42.0625 103.089 44.7188 101.891C47.375 100.693 49.6146 98.974 51.4375 96.7344C53.2604 94.4948 54.6406 91.7865 55.5781 88.6094C56.5677 85.4323 57.0625 81.8646 57.0625 77.9062C57.0625 74.3125 56.5677 70.9792 55.5781 67.9062C54.5885 64.8333 53.1042 62.151 51.125 59.8594C49.1979 57.5677 46.8281 55.7969 44.0156 54.5469C41.2031 53.2448 37.974 52.5938 34.3281 52.5938C29.4844 52.5938 25.8125 53.2448 23.3125 54.5469C20.8646 55.849 18.3385 57.6198 15.7344 59.8594Z" fill="#45BABC"/>
</svg>
