<svg width="1920" height="531" viewBox="0 0 1920 531" fill="none" xmlns="http://www.w3.org/2000/svg">
<path fill-rule="evenodd" clip-rule="evenodd" d="M1736.83 462.281C1733.92 463.773 1721.89 472.109 1720.69 470.716C1719.72 469.572 1721.15 466.821 1722.23 466.146C1726.37 463.553 1730.63 461.099 1735.1 458.831C1733.48 457.479 1723.51 451.246 1726.76 449.635C1728.35 448.845 1728.72 448.681 1729.94 449.554C1732.26 451.191 1734.59 452.827 1736.91 454.464C1739.2 456.084 1738.5 455.83 1741.33 454.781C1742.42 454.382 1743.52 453.968 1744.6 453.568C1748.57 455.333 1746.6 455.293 1742.86 458.304C1740.95 459.84 1741.24 459.446 1740.7 461.657C1739.9 464.829 1739.1 468.001 1738.31 471.173C1737.85 473.019 1738.19 472.763 1736.51 473.935C1732.81 476.473 1736.39 465.167 1736.83 462.281Z" fill="white"/>
<path fill-rule="evenodd" clip-rule="evenodd" d="M1759.54 422.745C1757.19 420.655 1745.22 412.682 1746.35 411.2C1747.29 410 1750.55 410.399 1751.54 411.134C1755.38 413.965 1759.09 416.941 1762.68 420.167C1763.65 418.328 1767.46 407.657 1770.02 410.005C1771.28 411.152 1771.55 411.429 1770.97 412.77C1769.89 415.313 1768.81 417.857 1767.73 420.401C1766.66 422.909 1766.73 422.213 1768.6 424.377C1769.31 425.202 1770.04 426.039 1770.75 426.864C1769.98 430.897 1769.49 429.156 1765.33 426.807C1763.21 425.602 1763.7 425.739 1761.24 425.944C1757.71 426.226 1754.18 426.508 1750.65 426.791C1748.6 426.957 1748.95 427.178 1747.28 426.073C1743.62 423.61 1756.41 423.255 1759.54 422.745Z" fill="white"/>
<path fill-rule="evenodd" clip-rule="evenodd" d="M1794.52 468.75C1791.42 469.865 1778.29 476.628 1777.31 475.094C1776.53 473.835 1778.35 471.283 1779.52 470.748C1784 468.695 1788.57 466.794 1793.34 465.106C1791.94 463.559 1783.03 456.111 1786.47 454.92C1788.16 454.336 1788.55 454.22 1789.63 455.241C1791.68 457.159 1793.73 459.078 1795.78 460.996C1797.8 462.895 1797.14 462.553 1800.1 461.869C1801.23 461.609 1802.38 461.336 1803.5 461.076C1807.17 463.331 1805.23 463.041 1801.08 465.561C1798.96 466.845 1799.31 466.491 1798.44 468.618C1797.17 471.669 1795.91 474.719 1794.65 477.769C1793.91 479.544 1794.29 479.333 1792.46 480.286C1788.42 482.339 1793.66 471.561 1794.52 468.75Z" fill="white"/>
<path fill-rule="evenodd" clip-rule="evenodd" d="M1822.89 432.345C1820.89 429.974 1810.27 420.545 1811.6 419.216C1812.71 418.142 1815.87 418.949 1816.74 419.805C1820.1 423.099 1823.33 426.524 1826.38 430.18C1827.62 428.476 1832.99 418.358 1835.16 421.013C1836.23 422.311 1836.46 422.621 1835.68 423.878C1834.23 426.269 1832.79 428.659 1831.34 431.049C1829.9 433.406 1830.08 432.723 1831.59 435.107C1832.17 436.017 1832.77 436.94 1833.35 437.849C1831.98 441.759 1831.76 439.967 1828 437.109C1826.09 435.645 1826.55 435.843 1824.09 435.736C1820.56 435.572 1817.03 435.407 1813.5 435.242C1811.45 435.148 1811.77 435.413 1810.28 434.105C1807.04 431.197 1819.72 432.457 1822.89 432.345Z" fill="white"/>
<path fill-rule="evenodd" clip-rule="evenodd" d="M1855.71 483.484C1852.62 484.6 1839.48 491.362 1838.51 489.828C1837.73 488.57 1839.55 486.017 1840.71 485.483C1845.19 483.429 1849.77 481.529 1854.53 479.841C1853.13 478.294 1844.22 470.845 1847.67 469.655C1849.35 469.07 1849.75 468.955 1850.82 469.975C1852.87 471.894 1854.92 473.812 1856.97 475.731C1858.99 477.629 1858.33 477.288 1861.29 476.603C1862.42 476.343 1863.57 476.071 1864.7 475.811C1868.36 478.065 1866.42 477.776 1862.27 480.295C1860.15 481.579 1860.5 481.225 1859.63 483.353C1858.37 486.403 1857.1 489.453 1855.84 492.503C1855.11 494.278 1855.48 494.067 1853.65 495.02C1849.62 497.074 1854.85 486.296 1855.71 483.484Z" fill="white"/>
<path fill-rule="evenodd" clip-rule="evenodd" d="M1884.09 447.079C1882.08 444.708 1871.46 435.28 1872.8 433.95C1873.9 432.876 1877.06 433.684 1877.93 434.539C1881.29 437.834 1884.52 441.258 1887.57 444.914C1888.81 443.211 1894.18 433.092 1896.36 435.747C1897.43 437.045 1897.65 437.355 1896.88 438.613C1895.43 441.003 1893.98 443.393 1892.53 445.784C1891.09 448.14 1891.27 447.457 1892.79 449.842C1893.36 450.751 1893.96 451.674 1894.54 452.584C1893.17 456.493 1892.95 454.701 1889.2 451.843C1887.28 450.379 1887.74 450.578 1885.28 450.471C1881.76 450.306 1878.23 450.142 1874.7 449.977C1872.64 449.883 1872.97 450.148 1871.48 448.839C1868.24 445.932 1880.92 447.191 1884.09 447.079Z" fill="white"/>
<path fill-rule="evenodd" clip-rule="evenodd" d="M1911.04 503.914C1907.94 505.03 1894.81 511.792 1893.83 510.258C1893.05 509 1894.87 506.447 1896.04 505.913C1900.52 503.859 1905.09 501.959 1909.86 500.271C1908.46 498.724 1899.55 491.275 1902.99 490.085C1904.68 489.5 1905.07 489.385 1906.15 490.405C1908.2 492.324 1910.25 494.242 1912.3 496.161C1914.31 498.059 1913.66 497.718 1916.62 497.033C1917.75 496.773 1918.89 496.501 1920.02 496.241C1923.69 498.495 1921.74 498.206 1917.6 500.726C1915.47 502.009 1915.83 501.656 1914.95 503.783C1913.69 506.833 1912.43 509.883 1911.16 512.934C1910.43 514.708 1910.81 514.497 1908.98 515.45C1904.94 517.504 1910.18 506.726 1911.04 503.914Z" fill="white"/>
<path fill-rule="evenodd" clip-rule="evenodd" d="M1939.41 467.509C1937.41 465.138 1926.78 455.71 1928.12 454.38C1929.23 453.306 1932.39 454.114 1933.26 454.969C1936.62 458.264 1939.84 461.689 1942.9 465.344C1944.14 463.641 1949.5 453.522 1951.68 456.177C1952.75 457.476 1952.98 457.785 1952.2 459.043C1950.75 461.433 1949.3 463.823 1947.85 466.214C1946.42 468.57 1946.6 467.887 1948.11 470.272C1948.69 471.181 1949.29 472.104 1949.86 473.014C1948.5 476.923 1948.28 475.131 1944.52 472.274C1942.6 470.809 1943.07 471.008 1940.61 470.901C1937.08 470.736 1933.55 470.572 1930.02 470.407C1927.97 470.313 1928.29 470.578 1926.8 469.269C1923.56 466.362 1936.24 467.621 1939.41 467.509Z" fill="white"/>
<path fill-rule="evenodd" clip-rule="evenodd" d="M1681.35 464.295C1678.75 466.205 1668.35 476.229 1666.91 475.043C1665.75 474.065 1666.66 471.145 1667.61 470.318C1671.23 467.139 1675 464.078 1679.02 461.168C1677.17 460.086 1666.18 455.478 1669.09 453.401C1670.52 452.383 1670.86 452.165 1672.23 452.837C1674.82 454.091 1677.42 455.346 1680.02 456.6C1682.58 457.845 1681.83 457.702 1684.45 456.239C1685.45 455.682 1686.46 455.107 1687.46 454.55C1691.71 455.679 1689.76 455.939 1686.6 459.469C1684.98 461.27 1685.21 460.837 1685.07 463.094C1684.85 466.332 1684.64 469.571 1684.43 472.81C1684.31 474.694 1684.6 474.39 1683.16 475.796C1679.95 478.854 1681.45 467.198 1681.35 464.295Z" fill="white"/>
<path fill-rule="evenodd" clip-rule="evenodd" d="M1696.65 421.982C1693.95 420.286 1680.66 414.273 1681.51 412.645C1682.22 411.323 1685.51 411.219 1686.63 411.789C1690.94 413.988 1695.16 416.346 1699.29 418.971C1699.92 417.016 1701.75 405.948 1704.71 407.865C1706.16 408.802 1706.48 409.033 1706.15 410.438C1705.54 413.103 1704.94 415.767 1704.33 418.432C1703.72 421.06 1703.67 420.364 1705.91 422.207C1706.76 422.91 1707.63 423.621 1708.49 424.324C1708.46 428.404 1707.66 426.768 1703.11 425.093C1700.8 424.232 1701.31 424.292 1698.91 424.868C1695.47 425.683 1692.03 426.498 1688.59 427.313C1686.59 427.788 1686.98 427.951 1685.12 427.121C1681.06 425.257 1693.64 422.961 1696.65 421.982Z" fill="white"/>
<path fill-rule="evenodd" clip-rule="evenodd" d="M1622 475.094C1619.56 477.182 1610.04 487.906 1608.5 486.829C1607.26 485.939 1607.92 482.967 1608.79 482.076C1612.14 478.651 1615.64 475.334 1619.41 472.149C1617.47 471.204 1606.09 467.408 1608.83 465.131C1610.17 464.015 1610.49 463.774 1611.91 464.344C1614.61 465.407 1617.31 466.469 1620.01 467.531C1622.67 468.585 1621.92 468.497 1624.4 466.853C1625.35 466.227 1626.31 465.582 1627.26 464.956C1631.61 465.774 1629.68 466.173 1626.83 469.913C1625.37 471.822 1625.55 471.375 1625.61 473.632C1625.67 476.87 1625.74 480.109 1625.8 483.348C1625.84 485.232 1626.11 484.909 1624.79 486.412C1621.85 489.686 1622.34 477.976 1622 475.094Z" fill="white"/>
<path fill-rule="evenodd" clip-rule="evenodd" d="M1633.65 431.879C1630.81 430.385 1617.03 425.354 1617.74 423.672C1618.33 422.306 1621.61 421.965 1622.78 422.453C1627.27 424.332 1631.68 426.376 1636.03 428.692C1636.49 426.701 1637.38 415.553 1640.5 417.249C1642.02 418.077 1642.36 418.283 1642.15 419.706C1641.77 422.402 1641.4 425.098 1641.02 427.793C1640.64 430.454 1640.52 429.764 1642.92 431.438C1643.83 432.076 1644.76 432.721 1645.67 433.36C1646 437.423 1645.05 435.852 1640.38 434.51C1637.99 433.82 1638.5 433.844 1636.16 434.588C1632.79 435.647 1629.43 436.705 1626.06 437.764C1624.1 438.381 1624.51 438.514 1622.58 437.821C1618.37 436.258 1630.73 433.07 1633.65 431.879Z" fill="white"/>
<path fill-rule="evenodd" clip-rule="evenodd" d="M1558.17 492.277C1555.75 494.382 1546.33 505.174 1544.78 504.108C1543.53 503.228 1544.16 500.251 1545.02 499.354C1548.34 495.905 1551.81 492.564 1555.55 489.351C1553.61 488.421 1542.2 484.709 1544.91 482.412C1546.24 481.287 1546.56 481.043 1547.99 481.603C1550.7 482.645 1553.4 483.688 1556.11 484.73C1558.79 485.765 1558.03 485.682 1560.5 484.02C1561.45 483.387 1562.4 482.735 1563.35 482.102C1567.7 482.888 1565.77 483.302 1562.96 487.062C1561.51 488.981 1561.69 488.533 1561.77 490.788C1561.86 494.026 1561.95 497.264 1562.05 500.502C1562.1 502.385 1562.37 502.06 1561.06 503.573C1558.15 506.867 1558.54 495.156 1558.17 492.277Z" fill="white"/>
<path fill-rule="evenodd" clip-rule="evenodd" d="M1569.45 448.985C1566.6 447.512 1552.77 442.583 1553.46 440.896C1554.04 439.526 1557.32 439.161 1558.49 439.64C1563 441.486 1567.43 443.498 1571.8 445.782C1572.24 443.787 1573.03 432.635 1576.17 434.307C1577.7 435.124 1578.04 435.328 1577.84 436.753C1577.49 439.451 1577.13 442.148 1576.78 444.846C1576.42 447.509 1576.3 446.821 1578.71 448.476C1579.63 449.108 1580.57 449.746 1581.48 450.377C1581.84 454.438 1580.89 452.874 1576.2 451.567C1573.8 450.895 1574.32 450.914 1571.98 451.676C1568.62 452.758 1565.26 453.841 1561.91 454.924C1559.95 455.555 1560.37 455.686 1558.43 455.007C1554.2 453.475 1566.54 450.197 1569.45 448.985Z" fill="white"/>
<path fill-rule="evenodd" clip-rule="evenodd" d="M1485.76 501.864C1483.03 503.627 1472.01 513.065 1470.65 511.799C1469.56 510.757 1470.66 507.889 1471.65 507.116C1475.48 504.141 1479.44 501.293 1483.64 498.609C1481.87 497.424 1471.21 492.206 1474.26 490.293C1475.75 489.355 1476.11 489.156 1477.42 489.904C1479.93 491.302 1482.43 492.701 1484.94 494.1C1487.41 495.486 1486.67 495.302 1489.38 493.986C1490.41 493.485 1491.46 492.967 1492.49 492.466C1496.66 493.832 1494.69 493.983 1491.31 497.334C1489.58 499.043 1489.83 498.624 1489.54 500.871C1489.11 504.096 1488.69 507.32 1488.26 510.545C1488.01 512.421 1488.32 512.134 1486.79 513.459C1483.39 516.336 1485.66 504.77 1485.76 501.864Z" fill="white"/>
<path fill-rule="evenodd" clip-rule="evenodd" d="M1503.82 460.432C1501.24 458.587 1488.39 451.835 1489.35 450.255C1490.14 448.974 1493.44 449.054 1494.51 449.687C1498.66 452.124 1502.71 454.717 1506.65 457.57C1507.41 455.651 1509.98 444.693 1512.8 446.775C1514.18 447.791 1514.49 448.04 1514.06 449.426C1513.28 452.055 1512.5 454.684 1511.71 457.313C1510.93 459.906 1510.93 459.207 1513.04 461.174C1513.84 461.924 1514.66 462.683 1515.47 463.433C1515.17 467.51 1514.48 465.829 1510.06 463.902C1507.81 462.912 1508.31 463.001 1505.89 463.442C1502.4 464.064 1498.91 464.687 1495.43 465.309C1493.4 465.673 1493.79 465.857 1491.99 464.924C1488.06 462.834 1500.76 461.243 1503.82 460.432Z" fill="white"/>
<path fill-rule="evenodd" clip-rule="evenodd" d="M1415.14 505.573C1412.41 507.336 1401.39 516.774 1400.03 515.508C1398.94 514.466 1400.04 511.598 1401.03 510.825C1404.86 507.85 1408.82 505.002 1413.02 502.317C1411.25 501.133 1400.6 495.914 1403.64 494.002C1405.13 493.064 1405.49 492.865 1406.81 493.613C1409.31 495.011 1411.81 496.41 1414.32 497.808C1416.79 499.195 1416.06 499.011 1418.76 497.695C1419.79 497.194 1420.84 496.676 1421.87 496.175C1426.04 497.541 1424.07 497.692 1420.69 501.043C1418.96 502.752 1419.21 502.332 1418.92 504.58C1418.49 507.804 1418.07 511.029 1417.64 514.254C1417.39 516.13 1417.7 515.843 1416.17 517.168C1412.78 520.045 1415.04 508.479 1415.14 505.573Z" fill="white"/>
<path fill-rule="evenodd" clip-rule="evenodd" d="M1433.2 464.141C1430.62 462.296 1417.78 455.544 1418.73 453.964C1419.52 452.683 1422.82 452.763 1423.9 453.396C1428.04 455.833 1432.09 458.425 1436.03 461.279C1436.79 459.36 1439.36 448.402 1442.18 450.483C1443.57 451.5 1443.87 451.749 1443.44 453.135C1442.66 455.764 1441.88 458.393 1441.1 461.021C1440.32 463.615 1440.31 462.916 1442.42 464.883C1443.22 465.633 1444.05 466.392 1444.85 467.142C1444.55 471.219 1443.86 469.538 1439.44 467.61C1437.19 466.621 1437.69 466.71 1435.27 467.151C1431.78 467.773 1428.3 468.396 1424.81 469.018C1422.78 469.381 1423.17 469.566 1421.37 468.633C1417.44 466.543 1430.14 464.952 1433.2 464.141Z" fill="white"/>
<path fill-rule="evenodd" clip-rule="evenodd" d="M1348.08 511.312C1345.23 512.904 1333.55 521.648 1332.29 520.3C1331.28 519.19 1332.59 516.394 1333.63 515.683C1337.67 512.948 1341.82 510.349 1346.21 507.928C1344.53 506.635 1334.3 500.759 1337.48 499.038C1339.03 498.193 1339.4 498.017 1340.66 498.845C1343.05 500.398 1345.44 501.951 1347.83 503.504C1350.19 505.042 1349.47 504.813 1352.27 503.666C1353.33 503.229 1354.42 502.777 1355.48 502.341C1359.53 503.964 1357.56 503.992 1353.94 507.13C1352.09 508.731 1352.37 508.327 1351.92 510.554C1351.25 513.749 1350.59 516.944 1349.93 520.14C1349.54 521.998 1349.87 521.731 1348.25 522.96C1344.65 525.623 1347.76 514.209 1348.08 511.312Z" fill="white"/>
<path fill-rule="evenodd" clip-rule="evenodd" d="M1369.14 471.04C1366.71 469.036 1354.4 461.494 1355.47 459.975C1356.36 458.744 1359.63 459.028 1360.66 459.727C1364.61 462.419 1368.45 465.261 1372.17 468.356C1373.07 466.487 1376.43 455.698 1379.09 457.953C1380.4 459.054 1380.68 459.322 1380.16 460.68C1379.18 463.258 1378.21 465.836 1377.23 468.413C1376.26 470.956 1376.31 470.257 1378.27 472.353C1379.01 473.152 1379.78 473.962 1380.52 474.761C1379.92 478.815 1379.36 477.094 1375.1 474.893C1372.92 473.765 1373.42 473.885 1370.97 474.175C1367.45 474.581 1363.94 474.986 1360.42 475.391C1358.37 475.629 1358.74 475.837 1357.02 474.793C1353.26 472.461 1366.03 471.66 1369.14 471.04Z" fill="white"/>
<path fill-rule="evenodd" clip-rule="evenodd" d="M1271.67 518.374C1268.83 519.966 1257.14 528.71 1255.89 527.362C1254.87 526.252 1256.18 523.456 1257.23 522.745C1261.27 520.01 1265.42 517.411 1269.81 514.99C1268.13 513.697 1257.9 507.821 1261.08 506.1C1262.63 505.255 1263 505.079 1264.26 505.907C1266.65 507.46 1269.04 509.013 1271.43 510.566C1273.79 512.104 1273.07 511.875 1275.87 510.728C1276.93 510.291 1278.02 509.839 1279.08 509.403C1283.13 511.026 1281.16 511.054 1277.54 514.192C1275.69 515.793 1275.97 515.389 1275.52 517.616C1274.85 520.811 1274.19 524.006 1273.52 527.202C1273.14 529.06 1273.47 528.793 1271.85 530.022C1268.25 532.685 1271.36 521.271 1271.67 518.374Z" fill="white"/>
<path fill-rule="evenodd" clip-rule="evenodd" d="M1292.74 478.102C1290.3 476.098 1278 468.556 1279.07 467.037C1279.96 465.806 1283.23 466.09 1284.26 466.789C1288.21 469.481 1292.05 472.323 1295.77 475.418C1296.67 473.549 1300.03 462.76 1302.69 465.015C1304 466.117 1304.28 466.384 1303.75 467.742C1302.78 470.32 1301.81 472.898 1300.83 475.475C1299.86 478.018 1299.91 477.319 1301.86 479.415C1302.61 480.214 1303.37 481.024 1304.12 481.823C1303.52 485.877 1302.96 484.156 1298.7 481.955C1296.52 480.827 1297.02 480.947 1294.57 481.237C1291.05 481.643 1287.53 482.048 1284.02 482.453C1281.97 482.691 1282.34 482.899 1280.61 481.855C1276.86 479.523 1289.63 478.722 1292.74 478.102Z" fill="white"/>
<path fill-rule="evenodd" clip-rule="evenodd" d="M1197.21 514.875C1194.1 515.939 1180.83 522.483 1179.89 520.932C1179.13 519.66 1181 517.138 1182.18 516.623C1186.7 514.644 1191.31 512.819 1196.1 511.211C1194.74 509.64 1185.98 502.041 1189.45 500.908C1191.14 500.351 1191.54 500.243 1192.59 501.281C1194.6 503.234 1196.61 505.188 1198.62 507.141C1200.6 509.073 1199.95 508.721 1202.92 508.086C1204.06 507.845 1205.21 507.591 1206.34 507.35C1209.96 509.666 1208.03 509.344 1203.83 511.795C1201.68 513.044 1202.04 512.696 1201.13 514.809C1199.8 517.839 1198.48 520.868 1197.16 523.898C1196.39 525.661 1196.77 525.456 1194.92 526.379C1190.85 528.365 1196.29 517.673 1197.21 514.875Z" fill="white"/>
<path fill-rule="evenodd" clip-rule="evenodd" d="M1226.3 478.937C1224.34 476.532 1213.91 466.924 1215.27 465.617C1216.4 464.561 1219.54 465.421 1220.4 466.292C1223.69 469.644 1226.84 473.123 1229.82 476.83C1231.1 475.147 1236.66 465.116 1238.79 467.809C1239.83 469.125 1240.05 469.438 1239.25 470.683C1237.75 473.05 1236.26 475.416 1234.76 477.783C1233.28 480.116 1233.47 479.436 1234.94 481.846C1235.5 482.765 1236.07 483.698 1236.63 484.618C1235.19 488.505 1235 486.709 1231.31 483.788C1229.42 482.291 1229.88 482.498 1227.43 482.35C1223.9 482.126 1220.38 481.902 1216.85 481.678C1214.8 481.55 1215.12 481.82 1213.66 480.486C1210.48 477.524 1223.12 478.996 1226.3 478.937Z" fill="white"/>
<path fill-rule="evenodd" clip-rule="evenodd" d="M1134.4 502.087C1131.28 503.151 1118.02 509.695 1117.08 508.144C1116.32 506.872 1118.19 504.35 1119.37 503.835C1123.89 501.856 1128.5 500.031 1133.29 498.423C1131.93 496.852 1123.17 489.253 1126.64 488.12C1128.33 487.563 1128.73 487.455 1129.78 488.494C1131.79 490.447 1133.8 492.4 1135.81 494.353C1137.79 496.285 1137.14 495.933 1140.11 495.298C1141.25 495.057 1142.4 494.803 1143.53 494.562C1147.15 496.878 1145.22 496.557 1141.02 499.007C1138.87 500.256 1139.23 499.908 1138.32 502.021C1136.99 505.051 1135.67 508.08 1134.35 511.11C1133.58 512.873 1133.96 512.668 1132.11 513.591C1128.03 515.577 1133.48 504.885 1134.4 502.087Z" fill="white"/>
<path fill-rule="evenodd" clip-rule="evenodd" d="M1163.49 466.149C1161.53 463.744 1151.1 454.136 1152.46 452.829C1153.59 451.773 1156.73 452.634 1157.59 453.504C1160.88 456.856 1164.03 460.335 1167.01 464.042C1168.28 462.359 1173.85 452.328 1175.98 455.021C1177.02 456.337 1177.24 456.65 1176.44 457.895C1174.94 460.262 1173.44 462.628 1171.95 464.995C1170.47 467.328 1170.66 466.648 1172.13 469.058C1172.69 469.977 1173.26 470.911 1173.82 471.83C1172.38 475.717 1172.19 473.921 1168.5 471C1166.61 469.503 1167.07 469.71 1164.61 469.562C1161.09 469.338 1157.57 469.114 1154.04 468.89C1151.99 468.762 1152.31 469.033 1150.85 467.698C1147.66 464.736 1160.31 466.208 1163.49 466.149Z" fill="white"/>
<path fill-rule="evenodd" clip-rule="evenodd" d="M1069.32 478.053C1066.13 478.891 1052.37 484.472 1051.56 482.855C1050.92 481.531 1053 479.147 1054.21 478.717C1058.88 477.066 1063.62 475.576 1068.53 474.314C1067.31 472.648 1059.24 464.431 1062.79 463.549C1064.53 463.115 1064.93 463.035 1065.89 464.148C1067.72 466.242 1069.56 468.337 1071.39 470.431C1073.19 472.503 1072.58 472.105 1075.59 471.684C1076.74 471.525 1077.91 471.355 1079.06 471.195C1082.46 473.768 1080.56 473.308 1076.17 475.453C1073.93 476.546 1074.32 476.224 1073.23 478.268C1071.65 481.198 1070.07 484.128 1068.5 487.058C1067.58 488.763 1067.98 488.586 1066.06 489.375C1061.83 491.065 1068.17 480.78 1069.32 478.053Z" fill="white"/>
<path fill-rule="evenodd" clip-rule="evenodd" d="M1101.35 444.26C1099.61 441.717 1090.05 431.374 1091.52 430.167C1092.73 429.194 1095.78 430.279 1096.56 431.209C1099.55 434.792 1102.39 438.493 1105.04 442.409C1106.45 440.82 1112.85 431.204 1114.73 434.045C1115.66 435.434 1115.85 435.763 1114.95 436.949C1113.26 439.204 1111.56 441.459 1109.87 443.715C1108.2 445.938 1108.45 445.272 1109.7 447.785C1110.18 448.743 1110.67 449.716 1111.15 450.674C1109.38 454.452 1109.35 452.645 1105.92 449.463C1104.17 447.833 1104.61 448.072 1102.18 447.748C1098.69 447.271 1095.2 446.794 1091.72 446.318C1089.69 446.042 1089.98 446.335 1088.64 444.898C1085.72 441.712 1098.19 444.091 1101.35 444.26Z" fill="white"/>
<path fill-rule="evenodd" clip-rule="evenodd" d="M1018.44 437.68C1015.15 438.064 1000.66 441.67 1000.14 439.955C999.725 438.552 1002.17 436.479 1003.44 436.223C1008.31 435.24 1013.23 434.427 1018.28 433.864C1017.35 432.04 1010.78 422.765 1014.42 422.388C1016.21 422.201 1016.62 422.178 1017.38 423.415C1018.83 425.748 1020.29 428.081 1021.75 430.415C1023.18 432.721 1022.64 432.239 1025.68 432.244C1026.83 432.247 1028.01 432.242 1029.17 432.245C1032.09 435.271 1030.3 434.55 1025.62 436.062C1023.23 436.831 1023.66 436.566 1022.25 438.44C1020.21 441.124 1018.16 443.808 1016.12 446.492C1014.94 448.054 1015.36 447.934 1013.34 448.447C1008.89 449.531 1016.85 440.223 1018.44 437.68Z" fill="white"/>
<path fill-rule="evenodd" clip-rule="evenodd" d="M1055.63 408.664C1054.34 405.9 1046.64 394.309 1048.29 393.318C1049.65 392.522 1052.48 394.025 1053.09 395.057C1055.43 399.027 1057.62 403.093 1059.57 407.346C1061.23 405.968 1069.14 397.332 1070.52 400.412C1071.2 401.918 1071.33 402.271 1070.25 403.32C1068.2 405.319 1066.16 407.318 1064.12 409.317C1062.09 411.286 1062.45 410.661 1063.27 413.328C1063.58 414.344 1063.9 415.378 1064.21 416.395C1061.84 419.893 1062.11 418.097 1059.26 414.462C1057.81 412.601 1058.21 412.9 1055.87 412.238C1052.51 411.277 1049.15 410.317 1045.79 409.356C1043.84 408.798 1044.08 409.13 1043 407.517C1040.66 403.951 1052.54 408.054 1055.63 408.664Z" fill="white"/>
<path fill-rule="evenodd" clip-rule="evenodd" d="M992.777 365.344C989.696 364.303 975.153 361.431 975.553 359.671C975.894 358.238 979.084 357.409 980.325 357.713C985.103 358.886 989.838 360.231 994.556 361.854C994.656 359.827 993.534 348.733 996.926 349.931C998.588 350.515 998.96 350.668 999.006 352.098C999.115 354.805 999.224 357.513 999.332 360.22C999.432 362.893 999.197 362.232 1001.87 363.517C1002.88 364.008 1003.92 364.501 1004.94 364.992C1005.99 368.938 1004.77 367.535 999.901 366.92C997.413 366.601 997.927 366.547 995.742 367.631C992.6 369.178 989.458 370.725 986.316 372.272C984.489 373.174 984.918 373.243 982.885 372.852C978.432 371.949 990.102 366.954 992.777 365.344Z" fill="white"/>
<path fill-rule="evenodd" clip-rule="evenodd" d="M1040.03 354.987C1040.28 351.963 1039.34 338.322 1041.29 338.128C1042.88 337.985 1044.61 340.526 1044.63 341.709C1044.7 346.26 1044.57 350.828 1044.16 355.468C1046.3 354.929 1057.59 350.515 1057.26 353.86C1057.1 355.498 1057.04 355.871 1055.56 356.354C1052.76 357.286 1049.96 358.218 1047.16 359.15C1044.39 360.064 1045.02 359.654 1044.4 362.391C1044.16 363.434 1043.93 364.499 1043.69 365.542C1039.85 367.681 1040.99 366.183 1040.31 361.721C1039.97 359.44 1040.17 359.875 1038.44 358.294C1035.97 356.017 1033.51 353.74 1031.04 351.463C1029.6 350.139 1029.65 350.537 1029.5 348.634C1029.24 344.449 1037.62 353.138 1040.03 354.987Z" fill="white"/>
<path fill-rule="evenodd" clip-rule="evenodd" d="M992.038 305.778C988.957 304.736 974.414 301.864 974.814 300.104C975.155 298.671 978.345 297.842 979.586 298.146C984.364 299.319 989.099 300.665 993.817 302.287C993.917 300.26 992.795 289.166 996.187 290.364C997.849 290.948 998.221 291.101 998.267 292.531C998.376 295.239 998.484 297.946 998.593 300.653C998.693 303.326 998.458 302.665 1001.13 303.95C1002.14 304.441 1003.18 304.934 1004.2 305.425C1005.25 309.372 1004.03 307.968 999.162 307.353C996.674 307.035 997.188 306.98 995.003 308.065C991.861 309.612 988.719 311.159 985.577 312.706C983.75 313.607 984.179 313.676 982.146 313.285C977.693 312.382 989.363 307.387 992.038 305.778Z" fill="white"/>
<path fill-rule="evenodd" clip-rule="evenodd" d="M1039.29 295.42C1039.54 292.396 1038.6 278.755 1040.55 278.562C1042.14 278.419 1043.87 280.959 1043.89 282.142C1043.96 286.693 1043.84 291.262 1043.42 295.901C1045.56 295.362 1056.85 290.948 1056.52 294.293C1056.36 295.931 1056.3 296.304 1054.82 296.787C1052.02 297.719 1049.22 298.652 1046.42 299.584C1043.65 300.498 1044.28 300.087 1043.66 302.824C1043.42 303.867 1043.19 304.932 1042.95 305.975C1039.11 308.114 1040.25 306.616 1039.57 302.155C1039.23 299.873 1039.43 300.308 1037.7 298.727C1035.23 296.45 1032.77 294.173 1030.3 291.896C1028.86 290.572 1028.91 290.97 1028.76 289.067C1028.5 284.883 1036.88 293.571 1039.29 295.42Z" fill="white"/>
<path fill-rule="evenodd" clip-rule="evenodd" d="M985.978 251.934C982.897 250.893 968.354 248.02 968.753 246.26C969.095 244.828 972.285 243.999 973.526 244.303C978.303 245.475 983.038 246.821 987.757 248.444C987.857 246.417 986.735 235.323 990.127 236.521C991.789 237.105 992.161 237.257 992.207 238.688C992.316 241.395 992.424 244.102 992.533 246.809C992.633 249.482 992.398 248.821 995.066 250.107C996.082 250.597 997.123 251.091 998.139 251.581C999.186 255.528 997.973 254.125 993.102 253.51C990.613 253.191 991.128 253.136 988.943 254.221C985.801 255.768 982.659 257.315 979.516 258.862C977.69 259.763 978.119 259.833 976.086 259.442C971.633 258.539 983.302 253.544 985.978 251.934Z" fill="white"/>
<path fill-rule="evenodd" clip-rule="evenodd" d="M1033.23 241.577C1033.48 238.553 1032.54 224.912 1034.49 224.718C1036.08 224.575 1037.81 227.115 1037.83 228.298C1037.9 232.85 1037.77 237.418 1037.36 242.057C1039.5 241.518 1050.79 237.105 1050.46 240.45C1050.3 242.087 1050.24 242.461 1048.76 242.944C1045.96 243.876 1043.16 244.808 1040.36 245.74C1037.59 246.654 1038.22 246.244 1037.6 248.981C1037.36 250.024 1037.13 251.088 1036.89 252.131C1033.05 254.27 1034.19 252.773 1033.51 248.311C1033.17 246.03 1033.37 246.464 1031.64 244.884C1029.17 242.606 1026.71 240.329 1024.24 238.052C1022.8 236.729 1022.85 237.127 1022.7 235.223C1022.44 231.039 1030.82 239.728 1033.23 241.577Z" fill="white"/>
<path fill-rule="evenodd" clip-rule="evenodd" d="M962.776 199.056C959.523 198.577 944.593 198.315 944.62 196.524C944.658 195.063 947.628 193.694 948.914 193.774C953.866 194.084 958.813 194.571 963.801 195.332C963.477 193.332 960.057 182.682 963.65 183.259C965.409 183.539 965.807 183.623 966.151 185.014C966.823 187.642 967.495 190.27 968.167 192.898C968.823 195.494 968.453 194.889 971.35 195.678C972.454 195.98 973.582 196.28 974.686 196.582C976.542 200.258 975.053 199.098 970.125 199.35C967.606 199.473 968.102 199.33 966.175 200.773C963.401 202.836 960.628 204.898 957.854 206.961C956.242 208.162 956.68 208.155 954.595 208.128C950.018 208.025 960.475 201.098 962.776 199.056Z" fill="white"/>
<path fill-rule="evenodd" clip-rule="evenodd" d="M1007.18 180.657C1006.8 177.656 1003.03 164.483 1004.9 163.952C1006.44 163.534 1008.68 165.715 1008.94 166.868C1009.96 171.307 1010.79 175.795 1011.35 180.404C1013.35 179.502 1023.55 173.21 1023.92 176.539C1024.1 178.168 1024.12 178.544 1022.76 179.275C1020.2 180.677 1017.64 182.078 1015.07 183.48C1012.54 184.858 1013.07 184.347 1013.03 187.131C1013.01 188.193 1013 189.275 1012.99 190.336C1009.65 193.099 1010.46 191.436 1008.86 187.192C1008.05 185.021 1008.33 185.412 1006.3 184.168C1003.4 182.374 1000.49 180.579 997.584 178.785C995.892 177.742 996.018 178.124 995.481 176.287C994.349 172.242 1004.42 179.271 1007.18 180.657Z" fill="white"/>
<path fill-rule="evenodd" clip-rule="evenodd" d="M917.711 155.193C914.457 154.715 899.527 154.452 899.554 152.661C899.592 151.201 902.562 149.832 903.849 149.912C908.8 150.222 913.747 150.709 918.735 151.469C918.411 149.47 914.991 138.819 918.584 139.397C920.343 139.677 920.741 139.761 921.085 141.151C921.757 143.779 922.429 146.407 923.101 149.035C923.757 151.631 923.387 151.026 926.284 151.816C927.388 152.118 928.516 152.418 929.62 152.72C931.476 156.395 929.987 155.235 925.059 155.487C922.54 155.611 923.036 155.467 921.109 156.91C918.335 158.973 915.562 161.036 912.788 163.098C911.176 164.299 911.613 164.292 909.529 164.266C904.952 164.163 915.41 157.236 917.711 155.193Z" fill="white"/>
<path fill-rule="evenodd" clip-rule="evenodd" d="M962.111 136.795C961.73 133.794 957.96 120.62 959.838 120.09C961.375 119.672 963.609 121.853 963.875 123.006C964.892 127.444 965.723 131.933 966.28 136.542C968.281 135.639 978.483 129.347 978.853 132.676C979.037 134.306 979.057 134.681 977.697 135.413C975.133 136.814 972.569 138.216 970.005 139.617C967.471 140.995 968.003 140.484 967.962 143.269C967.946 144.33 967.938 145.412 967.922 146.473C964.584 149.237 965.392 147.573 963.795 143.329C962.983 141.159 963.267 141.549 961.237 140.306C958.331 138.511 955.424 136.717 952.518 134.922C950.826 133.88 950.952 134.261 950.415 132.425C949.283 128.38 959.354 135.408 962.111 136.795Z" fill="white"/>
<path fill-rule="evenodd" clip-rule="evenodd" d="M861.656 123.176C858.354 123.081 843.47 124.557 843.249 122.782C843.084 121.333 845.848 119.633 847.139 119.562C852.106 119.293 857.093 119.2 862.159 119.372C861.559 117.432 856.682 107.292 860.335 107.445C862.123 107.518 862.531 107.555 863.066 108.891C864.098 111.412 865.13 113.934 866.162 116.456C867.175 118.948 866.724 118.393 869.714 118.837C870.854 119.007 872.017 119.173 873.156 119.343C875.511 122.764 873.87 121.79 869.004 122.612C866.516 123.027 866.99 122.828 865.273 124.479C862.801 126.843 860.329 129.206 857.856 131.569C856.419 132.945 856.854 132.887 854.777 133.103C850.211 133.534 859.651 125.464 861.656 123.176Z" fill="white"/>
<path fill-rule="evenodd" clip-rule="evenodd" d="M903.26 99.8089C902.465 96.8842 896.891 84.289 898.685 83.546C900.155 82.9536 902.68 84.8515 903.103 85.9616C904.73 90.2344 906.179 94.5784 907.371 99.0739C909.236 97.9483 918.51 90.5368 919.339 93.7875C919.747 95.3778 919.819 95.7469 918.568 96.629C916.213 98.3137 913.857 99.9985 911.502 101.683C909.172 103.341 909.631 102.774 909.976 105.534C910.107 106.586 910.249 107.657 910.38 108.709C907.443 111.831 908.017 110.091 905.84 106.078C904.732 104.025 905.069 104.379 902.878 103.384C899.739 101.947 896.6 100.509 893.461 99.072C891.634 98.2374 891.812 98.6002 891.024 96.8458C889.337 92.9752 900.326 98.7579 903.26 99.8089Z" fill="white"/>
<path fill-rule="evenodd" clip-rule="evenodd" d="M791.258 98.3839C787.956 98.2887 773.072 99.7654 772.851 97.9903C772.686 96.541 775.45 94.8412 776.741 94.7704C781.708 94.5012 786.695 94.4079 791.761 94.5801C791.161 92.6396 786.284 82.4999 789.937 82.6534C791.725 82.7261 792.133 82.7627 792.668 84.0986C793.7 86.6205 794.732 89.1424 795.764 91.6643C796.776 94.1563 796.325 93.6008 799.316 94.045C800.455 94.2153 801.619 94.3811 802.758 94.5514C805.113 97.972 803.472 96.9976 798.606 97.8197C796.118 98.2353 796.592 98.0357 794.875 99.6874C792.403 102.051 789.93 104.414 787.458 106.777C786.021 108.153 786.455 108.095 784.379 108.311C779.813 108.742 789.252 100.672 791.258 98.3839Z" fill="white"/>
<path fill-rule="evenodd" clip-rule="evenodd" d="M832.862 75.0169C832.067 72.0922 826.492 59.497 828.287 58.754C829.757 58.1617 832.282 60.0596 832.705 61.1697C834.332 65.4424 835.78 69.7864 836.973 74.282C838.838 73.1563 848.112 65.7449 848.941 68.9955C849.349 70.5859 849.421 70.9549 848.17 71.837C845.815 73.5218 843.459 75.2066 841.104 76.8913C838.774 78.5493 839.232 77.982 839.578 80.7418C839.709 81.7937 839.851 82.8651 839.982 83.9169C837.045 87.0392 837.619 85.2994 835.442 81.2865C834.334 79.2333 834.671 79.5866 832.48 78.5922C829.341 77.1548 826.202 75.7174 823.062 74.28C821.236 73.4455 821.414 73.8083 820.626 72.0539C818.939 68.1833 829.928 73.9659 832.862 75.0169Z" fill="white"/>
<path fill-rule="evenodd" clip-rule="evenodd" d="M721.178 82.2806C717.91 82.7961 703.594 86.979 702.987 85.2881C702.506 83.9045 704.852 81.737 706.106 81.4302C710.933 80.2524 715.817 79.2425 720.838 78.4772C719.822 76.6945 712.799 67.7013 716.426 67.178C718.2 66.9195 718.61 66.88 719.429 68.0847C720.998 70.3548 722.567 72.6249 724.136 74.895C725.678 77.1395 725.113 76.6807 728.152 76.5631C729.31 76.5193 730.49 76.4667 731.649 76.4228C734.715 79.326 732.888 78.6777 728.282 80.3763C725.926 81.2401 726.348 80.9581 725.022 82.8857C723.109 85.6468 721.196 88.4079 719.283 91.169C718.172 92.7758 718.587 92.6393 716.591 93.2329C712.195 94.4938 719.708 84.8822 721.178 82.2806Z" fill="white"/>
<path fill-rule="evenodd" clip-rule="evenodd" d="M756.97 51.8195C755.546 49.1128 747.298 37.8526 748.9 36.7971C750.216 35.9484 753.116 37.3347 753.776 38.3396C756.314 42.2082 758.692 46.1792 760.852 50.3451C762.439 48.9033 769.934 39.9645 771.463 42.9829C772.214 44.4591 772.366 44.8058 771.329 45.8968C769.382 47.9744 767.435 50.052 765.488 52.1295C763.561 54.1762 763.887 53.5384 764.833 56.1669C765.193 57.169 765.567 58.1881 765.927 59.1901C763.724 62.7771 763.906 60.9741 760.884 57.4604C759.343 55.6616 759.752 55.9442 757.379 55.3777C753.976 54.5538 750.573 53.73 747.17 52.9061C745.19 52.4285 745.444 52.7496 744.284 51.1834C741.775 47.7181 753.853 51.3347 756.97 51.8195Z" fill="white"/>
<path fill-rule="evenodd" clip-rule="evenodd" d="M653.57 70.5031C650.302 71.0185 635.986 75.2014 635.379 73.5105C634.899 72.127 637.244 69.9595 638.498 69.6526C643.325 68.4748 648.209 67.465 653.23 66.6996C652.214 64.917 645.191 55.9238 648.818 55.4005C650.593 55.142 651.002 55.1025 651.821 56.3072C653.39 58.5773 654.959 60.8474 656.528 63.1174C658.071 65.362 657.505 64.9032 660.544 64.7856C661.702 64.7417 662.883 64.6892 664.041 64.6453C667.108 67.5485 665.28 66.9002 660.675 68.5987C658.319 69.4626 658.74 69.1806 657.415 71.1082C655.502 73.8693 653.589 76.6304 651.676 79.3915C650.565 80.9983 650.979 80.8618 648.984 81.4554C644.587 82.7163 652.1 73.1047 653.57 70.5031Z" fill="white"/>
<path fill-rule="evenodd" clip-rule="evenodd" d="M689.362 40.042C687.938 37.3352 679.69 26.075 681.292 25.0195C682.608 24.1708 685.508 25.5572 686.168 26.5621C688.706 30.4307 691.085 34.4016 693.244 38.5676C694.832 37.1258 702.326 28.1869 703.855 31.2053C704.606 32.6816 704.758 33.0283 703.721 34.1193C701.774 36.1969 699.827 38.2745 697.88 40.352C695.953 42.3987 696.279 41.7609 697.225 44.3894C697.585 45.3915 697.96 46.4105 698.319 47.4126C696.116 50.9995 696.299 49.1965 693.276 45.6829C691.736 43.8841 692.145 44.1667 689.771 43.6002C686.368 42.7763 682.965 41.9524 679.562 41.1286C677.582 40.651 677.837 40.9721 676.676 39.4059C674.168 35.9406 686.246 39.5572 689.362 40.042Z" fill="white"/>
<path fill-rule="evenodd" clip-rule="evenodd" d="M587.207 58.4566C584.056 59.4301 570.58 65.5899 569.691 64.0114C568.98 62.7175 570.936 60.2488 572.127 59.7679C576.71 57.9199 581.379 56.2292 586.224 54.7599C584.914 53.1493 576.427 45.2947 579.932 44.2625C581.647 43.7549 582.046 43.6577 583.062 44.7272C585.003 46.7389 586.943 48.7506 588.883 50.7623C590.793 52.7526 590.155 52.3815 593.146 51.8324C594.286 51.6241 595.447 51.4041 596.588 51.1958C600.12 53.6173 598.199 53.2395 593.923 55.5687C591.735 56.7552 592.105 56.4174 591.119 58.5044C589.693 61.496 588.266 64.4876 586.839 67.4792C586.011 69.2199 586.398 69.0264 584.522 69.8954C580.38 71.7637 586.192 61.228 587.207 58.4566Z" fill="white"/>
<path fill-rule="evenodd" clip-rule="evenodd" d="M617.5 23.3588C615.629 20.8965 605.543 10.9844 606.952 9.71659C608.111 8.69331 611.22 9.64507 612.045 10.5405C615.218 13.9881 618.249 17.5593 621.097 21.3537C622.425 19.7076 628.333 9.837 630.361 12.5913C631.356 13.9379 631.565 14.2577 630.723 15.4798C629.147 17.8031 627.57 20.1265 625.994 22.4499C624.432 24.74 624.646 24.0654 626.03 26.5189C626.557 27.4544 627.101 28.4045 627.628 29.34C626.054 33.1861 625.929 31.3846 622.337 28.3556C620.505 26.8039 620.958 27.0239 618.51 26.8044C614.998 26.4783 611.485 26.1521 607.973 25.826C605.93 25.638 606.237 25.9178 604.821 24.5411C601.747 21.4863 614.33 23.3258 617.5 23.3588Z" fill="white"/>
<path fill-rule="evenodd" clip-rule="evenodd" d="M518.113 52.1106C514.961 53.0841 501.486 59.2439 500.597 57.6654C499.886 56.3714 501.842 53.9028 503.033 53.4219C507.616 51.5739 512.284 49.8832 517.129 48.4139C515.82 46.8032 507.333 38.9487 510.838 37.9165C512.553 37.4089 512.952 37.3117 513.968 38.3812C515.908 40.3929 517.849 42.4046 519.789 44.4163C521.699 46.4066 521.06 46.0355 524.052 45.4864C525.192 45.2781 526.353 45.0581 527.493 44.8498C531.026 47.2713 529.104 46.8935 524.829 49.2226C522.641 50.4091 523.011 50.0713 522.025 52.1584C520.598 55.15 519.172 58.1416 517.745 61.1332C516.917 62.8739 517.304 62.6804 515.428 63.5494C511.286 65.4177 517.098 54.882 518.113 52.1106Z" fill="white"/>
<path fill-rule="evenodd" clip-rule="evenodd" d="M548.406 17.0128C546.535 14.5505 536.449 4.63835 537.857 3.37058C539.017 2.34731 542.126 3.29906 542.951 4.19446C546.123 7.64205 549.155 11.2133 552.002 15.0076C553.33 13.3616 559.239 3.49099 561.267 6.24527C562.261 7.5919 562.471 7.91164 561.629 9.13378C560.052 11.4571 558.476 13.7805 556.9 16.1039C555.337 18.394 555.552 17.7194 556.936 20.1729C557.463 21.1084 558.007 22.0585 558.534 22.9939C556.96 26.84 556.835 25.0386 553.243 22.0096C551.411 20.4579 551.864 20.6779 549.416 20.4584C545.903 20.1322 542.391 19.8061 538.879 19.48C536.836 19.292 537.143 19.5718 535.727 18.195C532.652 15.1403 545.235 16.9798 548.406 17.0128Z" fill="white"/>
<path fill-rule="evenodd" clip-rule="evenodd" d="M451.93 51.6762C448.961 53.0626 436.587 60.9599 435.45 59.5238C434.536 58.344 436.078 55.6451 437.182 55.0097C441.43 52.5674 445.789 50.2684 450.358 48.164C448.8 46.7529 439.115 40.1561 442.425 38.6639C444.044 37.9314 444.424 37.7816 445.605 38.6986C447.854 40.4198 450.103 42.141 452.352 43.8622C454.568 45.5664 453.874 45.2868 456.753 44.3406C457.851 43.9809 458.967 43.6068 460.065 43.2471C463.959 45.1571 461.992 45.0444 458.127 47.9197C456.148 49.3857 456.46 49.0025 455.819 51.194C454.886 54.337 453.953 57.48 453.02 60.623C452.479 62.4515 452.832 62.2083 451.111 63.3191C447.303 65.7219 451.37 54.5464 451.93 51.6762Z" fill="white"/>
<path fill-rule="evenodd" clip-rule="evenodd" d="M476.322 12.968C474.069 10.793 462.465 2.38361 463.658 0.942913C464.643 -0.223014 467.881 0.294798 468.844 1.06609C472.547 4.03646 476.129 7.14781 479.566 10.5041C480.618 8.7012 484.888 -1.83144 487.343 0.61011C488.547 1.80339 488.807 2.09032 488.169 3.40939C486.979 5.91372 485.79 8.41805 484.601 10.9224C483.42 13.3921 483.525 12.6978 485.293 14.9298C485.966 15.7811 486.66 16.6442 487.333 17.4955C486.392 21.5009 485.977 19.7416 481.926 17.2407C479.858 15.9586 480.343 16.1142 477.879 16.2289C474.342 16.3826 470.806 16.5362 467.269 16.6899C465.212 16.7809 465.562 17.0153 463.935 15.8494C460.393 13.2531 473.171 13.3644 476.322 12.968Z" fill="white"/>
<path fill-rule="evenodd" clip-rule="evenodd" d="M384.277 63.8717C381.758 65.8786 371.828 76.2867 370.335 75.1584C369.127 74.227 369.904 71.2765 370.808 70.4147C374.289 67.1008 377.917 63.9002 381.802 60.8396C379.904 59.8308 368.696 55.6558 371.519 53.4698C372.899 52.3981 373.229 52.1678 374.626 52.7855C377.28 53.9376 379.933 55.0896 382.587 56.2416C385.204 57.3848 384.453 57.2717 387.003 55.7095C387.976 55.1149 388.962 54.5023 389.935 53.9077C394.242 54.8704 392.296 55.2056 389.304 58.8506C387.77 60.7109 387.972 60.2709 387.936 62.5289C387.872 65.7702 387.809 69.0114 387.745 72.2526C387.71 74.1378 387.989 73.8236 386.611 75.2832C383.548 78.4596 384.504 66.7656 384.277 63.8717Z" fill="white"/>
<path fill-rule="evenodd" clip-rule="evenodd" d="M397.627 21.0414C394.848 19.4527 381.283 13.9629 382.058 12.3045C382.704 10.9579 385.997 10.7264 387.142 11.2528C391.548 13.2813 395.875 15.4727 400.125 17.9334C400.665 15.9574 401.991 4.83762 405.04 6.6376C406.534 7.51647 406.864 7.73458 406.597 9.15058C406.112 11.8338 405.627 14.517 405.142 17.2003C404.656 19.8481 404.571 19.1551 406.894 20.9082C407.779 21.5771 408.686 22.253 409.571 22.9218C409.732 26.9965 408.854 25.3937 404.235 23.8966C401.876 23.1271 402.39 23.1676 400.021 23.8343C396.618 24.7808 393.214 25.7272 389.81 26.6737C387.831 27.2258 388.234 27.3729 386.336 26.6157C382.187 24.9118 394.665 22.1348 397.627 21.0414Z" fill="white"/>
<path fill-rule="evenodd" clip-rule="evenodd" d="M333.164 84.3682C331.618 87.0734 326.538 100.037 324.683 99.5049C323.176 99.0572 322.708 96.0752 323.205 94.9741C325.122 90.7378 327.221 86.5564 329.619 82.4164C327.434 82.132 315.251 82.0955 317.008 79.1221C317.866 77.6657 318.082 77.3414 319.639 77.4357C322.59 77.595 325.541 77.7543 328.491 77.9137C331.404 78.0775 330.655 78.2283 332.41 75.9225C333.079 75.0443 333.755 74.1445 334.424 73.2663C338.846 72.6891 337.16 73.6594 335.835 78.0344C335.153 80.2693 335.163 79.7955 336.044 81.8878C337.298 84.8954 338.551 87.9029 339.804 90.9104C340.535 92.659 340.668 92.2749 339.969 94.0879C338.389 98.0552 334.548 86.9572 333.164 84.3682Z" fill="white"/>
<path fill-rule="evenodd" clip-rule="evenodd" d="M328.315 40.374C325.07 39.8551 310.148 39.4082 310.202 37.6172C310.261 36.157 313.25 34.8245 314.535 34.9201C319.481 35.2914 324.419 35.8396 329.394 36.6618C329.099 34.658 325.837 23.9633 329.42 24.5852C331.174 24.8872 331.572 24.976 331.895 26.3712C332.528 29.0079 333.161 31.6446 333.793 34.2813C334.411 36.8857 334.051 36.2762 336.935 37.1017C338.034 37.4172 339.157 37.7314 340.256 38.0469C342.057 41.7459 340.587 40.5676 335.656 40.7584C333.136 40.8513 333.634 40.7139 331.687 42.1332C328.884 44.1621 326.081 46.1909 323.278 48.2197C321.649 49.401 322.086 49.3993 320.002 49.3471C315.429 49.1874 325.984 42.3881 328.315 40.374Z" fill="white"/>
<path fill-rule="evenodd" clip-rule="evenodd" d="M293.749 123.466C293.457 126.487 294.221 140.141 292.271 140.314C290.681 140.44 288.984 137.88 288.98 136.697C288.969 132.144 289.151 127.576 289.628 122.941C287.476 123.457 276.136 127.75 276.511 124.408C276.692 122.772 276.756 122.399 278.244 121.932C281.054 121.03 283.864 120.127 286.675 119.225C289.451 118.341 288.819 118.744 289.474 116.013C289.725 114.973 289.972 113.911 290.223 112.87C294.089 110.772 292.932 112.258 293.552 116.727C293.864 119.013 293.673 118.576 295.378 120.175C297.815 122.479 300.253 124.783 302.691 127.087C304.11 128.426 304.071 128.028 304.189 129.933C304.398 134.121 296.131 125.341 293.749 123.466Z" fill="white"/>
<path fill-rule="evenodd" clip-rule="evenodd" d="M270.624 84.9738C267.388 85.652 253.329 90.5428 252.62 88.8867C252.058 87.5309 254.272 85.2513 255.507 84.8823C260.262 83.4652 265.084 82.2128 270.057 81.1974C268.935 79.4703 261.377 70.8531 264.971 70.1491C266.729 69.8021 267.136 69.7422 268.027 70.9027C269.731 73.0881 271.435 75.2735 273.139 77.4589C274.815 79.6202 274.222 79.191 277.253 78.9211C278.408 78.8192 279.585 78.7075 280.74 78.6057C283.98 81.3473 282.114 80.7924 277.612 82.7178C275.309 83.6977 275.713 83.3953 274.503 85.3844C272.756 88.2343 271.009 91.0843 269.262 93.9343C268.248 95.5927 268.654 95.4358 266.695 96.128C262.376 97.6063 269.311 87.6425 270.624 84.9738Z" fill="white"/>
<path fill-rule="evenodd" clip-rule="evenodd" d="M280.637 175.591C282.061 178.298 290.312 189.556 288.71 190.612C287.395 191.461 284.495 190.075 283.834 189.07C281.295 185.202 278.916 181.232 276.755 177.067C275.168 178.509 267.676 187.449 266.146 184.431C265.395 182.955 265.242 182.608 266.279 181.517C268.225 179.439 270.172 177.361 272.118 175.283C274.045 173.236 273.719 173.874 272.773 171.246C272.413 170.244 272.038 169.225 271.678 168.223C273.88 164.635 273.698 166.438 276.721 169.951C278.262 171.75 277.853 171.467 280.227 172.033C283.63 172.856 287.033 173.68 290.437 174.503C292.417 174.98 292.162 174.659 293.323 176.225C295.832 179.69 283.753 176.075 280.637 175.591Z" fill="white"/>
<path fill-rule="evenodd" clip-rule="evenodd" d="M239.108 153.632C236.666 155.718 227.137 166.434 225.6 165.356C224.357 164.465 225.019 161.493 225.89 160.603C229.244 157.18 232.748 153.867 236.515 150.684C234.578 149.738 223.207 145.932 225.946 143.658C227.285 142.542 227.606 142.302 229.027 142.873C231.726 143.938 234.424 145.002 237.123 146.067C239.783 147.123 239.029 147.035 241.518 145.392C242.468 144.767 243.431 144.123 244.381 143.498C248.725 144.319 246.792 144.717 243.94 148.454C242.479 150.362 242.663 149.916 242.715 152.172C242.776 155.411 242.838 158.65 242.9 161.889C242.938 163.773 243.204 163.45 241.882 164.952C238.942 168.224 239.446 156.514 239.108 153.632Z" fill="white"/>
<path fill-rule="evenodd" clip-rule="evenodd" d="M259.842 226.399C261.267 229.105 269.518 240.364 267.916 241.42C266.601 242.269 263.7 240.883 263.04 239.878C260.501 236.01 258.121 232.04 255.961 227.874C254.374 229.316 246.881 238.257 245.351 235.239C244.6 233.763 244.448 233.416 245.485 232.325C247.431 230.247 249.378 228.169 251.324 226.091C253.251 224.044 252.925 224.682 251.978 222.053C251.618 221.051 251.243 220.032 250.884 219.03C253.085 215.443 252.904 217.246 255.927 220.759C257.468 222.557 257.059 222.275 259.432 222.841C262.836 223.664 266.239 224.487 269.643 225.31C271.623 225.788 271.368 225.466 272.529 227.032C275.038 230.497 262.959 226.883 259.842 226.399Z" fill="white"/>
<path fill-rule="evenodd" clip-rule="evenodd" d="M218.313 204.439C215.871 206.525 206.343 217.242 204.806 216.163C203.562 215.272 204.225 212.301 205.096 211.411C208.449 207.988 211.954 204.674 215.721 201.492C213.784 200.546 202.413 196.74 205.152 194.465C206.491 193.35 206.812 193.109 208.233 193.681C210.931 194.746 213.63 195.81 216.328 196.874C218.989 197.931 218.234 197.843 220.724 196.2C221.674 195.574 222.637 194.931 223.586 194.305C227.931 195.127 225.998 195.525 223.146 199.262C221.684 201.17 221.869 200.724 221.92 202.98C221.982 206.219 222.044 209.458 222.106 212.697C222.143 214.58 222.41 214.258 221.088 215.76C218.148 219.032 218.652 207.322 218.313 204.439Z" fill="white"/>
<path fill-rule="evenodd" clip-rule="evenodd" d="M213.78 277.293C214.596 280.212 220.262 292.772 218.472 293.526C217.006 294.127 214.468 292.245 214.036 291.137C212.378 286.875 210.899 282.54 209.674 278.053C207.817 279.189 198.595 286.656 197.743 283.41C197.323 281.823 197.248 281.454 198.493 280.565C200.836 278.866 203.18 277.167 205.523 275.469C207.841 273.797 207.387 274.367 207.022 271.61C206.883 270.559 206.734 269.488 206.595 268.437C209.509 265.298 208.948 267.041 211.154 271.04C212.277 273.086 211.938 272.735 214.136 273.716C217.286 275.134 220.436 276.552 223.586 277.971C225.418 278.794 225.238 278.432 226.039 280.182C227.753 284.042 216.722 278.326 213.78 277.293Z" fill="white"/>
<path fill-rule="evenodd" clip-rule="evenodd" d="M177.88 248.254C175.051 249.872 163.462 258.724 162.19 257.387C161.165 256.288 162.444 253.48 163.484 252.759C167.489 249.988 171.617 247.35 175.975 244.889C174.284 243.611 163.985 237.833 167.144 236.082C168.69 235.223 169.054 235.044 170.321 235.86C172.731 237.39 175.141 238.92 177.55 240.45C179.925 241.966 179.206 241.744 181.988 240.571C183.049 240.124 184.127 239.662 185.187 239.216C189.257 240.801 187.284 240.848 183.703 244.019C181.869 245.636 182.144 245.23 181.714 247.461C181.086 250.661 180.457 253.862 179.829 257.062C179.465 258.924 179.794 258.654 178.183 259.897C174.614 262.594 177.598 251.153 177.88 248.254Z" fill="white"/>
<path fill-rule="evenodd" clip-rule="evenodd" d="M164.409 311.072C164.78 314.075 168.508 327.259 166.627 327.784C165.09 328.198 162.862 326.011 162.601 324.857C161.598 320.416 160.781 315.925 160.239 311.314C158.235 312.211 148.013 318.476 147.654 315.146C147.476 313.516 147.457 313.141 148.819 312.412C151.387 311.018 153.955 309.623 156.524 308.228C159.063 306.857 158.529 307.367 158.578 304.582C158.598 303.521 158.61 302.439 158.629 301.378C161.976 298.623 161.162 300.284 162.746 304.533C163.551 306.706 163.268 306.314 165.293 307.564C168.194 309.366 171.095 311.168 173.995 312.971C175.683 314.018 175.559 313.636 176.09 315.474C177.209 319.522 167.161 312.466 164.409 311.072Z" fill="white"/>
<path fill-rule="evenodd" clip-rule="evenodd" d="M133.266 277.74C130.23 278.994 117.463 286.339 116.405 284.853C115.556 283.632 117.238 281.003 118.373 280.417C122.742 278.164 127.213 276.059 131.884 274.159C130.404 272.679 121.089 265.652 124.472 264.308C126.126 263.647 126.513 263.514 127.643 264.484C129.796 266.305 131.949 268.126 134.102 269.947C136.222 271.749 135.545 271.439 138.468 270.621C139.582 270.31 140.716 269.986 141.83 269.675C145.615 271.758 143.659 271.558 139.649 274.26C137.596 275.638 137.928 275.269 137.172 277.431C136.074 280.532 134.977 283.633 133.879 286.734C133.242 288.538 133.608 288.31 131.831 289.344C127.904 291.577 132.555 280.585 133.266 277.74Z" fill="white"/>
<path fill-rule="evenodd" clip-rule="evenodd" d="M101.857 338.31C101.653 341.336 102.811 354.959 100.866 355.179C99.2786 355.343 97.5072 352.827 97.4694 351.645C97.3271 347.096 97.3774 342.528 97.7201 337.885C95.5832 338.453 84.3645 343.017 84.6436 339.669C84.7775 338.03 84.8299 337.656 86.3047 337.153C89.0894 336.183 91.8742 335.214 94.6589 334.244C97.4104 333.293 96.7902 333.712 97.3665 330.968C97.5871 329.922 97.8037 328.854 98.0243 327.809C101.831 325.619 100.717 327.131 101.466 331.582C101.844 333.858 101.64 333.426 103.391 334.983C105.896 337.226 108.4 339.468 110.905 341.711C112.363 343.015 112.313 342.617 112.486 344.518C112.816 348.697 104.294 340.125 101.857 338.31Z" fill="white"/>
<path fill-rule="evenodd" clip-rule="evenodd" d="M77.6165 300.412C74.3993 301.168 60.4785 306.395 59.7221 304.758C59.1202 303.417 61.2693 301.086 62.4942 300.687C67.2086 299.156 71.9953 297.788 76.9397 296.653C75.7677 294.954 67.9593 286.528 71.5335 285.738C73.2822 285.348 73.6874 285.279 74.6122 286.416C76.3796 288.559 78.1471 290.701 79.9145 292.843C81.6535 294.962 81.0481 294.547 84.0716 294.204C85.224 294.074 86.398 293.934 87.5504 293.804C90.8695 296.465 88.9875 295.956 84.5401 297.989C82.2647 299.024 82.6607 298.712 81.5081 300.728C79.8431 303.618 78.178 306.508 76.513 309.398C75.5461 311.079 75.9476 310.913 74.0082 311.652C69.7311 313.234 76.3796 303.11 77.6165 300.412Z" fill="white"/>
<path fill-rule="evenodd" clip-rule="evenodd" d="M33.5258 348.931C32.6163 351.859 30.5434 365.45 28.601 365.283C27.019 365.131 25.8875 362.314 26.1282 361.147C27.0579 356.657 28.1794 352.186 29.6028 347.699C27.3918 347.835 15.4121 350.102 16.4696 346.873C16.9846 345.291 17.1234 344.935 18.6754 344.732C21.6107 344.33 24.546 343.927 27.4813 343.525C30.3798 343.134 29.6785 343.423 30.8831 340.844C31.3432 339.862 31.8044 338.858 32.2645 337.876C36.4795 336.478 35.0414 337.742 34.7247 342.255C34.5577 344.561 34.4612 344.098 35.798 345.97C37.7067 348.664 39.6154 351.357 41.5241 354.051C42.6358 355.617 42.6804 355.217 42.402 357.116C41.742 361.28 35.4688 351.192 33.5258 348.931Z" fill="white"/>
<path fill-rule="evenodd" clip-rule="evenodd" d="M18.8547 306.981C15.549 307.088 0.786477 309.473 0.435512 307.717C0.165191 306.283 2.80213 304.42 4.08664 304.271C9.02996 303.698 14.0054 303.299 19.0792 303.16C18.3385 301.263 12.7249 291.459 16.3857 291.388C18.1774 291.35 18.5877 291.362 19.2197 292.66C20.4352 295.11 21.6507 297.559 22.8662 300.009C24.0596 302.43 23.5683 301.904 26.5886 302.163C27.7395 302.263 28.9139 302.357 30.0648 302.457C32.6672 305.721 30.957 304.85 26.1554 305.968C23.7001 306.535 24.1584 306.307 22.5642 308.058C20.2668 310.564 17.9693 313.071 15.6719 315.577C14.337 317.036 14.7665 316.952 12.7073 317.295C8.17726 318.003 17.0185 309.384 18.8547 306.981Z" fill="white"/>
<path fill-rule="evenodd" clip-rule="evenodd" d="M464.165 401.936V411.455C429.646 411.455 401.005 389.223 388.888 356.898L391.124 356.067C401.835 384.666 433.628 401.936 464.165 401.936Z" fill="white"/>
<path fill-rule="evenodd" clip-rule="evenodd" d="M462.803 224.061C432.671 225.531 404.732 237.285 389.741 266.927C391.721 235.795 397.407 198.422 406.329 177C409.822 201.872 418.254 216.246 432.841 217.545C460.354 199.253 482.756 200.019 506.265 206.493C469.149 210.39 464.208 216.842 469.34 215.799C491.295 211.327 519 221.101 520.703 221.697C478.966 225.126 530.605 253.022 566.252 226.382C571.129 231.578 569.425 247.613 562.824 258.303H559.374C560.865 249.998 560.226 240.437 557.436 239.138C514.357 257.26 502.219 222.145 462.803 224.061Z" fill="white"/>
<path fill-rule="evenodd" clip-rule="evenodd" d="M527.197 407.194C524.088 402.467 507.074 383.259 509.693 381.045C511.801 379.256 517.231 381.321 518.615 383.046C523.939 389.69 528.986 396.568 533.713 403.809C536.183 400.891 547.406 383.238 550.749 388.498C552.389 391.053 552.729 391.692 551.175 393.864C548.215 398.016 545.234 402.148 542.274 406.3C539.335 410.389 539.761 409.153 542.018 413.796C542.891 415.584 543.743 417.373 544.616 419.141C541.528 426.104 541.443 422.761 535.353 416.841C532.244 413.817 533.032 414.264 528.73 413.625C522.555 412.71 516.401 411.773 510.225 410.857C506.626 410.325 507.159 410.878 504.774 408.195C499.535 402.297 521.597 406.832 527.197 407.194Z" fill="white"/>
<path fill-rule="evenodd" clip-rule="evenodd" d="M504.603 281.28C497.235 281.28 490.4 283.431 484.608 287.115C479.178 269.738 463.036 257.686 444.552 257.686C421.362 257.686 402.581 276.489 402.581 299.657C402.581 321.527 419.297 339.478 440.655 341.438H440.613C455.839 349.572 462.546 356.961 467.423 375.147L469.744 376.212C482.265 360.73 489.804 356.301 504.603 356.173C525.28 356.173 542.061 339.414 542.061 318.716C542.061 298.06 525.28 281.28 504.603 281.28ZM411.524 301.404C411.524 282.196 427.091 266.629 446.299 266.629C461.546 266.629 474.94 276.574 479.454 291.033C471.916 297.89 467.167 307.728 467.167 318.716C467.167 321.995 467.636 325.147 468.424 328.171C462.206 333.303 454.412 336.156 446.32 336.156C427.091 336.178 411.524 320.611 411.524 301.404ZM482.989 349.317C478.241 351.19 474.109 354.278 471.107 359.602C469.872 352.127 466.465 345.1 460.034 338.669L459.885 338.69C463.483 337.285 466.869 335.369 469.978 332.984C472.704 339.606 477.282 345.271 483.074 349.338L482.989 349.317ZM504.965 348.656C487.376 348.656 473.13 334.41 473.13 316.821C473.13 299.231 487.376 284.985 504.965 284.985C522.555 284.985 536.801 299.231 536.801 316.821C536.822 334.389 522.555 348.656 504.965 348.656Z" fill="white"/>
<path d="M494.191 293.438C492.424 293.609 492.765 294.78 492.126 297.442C491.444 300.636 496.598 298.059 497.407 295.525C498.024 293.651 496.278 293.779 494.191 293.438Z" fill="white"/>
<path d="M500.175 286.199C492.572 286.199 485.652 289.287 480.626 294.27C477.922 280.194 465.507 269.483 450.664 269.483C433.842 269.483 420.128 283.197 420.128 300.019C420.128 316.842 433.842 330.556 450.664 330.556C459.566 330.556 467.572 326.68 473.173 320.569C476.133 332.771 487.121 341.885 500.196 341.885C515.528 341.885 528.028 329.385 528.028 314.053C528.007 298.699 515.507 286.199 500.175 286.199ZM452.134 288.989C451.516 289.351 450.856 289.628 450.175 289.819C448.152 290.82 445.894 291.012 443.808 289.755C439.953 288.648 437.185 285.709 439.336 282.089C439.357 281.578 439.442 281.088 439.57 280.641C439.591 279.108 440.145 277.916 441.039 277.021C442.083 275.105 444.17 273.593 447.619 273.06C450.664 272.571 452.964 273.209 454.561 274.445C456.371 274.934 457.117 276.489 457.074 278.448C458.075 282.366 456.286 287.243 452.134 288.989ZM502.922 300.786C502.304 302.404 500.43 303.618 498.322 304.172C498.109 304.278 497.917 304.385 497.704 304.47C491.55 307.281 489.272 303.831 489.634 300.062C489.549 299.53 489.527 298.933 489.549 298.273C489.165 296.804 489.314 295.313 490.336 294.227C491.784 290.692 494.979 290.373 497.768 291.651C498.365 291.693 498.961 291.949 499.514 292.439C503.198 293.652 505.945 297.613 502.922 300.786Z" fill="white"/>
<path d="M442.913 281.706C444.51 283.261 446.15 281.877 447.492 282.473C451.367 284.219 453.454 278.256 450.366 275.233C447.449 272.784 441.785 277.852 442.913 281.706Z" fill="white"/>
<path fill-rule="evenodd" clip-rule="evenodd" d="M370.575 299.061C361.248 304.364 350.941 306.877 340.209 306.706C339.442 306.685 338.761 306.962 338.143 307.409C336.716 302.575 335.928 297.55 335.928 292.481C335.907 286.114 336.546 278.682 341.571 274.104C343.893 271.975 347.257 270.548 350.451 270.782C351.878 270.889 352.794 271.485 354.05 271.975C354.604 272.188 354.859 272.592 354.987 272.848C355.349 276.127 356.435 279.875 359.693 281.195C362.909 282.494 365.656 279.79 366.167 276.596C368.083 264.415 359.353 249.53 345.554 250.872C332.883 252.085 325.451 264.777 323.301 276.085C318.531 301.191 327.198 328.491 344.106 347.315C349.557 353.405 354.433 346.527 354.881 340.906C355.243 336.37 354.923 331.749 353.965 327.234C362.227 326.127 370.192 323.486 377.623 319.44C385.779 315.032 379.817 293.823 370.575 299.061ZM355.03 272.933C355.072 273.061 355.072 273.103 355.03 272.933V272.933ZM354.923 272.06C354.923 271.911 354.902 271.762 354.881 271.591C354.902 271.74 354.902 271.889 354.923 272.06Z" fill="white"/>
<path fill-rule="evenodd" clip-rule="evenodd" d="M612.887 302.724C607.755 298.912 601.366 297.337 595.042 297.507C588.377 297.677 581.009 300.552 574.365 299.296C573.768 299.189 572.959 299.019 572.406 298.678C572.342 298.465 572.278 298.167 572.214 297.741C571.852 295.399 571.767 293.035 572.47 290.735C573.343 287.903 575.302 285.177 577.751 283.495C578.943 282.665 580.711 281.77 582.159 281.536C583.926 281.259 584.927 282.537 583.585 280.578C585.161 282.856 588.1 285.497 590.953 283.644C593.615 281.919 593.423 277.341 592.188 274.807C588.717 267.822 582.308 263.223 574.28 265.075C567.146 266.715 562.035 273.082 559.948 279.811C555.391 294.377 561.354 315.735 578.794 317.247C586.013 317.865 593.125 315.331 600.344 315.416C603.496 315.458 606.158 316.076 608.926 317.567C608.436 317.29 609.011 317.758 609.501 318.099C609.458 318.163 609.437 318.227 609.395 318.312C607.989 320.718 607.159 322.805 605.199 324.892C602.729 327.511 599.876 329.811 596.767 331.621C590.719 335.156 584.395 336.881 577.602 337.69C576.878 337.711 576.132 337.775 575.387 337.924C564.995 339.819 570.638 358.921 579.774 358.687C593.445 358.325 607.904 351.127 616.464 340.437C625.706 328.853 625.536 312.136 612.887 302.724ZM572.406 298.742C572.725 299.083 572.619 299.466 572.406 298.742V298.742Z" fill="white"/>
<path fill-rule="evenodd" clip-rule="evenodd" d="M676.431 284.751C673.748 274.039 663.952 267.396 652.964 270.547C642.913 273.422 635.886 282.898 633.458 292.694C631.989 298.614 631.947 304.597 633.182 310.56C634.268 315.82 636.355 322.08 641.87 323.848C646.533 325.338 648.343 316.906 648.365 314.286C648.407 309.069 645.022 303.32 646.001 298.55C646.832 294.461 651.176 291.011 655.648 290.351C657.841 290.032 660.673 290.223 662.441 291.735C664.016 293.077 663.974 294.781 664.102 296.74C664.591 304.257 663.803 311.412 662.611 318.843C662.015 322.549 663.015 328.596 667.189 329.895C671.597 331.258 674.28 326.893 675.707 323.422L676.133 322.357C676.644 321.122 676.9 319.44 676.836 317.715C678.667 307.11 679.029 295.015 676.431 284.751Z" fill="white"/>
<path fill-rule="evenodd" clip-rule="evenodd" d="M716.464 300.893C710.927 298.189 703.943 295.953 697.533 296.677C697.597 291.949 697.427 287.073 695.979 282.899C695.255 280.791 694.169 278.534 691.571 278.683C689.228 278.811 687.312 281.366 686.779 283.495C685.182 289.905 685.587 296.57 685.246 303.129C685.161 304.811 685.054 306.472 684.948 308.155C683.883 312.818 684.011 318.099 683.755 322.507C683.542 326.149 684.054 332.303 688.781 332.942C693.168 333.538 696.064 327.746 696.362 324.189C696.575 321.57 696.745 318.93 696.916 316.289C698.875 316.225 701.707 316.779 702.772 317.013C706.008 317.716 709.011 319.057 712.162 320.016C716.166 321.23 719.041 315.118 719.658 312.328C720.404 308.836 720.297 302.767 716.464 300.893Z" fill="white"/>
<path fill-rule="evenodd" clip-rule="evenodd" d="M791.571 287.497C785.204 281.747 776.792 281.023 769.19 283.493C768.53 280.044 767.784 276.615 766.933 273.229C766.294 270.695 764.91 266.862 761.673 266.862C758.777 266.862 757.158 270.248 757.35 272.867C757.691 277.212 758.053 281.534 758.436 285.878C755.859 285.666 752.9 286.283 749.62 287.88C730.519 297.101 720.723 325.721 741.187 339.158C747.959 343.608 755.689 343.906 763.036 341.905C764.015 343.8 765.463 345.312 767.486 345.695C771.788 346.504 773.79 341.607 773.79 338.114C773.79 337.859 773.79 337.603 773.79 337.348C782.712 332.322 793.317 324.081 797.64 315.052C802.048 305.768 799.024 294.226 791.571 287.497ZM761.204 324.209C756.882 325.7 752.431 326.125 748.151 324.72C742.359 322.825 740.293 320.099 743.466 314.69C746.383 309.729 751.175 305.555 756.115 302.744C759.032 301.083 759.501 299.635 759.842 302.041C760.459 309.409 760.949 316.798 761.204 324.209ZM787.205 304.383C786.737 306.151 783.841 308.238 782.499 309.558C779.837 312.135 776.622 315.052 773.066 317.671C772.746 311.794 772.299 305.895 771.639 300.039C775.664 298.975 779.88 298.421 783.521 299.954C784.842 300.487 786.013 301.253 787.014 302.275C788.376 303.17 788.44 303.872 787.205 304.383Z" fill="white"/>
<path fill-rule="evenodd" clip-rule="evenodd" d="M852.793 312.029C851.366 299.444 844.382 285.432 830.455 289.691C828.432 290.308 826.622 291.245 825.003 292.416C824.428 284.623 823.406 279.363 819.083 273.464C816.933 270.526 813.185 270.291 811.183 273.656C807.946 279.107 811.843 287.455 812.589 293.992C813.078 298.464 813.249 303.021 813.462 307.514C813.611 311.049 813.696 314.584 813.76 318.119C812.652 325.189 812.887 332.387 813.93 337.795C814.59 341.224 817.082 345.249 821.043 344.524C825.131 343.779 826.238 338.285 826.302 334.921C826.366 330.789 826.366 326.637 826.302 322.506C827.112 318.822 828.73 311.795 831.434 309.686C833.819 307.834 837.184 307.898 839.292 310.304C841.549 312.859 840.421 317.587 840.272 320.675C840.016 326.105 846.937 334.559 851.068 327.127C851.643 325.977 852.303 324.87 853.091 323.847C854.88 321.186 854.688 315.436 852.793 312.029Z" fill="white"/>
<path fill-rule="evenodd" clip-rule="evenodd" d="M903.708 306.408C903.686 306.322 903.665 306.237 903.644 306.131C904.027 305.3 904.325 304.512 904.581 303.767C907.541 294.951 906.668 278.916 894.317 276.489C890.399 275.722 887.63 279.427 886.97 282.238C885.501 288.669 886.054 294.802 887.204 301.041C882.818 305.385 881.668 304.725 879.602 299.913C876.472 292.609 875.386 283.771 877.622 275.956C877.6 275.999 877.579 276.02 877.537 276.063C877.877 274.593 877.92 273.103 877.75 272.059C877.728 271.932 877.707 271.804 877.686 271.676C877.153 268.12 873.278 262.711 868.188 265.245C862.63 268.013 862.758 275.488 862.417 280.173C861.992 286.029 862.46 291.97 863.802 297.634C865.803 306.067 869.977 320.334 881.242 322.762C884.798 323.528 888.205 322.634 891.293 320.803C891.911 323.614 892.549 326.403 893.273 329.172C894.061 332.217 895.658 336.007 899.47 337.072C902.558 337.945 906.05 336.561 907.179 333.644C907.477 332.877 907.754 332.132 908.052 331.365C909.521 327.532 909.415 323.294 906.795 320.015C905.816 315.479 904.751 310.943 903.708 306.408Z" fill="white"/>
</svg>