<svg width="1421" height="561" viewBox="0 0 1421 561" fill="none" xmlns="http://www.w3.org/2000/svg">
<path fill-rule="evenodd" clip-rule="evenodd" d="M1296.79 500.808C1294.47 501.77 1284.68 507.532 1283.9 506.271C1283.27 505.237 1284.57 503.099 1285.44 502.642C1288.79 500.887 1292.21 499.257 1295.78 497.801C1294.67 496.535 1287.68 490.464 1290.27 489.437C1291.53 488.932 1291.83 488.832 1292.67 489.665C1294.29 491.232 1295.9 492.798 1297.51 494.365C1299.1 495.915 1298.59 495.64 1300.82 495.037C1301.67 494.808 1302.54 494.569 1303.39 494.34C1306.24 496.166 1304.75 495.949 1301.68 498.087C1300.1 499.177 1300.36 498.879 1299.76 500.653C1298.89 503.197 1298.02 505.741 1297.15 508.285C1296.64 509.765 1296.92 509.586 1295.56 510.397C1292.55 512.148 1296.21 503.15 1296.79 500.808Z" fill="white"/>
<path fill-rule="evenodd" clip-rule="evenodd" d="M1317.28 470.289C1315.68 468.347 1307.33 460.655 1308.31 459.537C1309.12 458.633 1311.54 459.265 1312.23 459.964C1314.88 462.656 1317.43 465.458 1319.86 468.453C1320.75 467.026 1324.53 458.573 1326.27 460.749C1327.12 461.812 1327.3 462.066 1326.75 463.118C1325.72 465.117 1324.69 467.116 1323.65 469.115C1322.63 471.086 1322.75 470.518 1323.97 472.477C1324.44 473.224 1324.92 473.982 1325.38 474.73C1324.46 477.987 1324.24 476.504 1321.3 474.179C1319.8 472.987 1320.16 473.147 1318.29 473.087C1315.6 472.992 1312.91 472.897 1310.23 472.802C1308.66 472.748 1308.92 472.964 1307.74 471.897C1305.2 469.525 1314.87 470.419 1317.28 470.289Z" fill="white"/>
<path fill-rule="evenodd" clip-rule="evenodd" d="M1339.76 511.506C1337.33 512.139 1326.84 516.5 1326.24 515.143C1325.76 514.032 1327.35 512.095 1328.27 511.762C1331.83 510.483 1335.44 509.34 1339.18 508.389C1338.25 506.983 1332.16 500.008 1334.86 499.346C1336.19 499.02 1336.49 498.961 1337.22 499.903C1338.6 501.677 1339.98 503.45 1341.37 505.224C1342.73 506.978 1342.26 506.635 1344.55 506.345C1345.42 506.236 1346.31 506.117 1347.19 506.008C1349.76 508.209 1348.32 507.79 1344.98 509.484C1343.27 510.346 1343.56 510.087 1342.72 511.762C1341.51 514.162 1340.3 516.562 1339.09 518.961C1338.38 520.358 1338.69 520.219 1337.23 520.836C1334 522.155 1338.87 513.747 1339.76 511.506Z" fill="white"/>
<path fill-rule="evenodd" clip-rule="evenodd" d="M1364.25 484.097C1362.94 481.954 1355.73 473.186 1356.85 472.213C1357.78 471.429 1360.09 472.389 1360.68 473.176C1362.93 476.207 1365.07 479.333 1367.07 482.634C1368.15 481.343 1373.05 473.491 1374.47 475.884C1375.17 477.055 1375.31 477.331 1374.62 478.298C1373.32 480.136 1372.03 481.974 1370.73 483.812C1369.45 485.623 1369.64 485.076 1370.58 487.185C1370.94 487.989 1371.31 488.806 1371.67 489.61C1370.31 492.71 1370.29 491.211 1367.7 488.503C1366.38 487.117 1366.71 487.324 1364.87 487.007C1362.22 486.543 1359.57 486.08 1356.92 485.616C1355.38 485.348 1355.6 485.596 1354.59 484.378C1352.39 481.677 1361.85 483.895 1364.25 484.097Z" fill="white"/>
<path fill-rule="evenodd" clip-rule="evenodd" d="M1384.67 529.351C1382.24 529.984 1371.76 534.345 1371.15 532.988C1370.67 531.877 1372.26 529.939 1373.18 529.606C1376.74 528.328 1380.35 527.184 1384.09 526.234C1383.16 524.827 1377.07 517.852 1379.77 517.19C1381.1 516.864 1381.4 516.805 1382.13 517.748C1383.51 519.521 1384.89 521.295 1386.28 523.068C1387.64 524.823 1387.17 524.48 1389.46 524.19C1390.33 524.08 1391.22 523.962 1392.1 523.852C1394.67 526.053 1393.23 525.634 1389.89 527.328C1388.18 528.191 1388.47 527.931 1387.63 529.606C1386.42 532.006 1385.21 534.406 1384 536.806C1383.29 538.203 1383.6 538.064 1382.14 538.68C1378.91 540 1383.78 531.591 1384.67 529.351Z" fill="white"/>
<path fill-rule="evenodd" clip-rule="evenodd" d="M1409.16 501.941C1407.85 499.798 1400.64 491.03 1401.76 490.057C1402.69 489.273 1405 490.233 1405.59 491.021C1407.84 494.052 1409.98 497.178 1411.98 500.478C1413.06 499.188 1417.96 491.335 1419.38 493.729C1420.08 494.899 1420.22 495.176 1419.53 496.142C1418.23 497.98 1416.94 499.818 1415.64 501.656C1414.36 503.468 1414.55 502.921 1415.49 505.03C1415.85 505.834 1416.22 506.651 1416.58 507.455C1415.22 510.555 1415.2 509.055 1412.61 506.348C1411.29 504.961 1411.62 505.168 1409.78 504.852C1407.13 504.388 1404.48 503.924 1401.83 503.46C1400.29 503.192 1400.51 503.441 1399.5 502.222C1397.3 499.522 1406.76 501.739 1409.16 501.941Z" fill="white"/>
<path fill-rule="evenodd" clip-rule="evenodd" d="M1424.67 551.351C1422.24 551.984 1411.76 556.345 1411.15 554.988C1410.67 553.877 1412.26 551.939 1413.18 551.606C1416.74 550.328 1420.35 549.184 1424.09 548.234C1423.16 546.827 1417.07 539.852 1419.77 539.19C1421.1 538.864 1421.4 538.805 1422.13 539.748C1423.51 541.521 1424.89 543.295 1426.28 545.068C1427.64 546.823 1427.17 546.48 1429.46 546.19C1430.33 546.08 1431.22 545.962 1432.1 545.852C1434.67 548.053 1433.23 547.634 1429.89 549.328C1428.18 550.191 1428.47 549.931 1427.63 551.606C1426.42 554.006 1425.21 556.406 1424 558.806C1423.29 560.203 1423.6 560.064 1422.14 560.68C1418.91 562 1423.78 553.591 1424.67 551.351Z" fill="white"/>
<path fill-rule="evenodd" clip-rule="evenodd" d="M1449.16 523.941C1447.85 521.798 1440.64 513.03 1441.76 512.057C1442.69 511.273 1445 512.233 1445.59 513.021C1447.84 516.052 1449.98 519.178 1451.98 522.478C1453.06 521.188 1457.96 513.335 1459.38 515.729C1460.08 516.9 1460.22 517.176 1459.53 518.142C1458.23 519.98 1456.94 521.818 1455.64 523.656C1454.36 525.468 1454.55 524.921 1455.49 527.03C1455.85 527.834 1456.22 528.651 1456.58 529.455C1455.22 532.555 1455.2 531.055 1452.61 528.348C1451.29 526.961 1451.62 527.168 1449.78 526.852C1447.13 526.388 1444.48 525.924 1441.83 525.46C1440.29 525.192 1440.51 525.441 1439.5 524.222C1437.3 521.522 1446.76 523.739 1449.16 523.941Z" fill="white"/>
<path fill-rule="evenodd" clip-rule="evenodd" d="M1254.77 497.318C1252.64 498.652 1243.95 505.959 1242.96 504.847C1242.17 503.932 1243.11 501.606 1243.89 501.012C1246.89 498.725 1250 496.549 1253.28 494.52C1251.97 493.456 1244.07 488.631 1246.45 487.189C1247.61 486.481 1247.88 486.333 1248.86 487.014C1250.71 488.29 1252.56 489.567 1254.41 490.843C1256.24 492.108 1255.69 491.921 1257.79 490.957C1258.59 490.59 1259.4 490.209 1260.2 489.842C1263.32 491.169 1261.82 491.202 1259.14 493.822C1257.77 495.158 1257.97 494.822 1257.67 496.671C1257.24 499.324 1256.8 501.978 1256.37 504.631C1256.11 506.174 1256.36 505.951 1255.15 506.977C1252.48 509.204 1254.59 499.722 1254.77 497.318Z" fill="white"/>
<path fill-rule="evenodd" clip-rule="evenodd" d="M1269.9 463.818C1268.01 462.167 1258.49 455.97 1259.27 454.705C1259.92 453.68 1262.41 453.9 1263.21 454.475C1266.27 456.69 1269.25 459.028 1272.15 461.578C1272.79 460.023 1275.11 451.059 1277.18 452.916C1278.2 453.824 1278.42 454.044 1278.05 455.173C1277.36 457.316 1276.68 459.458 1275.99 461.601C1275.31 463.714 1275.33 463.135 1276.86 464.863C1277.45 465.523 1278.05 466.191 1278.63 466.85C1278.26 470.215 1277.8 468.79 1274.51 466.985C1272.84 466.06 1273.22 466.157 1271.36 466.409C1268.7 466.762 1266.03 467.115 1263.37 467.468C1261.82 467.675 1262.1 467.846 1260.77 466.988C1257.86 465.072 1267.55 464.347 1269.9 463.818Z" fill="white"/>
<path fill-rule="evenodd" clip-rule="evenodd" d="M1209.08 500.717C1207.06 502.214 1198.97 510.18 1197.9 509.148C1197.04 508.298 1197.79 505.906 1198.52 505.252C1201.34 502.737 1204.26 500.324 1207.37 498.045C1205.99 497.086 1197.73 492.896 1199.99 491.271C1201.09 490.474 1201.36 490.305 1202.38 490.908C1204.33 492.035 1206.27 493.163 1208.22 494.29C1210.14 495.408 1209.58 495.265 1211.59 494.138C1212.36 493.71 1213.14 493.267 1213.91 492.839C1217.12 493.918 1215.63 494.068 1213.16 496.889C1211.9 498.329 1212.07 497.978 1211.92 499.845C1211.7 502.524 1211.47 505.203 1211.25 507.882C1211.12 509.44 1211.34 509.199 1210.22 510.317C1207.73 512.746 1209.09 503.128 1209.08 500.717Z" fill="white"/>
<path fill-rule="evenodd" clip-rule="evenodd" d="M1221.54 466.134C1219.52 464.637 1209.55 459.205 1210.23 457.883C1210.79 456.81 1213.3 456.834 1214.14 457.345C1217.36 459.312 1220.52 461.41 1223.6 463.725C1224.12 462.124 1225.73 453.006 1227.94 454.695C1229.03 455.521 1229.26 455.723 1228.98 456.877C1228.47 459.067 1227.95 461.257 1227.44 463.446C1226.93 465.606 1226.9 465.027 1228.56 466.63C1229.2 467.242 1229.85 467.861 1230.48 468.472C1230.38 471.856 1229.8 470.472 1226.39 468.93C1224.64 468.139 1225.03 468.206 1223.2 468.603C1220.57 469.164 1217.94 469.724 1215.31 470.285C1213.78 470.613 1214.08 470.761 1212.68 470.01C1209.64 468.328 1219.24 466.845 1221.54 466.134Z" fill="white"/>
<path fill-rule="evenodd" clip-rule="evenodd" d="M1159.47 508.969C1157.47 510.482 1149.44 518.513 1148.36 517.489C1147.49 516.646 1148.22 514.249 1148.95 513.589C1151.75 511.051 1154.65 508.615 1157.74 506.311C1156.35 505.363 1148.06 501.239 1150.31 499.596C1151.4 498.79 1151.67 498.619 1152.69 499.214C1154.65 500.326 1156.6 501.438 1158.56 502.549C1160.49 503.652 1159.92 503.513 1161.93 502.371C1162.7 501.936 1163.47 501.487 1164.24 501.053C1167.46 502.106 1165.97 502.268 1163.52 505.109C1162.27 506.559 1162.45 506.206 1162.31 508.074C1162.1 510.755 1161.9 513.436 1161.7 516.117C1161.58 517.676 1161.8 517.432 1160.69 518.56C1158.22 521.008 1159.5 511.38 1159.47 508.969Z" fill="white"/>
<path fill-rule="evenodd" clip-rule="evenodd" d="M1171.66 474.288C1169.63 472.807 1159.61 467.455 1160.28 466.127C1160.83 465.05 1163.34 465.054 1164.18 465.558C1167.42 467.5 1170.6 469.572 1173.7 471.862C1174.2 470.258 1175.74 461.126 1177.97 462.798C1179.06 463.615 1179.3 463.815 1179.03 464.972C1178.53 467.166 1178.03 469.359 1177.54 471.553C1177.04 473.717 1177.01 473.138 1178.68 474.728C1179.32 475.335 1179.98 475.948 1180.61 476.555C1180.54 479.939 1179.95 478.56 1176.52 477.045C1174.77 476.268 1175.16 476.332 1173.33 476.743C1170.71 477.325 1168.09 477.907 1165.46 478.489C1163.93 478.828 1164.23 478.974 1162.83 478.234C1159.77 476.577 1169.36 475.018 1171.66 474.288Z" fill="white"/>
<path fill-rule="evenodd" clip-rule="evenodd" d="M1104.03 510.155C1101.83 511.357 1092.71 518.121 1091.79 516.951C1091.05 515.989 1092.13 513.725 1092.95 513.179C1096.09 511.079 1099.32 509.097 1102.71 507.272C1101.48 506.129 1093.88 500.833 1096.34 499.537C1097.55 498.902 1097.83 498.771 1098.76 499.51C1100.53 500.897 1102.3 502.284 1104.07 503.671C1105.82 505.044 1105.28 504.825 1107.43 503.989C1108.25 503.672 1109.09 503.342 1109.91 503.025C1112.94 504.539 1111.44 504.48 1108.61 506.932C1107.15 508.182 1107.38 507.859 1106.97 509.687C1106.37 512.308 1105.78 514.93 1105.18 517.552C1104.84 519.077 1105.1 518.869 1103.83 519.82C1101.02 521.879 1103.71 512.544 1104.03 510.155Z" fill="white"/>
<path fill-rule="evenodd" clip-rule="evenodd" d="M1121.18 477.639C1119.39 475.876 1110.27 469.111 1111.12 467.896C1111.83 466.912 1114.31 467.284 1115.07 467.906C1117.99 470.303 1120.82 472.819 1123.55 475.54C1124.29 474.027 1127.15 465.221 1129.11 467.201C1130.07 468.169 1130.27 468.402 1129.84 469.507C1129.02 471.604 1128.21 473.701 1127.39 475.797C1126.59 477.865 1126.64 477.288 1128.06 479.107C1128.61 479.801 1129.16 480.504 1129.71 481.198C1129.13 484.534 1128.76 483.083 1125.59 481.082C1123.97 480.056 1124.34 480.176 1122.48 480.315C1119.8 480.505 1117.11 480.695 1114.43 480.884C1112.87 480.996 1113.15 481.184 1111.87 480.247C1109.08 478.157 1118.8 478.024 1121.18 477.639Z" fill="white"/>
<path fill-rule="evenodd" clip-rule="evenodd" d="M1050.45 506.656C1048.24 507.858 1039.12 514.622 1038.21 513.452C1037.47 512.49 1038.54 510.226 1039.36 509.68C1042.5 507.58 1045.73 505.598 1049.13 503.773C1047.89 502.631 1040.29 497.334 1042.76 496.039C1043.96 495.403 1044.24 495.272 1045.17 496.011C1046.94 497.398 1048.72 498.785 1050.49 500.172C1052.23 501.545 1051.69 501.326 1053.85 500.491C1054.67 500.173 1055.5 499.843 1056.32 499.526C1059.35 501.04 1057.85 500.981 1055.02 503.433C1053.57 504.683 1053.79 504.36 1053.38 506.188C1052.79 508.809 1052.19 511.431 1051.59 514.053C1051.25 515.578 1051.51 515.37 1050.24 516.321C1047.43 518.38 1050.12 509.045 1050.45 506.656Z" fill="white"/>
<path fill-rule="evenodd" clip-rule="evenodd" d="M1067.59 474.141C1065.8 472.378 1056.68 465.612 1057.54 464.397C1058.24 463.413 1060.72 463.785 1061.48 464.408C1064.4 466.804 1067.24 469.32 1069.97 472.041C1070.7 470.528 1073.57 461.722 1075.52 463.703C1076.48 464.67 1076.69 464.904 1076.25 466.008C1075.44 468.105 1074.62 470.202 1073.81 472.299C1073 474.367 1073.05 473.789 1074.48 475.608C1075.02 476.302 1075.58 477.005 1076.12 477.699C1075.55 481.035 1075.17 479.584 1072 477.583C1070.38 476.557 1070.76 476.677 1068.89 476.816C1066.21 477.006 1063.53 477.196 1060.85 477.386C1059.29 477.497 1059.56 477.686 1058.28 476.748C1055.5 474.659 1065.21 474.525 1067.59 474.141Z" fill="white"/>
<path fill-rule="evenodd" clip-rule="evenodd" d="M999.369 505.163C997.087 506.212 987.53 512.344 986.697 511.114C986.027 510.105 987.253 507.918 988.104 507.429C991.379 505.547 994.735 503.787 998.248 502.197C997.093 500.974 989.873 495.174 992.417 494.049C993.662 493.496 993.953 493.385 994.831 494.185C996.504 495.689 998.176 497.193 999.849 498.696C1001.5 500.185 1000.98 499.929 1003.18 499.242C1004.02 498.981 1004.88 498.708 1005.72 498.447C1008.64 500.163 1007.14 500.003 1004.15 502.257C1002.62 503.406 1002.86 503.099 1002.33 504.895C1001.56 507.47 1000.79 510.045 1000.02 512.62C999.567 514.119 999.84 513.929 998.511 514.792C995.57 516.656 998.886 507.525 999.369 505.163Z" fill="white"/>
<path fill-rule="evenodd" clip-rule="evenodd" d="M1018.68 473.884C1017.01 472.003 1008.37 464.636 1009.31 463.481C1010.08 462.548 1012.53 463.087 1013.24 463.759C1015.99 466.348 1018.65 469.05 1021.19 471.95C1022.03 470.49 1025.48 461.899 1027.3 464.007C1028.19 465.037 1028.38 465.284 1027.87 466.357C1026.91 468.393 1025.96 470.43 1025.01 472.467C1024.06 474.476 1024.15 473.903 1025.45 475.814C1025.94 476.543 1026.45 477.283 1026.95 478.011C1026.15 481.302 1025.87 479.828 1022.85 477.617C1021.3 476.484 1021.67 476.629 1019.79 476.641C1017.11 476.649 1014.42 476.656 1011.73 476.664C1010.16 476.67 1010.43 476.876 1009.21 475.854C1006.58 473.581 1016.28 474.106 1018.68 473.884Z" fill="white"/>
<path fill-rule="evenodd" clip-rule="evenodd" d="M941.136 503.894C938.853 504.944 929.297 511.075 928.463 509.845C927.794 508.836 929.019 506.65 929.87 506.16C933.146 504.278 936.502 502.519 940.014 500.928C938.86 499.705 931.64 493.906 934.184 492.78C935.428 492.227 935.72 492.116 936.598 492.917C938.27 494.42 939.943 495.924 941.616 497.428C943.263 498.916 942.743 498.661 944.948 497.973C945.789 497.712 946.644 497.44 947.484 497.178C950.403 498.894 948.912 498.734 945.918 500.988C944.385 502.137 944.631 501.83 944.099 503.626C943.326 506.201 942.554 508.776 941.782 511.352C941.334 512.85 941.607 512.66 940.277 513.523C937.337 515.387 940.653 506.256 941.136 503.894Z" fill="white"/>
<path fill-rule="evenodd" clip-rule="evenodd" d="M960.445 472.615C958.778 470.735 950.139 463.367 951.074 462.213C951.846 461.279 954.294 461.818 955.009 462.49C957.76 465.079 960.417 467.781 962.958 470.681C963.794 469.221 967.25 460.63 969.065 462.738C969.955 463.769 970.146 464.015 969.634 465.088C968.68 467.125 967.726 469.162 966.773 471.198C965.826 473.207 965.919 472.635 967.217 474.546C967.71 475.275 968.219 476.014 968.713 476.743C967.917 480.033 967.638 478.56 964.613 476.348C963.069 475.215 963.434 475.361 961.561 475.372C958.872 475.38 956.184 475.388 953.495 475.396C951.931 475.401 952.192 475.608 950.98 474.586C948.344 472.312 958.044 472.837 960.445 472.615Z" fill="white"/>
<path fill-rule="evenodd" clip-rule="evenodd" d="M885.263 494.09C882.821 494.678 872.26 498.847 871.679 497.48C871.217 496.36 872.843 494.452 873.772 494.136C877.35 492.922 880.983 491.845 884.736 490.963C883.84 489.54 877.877 482.454 880.59 481.842C881.918 481.54 882.226 481.487 882.932 482.442C884.283 484.241 885.633 486.039 886.984 487.838C888.313 489.617 887.851 489.266 890.148 489.017C891.023 488.924 891.915 488.822 892.79 488.728C895.321 490.975 893.89 490.53 890.517 492.163C888.791 492.994 889.091 492.74 888.222 494.399C886.966 496.777 885.711 499.154 884.455 501.532C883.726 502.915 884.031 502.782 882.56 503.371C879.315 504.632 884.333 496.314 885.263 494.09Z" fill="white"/>
<path fill-rule="evenodd" clip-rule="evenodd" d="M910.253 467.132C908.982 464.966 901.929 456.067 903.07 455.115C904.008 454.348 906.305 455.35 906.877 456.148C909.076 459.22 911.161 462.384 913.093 465.721C914.195 464.45 919.247 456.689 920.62 459.108C921.294 460.291 921.434 460.57 920.725 461.523C919.395 463.337 918.065 465.151 916.736 466.966C915.419 468.753 915.621 468.21 916.525 470.336C916.868 471.146 917.224 471.97 917.568 472.78C916.151 475.855 916.162 474.355 913.621 471.601C912.325 470.19 912.655 470.404 910.815 470.053C908.176 469.541 905.537 469.029 902.897 468.517C901.362 468.221 901.578 468.474 900.587 467.237C898.439 464.497 907.855 466.886 910.253 467.132Z" fill="white"/>
<path fill-rule="evenodd" clip-rule="evenodd" d="M838.967 477.702C836.525 478.29 825.964 482.459 825.383 481.091C824.921 479.971 826.547 478.063 827.476 477.747C831.054 476.534 834.687 475.457 838.44 474.575C837.544 473.151 831.581 466.066 834.295 465.453C835.622 465.152 835.93 465.099 836.636 466.054C837.987 467.852 839.337 469.651 840.688 471.45C842.017 473.228 841.555 472.877 843.852 472.629C844.727 472.535 845.619 472.433 846.494 472.34C849.026 474.587 847.594 474.142 844.221 475.775C842.495 476.606 842.795 476.352 841.926 478.011C840.671 480.388 839.415 482.766 838.16 485.143C837.431 486.527 837.735 486.393 836.264 486.983C833.019 488.244 838.037 479.925 838.967 477.702Z" fill="white"/>
<path fill-rule="evenodd" clip-rule="evenodd" d="M863.957 450.744C862.686 448.577 855.633 439.679 856.774 438.727C857.712 437.96 860.009 438.962 860.581 439.76C862.78 442.832 864.865 445.996 866.797 449.332C867.899 448.062 872.951 440.3 874.324 442.72C874.998 443.903 875.138 444.182 874.429 445.135C873.099 446.949 871.769 448.763 870.44 450.577C869.123 452.365 869.325 451.821 870.229 453.947C870.572 454.758 870.929 455.581 871.272 456.392C869.855 459.466 869.866 457.967 867.325 455.213C866.029 453.802 866.36 454.015 864.52 453.665C861.88 453.153 859.241 452.641 856.601 452.129C855.066 451.833 855.282 452.085 854.291 450.848C852.143 448.108 861.559 450.498 863.957 450.744Z" fill="white"/>
<path fill-rule="evenodd" clip-rule="evenodd" d="M791.916 451.821C789.435 452.216 778.58 455.544 778.108 454.135C777.736 452.982 779.506 451.207 780.457 450.965C784.118 450.036 787.825 449.247 791.636 448.662C790.854 447.173 785.465 439.642 788.218 439.244C789.566 439.047 789.876 439.019 790.506 440.026C791.711 441.925 792.917 443.824 794.122 445.723C795.307 447.601 794.875 447.215 797.183 447.147C798.063 447.122 798.96 447.091 799.84 447.066C802.188 449.505 800.795 448.949 797.305 450.312C795.519 451.005 795.838 450.776 794.841 452.362C793.403 454.633 791.965 456.905 790.527 459.176C789.692 460.498 790.006 460.389 788.493 460.862C785.159 461.864 790.814 453.965 791.916 451.821Z" fill="white"/>
<path fill-rule="evenodd" clip-rule="evenodd" d="M818.944 426.906C817.846 424.647 811.513 415.223 812.725 414.363C813.72 413.672 815.932 414.851 816.439 415.691C818.39 418.926 820.22 422.244 821.886 425.722C823.084 424.542 828.728 417.2 829.908 419.72C830.487 420.952 830.604 421.241 829.823 422.136C828.355 423.84 826.887 425.544 825.419 427.249C823.966 428.927 824.21 428.402 824.944 430.592C825.223 431.427 825.514 432.276 825.793 433.111C824.139 436.065 824.268 434.571 821.951 431.625C820.769 430.118 821.082 430.356 819.275 429.863C816.684 429.145 814.093 428.428 811.502 427.71C809.994 427.294 810.19 427.563 809.299 426.252C807.373 423.352 816.572 426.473 818.944 426.906Z" fill="white"/>
<path fill-rule="evenodd" clip-rule="evenodd" d="M756.959 413.775C754.447 413.787 743.21 415.417 742.96 413.952C742.768 412.756 744.788 411.273 745.765 411.179C749.526 410.82 753.309 410.606 757.165 410.611C756.619 409.02 752.445 400.754 755.226 400.781C756.588 400.792 756.899 400.812 757.368 401.904C758.269 403.964 759.17 406.025 760.071 408.086C760.955 410.123 760.587 409.675 762.879 409.961C763.752 410.071 764.643 410.177 765.517 410.286C767.464 413.056 766.173 412.293 762.515 413.107C760.644 413.52 760.995 413.341 759.768 414.756C757.999 416.782 756.231 418.807 754.463 420.832C753.435 422.011 753.762 421.951 752.195 422.187C748.747 422.668 755.542 415.725 756.959 413.775Z" fill="white"/>
<path fill-rule="evenodd" clip-rule="evenodd" d="M787.476 393.282C786.736 390.881 781.918 380.6 783.246 379.936C784.335 379.405 786.341 380.908 786.714 381.816C788.148 385.311 789.45 388.87 790.564 392.561C791.929 391.578 798.629 385.185 799.409 387.855C799.793 389.162 799.865 389.465 798.956 390.23C797.245 391.69 795.534 393.15 793.823 394.61C792.131 396.047 792.452 395.565 792.843 397.841C792.991 398.709 793.149 399.593 793.297 400.46C791.211 403.127 791.566 401.67 789.727 398.405C788.789 396.735 789.062 397.018 787.352 396.254C784.901 395.15 782.45 394.045 779.998 392.94C778.572 392.298 778.724 392.594 778.044 391.162C776.584 388.002 785.199 392.492 787.476 393.282Z" fill="white"/>
<path fill-rule="evenodd" clip-rule="evenodd" d="M743.742 351.693C741.506 350.547 730.779 346.826 731.231 345.41C731.61 344.26 734.086 343.872 734.997 344.238C738.501 345.649 741.959 347.2 745.381 348.977C745.628 347.314 745.724 338.054 748.181 339.358C749.385 339.994 749.652 340.154 749.566 341.339C749.418 343.584 749.27 345.828 749.122 348.072C748.971 350.287 748.849 349.72 750.753 351.029C751.478 351.528 752.221 352.032 752.946 352.531C753.401 355.886 752.605 354.615 748.983 353.655C747.132 353.161 747.525 353.163 745.785 353.855C743.283 354.84 740.781 355.825 738.28 356.81C736.825 357.384 737.143 357.482 735.643 356.97C732.36 355.811 741.587 352.773 743.742 351.693Z" fill="white"/>
<path fill-rule="evenodd" clip-rule="evenodd" d="M780.265 347.534C780.713 345.062 781.164 333.717 782.649 333.738C783.86 333.767 784.95 336.025 784.863 337.003C784.529 340.765 784.048 344.524 783.339 348.314C785.003 348.069 793.893 345.474 793.358 348.204C793.098 349.541 793.022 349.843 791.863 350.104C789.672 350.614 787.481 351.123 785.29 351.632C783.127 352.13 783.634 351.849 782.934 354.051C782.666 354.889 782.4 355.746 782.132 356.585C779.054 357.993 780.039 356.863 779.907 353.118C779.844 351.204 779.955 351.581 778.788 350.116C777.12 348.007 775.452 345.899 773.784 343.79C772.812 342.565 772.811 342.897 772.866 341.313C773.023 337.835 778.607 345.785 780.265 347.534Z" fill="white"/>
<path fill-rule="evenodd" clip-rule="evenodd" d="M748.242 302.464C746.006 301.318 735.279 297.597 735.731 296.181C736.11 295.031 738.586 294.643 739.497 295.009C743.001 296.42 746.459 297.971 749.881 299.748C750.128 298.085 750.224 288.825 752.681 290.129C753.885 290.765 754.152 290.925 754.066 292.11C753.918 294.354 753.77 296.599 753.622 298.843C753.471 301.058 753.349 300.491 755.253 301.8C755.978 302.299 756.721 302.803 757.446 303.302C757.901 306.657 757.105 305.386 753.483 304.426C751.632 303.932 752.025 303.934 750.285 304.626C747.783 305.611 745.281 306.596 742.78 307.581C741.325 308.155 741.643 308.253 740.143 307.741C736.86 306.582 746.087 303.543 748.242 302.464Z" fill="white"/>
<path fill-rule="evenodd" clip-rule="evenodd" d="M784.765 298.305C785.213 295.833 785.664 284.487 787.149 284.509C788.36 284.538 789.45 286.796 789.363 287.773C789.029 291.536 788.548 295.295 787.839 299.085C789.503 298.84 798.393 296.245 797.858 298.975C797.598 300.312 797.522 300.614 796.363 300.875C794.172 301.385 791.981 301.894 789.79 302.403C787.627 302.901 788.134 302.62 787.434 304.821C787.166 305.66 786.9 306.517 786.632 307.356C783.554 308.764 784.539 307.634 784.407 303.889C784.344 301.975 784.455 302.352 783.288 300.887C781.62 298.778 779.952 296.67 778.284 294.561C777.312 293.335 777.311 293.668 777.366 292.084C777.523 288.606 783.107 296.555 784.765 298.305Z" fill="white"/>
<path fill-rule="evenodd" clip-rule="evenodd" d="M748.242 257.464C746.006 256.318 735.279 252.597 735.731 251.181C736.11 250.031 738.586 249.643 739.497 250.009C743.001 251.42 746.459 252.971 749.881 254.748C750.128 253.085 750.224 243.825 752.681 245.129C753.885 245.765 754.152 245.925 754.066 247.11C753.918 249.355 753.77 251.599 753.622 253.843C753.471 256.058 753.349 255.491 755.253 256.8C755.978 257.299 756.721 257.803 757.446 258.302C757.901 261.657 757.105 260.386 753.483 259.426C751.632 258.932 752.025 258.934 750.285 259.626C747.783 260.611 745.281 261.596 742.78 262.581C741.325 263.155 741.643 263.253 740.143 262.741C736.86 261.582 746.087 258.543 748.242 257.464Z" fill="white"/>
<path fill-rule="evenodd" clip-rule="evenodd" d="M784.765 253.305C785.213 250.833 785.664 239.487 787.149 239.509C788.36 239.538 789.45 241.796 789.363 242.773C789.029 246.536 788.548 250.295 787.839 254.085C789.503 253.84 798.393 251.245 797.858 253.975C797.598 255.312 797.522 255.614 796.363 255.875C794.172 256.385 791.981 256.894 789.79 257.403C787.627 257.901 788.134 257.62 787.434 259.821C787.166 260.66 786.9 261.517 786.632 262.356C783.554 263.764 784.539 262.634 784.407 258.889C784.344 256.975 784.455 257.352 783.288 255.887C781.62 253.778 779.952 251.67 778.284 249.561C777.312 248.335 777.311 248.668 777.366 247.084C777.523 243.606 783.107 251.555 784.765 253.305Z" fill="white"/>
<path fill-rule="evenodd" clip-rule="evenodd" d="M735.23 211.668C732.816 210.971 721.576 209.367 721.748 207.892C721.901 206.69 724.257 205.836 725.221 206.022C728.93 206.737 732.621 207.599 736.319 208.69C736.244 207.009 734.569 197.902 737.23 198.712C738.533 199.107 738.826 199.213 738.968 200.393C739.251 202.624 739.535 204.855 739.818 207.086C740.093 209.29 739.866 208.756 741.984 209.677C742.791 210.029 743.617 210.381 744.424 210.733C745.511 213.939 744.487 212.843 740.748 212.593C738.837 212.461 739.224 212.389 737.648 213.401C735.38 214.846 733.113 216.29 730.845 217.735C729.527 218.576 729.858 218.611 728.287 218.396C724.844 217.885 733.321 213.14 735.23 211.668Z" fill="white"/>
<path fill-rule="evenodd" clip-rule="evenodd" d="M770.285 200.608C770.253 198.096 768.527 186.873 769.989 186.61C771.184 186.408 772.684 188.416 772.787 189.392C773.177 193.149 773.423 196.931 773.451 200.787C775.038 200.228 783.268 195.983 783.264 198.764C783.265 200.126 783.248 200.438 782.16 200.915C780.107 201.834 778.054 202.752 776.001 203.671C773.972 204.572 774.417 204.2 774.15 206.495C774.047 207.369 773.949 208.261 773.847 209.135C771.094 211.106 771.846 209.808 771.001 206.158C770.572 204.291 770.754 204.639 769.328 203.424C767.288 201.673 765.248 199.922 763.208 198.171C762.02 197.154 762.083 197.481 761.833 195.915C761.323 192.472 768.323 199.208 770.285 200.608Z" fill="white"/>
<path fill-rule="evenodd" clip-rule="evenodd" d="M704.958 171.282C702.545 170.585 691.304 168.982 691.477 167.506C691.629 166.304 693.986 165.45 694.95 165.636C698.659 166.351 702.349 167.213 706.047 168.304C705.973 166.624 704.297 157.516 706.958 158.326C708.261 158.721 708.555 158.827 708.696 160.007C708.98 162.238 709.263 164.469 709.547 166.701C709.822 168.904 709.594 168.37 711.713 169.291C712.52 169.643 713.345 169.995 714.152 170.347C715.24 173.553 714.216 172.457 710.477 172.207C708.566 172.076 708.952 172.003 707.376 173.015C705.109 174.46 702.841 175.904 700.574 177.349C699.256 178.191 699.586 178.225 698.016 178.01C694.572 177.5 703.049 172.754 704.958 171.282Z" fill="white"/>
<path fill-rule="evenodd" clip-rule="evenodd" d="M740.014 160.222C739.981 157.71 738.256 146.488 739.718 146.225C740.912 146.022 742.413 148.03 742.515 149.006C742.906 152.764 743.151 156.545 743.18 160.401C744.766 159.842 752.997 155.597 752.993 158.379C752.993 159.74 752.977 160.052 751.889 160.529C749.836 161.448 747.782 162.366 745.729 163.285C743.7 164.187 744.145 163.814 743.878 166.109C743.776 166.983 743.678 167.875 743.575 168.75C740.823 170.72 741.574 169.422 740.729 165.772C740.301 163.905 740.482 164.253 739.057 163.039C737.017 161.288 734.976 159.537 732.936 157.786C731.749 156.768 731.811 157.095 731.562 155.529C731.052 152.086 738.052 158.822 740.014 160.222Z" fill="white"/>
<path fill-rule="evenodd" clip-rule="evenodd" d="M665.392 139.651C662.909 139.266 651.556 139.102 651.54 137.617C651.539 136.405 653.768 135.259 654.747 135.321C658.518 135.56 662.287 135.946 666.094 136.559C665.807 134.902 662.989 126.08 665.731 126.546C667.074 126.772 667.378 126.841 667.668 127.993C668.233 130.17 668.797 132.347 669.362 134.524C669.914 136.675 669.621 136.175 671.839 136.819C672.684 137.065 673.547 137.31 674.393 137.557C675.878 140.598 674.723 139.642 670.983 139.868C669.071 139.98 669.445 139.859 668.01 141.063C665.944 142.784 663.878 144.505 661.813 146.226C660.612 147.228 660.945 147.22 659.36 147.206C655.879 147.137 663.685 141.353 665.392 139.651Z" fill="white"/>
<path fill-rule="evenodd" clip-rule="evenodd" d="M698.76 124.231C698.409 121.744 695.273 110.831 696.69 110.384C697.849 110.032 699.592 111.833 699.817 112.788C700.682 116.466 701.405 120.186 701.923 124.006C703.426 123.251 711.051 117.995 711.4 120.755C711.573 122.106 711.596 122.417 710.578 123.029C708.658 124.2 706.738 125.372 704.818 126.544C702.92 127.696 703.314 127.27 703.34 129.58C703.35 130.46 703.366 131.357 703.375 132.238C700.895 134.542 701.475 133.159 700.174 129.645C699.512 127.848 699.736 128.171 698.168 127.146C695.922 125.668 693.676 124.191 691.43 122.713C690.123 121.854 690.227 122.17 689.781 120.649C688.837 117.298 696.636 123.091 698.76 124.231Z" fill="white"/>
<path fill-rule="evenodd" clip-rule="evenodd" d="M614.392 112.651C611.909 112.266 600.556 112.102 600.54 110.617C600.539 109.405 602.768 108.259 603.747 108.321C607.518 108.56 611.287 108.946 615.094 109.559C614.807 107.902 611.989 99.0804 614.731 99.5464C616.074 99.7724 616.378 99.8405 616.668 100.993C617.233 103.17 617.797 105.347 618.362 107.524C618.914 109.675 618.621 109.175 620.839 109.819C621.684 110.065 622.547 110.31 623.393 110.557C624.878 113.598 623.723 112.642 619.983 112.868C618.071 112.98 618.445 112.859 617.01 114.063C614.944 115.784 612.878 117.505 610.813 119.226C609.612 120.228 609.945 120.22 608.36 120.206C604.879 120.137 612.685 114.353 614.392 112.651Z" fill="white"/>
<path fill-rule="evenodd" clip-rule="evenodd" d="M647.76 97.2312C647.409 94.7436 644.273 83.831 645.69 83.3845C646.849 83.0321 648.592 84.833 648.817 85.7885C649.682 89.4659 650.405 93.1856 650.923 97.0065C652.426 96.2507 660.051 90.9955 660.4 93.7552C660.573 95.1057 660.596 95.417 659.578 96.0288C657.658 97.2004 655.738 98.3721 653.818 99.5437C651.92 100.696 652.314 100.27 652.34 102.58C652.35 103.46 652.366 104.357 652.375 105.238C649.895 107.542 650.475 106.159 649.174 102.645C648.512 100.848 648.736 101.171 647.168 100.146C644.922 98.6685 642.676 97.1906 640.43 95.7128C639.123 94.8543 639.227 95.1703 638.781 93.6492C637.837 90.2981 645.636 96.0912 647.76 97.2312Z" fill="white"/>
<path fill-rule="evenodd" clip-rule="evenodd" d="M562.894 92.8517C560.385 92.9735 549.231 95.0959 548.916 93.6439C548.671 92.4575 550.625 90.8865 551.597 90.7498C555.338 90.2261 559.108 89.8464 562.96 89.6811C562.346 88.1155 557.811 80.0411 560.591 79.9461C561.952 79.8976 562.264 79.903 562.78 80.9734C563.771 82.9926 564.762 85.0118 565.752 87.031C566.725 89.0268 566.338 88.5956 568.64 88.7808C569.518 88.8522 570.413 88.9185 571.29 88.9899C573.357 91.6707 572.034 90.9659 568.415 91.9399C566.564 92.434 566.907 92.2405 565.743 93.7082C564.065 95.8092 562.388 97.9102 560.71 100.011C559.736 101.234 560.06 101.16 558.504 101.465C555.081 102.097 561.564 94.8623 562.894 92.8517Z" fill="white"/>
<path fill-rule="evenodd" clip-rule="evenodd" d="M592.48 71.0368C591.636 68.6707 586.37 58.6115 587.668 57.8892C588.733 57.311 590.802 58.7245 591.215 59.6152C592.801 63.0437 594.258 66.5419 595.534 70.1806C596.854 69.1382 603.266 62.4571 604.163 65.0902C604.604 66.3783 604.69 66.6786 603.815 67.4827C602.17 69.0164 600.525 70.5502 598.88 72.084C597.252 73.5941 597.552 73.0979 598.043 75.3552C598.229 76.2156 598.425 77.0914 598.611 77.9518C596.645 80.7075 596.935 79.2364 594.954 76.0559C593.944 74.4282 594.229 74.6994 592.487 74.0114C589.989 73.0154 587.492 72.0193 584.995 71.0233C583.542 70.4452 583.707 70.7339 582.964 69.3335C581.366 66.2406 590.17 70.3473 592.48 71.0368Z" fill="white"/>
<path fill-rule="evenodd" clip-rule="evenodd" d="M512.894 76.8517C510.385 76.9735 499.231 79.0959 498.916 77.6439C498.671 76.4575 500.625 74.8865 501.597 74.7498C505.338 74.2261 509.108 73.8464 512.96 73.6811C512.346 72.1155 507.811 64.0411 510.592 63.9461C511.952 63.8976 512.264 63.903 512.78 64.9734C513.771 66.9926 514.762 69.0118 515.752 71.031C516.725 73.0268 516.338 72.5956 518.64 72.7808C519.518 72.8522 520.413 72.9185 521.29 72.9899C523.357 75.6707 522.034 74.9659 518.415 75.9399C516.564 76.434 516.907 76.2405 515.743 77.7082C514.065 79.8092 512.388 81.9102 510.71 84.0113C509.736 85.2342 510.06 85.16 508.504 85.4646C505.081 86.0968 511.564 78.8623 512.894 76.8517Z" fill="white"/>
<path fill-rule="evenodd" clip-rule="evenodd" d="M542.48 55.0368C541.636 52.6707 536.37 42.6115 537.668 41.8892C538.733 41.311 540.802 42.7245 541.215 43.6152C542.801 47.0437 544.258 50.5419 545.534 54.1806C546.854 53.1382 553.266 46.4571 554.163 49.0902C554.604 50.3783 554.69 50.6786 553.815 51.4827C552.17 53.0164 550.525 54.5502 548.88 56.084C547.252 57.5941 547.552 57.0979 548.043 59.3552C548.229 60.2156 548.425 61.0914 548.611 61.9518C546.645 64.7075 546.935 63.2364 544.954 60.0559C543.944 58.4282 544.229 58.6994 542.487 58.0114C539.989 57.0154 537.492 56.0193 534.995 55.0233C533.542 54.4452 533.707 54.7339 532.964 53.3335C531.366 50.2406 540.17 54.3473 542.48 55.0368Z" fill="white"/>
<path fill-rule="evenodd" clip-rule="evenodd" d="M463.856 60.7453C461.396 61.2561 450.708 65.088 450.171 63.7027C449.745 62.5687 451.43 60.7131 452.369 60.4267C455.983 59.3274 459.648 58.3657 463.428 57.6031C462.577 56.1522 456.842 48.8815 459.573 48.3552C460.91 48.0955 461.219 48.0523 461.895 49.0294C463.188 50.8699 464.481 52.7104 465.773 54.5509C467.045 56.3709 466.595 56.0053 468.898 55.8301C469.776 55.7641 470.671 55.6903 471.548 55.6243C474.007 57.9509 472.59 57.4606 469.167 58.9858C467.416 59.7618 467.724 59.5173 466.803 61.1482C465.473 63.4846 464.142 65.8211 462.812 68.1575C462.04 69.5172 462.348 69.3935 460.859 69.9363C457.576 71.0935 462.855 62.9383 463.856 60.7453Z" fill="white"/>
<path fill-rule="evenodd" clip-rule="evenodd" d="M489.687 34.5931C488.485 32.3871 481.718 23.2697 482.888 22.3543C483.85 21.6175 486.114 22.6917 486.661 23.5074C488.761 26.6473 490.745 29.8762 492.571 33.2722C493.712 32.0371 499.007 24.4397 500.303 26.9012C500.939 28.105 501.07 28.3883 500.331 29.3187C498.945 31.0898 497.558 32.8608 496.172 34.6318C494.799 36.3768 495.018 35.84 495.854 37.9934C496.172 38.8144 496.502 39.6491 496.819 40.47C495.306 43.4981 495.364 41.9997 492.912 39.1662C491.661 37.7154 491.985 37.939 490.157 37.5305C487.535 36.935 484.913 36.3396 482.291 35.7442C480.766 35.3993 480.974 35.6588 480.022 34.391C477.963 31.5843 487.298 34.2713 489.687 34.5931Z" fill="white"/>
<path fill-rule="evenodd" clip-rule="evenodd" d="M412.273 49.0899C409.813 49.6006 399.125 53.4325 398.588 52.0472C398.162 50.9133 399.847 49.0576 400.786 48.7713C404.4 47.6719 408.066 46.7102 411.845 45.9476C410.994 44.4967 405.259 37.2261 407.991 36.6997C409.327 36.4401 409.636 36.3969 410.312 37.374C411.605 39.2145 412.898 41.055 414.191 42.8954C415.463 44.7155 415.013 44.3499 417.316 44.1746C418.194 44.1086 419.088 44.0348 419.966 43.9689C422.425 46.2955 421.008 45.8052 417.585 47.3303C415.834 48.1063 416.142 47.8619 415.22 49.4927C413.89 51.8292 412.56 54.1656 411.23 56.5021C410.457 57.8617 410.766 57.738 409.277 58.2809C405.993 59.4381 411.272 51.2829 412.273 49.0899Z" fill="white"/>
<path fill-rule="evenodd" clip-rule="evenodd" d="M438.105 22.9376C436.903 20.7316 430.136 11.6143 431.306 10.6988C432.267 9.962 434.532 11.0363 435.078 11.8519C437.179 14.9919 439.162 18.2207 440.988 21.6168C442.13 20.3817 447.425 12.7843 448.72 15.2457C449.357 16.4495 449.488 16.7329 448.749 17.6633C447.362 19.4343 445.976 21.2054 444.589 22.9764C443.216 24.7213 443.436 24.1846 444.271 26.338C444.589 27.1589 444.919 27.9936 445.237 28.8146C443.723 31.8426 443.782 30.3442 441.329 27.5107C440.079 26.0599 440.402 26.2836 438.574 25.875C435.952 25.2796 433.33 24.6842 430.709 24.0888C429.183 23.7438 429.391 24.0033 428.44 22.7355C426.38 19.9289 435.716 22.6158 438.105 22.9376Z" fill="white"/>
<path fill-rule="evenodd" clip-rule="evenodd" d="M362.385 42.5837C360.028 43.4521 350.022 48.8203 349.287 47.5295C348.698 46.4709 350.09 44.3868 350.977 43.9649C354.389 42.3439 357.872 40.8515 361.498 39.5391C360.442 38.2298 353.696 31.8858 356.32 30.9618C357.603 30.5076 357.903 30.4193 358.716 31.2858C360.266 32.9152 361.816 34.5446 363.367 36.174C364.894 37.7863 364.394 37.4911 366.646 36.9777C367.505 36.7828 368.379 36.5777 369.237 36.3828C372.013 38.3208 370.539 38.0452 367.379 40.059C365.761 41.0851 366.03 40.7979 365.359 42.5469C364.389 45.0542 363.418 47.5615 362.448 50.0687C361.884 51.5275 362.171 51.3596 360.779 52.1165C357.702 53.7458 361.719 44.9004 362.385 42.5837Z" fill="white"/>
<path fill-rule="evenodd" clip-rule="evenodd" d="M384.072 12.9036C382.557 10.8993 374.518 2.88118 375.54 1.80296C376.382 0.932243 378.78 1.66034 379.441 2.38633C381.982 5.18172 384.421 8.08231 386.728 11.1715C387.675 9.78128 391.79 1.48528 393.435 3.7284C394.242 4.82505 394.413 5.08596 393.82 6.11529C392.71 8.07165 391.6 10.028 390.491 11.9844C389.39 13.9129 389.528 13.3496 390.673 15.356C391.108 16.1211 391.558 16.8979 391.993 17.6629C390.943 20.8812 390.78 19.3907 387.936 16.9504C386.485 15.7001 386.838 15.8736 384.969 15.7395C382.288 15.5377 379.607 15.336 376.926 15.1343C375.367 15.0184 375.611 15.2443 374.483 14.1309C372.031 11.6592 381.661 12.9381 384.072 12.9036Z" fill="white"/>
<path fill-rule="evenodd" clip-rule="evenodd" d="M310.316 46.3644C308.245 47.7867 299.871 55.4541 298.84 54.3842C298.008 53.5034 298.844 51.1405 299.599 50.5133C302.507 48.1017 305.515 45.7972 308.706 43.6322C307.36 42.6233 299.259 38.1365 301.575 36.5947C302.707 35.8384 302.975 35.679 303.976 36.3185C305.88 37.5158 307.785 38.7131 309.689 39.9103C311.565 41.0969 311.009 40.9338 313.065 39.8814C313.849 39.481 314.645 39.0671 315.429 38.6667C318.597 39.8613 317.1 39.9572 314.534 42.6875C313.219 44.0803 313.408 43.7359 313.189 45.5961C312.866 48.2652 312.543 50.9343 312.22 53.6034C312.034 55.156 312.271 54.9225 311.107 55.9991C308.527 58.3361 310.241 48.7738 310.316 46.3644Z" fill="white"/>
<path fill-rule="evenodd" clip-rule="evenodd" d="M324.023 12.2567C322.061 10.6874 312.295 4.89665 313.019 3.59989C313.621 2.54853 316.125 2.66339 316.944 3.20423C320.096 5.28755 323.174 7.49809 326.171 9.92364C326.746 8.34307 328.69 -0.710912 330.838 1.05782C331.89 1.9219 332.12 2.13256 331.798 3.27637C331.205 5.4458 330.611 7.61523 330.018 9.78466C329.426 11.9248 329.421 11.345 331.025 13.0076C331.635 13.6418 332.262 14.2839 332.873 14.9181C332.648 18.2958 332.122 16.8915 328.765 15.2269C327.051 14.3727 327.435 14.4539 325.592 14.7841C322.944 15.249 320.296 15.7139 317.647 16.1789C316.107 16.4506 316.4 16.6095 315.032 15.8084C312.047 14.0167 321.695 12.8839 324.023 12.2567Z" fill="white"/>
<path fill-rule="evenodd" clip-rule="evenodd" d="M270.018 58.5324C268.622 60.6214 263.69 70.8481 262.335 70.2369C261.236 69.7274 261.136 67.2229 261.605 66.3603C263.411 63.0421 265.349 59.7863 267.509 56.5922C265.885 56.1545 256.698 54.9928 258.276 52.702C259.047 51.5797 259.237 51.3321 260.404 51.5546C262.617 51.9602 264.829 52.3658 267.041 52.7714C269.224 53.1771 268.647 53.2321 270.166 51.492C270.746 50.8294 271.332 50.1496 271.911 49.487C275.296 49.4214 273.942 50.0656 272.571 53.5532C271.867 55.3343 271.915 54.9443 272.402 56.7529C273.092 59.3514 273.782 61.9499 274.472 64.5484C274.874 66.0594 275.008 65.7548 274.327 67.1862C272.797 70.3135 270.842 60.7976 270.018 58.5324Z" fill="white"/>
<path fill-rule="evenodd" clip-rule="evenodd" d="M270.095 21.7735C267.691 21.0438 256.473 19.289 256.666 17.8158C256.835 16.6162 259.202 15.7941 260.164 15.9925C263.863 16.7583 267.541 17.6694 271.225 18.8101C271.172 17.1289 269.62 7.99959 272.27 8.8457C273.567 9.25786 273.859 9.36803 273.985 10.5496C274.238 12.7844 274.492 15.0192 274.745 17.2541C274.99 19.4609 274.77 18.9244 276.876 19.8736C277.678 20.2361 278.499 20.5997 279.301 20.9622C280.345 24.1823 279.336 23.0732 275.601 22.7727C273.692 22.6153 274.079 22.5481 272.49 23.5386C270.203 24.9527 267.916 26.3667 265.63 27.7807C264.3 28.6043 264.63 28.6435 263.063 28.4069C259.627 27.8502 268.166 23.2193 270.095 21.7735Z" fill="white"/>
<path fill-rule="evenodd" clip-rule="evenodd" d="M236.966 87.1384C236.489 89.605 235.906 100.944 234.421 100.906C233.21 100.862 232.147 98.592 232.245 97.6152C232.623 93.8565 233.149 90.1037 233.902 86.3221C232.235 86.5481 223.315 89.0381 223.883 86.3148C224.158 84.9814 224.237 84.6795 225.4 84.4322C227.596 83.9486 229.793 83.465 231.989 82.9814C234.159 82.5093 233.648 82.7838 234.374 80.5909C234.651 79.7555 234.928 78.9016 235.205 78.0662C238.3 76.6939 237.301 77.8126 237.39 81.5589C237.431 83.4737 237.324 83.0956 238.474 84.5741C240.117 86.702 241.76 88.8299 243.403 90.9578C244.36 92.1947 244.365 91.8622 244.292 93.4456C244.094 96.9213 238.604 88.9071 236.966 87.1384Z" fill="white"/>
<path fill-rule="evenodd" clip-rule="evenodd" d="M222.79 53.2229C220.291 53.4821 209.27 56.2124 208.876 54.7799C208.567 53.6086 210.431 51.933 211.394 51.7432C215.101 51.0153 218.845 50.4296 222.682 50.0535C221.983 48.524 217.013 40.7101 219.784 40.4629C221.139 40.3399 221.451 40.3282 222.025 41.3687C223.125 43.3307 224.225 45.2925 225.325 47.2545C226.406 49.1939 225.995 48.7846 228.304 48.8434C229.184 48.8666 230.082 48.8837 230.962 48.9069C233.172 51.4705 231.812 50.8393 228.252 52.0101C226.432 52.6048 226.763 52.3928 225.681 53.9221C224.121 56.1119 222.561 58.3017 221.002 60.4915C220.095 61.7659 220.415 61.6741 218.878 62.0634C215.495 62.8823 221.572 55.3034 222.79 53.2229Z" fill="white"/>
<path fill-rule="evenodd" clip-rule="evenodd" d="M222.649 128.94C223.494 131.306 228.762 141.364 227.464 142.086C226.4 142.665 224.329 141.251 223.916 140.361C222.329 136.933 220.872 133.435 219.596 129.796C218.276 130.839 211.865 137.522 210.967 134.889C210.526 133.601 210.44 133.301 211.315 132.496C212.96 130.962 214.604 129.428 216.249 127.894C217.877 126.383 217.576 126.88 217.085 124.623C216.899 123.762 216.703 122.886 216.516 122.026C218.482 119.27 218.192 120.741 220.174 123.921C221.184 125.549 220.899 125.277 222.642 125.965C225.139 126.96 227.637 127.956 230.134 128.951C231.587 129.529 231.422 129.241 232.165 130.641C233.764 133.733 224.959 129.629 222.649 128.94Z" fill="white"/>
<path fill-rule="evenodd" clip-rule="evenodd" d="M193.186 106.959C191.167 108.453 183.069 116.412 182.001 115.38C181.139 114.529 181.891 112.138 182.623 111.484C185.444 108.971 188.368 106.562 191.48 104.285C190.1 103.325 181.845 99.1273 184.104 97.5045C185.209 96.7086 185.472 96.5398 186.495 97.1435C188.44 98.2726 190.385 99.4017 192.331 100.531C194.248 101.65 193.686 101.507 195.704 100.382C196.473 99.9546 197.255 99.5127 198.024 99.0848C201.232 100.167 199.74 100.315 197.271 103.135C196.006 104.573 196.183 104.222 196.031 106.089C195.802 108.768 195.574 111.447 195.346 114.126C195.214 115.684 195.442 115.442 194.318 116.559C191.822 118.986 193.197 109.369 193.186 106.959Z" fill="white"/>
<path fill-rule="evenodd" clip-rule="evenodd" d="M202.649 168.94C203.494 171.306 208.762 181.364 207.464 182.086C206.4 182.665 204.329 181.251 203.916 180.361C202.329 176.933 200.872 173.435 199.596 169.796C198.276 170.839 191.865 177.522 190.967 174.889C190.526 173.601 190.44 173.301 191.315 172.496C192.96 170.962 194.604 169.428 196.249 167.894C197.877 166.383 197.576 166.88 197.085 164.623C196.899 163.762 196.703 162.886 196.516 162.026C198.482 159.27 198.192 160.741 200.174 163.921C201.184 165.549 200.899 165.277 202.642 165.965C205.139 166.96 207.637 167.956 210.134 168.951C211.587 169.529 211.422 169.241 212.165 170.641C213.764 173.733 204.959 169.629 202.649 168.94Z" fill="white"/>
<path fill-rule="evenodd" clip-rule="evenodd" d="M173.186 146.959C171.167 148.453 163.069 156.412 162.001 155.38C161.139 154.529 161.891 152.138 162.623 151.484C165.444 148.971 168.368 146.562 171.48 144.285C170.1 143.325 161.845 139.127 164.104 137.505C165.209 136.709 165.472 136.54 166.495 137.143C168.44 138.273 170.385 139.402 172.331 140.531C174.248 141.65 173.686 141.507 175.704 140.382C176.473 139.955 177.255 139.513 178.024 139.085C181.232 140.167 179.74 140.315 177.271 143.135C176.006 144.573 176.183 144.222 176.031 146.089C175.802 148.768 175.574 151.447 175.346 154.126C175.214 155.684 175.442 155.442 174.318 156.559C171.822 158.986 173.197 149.369 173.186 146.959Z" fill="white"/>
<path fill-rule="evenodd" clip-rule="evenodd" d="M163.58 206.664C163.948 209.149 167.156 220.041 165.742 220.496C164.585 220.856 162.83 219.067 162.598 218.113C161.71 214.441 160.961 210.727 160.419 206.909C158.921 207.675 151.331 212.98 150.963 210.223C150.781 208.873 150.756 208.562 151.771 207.944C153.683 206.76 155.595 205.575 157.507 204.391C159.398 203.227 159.007 203.655 158.965 201.345C158.95 200.465 158.928 199.568 158.913 198.688C161.378 196.367 160.806 197.754 162.131 201.259C162.804 203.052 162.578 202.731 164.153 203.745C166.409 205.208 168.664 206.671 170.92 208.134C172.233 208.984 172.127 208.668 172.583 210.186C173.548 213.531 165.712 207.79 163.58 206.664Z" fill="white"/>
<path fill-rule="evenodd" clip-rule="evenodd" d="M138.965 179.363C136.693 180.436 127.2 186.664 126.354 185.443C125.674 184.441 126.877 182.242 127.723 181.744C130.979 179.829 134.317 178.035 137.813 176.409C136.646 175.197 129.368 169.472 131.9 168.321C133.138 167.755 133.429 167.641 134.315 168.432C136.003 169.919 137.691 171.405 139.379 172.892C141.041 174.363 140.518 174.113 142.716 173.404C143.554 173.134 144.407 172.853 145.245 172.583C148.18 174.269 146.688 174.124 143.717 176.409C142.196 177.573 142.438 177.263 141.925 179.065C141.179 181.648 140.433 184.231 139.687 186.814C139.254 188.316 139.525 188.124 138.205 189C135.284 190.894 138.506 181.73 138.965 179.363Z" fill="white"/>
<path fill-rule="evenodd" clip-rule="evenodd" d="M123.469 229.956C123.495 232.468 125.187 243.695 123.724 243.954C122.529 244.153 121.034 242.141 120.935 241.164C120.555 237.406 120.321 233.624 120.304 229.768C118.716 230.322 110.473 234.543 110.485 231.761C110.489 230.4 110.506 230.088 111.595 229.614C113.651 228.701 115.707 227.789 117.763 226.876C119.794 225.98 119.349 226.351 119.622 224.058C119.727 223.184 119.828 222.292 119.933 221.418C122.691 219.455 121.936 220.751 122.77 224.404C123.193 226.272 123.013 225.923 124.435 227.142C126.47 228.899 128.505 230.656 130.54 232.413C131.724 233.434 131.663 233.107 131.907 234.673C132.408 238.118 125.427 231.362 123.469 229.956Z" fill="white"/>
<path fill-rule="evenodd" clip-rule="evenodd" d="M102.807 199.554C100.41 200.307 90.1559 205.183 89.4841 203.858C88.9471 202.772 90.4391 200.758 91.345 200.379C94.8319 198.926 98.3834 197.604 102.068 196.47C101.077 195.111 94.6476 188.446 97.3132 187.651C98.6173 187.26 98.9206 187.186 99.6906 188.091C101.16 189.794 102.629 191.497 104.099 193.199C105.545 194.884 105.061 194.565 107.336 194.161C108.202 194.008 109.085 193.846 109.952 193.693C112.63 195.764 111.171 195.417 107.917 197.275C106.252 198.221 106.534 197.947 105.779 199.662C104.688 202.119 103.597 204.576 102.506 207.033C101.872 208.463 102.167 208.309 100.739 208.997C97.5872 210.475 102.029 201.835 102.807 199.554Z" fill="white"/>
<path fill-rule="evenodd" clip-rule="evenodd" d="M73.9711 246.624C73.5598 249.103 73.2766 260.453 71.791 260.454C70.5796 260.442 69.457 258.201 69.5288 257.222C69.8077 253.455 70.2335 249.69 70.8862 245.889C69.226 246.159 60.3756 248.885 60.8704 246.147C61.1106 244.807 61.1819 244.503 62.3371 244.225C64.5201 243.684 66.7031 243.142 68.8861 242.6C71.0424 242.071 70.539 242.359 71.2067 240.148C71.462 239.305 71.716 238.444 71.9712 237.602C75.0284 236.148 74.0597 237.293 74.2469 241.036C74.3387 242.949 74.2218 242.573 75.4104 244.021C77.1094 246.105 78.8084 248.188 80.5074 250.272C81.4967 251.483 81.4927 251.151 81.4615 252.736C81.3559 256.215 75.6552 248.349 73.9711 246.624Z" fill="white"/>
<path fill-rule="evenodd" clip-rule="evenodd" d="M58.9026 213.096C56.4115 213.421 45.4665 216.442 45.035 215.02C44.6948 213.858 46.5139 212.133 47.4717 211.918C51.158 211.092 54.8851 210.408 58.7112 209.93C57.9713 208.42 52.7965 200.74 55.5598 200.42C56.912 200.261 57.2235 200.241 57.8246 201.266C58.976 203.198 60.1274 205.13 61.2788 207.062C62.4107 208.972 61.9892 208.574 64.2991 208.572C65.1794 208.572 66.0769 208.565 66.9572 208.565C69.2351 211.069 67.8587 210.474 64.3312 211.739C62.5269 212.382 62.8521 212.161 61.8114 213.718C60.31 215.949 58.8086 218.179 57.3072 220.409C56.4351 221.707 56.7522 221.607 55.2264 222.037C51.8657 222.945 57.7404 215.208 58.9026 213.096Z" fill="white"/>
<path fill-rule="evenodd" clip-rule="evenodd" d="M21.5233 249.043C20.5886 251.375 17.871 262.399 16.4199 262.08C15.2394 261.809 14.625 259.378 14.9057 258.438C15.9883 254.819 17.2138 251.233 18.6685 247.662C16.9891 247.569 7.75979 248.327 8.83172 245.76C9.35446 244.503 9.48945 244.221 10.6774 244.198C12.9258 244.139 15.1742 244.079 17.4226 244.02C19.6423 243.967 19.0888 244.139 20.2164 242.124C20.6468 241.356 21.08 240.57 21.5105 239.802C24.8087 239.039 23.6166 239.949 22.9945 243.644C22.6727 245.532 22.6392 245.141 23.4887 246.81C24.6998 249.211 25.911 251.611 27.1221 254.011C27.8278 255.407 27.8954 255.081 27.5242 256.622C26.6727 259.998 22.797 251.09 21.5233 249.043Z" fill="white"/>
<path fill-rule="evenodd" clip-rule="evenodd" d="M14.0178 213.058C11.5151 212.84 0.176503 213.437 0.0607719 211.956C-0.0213906 210.747 2.12598 209.454 3.10766 209.45C6.8853 209.436 10.6724 209.569 14.5117 209.926C14.1139 208.292 10.7118 199.679 13.4793 199.96C14.834 200.096 15.1425 200.143 15.5091 201.274C16.218 203.408 16.927 205.543 17.6359 207.677C18.3306 209.786 18.0046 209.306 20.261 209.801C21.1207 209.99 21.9986 210.177 22.8583 210.366C24.5444 213.301 23.3281 212.424 19.6112 212.901C17.7109 213.14 18.0759 212.995 16.7247 214.292C14.7788 216.147 12.8329 218.002 10.887 219.858C9.75618 220.938 10.0873 220.908 8.50487 221C5.02746 221.164 12.4287 214.871 14.0178 213.058Z" fill="white"/>
<path fill-rule="evenodd" clip-rule="evenodd" d="M286.391 412.561V421.091C255.46 421.091 229.795 401.17 218.937 372.203L220.941 371.459C230.539 397.086 259.028 412.561 286.391 412.561Z" fill="white"/>
<path fill-rule="evenodd" clip-rule="evenodd" d="M285.171 253.171C258.17 254.487 233.135 265.02 219.701 291.582C221.476 263.685 226.571 230.196 234.566 211C237.696 233.288 245.252 246.168 258.323 247.332C282.977 230.94 303.051 231.627 324.117 237.428C290.857 240.92 286.43 246.702 291.029 245.767C310.702 241.76 335.528 250.518 337.054 251.053C299.654 254.125 345.927 279.122 377.87 255.251C382.24 259.907 380.713 274.275 374.798 283.854H371.707C373.042 276.412 372.47 267.845 369.97 266.681C331.368 282.919 320.491 251.453 285.171 253.171Z" fill="white"/>
<path fill-rule="evenodd" clip-rule="evenodd" d="M342.873 417.273C340.088 413.037 324.841 395.825 327.188 393.841C329.077 392.238 333.943 394.089 335.184 395.634C339.954 401.588 344.476 407.751 348.712 414.239C350.926 411.625 360.982 395.806 363.978 400.519C365.447 402.809 365.753 403.382 364.36 405.328C361.707 409.049 359.036 412.751 356.383 416.472C353.75 420.135 354.132 419.029 356.154 423.188C356.937 424.791 357.7 426.394 358.482 427.978C355.715 434.218 355.639 431.222 350.182 425.917C347.396 423.208 348.102 423.608 344.247 423.036C338.714 422.215 333.199 421.376 327.665 420.555C324.44 420.078 324.918 420.574 322.78 418.17C318.086 412.884 337.855 416.949 342.873 417.273Z" fill="white"/>
<path fill-rule="evenodd" clip-rule="evenodd" d="M322.628 304.444C316.025 304.444 309.9 306.371 304.71 309.672C299.844 294.101 285.38 283.301 268.817 283.301C248.037 283.301 231.207 300.15 231.207 320.911C231.207 340.508 246.186 356.594 265.325 358.35H265.287C278.93 365.639 284.941 372.26 289.311 388.556L291.391 389.51C302.611 375.638 309.366 371.669 322.628 371.554C341.156 371.554 356.192 356.537 356.192 337.989C356.192 319.48 341.156 304.444 322.628 304.444ZM239.221 322.476C239.221 305.264 253.17 291.315 270.382 291.315C284.044 291.315 296.047 300.227 300.092 313.183C293.337 319.327 289.082 328.143 289.082 337.989C289.082 340.928 289.502 343.752 290.208 346.462C284.636 351.06 277.652 353.617 270.401 353.617C253.17 353.636 239.221 339.688 239.221 322.476ZM303.26 365.41C299.004 367.089 295.303 369.856 292.612 374.626C291.505 367.929 288.452 361.632 282.689 355.869L282.556 355.888C285.781 354.629 288.815 352.911 291.601 350.774C294.043 356.709 298.146 361.784 303.336 365.429L303.26 365.41ZM322.952 364.818C307.19 364.818 294.425 352.053 294.425 336.291C294.425 320.53 307.19 307.764 322.952 307.764C338.714 307.764 351.479 320.53 351.479 336.291C351.498 352.034 338.714 364.818 322.952 364.818Z" fill="white"/>
<path d="M313.297 315.338C311.714 315.491 312.019 316.541 311.446 318.926C310.836 321.788 315.454 319.479 316.179 317.208C316.732 315.529 315.167 315.644 313.297 315.338Z" fill="white"/>
<path d="M318.659 308.852C311.847 308.852 305.645 311.618 301.142 316.083C298.718 303.47 287.594 293.872 274.294 293.872C259.219 293.872 246.931 306.161 246.931 321.236C246.931 336.31 259.219 348.599 274.294 348.599C282.27 348.599 289.445 345.126 294.463 339.649C297.116 350.583 306.962 358.75 318.678 358.75C332.417 358.75 343.618 347.549 343.618 333.81C343.599 320.052 332.398 308.852 318.659 308.852ZM275.61 311.351C275.057 311.676 274.466 311.924 273.855 312.095C272.042 312.992 270.019 313.164 268.149 312.038C264.696 311.046 262.215 308.413 264.142 305.169C264.161 304.711 264.238 304.272 264.352 303.871C264.371 302.497 264.867 301.429 265.669 300.627C266.604 298.91 268.474 297.555 271.565 297.078C274.294 296.639 276.355 297.212 277.786 298.318C279.408 298.757 280.076 300.15 280.037 301.906C280.934 305.417 279.331 309.787 275.61 311.351ZM321.12 321.923C320.567 323.373 318.888 324.46 316.999 324.957C316.808 325.052 316.636 325.147 316.445 325.224C310.931 327.742 308.889 324.651 309.213 321.274C309.137 320.797 309.118 320.262 309.137 319.671C308.794 318.354 308.927 317.018 309.843 316.045C311.141 312.878 314.003 312.592 316.503 313.736C317.037 313.775 317.571 314.004 318.067 314.442C321.369 315.53 323.83 319.079 321.12 321.923Z" fill="white"/>
<path d="M267.348 304.825C268.779 306.218 270.248 304.978 271.451 305.512C274.923 307.077 276.793 301.734 274.027 299.024C271.412 296.83 266.337 301.371 267.348 304.825Z" fill="white"/>
<path fill-rule="evenodd" clip-rule="evenodd" d="M202.527 320.377C194.169 325.129 184.934 327.38 175.316 327.228C174.629 327.208 174.019 327.457 173.465 327.857C172.187 323.526 171.481 319.022 171.481 314.481C171.462 308.775 172.034 302.116 176.538 298.013C178.618 296.105 181.632 294.827 184.495 295.037C185.773 295.132 186.594 295.666 187.72 296.105C188.216 296.296 188.445 296.659 188.559 296.888C188.884 299.826 189.857 303.185 192.776 304.368C195.658 305.532 198.119 303.108 198.577 300.246C200.294 289.331 192.471 275.993 180.106 277.195C168.752 278.283 162.093 289.656 160.165 299.788C155.891 322.285 163.657 346.748 178.808 363.616C183.693 369.074 188.063 362.91 188.464 357.873C188.788 353.808 188.502 349.668 187.643 345.622C195.047 344.63 202.184 342.264 208.843 338.638C216.151 334.689 210.809 315.683 202.527 320.377ZM188.597 296.964C188.635 297.078 188.635 297.117 188.597 296.964V296.964ZM188.502 296.181C188.502 296.048 188.483 295.914 188.464 295.762C188.483 295.895 188.483 296.029 188.502 296.181Z" fill="white"/>
<path fill-rule="evenodd" clip-rule="evenodd" d="M419.658 323.659C415.06 320.244 409.335 318.832 403.668 318.984C397.695 319.137 391.093 321.713 385.139 320.587C384.605 320.492 383.88 320.339 383.384 320.034C383.327 319.843 383.269 319.576 383.212 319.194C382.888 317.095 382.812 314.977 383.441 312.916C384.224 310.378 385.979 307.936 388.173 306.429C389.242 305.684 390.826 304.883 392.123 304.673C393.707 304.425 394.604 305.57 393.402 303.814C394.814 305.856 397.447 308.222 400.004 306.562C402.389 305.016 402.218 300.914 401.111 298.643C398.001 292.384 392.257 288.263 385.063 289.923C378.671 291.392 374.091 297.098 372.221 303.127C368.138 316.179 373.481 335.318 389.109 336.673C395.577 337.227 401.951 334.956 408.419 335.032C411.243 335.07 413.629 335.624 416.109 336.959C415.67 336.711 416.186 337.131 416.624 337.436C416.586 337.494 416.567 337.551 416.529 337.627C415.27 339.783 414.525 341.653 412.77 343.523C410.556 345.871 407.999 347.931 405.214 349.553C399.794 352.721 394.127 354.267 388.04 354.992C387.391 355.011 386.723 355.068 386.055 355.202C376.744 356.9 381.8 374.016 389.986 373.806C402.237 373.482 415.193 367.032 422.864 357.453C431.146 347.073 430.993 332.094 419.658 323.659ZM383.384 320.091C383.67 320.396 383.575 320.74 383.384 320.091V320.091Z" fill="white"/>
<path fill-rule="evenodd" clip-rule="evenodd" d="M476.599 307.554C474.195 297.955 465.417 292.002 455.571 294.826C446.565 297.402 440.268 305.894 438.092 314.671C436.776 319.976 436.738 325.338 437.844 330.681C438.817 335.394 440.688 341.004 445.63 342.588C449.809 343.923 451.431 336.367 451.45 334.02C451.488 329.345 448.454 324.193 449.332 319.919C450.076 316.255 453.968 313.164 457.976 312.572C459.941 312.286 462.479 312.458 464.063 313.812C465.475 315.015 465.437 316.541 465.551 318.297C465.99 325.033 465.284 331.444 464.215 338.104C463.681 341.424 464.578 346.843 468.318 348.007C472.268 349.228 474.672 345.316 475.951 342.206L476.332 341.252C476.79 340.145 477.019 338.638 476.962 337.092C478.603 327.589 478.927 316.751 476.599 307.554Z" fill="white"/>
<path fill-rule="evenodd" clip-rule="evenodd" d="M512.472 322.018C507.511 319.595 501.252 317.591 495.508 318.24C495.566 314.004 495.413 309.634 494.116 305.894C493.467 304.005 492.494 301.983 490.166 302.116C488.067 302.231 486.349 304.52 485.872 306.429C484.441 312.172 484.804 318.145 484.498 324.022C484.422 325.529 484.327 327.018 484.231 328.525C483.277 332.704 483.392 337.436 483.163 341.386C482.972 344.649 483.43 350.164 487.666 350.736C491.597 351.271 494.192 346.081 494.459 342.894C494.65 340.547 494.802 338.181 494.955 335.815C496.711 335.757 499.249 336.253 500.203 336.463C503.103 337.093 505.794 338.295 508.618 339.154C512.205 340.242 514.781 334.765 515.334 332.265C516.002 329.136 515.907 323.698 512.472 322.018Z" fill="white"/>
<path fill-rule="evenodd" clip-rule="evenodd" d="M579.774 310.014C574.068 304.862 566.531 304.214 559.719 306.427C559.127 303.336 558.459 300.264 557.696 297.23C557.124 294.959 555.883 291.524 552.983 291.524C550.388 291.524 548.938 294.558 549.109 296.905C549.415 300.798 549.739 304.672 550.082 308.564C547.774 308.373 545.121 308.927 542.183 310.358C525.066 318.62 516.289 344.266 534.626 356.307C540.694 360.295 547.621 360.562 554.204 358.768C555.082 360.467 556.379 361.821 558.192 362.165C562.047 362.89 563.84 358.501 563.84 355.372C563.84 355.143 563.84 354.914 563.84 354.685C571.836 350.182 581.338 342.797 585.212 334.706C589.162 326.387 586.452 316.044 579.774 310.014ZM552.563 342.911C548.689 344.247 544.701 344.629 540.866 343.369C535.676 341.671 533.825 339.229 536.668 334.382C539.282 329.936 543.576 326.196 548.003 323.677C550.617 322.189 551.037 320.891 551.342 323.047C551.895 329.65 552.334 336.271 552.563 342.911ZM575.862 325.146C575.442 326.73 572.847 328.6 571.645 329.783C569.26 332.092 566.378 334.706 563.192 337.053C562.905 331.787 562.505 326.501 561.913 321.254C565.52 320.3 569.298 319.803 572.561 321.177C573.744 321.654 574.793 322.341 575.69 323.257C576.911 324.059 576.969 324.688 575.862 325.146Z" fill="white"/>
<path fill-rule="evenodd" clip-rule="evenodd" d="M634.634 331.997C633.356 320.72 627.097 308.164 614.617 311.98C612.804 312.534 611.183 313.373 609.732 314.423C609.217 307.439 608.301 302.726 604.428 297.44C602.5 294.807 599.142 294.597 597.348 297.612C594.448 302.497 597.94 309.977 598.608 315.835C599.046 319.842 599.199 323.925 599.39 327.952C599.524 331.119 599.6 334.287 599.657 337.454C598.665 343.79 598.875 350.239 599.81 355.086C600.401 358.158 602.634 361.765 606.183 361.116C609.847 360.448 610.839 355.525 610.896 352.51C610.954 348.808 610.954 345.087 610.896 341.385C611.621 338.084 613.072 331.787 615.495 329.898C617.632 328.238 620.647 328.295 622.536 330.451C624.559 332.741 623.547 336.977 623.414 339.744C623.185 344.61 629.387 352.186 633.088 345.526C633.604 344.496 634.195 343.503 634.901 342.587C636.504 340.202 636.332 335.05 634.634 331.997Z" fill="white"/>
<path fill-rule="evenodd" clip-rule="evenodd" d="M680.258 326.96C680.239 326.884 680.22 326.807 680.201 326.712C680.544 325.968 680.811 325.262 681.04 324.594C683.693 316.694 682.91 302.325 671.843 300.15C668.332 299.463 665.851 302.783 665.26 305.302C663.943 311.065 664.439 316.56 665.469 322.151C661.539 326.044 660.508 325.452 658.657 321.14C655.852 314.595 654.879 306.676 656.883 299.673C656.864 299.711 656.844 299.73 656.806 299.768C657.112 298.452 657.15 297.116 656.997 296.181C656.978 296.066 656.959 295.952 656.94 295.838C656.463 292.651 652.99 287.804 648.429 290.075C643.449 292.555 643.564 299.253 643.258 303.451C642.877 308.699 643.296 314.022 644.499 319.098C646.292 326.655 650.032 339.439 660.127 341.615C663.313 342.302 666.366 341.5 669.133 339.859C669.687 342.378 670.259 344.878 670.908 347.358C671.614 350.087 673.045 353.484 676.461 354.438C679.227 355.22 682.357 353.98 683.368 351.365C683.635 350.679 683.883 350.011 684.151 349.324C685.467 345.889 685.372 342.092 683.025 339.153C682.147 335.089 681.193 331.024 680.258 326.96Z" fill="white"/>
</svg>
