<svg width="360" height="299" viewBox="0 0 360 299" fill="none" xmlns="http://www.w3.org/2000/svg">
<path fill-rule="evenodd" clip-rule="evenodd" d="M91.2556 107.996V112.567C74.6826 112.567 60.9314 101.893 55.114 86.3728L56.1875 85.9741C61.3302 99.7048 76.5945 107.996 91.2556 107.996Z" fill="white"/>
<path fill-rule="evenodd" clip-rule="evenodd" d="M90.602 22.5948C76.1351 23.3003 62.7213 28.9439 55.5237 43.1756C56.4745 28.2282 59.2043 10.2853 63.4881 0C65.1648 11.9415 69.2135 18.8427 76.2169 19.4663C89.4262 10.684 100.182 11.052 111.469 14.1601C93.6487 16.0311 91.2767 19.129 93.7407 18.628C104.282 16.481 117.583 21.1737 118.401 21.46C98.3619 23.1061 123.155 36.4994 140.27 23.7093C142.611 26.2039 141.793 33.9025 138.624 39.0349H136.967C137.683 35.0476 137.376 30.4571 136.037 29.8334C115.354 38.534 109.526 21.6747 90.602 22.5948Z" fill="white"/>
<path fill-rule="evenodd" clip-rule="evenodd" d="M121.518 110.52C120.026 108.25 111.857 99.0284 113.114 97.9651C114.126 97.1063 116.734 98.098 117.398 98.9262C119.954 102.116 122.377 105.418 124.647 108.894C125.833 107.494 131.221 99.0182 132.826 101.543C133.613 102.77 133.777 103.077 133.031 104.12C131.609 106.114 130.178 108.097 128.757 110.091C127.346 112.054 127.55 111.461 128.634 113.69C129.053 114.548 129.462 115.407 129.882 116.256C128.399 119.599 128.358 117.994 125.434 115.152C123.941 113.7 124.32 113.914 122.254 113.608C119.29 113.168 116.335 112.718 113.37 112.279C111.642 112.023 111.898 112.289 110.753 111.001C108.237 108.169 118.829 110.346 121.518 110.52Z" fill="white"/>
<path fill-rule="evenodd" clip-rule="evenodd" d="M110.671 50.0669C107.133 50.0669 103.851 51.0995 101.07 52.8682C98.4633 44.5255 90.7136 38.7388 81.8392 38.7388C70.7054 38.7388 61.6879 47.7665 61.6879 58.8901C61.6879 69.3901 69.7136 78.0089 79.9682 78.9495H79.9478C87.2579 82.855 90.4784 86.4027 92.8197 95.1339L93.9341 95.6451C99.9458 88.2123 103.565 86.0858 110.671 86.0244C120.598 86.0244 128.655 77.9782 128.655 68.0405C128.655 58.1233 120.598 50.0669 110.671 50.0669ZM65.9819 59.7285C65.9819 50.5065 73.4556 43.0328 82.6776 43.0328C89.9979 43.0328 96.4288 47.8074 98.5962 54.7494C94.977 58.0415 92.697 62.765 92.697 68.0405C92.697 69.615 92.9219 71.1282 93.3002 72.58C90.3148 75.0439 86.5729 76.4139 82.6878 76.4139C73.4556 76.4242 65.9819 68.9505 65.9819 59.7285ZM100.293 82.7323C98.0135 83.632 96.03 85.1145 94.5885 87.6705C93.9955 84.0819 92.3596 80.708 89.272 77.6203L89.2004 77.6306C90.9283 76.9558 92.5539 76.0357 94.0466 74.8906C95.3552 78.0702 97.5534 80.7898 100.334 82.7425L100.293 82.7323ZM110.844 82.4154C102.4 82.4154 95.5597 75.5756 95.5597 67.1306C95.5597 58.6857 102.4 51.8458 110.844 51.8458C119.289 51.8458 126.129 58.6857 126.129 67.1306C126.139 75.5654 119.289 82.4154 110.844 82.4154Z" fill="white"/>
<path d="M105.672 55.9043C104.823 55.9861 104.987 56.5485 104.68 57.8265C104.353 59.3602 106.827 58.1231 107.216 56.9063C107.512 56.0066 106.674 56.0679 105.672 55.9043Z" fill="white"/>
<path d="M108.544 52.4284C104.894 52.4284 101.572 53.9108 99.1588 56.3032C97.8604 49.5452 91.8998 44.4026 84.7738 44.4026C76.6969 44.4026 70.1127 50.9868 70.1127 59.0637C70.1127 67.1406 76.6969 73.7248 84.7738 73.7248C89.0474 73.7248 92.8916 71.864 95.5805 68.9298C97.0016 74.7881 102.277 79.1639 108.555 79.1639C115.916 79.1639 121.917 73.1625 121.917 65.8013C121.907 58.4298 115.906 52.4284 108.544 52.4284ZM85.4792 53.7677C85.1827 53.9415 84.8658 54.0744 84.5386 54.1664C83.5674 54.6469 82.4836 54.739 81.4817 54.1358C79.6311 53.6041 78.302 52.1932 79.3347 50.4551C79.3449 50.2098 79.3858 49.9746 79.4471 49.7599C79.4573 49.0238 79.7232 48.4513 80.1526 48.0219C80.6535 47.1017 81.6555 46.3758 83.3118 46.1202C84.7738 45.885 85.878 46.1918 86.6448 46.7847C87.5138 47.0199 87.8716 47.7662 87.8512 48.7069C88.3317 50.5881 87.4729 52.9293 85.4792 53.7677ZM109.863 59.4318C109.567 60.2088 108.667 60.7915 107.655 61.0574C107.553 61.1085 107.461 61.1596 107.358 61.2005C104.404 62.55 103.31 60.8938 103.484 59.0841C103.443 58.8285 103.432 58.5423 103.443 58.2253C103.259 57.5199 103.33 56.8042 103.821 56.2828C104.516 54.5856 106.05 54.4323 107.389 55.0457C107.675 55.0661 107.962 55.1888 108.227 55.424C109.996 56.0067 111.315 57.9084 109.863 59.4318Z" fill="white"/>
<path d="M81.0519 50.2712C81.8187 51.0176 82.606 50.353 83.2502 50.6393C85.1111 51.4777 86.1131 48.6148 84.6305 47.1629C83.2297 45.987 80.5099 48.4205 81.0519 50.2712Z" fill="white"/>
<path fill-rule="evenodd" clip-rule="evenodd" d="M46.3216 58.6033C41.8435 61.1491 36.8951 62.3555 31.7423 62.2738C31.3742 62.2635 31.047 62.3964 30.7505 62.6111C30.0655 60.2903 29.6872 57.8774 29.6872 55.4442C29.677 52.3872 29.9837 48.819 32.3966 46.6209C33.511 45.5985 35.1264 44.9135 36.66 45.026C37.345 45.0771 37.7846 45.3634 38.3878 45.5985C38.6536 45.7008 38.7763 45.895 38.8377 46.0177C39.0115 47.5922 39.5329 49.3916 41.0971 50.0255C42.641 50.6491 43.9599 49.3507 44.2052 47.8171C45.1254 41.969 40.9336 34.8225 34.3085 35.4666C28.2252 36.0494 24.6571 42.1428 23.6245 47.5718C21.3343 59.6258 25.4954 72.7328 33.6132 81.7708C36.2306 84.6948 38.5718 81.3925 38.7865 78.6934C38.9604 76.5157 38.807 74.2971 38.3469 72.1296C42.3138 71.598 46.1375 70.3302 49.7057 68.3876C53.6215 66.2713 50.7588 56.0883 46.3216 58.6033ZM38.8581 46.0586C38.8786 46.1199 38.8786 46.1404 38.8581 46.0586V46.0586ZM38.807 45.6394C38.807 45.5678 38.7968 45.4963 38.7865 45.4145C38.7968 45.4861 38.7968 45.5576 38.807 45.6394Z" fill="white"/>
<path fill-rule="evenodd" clip-rule="evenodd" d="M162.659 60.3618C160.195 58.5317 157.128 57.7751 154.092 57.8569C150.892 57.9387 147.354 59.319 144.164 58.7157C143.878 58.6646 143.489 58.5828 143.224 58.4192C143.193 58.317 143.162 58.1739 143.132 57.9694C142.958 56.8448 142.917 55.7099 143.254 54.6057C143.673 53.246 144.614 51.9373 145.79 51.1296C146.362 50.7308 147.211 50.3015 147.906 50.189C148.755 50.0561 149.235 50.6695 148.591 49.7289C149.348 50.8229 150.759 52.0906 152.129 51.2012C153.407 50.373 153.315 48.1749 152.722 46.9582C151.055 43.6048 147.978 41.3964 144.123 42.2859C140.698 43.0731 138.245 46.1301 137.243 49.3609C135.055 56.354 137.917 66.6086 146.291 67.3345C149.757 67.631 153.171 66.4144 156.637 66.4553C158.151 66.4757 159.429 66.7722 160.758 67.4879C160.522 67.3549 160.799 67.5799 161.034 67.7435C161.013 67.7741 161.003 67.8048 160.983 67.8457C160.308 69.001 159.909 70.0029 158.968 71.0049C157.782 72.2624 156.412 73.3666 154.92 74.2356C152.016 75.9328 148.98 76.761 145.718 77.1495C145.371 77.1597 145.013 77.1904 144.655 77.2619C139.666 78.1719 142.375 87.3427 146.761 87.2302C153.325 87.0564 160.267 83.6008 164.377 78.4684C168.814 72.9066 168.732 64.8808 162.659 60.3618ZM143.224 58.4499C143.377 58.6135 143.326 58.7975 143.224 58.4499V58.4499Z" fill="white"/>
<path fill-rule="evenodd" clip-rule="evenodd" d="M193.168 51.7327C191.88 46.5901 187.177 43.4002 181.901 44.9134C177.076 46.2936 173.702 50.8432 172.536 55.5462C171.831 58.3885 171.81 61.2614 172.403 64.1241C172.925 66.6494 173.927 69.6552 176.575 70.5038C178.814 71.2195 179.683 67.1708 179.693 65.9133C179.713 63.4084 178.088 60.648 178.558 58.3578C178.957 56.3948 181.042 54.7385 183.189 54.4216C184.243 54.2682 185.602 54.3603 186.451 55.0862C187.207 55.7303 187.187 56.5482 187.248 57.4888C187.484 61.0978 187.105 64.5331 186.533 68.1012C186.246 69.8802 186.727 72.7838 188.731 73.4074C190.847 74.0618 192.135 71.9658 192.82 70.2993L193.025 69.7881C193.27 69.1952 193.393 68.3875 193.362 67.5593C194.242 62.4678 194.415 56.6606 193.168 51.7327Z" fill="white"/>
<path fill-rule="evenodd" clip-rule="evenodd" d="M212.388 59.4836C209.73 58.1851 206.377 57.1116 203.299 57.4592C203.33 55.1895 203.248 52.8482 202.553 50.8443C202.205 49.8322 201.684 48.7484 200.437 48.82C199.312 48.8814 198.392 50.1082 198.136 51.1306C197.369 54.208 197.564 57.4081 197.4 60.5571C197.359 61.3647 197.308 62.1622 197.257 62.9699C196.746 65.209 196.807 67.7445 196.684 69.8608C196.582 71.6091 196.828 74.5638 199.097 74.8706C201.203 75.1568 202.594 72.3759 202.737 70.6685C202.839 69.411 202.921 68.1432 203.003 66.8755C203.943 66.8448 205.303 67.1106 205.814 67.2231C207.368 67.5605 208.81 68.2046 210.323 68.6647C212.245 69.2474 213.626 66.3131 213.922 64.9738C214.28 63.2971 214.229 60.3833 212.388 59.4836Z" fill="white"/>
<path fill-rule="evenodd" clip-rule="evenodd" d="M248.448 53.0513C245.391 50.2908 241.353 49.9432 237.703 51.1292C237.386 49.4729 237.028 47.8269 236.619 46.2013C236.312 44.9846 235.648 43.1443 234.094 43.1443C232.703 43.1443 231.926 44.7699 232.018 46.0274C232.182 48.1131 232.356 50.1886 232.54 52.2743C231.303 52.172 229.882 52.4685 228.307 53.2353C219.136 57.6623 214.433 71.4032 224.258 77.8545C227.51 79.9913 231.221 80.1345 234.748 79.1734C235.219 80.0833 235.914 80.8092 236.885 80.9933C238.95 81.3818 239.911 79.0303 239.911 77.3536C239.911 77.2309 239.911 77.1082 239.911 76.9855C244.195 74.5726 249.287 70.616 251.362 66.281C253.478 61.8234 252.027 56.282 248.448 53.0513ZM233.869 70.6773C231.793 71.393 229.657 71.5975 227.602 70.9227C224.821 70.0128 223.829 68.7041 225.352 66.1072C226.753 63.7251 229.053 61.7212 231.425 60.3716C232.826 59.5741 233.051 58.8789 233.215 60.0342C233.511 63.5717 233.746 67.1194 233.869 70.6773ZM246.352 61.1588C246.127 62.0074 244.737 63.0094 244.093 63.6433C242.815 64.8804 241.271 66.281 239.564 67.5386C239.41 64.7168 239.196 61.8848 238.879 59.0732C240.811 58.562 242.835 58.2961 244.584 59.0323C245.218 59.2879 245.78 59.6559 246.26 60.1467C246.915 60.5761 246.945 60.9135 246.352 61.1588Z" fill="white"/>
<path fill-rule="evenodd" clip-rule="evenodd" d="M277.842 64.83C277.157 58.7877 273.804 52.0603 267.117 54.1051C266.146 54.4016 265.277 54.8514 264.5 55.4137C264.224 51.6718 263.733 49.1465 261.658 46.3144C260.625 44.9035 258.826 44.7911 257.865 46.4065C256.311 49.0238 258.182 53.0316 258.539 56.1703C258.775 58.3173 258.856 60.5052 258.959 62.6625C259.03 64.3597 259.071 66.0568 259.102 67.754C258.57 71.1484 258.683 74.604 259.184 77.2009C259.501 78.847 260.697 80.7793 262.598 80.4317C264.561 80.0738 265.093 77.4361 265.124 75.8207C265.154 73.8373 265.154 71.8436 265.124 69.8601C265.512 68.0914 266.289 64.7175 267.588 63.7054C268.733 62.8159 270.348 62.8465 271.36 64.0018C272.444 65.2287 271.902 67.4984 271.831 68.9809C271.708 71.588 275.031 75.6469 277.014 72.0787C277.29 71.5267 277.607 70.995 277.985 70.5043C278.844 69.2263 278.752 66.4658 277.842 64.83Z" fill="white"/>
<path fill-rule="evenodd" clip-rule="evenodd" d="M302.287 62.1308C302.277 62.0899 302.267 62.049 302.256 61.9979C302.44 61.5991 302.584 61.2209 302.706 60.863C304.127 56.6303 303.708 48.9317 297.778 47.7662C295.897 47.3981 294.568 49.1771 294.251 50.5266C293.546 53.6142 293.811 56.5587 294.364 59.5544C292.257 61.64 291.705 61.3231 290.714 59.0125C289.211 55.5057 288.689 51.2628 289.763 47.5106C289.753 47.531 289.742 47.5412 289.722 47.5617C289.885 46.8562 289.906 46.1406 289.824 45.6396C289.814 45.5782 289.804 45.5169 289.793 45.4556C289.538 43.7482 287.677 41.1513 285.234 42.3679C282.565 43.6971 282.627 47.2856 282.463 49.5349C282.258 52.3465 282.483 55.199 283.127 57.9185C284.089 61.9672 286.092 68.8172 291.501 69.9827C293.208 70.3508 294.844 69.9214 296.327 69.0422C296.623 70.3917 296.93 71.731 297.277 73.0602C297.656 74.5222 298.422 76.342 300.253 76.8532C301.735 77.2724 303.412 76.6079 303.954 75.2072C304.097 74.8391 304.23 74.4813 304.373 74.1132C305.078 72.2729 305.027 70.2384 303.77 68.6639C303.299 66.4862 302.788 64.3085 302.287 62.1308Z" fill="white"/>
<path fill-rule="evenodd" clip-rule="evenodd" d="M-26.0457 78.6317C-26.2326 79.9956 -27.9266 85.9824 -27.1491 86.2239C-26.5132 86.4143 -25.562 85.4236 -25.4407 84.8995C-24.9752 82.8825 -24.5869 80.8426 -24.3118 78.7477C-23.4867 79.1585 -19.2968 82.0212 -19.1115 80.5082C-19.0197 79.7678 -19.0076 79.5972 -19.5671 79.2642C-20.6218 78.6265 -21.6765 77.9886 -22.7312 77.3509C-23.7738 76.7239 -23.5571 76.9563 -23.5477 75.6906C-23.5445 75.2082 -23.5377 74.7164 -23.5346 74.2341C-24.8987 72.977 -24.5776 73.7333 -25.283 75.6618C-25.6415 76.6482 -25.5194 76.4708 -26.3765 77.0355C-27.6039 77.8503 -28.8313 78.6652 -30.0587 79.48C-30.773 79.9534 -30.717 79.78 -30.9579 80.6145C-31.4674 82.4529 -27.207 79.261 -26.0457 78.6317Z" fill="white"/>
<path fill-rule="evenodd" clip-rule="evenodd" d="M-12.7173 63.5289C-11.4663 64.1034 -6.22813 67.4608 -5.77154 66.7868C-5.4048 66.2335 -6.07702 65.0358 -6.54339 64.7677C-8.33875 63.7373 -10.1784 62.774 -12.1034 61.9031C-11.471 61.2326 -7.51614 58.0531 -8.91041 57.437C-9.59236 57.1344 -9.75222 57.0734 -10.2331 57.5123C-11.1493 58.3366 -12.0655 59.161 -12.9817 59.9854C-13.8842 60.8014 -13.599 60.6614 -14.8076 60.2853C-15.2683 60.1423 -15.737 59.9932 -16.1977 59.8503C-17.7963 60.7913 -16.9793 60.7032 -15.3383 61.9376C-14.4983 62.5668 -14.6327 62.3985 -14.3408 63.3825C-13.917 64.7935 -13.4931 66.2045 -13.0693 67.6155C-12.8235 68.4364 -12.9732 68.3324 -12.2444 68.805C-10.6328 69.8258 -12.4518 64.8229 -12.7173 63.5289Z" fill="white"/>
<path fill-rule="evenodd" clip-rule="evenodd" d="M-11.7845 105.464C-11.7691 106.841 -12.5654 113.012 -11.7609 113.136C-11.1039 113.231 -10.3085 112.112 -10.2654 111.575C-10.1013 109.512 -10.0168 107.437 -10.0524 105.324C-9.17591 105.61 -4.61099 107.826 -4.64993 106.302C-4.66786 105.556 -4.68105 105.386 -5.2834 105.138C-6.4203 104.662 -7.55717 104.187 -8.69407 103.711C-9.81753 103.244 -9.56899 103.442 -9.74558 102.188C-9.81331 101.711 -9.87885 101.223 -9.94658 100.745C-11.4806 99.7025 -11.0518 100.403 -11.4662 102.415C-11.676 103.443 -11.5814 103.25 -12.3461 103.934C-13.4406 104.92 -14.535 105.907 -15.6294 106.893C-16.2665 107.466 -16.2365 107.286 -16.3523 108.147C-16.5862 110.04 -12.8408 106.257 -11.7845 105.464Z" fill="white"/>
<path fill-rule="evenodd" clip-rule="evenodd" d="M-0.818981 88.5677C0.502888 88.9522 6.17737 91.5039 6.53001 90.7701C6.8115 90.1689 5.97061 89.0829 5.46992 88.8862C3.54268 88.1306 1.58159 87.4481 -0.4505 86.8694C0.0765686 86.1133 3.52152 82.3874 2.05187 81.9827C1.33287 81.7835 1.16582 81.7467 0.754572 82.2514C-0.0306149 83.2014 -0.815796 84.1515 -1.60098 85.1015C-2.37379 86.0412 -2.11226 85.8607 -3.36299 85.6662C-3.83971 85.5925 -4.3252 85.5139 -4.80192 85.4402C-6.245 86.6058 -5.44981 86.3987 -3.64529 87.3786C-2.72195 87.8777 -2.87957 87.7309 -2.4463 88.6614C-1.81982 89.9948 -1.19337 91.3282 -0.566887 92.6616C-0.20319 93.4375 -0.366516 93.3567 0.423779 93.7171C2.16782 94.4901 -0.366293 89.8086 -0.818981 88.5677Z" fill="white"/>
<path fill-rule="evenodd" clip-rule="evenodd" d="M4.22095 130.157C4.23635 131.533 3.44012 137.704 4.24461 137.829C4.9016 137.924 5.69706 136.804 5.74008 136.268C5.90424 134.204 5.98867 132.13 5.95314 130.017C6.82961 130.302 11.3945 132.518 11.3556 130.995C11.3377 130.249 11.3245 130.078 10.7221 129.831C9.58522 129.355 8.44835 128.879 7.31145 128.403C6.18798 127.936 6.43652 128.134 6.25993 126.881C6.1922 126.403 6.12667 125.916 6.05894 125.438C4.52494 124.395 4.95372 125.096 4.53924 127.107C4.32946 128.136 4.42415 127.942 3.65937 128.627C2.56495 129.613 1.47054 130.599 0.376114 131.586C-0.260944 132.159 -0.230991 131.979 -0.346727 132.84C-0.580652 134.733 3.16465 130.95 4.22095 130.157Z" fill="white"/>
<path fill-rule="evenodd" clip-rule="evenodd" d="M15.1865 113.26C16.5084 113.645 22.1829 116.197 22.5355 115.463C22.817 114.862 21.9761 113.776 21.4754 113.579C19.5482 112.823 17.5871 112.141 15.555 111.562C16.0821 110.806 19.527 107.08 18.0574 106.675C17.3384 106.476 17.1713 106.439 16.7601 106.944C15.9749 107.894 15.1897 108.844 14.4045 109.794C13.6317 110.734 13.8933 110.553 12.6425 110.359C12.1658 110.285 11.6803 110.206 11.2036 110.133C9.76048 111.298 10.5557 111.091 12.3602 112.071C13.2836 112.57 13.1259 112.424 13.5592 113.354C14.1857 114.687 14.8121 116.021 15.4386 117.354C15.8023 118.13 15.639 118.049 16.4293 118.41C18.1733 119.183 15.6392 114.501 15.1865 113.26Z" fill="white"/>
<path fill-rule="evenodd" clip-rule="evenodd" d="M18.5961 154.186C18.7048 155.558 18.3283 161.768 19.1394 161.838C19.8013 161.889 20.5191 160.718 20.5257 160.18C20.5497 158.11 20.4934 156.034 20.3148 153.929C21.2086 154.154 25.9132 156.056 25.7711 154.538C25.7027 153.795 25.678 153.626 25.0602 153.42C23.8937 153.022 22.7272 152.624 21.5607 152.227C20.4082 151.837 20.6695 152.017 20.4084 150.779C20.3085 150.307 20.21 149.825 20.1101 149.353C18.509 148.416 18.9843 149.087 18.707 151.121C18.5674 152.162 18.6488 151.962 17.9321 152.697C16.907 153.755 15.8819 154.813 14.8568 155.871C14.2601 156.486 14.2778 156.305 14.2206 157.172C14.1155 159.077 17.596 155.049 18.5961 154.186Z" fill="white"/>
<path fill-rule="evenodd" clip-rule="evenodd" d="M28.3918 136.585C29.7366 136.879 35.571 139.04 35.8731 138.284C36.1132 137.666 35.2007 136.639 34.6878 136.477C32.7138 135.853 30.711 135.305 28.6444 134.866C29.119 134.076 32.3036 130.125 30.8099 129.821C30.079 129.671 29.9099 129.645 29.5338 130.177C28.8148 131.178 28.0957 132.179 27.3767 133.18C26.6693 134.17 26.9181 133.972 25.657 133.863C25.1764 133.821 24.6867 133.776 24.2061 133.734C22.8453 134.995 23.6246 134.735 25.4914 135.59C26.4464 136.025 26.2792 135.89 26.7745 136.789C27.4899 138.077 28.2052 139.365 28.9206 140.652C29.3361 141.402 29.1676 141.332 29.9805 141.638C31.7729 142.291 28.9275 137.792 28.3918 136.585Z" fill="white"/>
<path fill-rule="evenodd" clip-rule="evenodd" d="M34.778 181.698C34.8867 183.07 34.5102 189.28 35.3213 189.35C35.9832 189.401 36.701 188.229 36.7076 187.692C36.7316 185.622 36.6753 183.546 36.4967 181.441C37.3905 181.666 42.0951 183.568 41.953 182.05C41.8846 181.307 41.8599 181.138 41.2421 180.932C40.0756 180.534 38.9091 180.136 37.7426 179.738C36.59 179.349 36.8514 179.529 36.5903 178.291C36.4904 177.819 36.392 177.337 36.2921 176.865C34.6909 175.928 35.1662 176.599 34.8889 178.633C34.7493 179.674 34.8307 179.474 34.114 180.209C33.0889 181.267 32.0639 182.325 31.0388 183.383C30.442 183.998 30.4597 183.817 30.4026 184.684C30.2974 186.588 33.7779 182.56 34.778 181.698Z" fill="white"/>
<path fill-rule="evenodd" clip-rule="evenodd" d="M44.5736 164.097C45.9185 164.391 51.7529 166.552 52.055 165.796C52.2951 165.178 51.3826 164.151 50.8697 163.989C48.8957 163.365 46.8929 162.817 44.8263 162.378C45.3009 161.587 48.4855 157.637 46.9918 157.332C46.261 157.183 46.0918 157.157 45.7157 157.688C44.9967 158.69 44.2777 159.691 43.5587 160.692C42.8513 161.682 43.1 161.484 41.839 161.374C41.3583 161.333 40.8686 161.288 40.388 161.246C39.0272 162.507 39.8066 162.247 41.6733 163.102C42.6283 163.537 42.4611 163.402 42.9564 164.301C43.6718 165.589 44.3872 166.876 45.1026 168.164C45.518 168.914 45.3496 168.844 46.1625 169.15C47.9549 169.803 45.1094 165.304 44.5736 164.097Z" fill="white"/>
<path fill-rule="evenodd" clip-rule="evenodd" d="M54.4109 205.797C54.7827 207.123 55.6137 213.289 56.423 213.201C57.0821 213.122 57.5601 211.835 57.4626 211.305C57.086 209.27 56.6296 207.244 56.0475 205.213C56.9679 205.261 61.9514 206.218 61.5186 204.756C61.3079 204.041 61.251 203.879 60.6051 203.797C59.3837 203.632 58.1623 203.467 56.9409 203.302C55.7347 203.143 56.0261 203.269 55.5306 202.105C55.3413 201.661 55.1516 201.207 54.9624 200.763C53.2104 200.154 53.8063 200.72 53.9275 202.769C53.9915 203.817 54.0328 203.606 53.4717 204.465C52.6704 205.701 51.8692 206.938 51.0679 208.174C50.6012 208.893 50.5836 208.711 50.695 209.573C50.96 211.462 53.5964 206.837 54.4109 205.797Z" fill="white"/>
<path fill-rule="evenodd" clip-rule="evenodd" d="M60.6201 186.635C61.9964 186.664 68.1385 187.657 68.2888 186.857C68.4048 186.203 67.3111 185.372 66.7765 185.312C64.7192 185.082 62.6482 184.932 60.5356 184.9C60.8486 184.033 63.2095 179.541 61.6852 179.531C60.9392 179.525 60.7683 179.533 60.502 180.127C59.99 181.248 59.478 182.369 58.966 183.49C58.4633 184.598 58.6691 184.356 57.4107 184.493C56.9312 184.545 56.4419 184.595 55.9624 184.648C54.8709 186.147 55.5852 185.741 57.5821 186.22C58.6033 186.462 58.413 186.361 59.0727 187.148C60.0235 188.273 60.9743 189.398 61.9251 190.524C62.4776 191.179 62.2989 191.143 63.1556 191.286C65.0404 191.581 61.379 187.716 60.6201 186.635Z" fill="white"/>
<path fill-rule="evenodd" clip-rule="evenodd" d="M74.6313 223.556C75.0031 224.881 75.834 231.048 76.6433 230.959C77.3025 230.881 77.7804 229.593 77.6829 229.064C77.3064 227.029 76.85 225.003 76.2679 222.972C77.1883 223.02 82.1718 223.977 81.739 222.515C81.5283 221.799 81.4713 221.638 80.8255 221.555C79.6041 221.391 78.3827 221.226 77.1613 221.061C75.9551 220.901 76.2465 221.028 75.7509 219.863C75.5617 219.42 75.372 218.966 75.1827 218.522C73.4308 217.912 74.0266 218.478 74.1478 220.528C74.2119 221.576 74.2532 221.364 73.692 222.224C72.8908 223.46 72.0895 224.696 71.2883 225.933C70.8216 226.651 70.8039 226.47 70.9154 227.331C71.1804 229.221 73.8167 224.596 74.6313 223.556Z" fill="white"/>
<path fill-rule="evenodd" clip-rule="evenodd" d="M80.8404 204.394C82.2168 204.422 88.3588 205.416 88.5091 204.615C88.6251 203.962 87.5314 203.131 86.9968 203.071C84.9396 202.841 82.8686 202.69 80.756 202.658C81.0689 201.791 83.4299 197.299 81.9056 197.29C81.1595 197.284 80.9886 197.291 80.7223 197.886C80.2104 199.007 79.6983 200.128 79.1864 201.249C78.6837 202.357 78.8895 202.115 77.6311 202.251C77.1516 202.304 76.6623 202.354 76.1828 202.406C75.0913 203.906 75.8055 203.5 77.8025 203.978C78.8236 204.221 78.6333 204.12 79.293 204.906C80.2438 206.032 81.1947 207.157 82.1455 208.282C82.6979 208.938 82.5192 208.902 83.376 209.045C85.2608 209.339 81.5994 205.475 80.8404 204.394Z" fill="white"/>
<path fill-rule="evenodd" clip-rule="evenodd" d="M99.5934 239.137C100.068 240.429 101.38 246.511 102.18 246.36C102.831 246.23 103.206 244.909 103.068 244.389C102.533 242.389 101.919 240.405 101.179 238.426C102.101 238.402 107.144 238.965 106.598 237.542C106.331 236.845 106.262 236.688 105.612 236.657C104.381 236.588 103.151 236.52 101.92 236.451C100.705 236.387 101.005 236.49 100.42 235.368C100.197 234.94 99.9719 234.503 99.7484 234.075C97.954 233.605 98.5924 234.122 98.874 236.156C99.02 237.196 99.0446 236.982 98.5526 237.882C97.8508 239.178 97.149 240.473 96.4472 241.769C96.0383 242.522 96.0065 242.342 96.1851 243.192C96.5975 245.055 98.863 240.238 99.5934 239.137Z" fill="white"/>
<path fill-rule="evenodd" clip-rule="evenodd" d="M104.281 219.547C105.655 219.467 111.856 219.976 111.943 219.166C112.007 218.506 110.852 217.763 110.314 217.745C108.245 217.677 106.169 217.689 104.06 217.823C104.304 216.934 106.306 212.271 104.785 212.381C104.041 212.434 103.871 212.455 103.652 213.068C103.23 214.226 102.807 215.384 102.385 216.541C101.971 217.685 102.157 217.428 100.913 217.663C100.439 217.753 99.9553 217.841 99.4813 217.931C98.5108 219.511 99.1911 219.051 101.219 219.371C102.256 219.533 102.059 219.447 102.778 220.179C103.814 221.227 104.85 222.274 105.887 223.321C106.489 223.931 106.308 223.909 107.173 223.985C109.075 224.13 105.122 220.565 104.281 219.547Z" fill="white"/>
<path fill-rule="evenodd" clip-rule="evenodd" d="M127.139 245.68C127.806 246.885 130.032 252.695 130.799 252.423C131.422 252.195 131.592 250.832 131.375 250.339C130.541 248.445 129.631 246.578 128.598 244.735C129.505 244.571 134.575 244.356 133.817 243.033C133.448 242.385 133.355 242.241 132.708 242.309C131.481 242.43 130.255 242.55 129.028 242.67C127.817 242.792 128.13 242.848 127.38 241.829C127.094 241.44 126.805 241.042 126.519 240.654C124.674 240.463 125.384 240.877 125.973 242.844C126.276 243.849 126.268 243.634 125.919 244.599C125.423 245.987 124.928 247.374 124.432 248.761C124.143 249.568 124.084 249.396 124.39 250.208C125.083 251.986 126.585 246.879 127.139 245.68Z" fill="white"/>
<path fill-rule="evenodd" clip-rule="evenodd" d="M128.778 225.604C130.124 225.315 136.33 224.87 136.293 224.057C136.255 223.394 135 222.837 134.466 222.901C132.411 223.15 130.361 223.48 128.297 223.934C128.403 223.018 129.668 218.104 128.182 218.445C127.455 218.611 127.29 218.657 127.168 219.297C126.927 220.506 126.686 221.714 126.446 222.923C126.211 224.117 126.356 223.834 125.162 224.256C124.708 224.417 124.243 224.578 123.788 224.74C123.071 226.45 123.673 225.891 125.726 225.898C126.776 225.899 126.567 225.845 127.39 226.458C128.574 227.335 129.758 228.212 130.942 229.088C131.63 229.599 131.448 229.605 132.315 229.548C134.217 229.401 129.765 226.482 128.778 225.604Z" fill="white"/>
<path fill-rule="evenodd" clip-rule="evenodd" d="M160.366 235.397C161.512 236.16 166.161 240.295 166.717 239.7C167.166 239.211 166.689 237.923 166.271 237.585C164.658 236.287 162.992 235.048 161.227 233.887C161.956 233.323 166.359 230.801 165.079 229.975C164.452 229.569 164.304 229.484 163.76 229.842C162.727 230.513 161.693 231.184 160.659 231.855C159.64 232.52 159.944 232.426 158.809 231.866C158.376 231.653 157.936 231.432 157.504 231.219C155.778 231.899 156.598 231.939 158.026 233.415C158.758 234.168 158.651 233.981 158.786 234.998C158.984 236.458 159.182 237.918 159.38 239.378C159.494 240.227 159.363 240.101 160.009 240.682C161.441 241.942 160.426 236.716 160.366 235.397Z" fill="white"/>
<path fill-rule="evenodd" clip-rule="evenodd" d="M152.587 216.816C153.649 215.941 158.955 212.691 158.548 211.986C158.21 211.415 156.839 211.498 156.394 211.801C154.684 212.967 153.015 214.202 151.392 215.555C151.064 214.694 149.927 209.748 148.765 210.734C148.195 211.216 148.07 211.333 148.256 211.957C148.598 213.141 148.94 214.325 149.283 215.509C149.624 216.677 149.622 216.359 148.756 217.283C148.427 217.635 148.088 217.992 147.759 218.344C147.909 220.193 148.186 219.42 150.012 218.481C150.945 218 150.734 218.047 151.747 218.214C153.202 218.447 154.656 218.681 156.111 218.915C156.957 219.052 156.798 219.141 157.541 218.692C159.163 217.686 153.867 217.142 152.587 216.816Z" fill="white"/>
<path fill-rule="evenodd" clip-rule="evenodd" d="M182.707 220.077C183.853 220.84 188.502 224.975 189.059 224.381C189.507 223.892 189.031 222.604 188.612 222.266C187 220.968 185.333 219.729 183.568 218.568C184.297 218.004 188.701 215.482 187.42 214.655C186.794 214.25 186.645 214.165 186.102 214.523C185.068 215.194 184.034 215.865 183 216.536C181.981 217.201 182.285 217.107 181.15 216.547C180.717 216.334 180.278 216.113 179.845 215.9C178.119 216.58 178.939 216.62 180.367 218.096C181.099 218.849 180.992 218.662 181.127 219.679C181.325 221.139 181.523 222.599 181.721 224.059C181.835 224.908 181.704 224.782 182.35 225.363C183.782 226.623 182.767 221.397 182.707 220.077Z" fill="white"/>
<path fill-rule="evenodd" clip-rule="evenodd" d="M174.928 201.497C175.99 200.622 181.296 197.372 180.889 196.667C180.551 196.096 179.18 196.179 178.735 196.482C177.025 197.648 175.356 198.883 173.733 200.236C173.405 199.374 172.268 194.429 171.106 195.415C170.536 195.897 170.411 196.014 170.597 196.638C170.939 197.822 171.281 199.006 171.624 200.19C171.965 201.358 171.963 201.04 171.098 201.964C170.768 202.316 170.429 202.673 170.1 203.025C170.25 204.874 170.527 204.101 172.353 203.162C173.286 202.681 173.076 202.728 174.088 202.895C175.543 203.128 176.998 203.362 178.452 203.596C179.298 203.733 179.139 203.822 179.882 203.372C181.504 202.367 176.208 201.823 174.928 201.497Z" fill="white"/>
<path fill-rule="evenodd" clip-rule="evenodd" d="M204.229 208.042C205.375 208.805 210.024 212.94 210.581 212.345C211.029 211.856 210.553 210.568 210.134 210.23C208.522 208.932 206.855 207.693 205.09 206.532C205.819 205.969 210.223 203.446 208.942 202.62C208.316 202.214 208.167 202.129 207.624 202.487C206.59 203.158 205.556 203.829 204.522 204.5C203.503 205.165 203.807 205.072 202.672 204.511C202.239 204.298 201.8 204.077 201.367 203.864C199.641 204.544 200.462 204.585 201.889 206.06C202.621 206.813 202.514 206.626 202.649 207.643C202.847 209.103 203.045 210.563 203.243 212.023C203.357 212.872 203.226 212.746 203.872 213.327C205.304 214.587 204.289 209.361 204.229 208.042Z" fill="white"/>
<path fill-rule="evenodd" clip-rule="evenodd" d="M196.45 189.462C197.513 188.586 202.818 185.336 202.411 184.632C202.073 184.06 200.702 184.143 200.257 184.446C198.547 185.612 196.878 186.848 195.255 188.2C194.927 187.339 193.79 182.393 192.628 183.379C192.058 183.861 191.934 183.978 192.119 184.602C192.461 185.786 192.803 186.97 193.146 188.154C193.487 189.322 193.485 189.005 192.62 189.928C192.29 190.281 191.951 190.637 191.622 190.99C191.772 192.839 192.049 192.065 193.875 191.126C194.808 190.645 194.598 190.692 195.61 190.859C197.065 191.093 198.52 191.326 199.974 191.56C200.82 191.697 200.661 191.786 201.404 191.337C203.026 190.331 197.73 189.787 196.45 189.462Z" fill="white"/>
<path fill-rule="evenodd" clip-rule="evenodd" d="M229.612 202.017C230.591 202.985 234.365 207.932 235.024 207.455C235.558 207.06 235.336 205.705 234.99 205.293C233.655 203.711 232.256 202.176 230.745 200.699C231.569 200.286 236.373 198.651 235.274 197.595C234.737 197.077 234.607 196.965 234.005 197.213C232.862 197.674 231.719 198.135 230.576 198.597C229.449 199.055 229.765 199.021 228.758 198.254C228.374 197.962 227.985 197.661 227.601 197.369C225.777 197.707 226.574 197.903 227.694 199.625C228.268 200.503 228.199 200.299 228.137 201.324C228.052 202.795 227.968 204.265 227.883 205.736C227.834 206.592 227.728 206.443 228.252 207.136C229.417 208.647 229.419 203.323 229.612 202.017Z" fill="white"/>
<path fill-rule="evenodd" clip-rule="evenodd" d="M225.526 182.293C226.736 181.636 232.565 179.46 232.3 178.69C232.077 178.065 230.716 177.884 230.221 178.097C228.32 178.915 226.445 179.808 224.594 180.826C224.437 179.918 224.266 174.846 222.936 175.592C222.285 175.956 222.14 176.047 222.203 176.695C222.313 177.923 222.423 179.151 222.533 180.378C222.644 181.59 222.703 181.278 221.677 182.019C221.286 182.302 220.886 182.587 220.495 182.87C220.289 184.713 220.708 184.007 222.681 183.435C223.688 183.14 223.473 183.147 224.435 183.504C225.818 184.011 227.201 184.519 228.584 185.026C229.389 185.322 229.216 185.379 230.031 185.08C231.814 184.403 226.721 182.857 225.526 182.293Z" fill="white"/>
<path fill-rule="evenodd" clip-rule="evenodd" d="M257.024 205.693C258.003 206.661 261.776 211.608 262.436 211.131C262.97 210.736 262.748 209.381 262.402 208.969C261.067 207.387 259.668 205.852 258.157 204.375C258.981 203.962 263.785 202.327 262.686 201.271C262.148 200.754 262.019 200.642 261.417 200.889C260.274 201.351 259.131 201.812 257.988 202.273C256.861 202.731 257.177 202.697 256.17 201.93C255.786 201.638 255.396 201.338 255.012 201.046C253.188 201.383 253.986 201.58 255.106 203.301C255.68 204.18 255.611 203.976 255.549 205C255.464 206.471 255.38 207.942 255.295 209.412C255.245 210.268 255.14 210.119 255.663 210.813C256.828 212.323 256.831 207 257.024 205.693Z" fill="white"/>
<path fill-rule="evenodd" clip-rule="evenodd" d="M252.938 185.969C254.148 185.313 259.977 183.136 259.711 182.367C259.489 181.741 258.127 181.56 257.633 181.773C255.732 182.591 253.857 183.485 252.006 184.502C251.849 183.594 251.677 178.522 250.348 179.268C249.697 179.632 249.552 179.724 249.615 180.372C249.725 181.599 249.834 182.827 249.944 184.054C250.056 185.266 250.115 184.954 249.089 185.695C248.698 185.978 248.298 186.263 247.907 186.546C247.7 188.39 248.12 187.683 250.092 187.111C251.1 186.816 250.884 186.823 251.847 187.18C253.23 187.687 254.613 188.195 255.996 188.702C256.8 188.998 256.627 189.055 257.443 188.756C259.226 188.079 254.132 186.533 252.938 185.969Z" fill="white"/>
<path fill-rule="evenodd" clip-rule="evenodd" d="M282.735 216.156C283.583 217.241 286.698 222.627 287.413 222.237C287.992 221.914 287.944 220.541 287.653 220.089C286.53 218.35 285.337 216.65 284.026 214.993C284.895 214.688 289.868 213.676 288.912 212.489C288.444 211.907 288.33 211.78 287.702 211.949C286.509 212.262 285.317 212.574 284.125 212.886C282.949 213.197 283.266 213.204 282.365 212.315C282.021 211.977 281.673 211.63 281.329 211.291C279.477 211.394 280.243 211.691 281.135 213.54C281.593 214.485 281.551 214.273 281.359 215.282C281.089 216.73 280.818 218.178 280.548 219.626C280.389 220.469 280.304 220.308 280.735 221.062C281.699 222.708 282.377 217.428 282.735 216.156Z" fill="white"/>
<path fill-rule="evenodd" clip-rule="evenodd" d="M281.185 196.073C282.469 195.576 288.526 194.157 288.361 193.36C288.22 192.711 286.892 192.359 286.375 192.507C284.385 193.077 282.412 193.726 280.446 194.5C280.406 193.579 280.88 188.527 279.467 189.098C278.774 189.376 278.619 189.449 278.599 190.099C278.552 191.331 278.505 192.563 278.459 193.794C278.415 195.01 278.514 194.708 277.402 195.313C276.978 195.544 276.545 195.776 276.121 196.007C275.683 197.81 276.189 197.162 278.217 196.845C279.254 196.681 279.04 196.66 279.949 197.136C281.256 197.815 282.564 198.494 283.871 199.172C284.632 199.568 284.453 199.603 285.3 199.409C287.155 198.964 282.298 196.784 281.185 196.073Z" fill="white"/>
<path fill-rule="evenodd" clip-rule="evenodd" d="M309.288 233.326C310.137 234.411 313.251 239.797 313.966 239.407C314.546 239.084 314.498 237.711 314.206 237.259C313.084 235.52 311.891 233.82 310.58 232.163C311.449 231.858 316.422 230.846 315.465 229.659C314.998 229.077 314.884 228.95 314.255 229.119C313.063 229.432 311.871 229.744 310.679 230.056C309.502 230.368 309.82 230.374 308.919 229.485C308.575 229.147 308.227 228.8 307.883 228.461C306.031 228.564 306.797 228.861 307.689 230.71C308.147 231.655 308.105 231.444 307.913 232.452C307.642 233.9 307.372 235.348 307.101 236.797C306.943 237.639 306.858 237.478 307.289 238.232C308.253 239.878 308.931 234.598 309.288 233.326Z" fill="white"/>
<path fill-rule="evenodd" clip-rule="evenodd" d="M307.739 213.243C309.022 212.746 315.08 211.327 314.915 210.53C314.773 209.881 313.446 209.529 312.928 209.677C310.938 210.247 308.966 210.896 307 211.67C306.96 210.749 307.434 205.697 306.02 206.268C305.328 206.547 305.173 206.619 305.153 207.27C305.106 208.501 305.059 209.733 305.012 210.964C304.969 212.18 305.067 211.878 303.955 212.483C303.532 212.714 303.099 212.946 302.675 213.177C302.236 214.98 302.742 214.332 304.771 214.015C305.808 213.851 305.593 213.83 306.503 214.306C307.81 214.985 309.118 215.664 310.425 216.343C311.185 216.738 311.007 216.773 311.853 216.58C313.708 216.135 308.852 213.954 307.739 213.243Z" fill="white"/>
<path fill-rule="evenodd" clip-rule="evenodd" d="M332.531 252.66C333.144 253.893 335.113 259.795 335.891 259.558C336.524 259.357 336.753 258.003 336.558 257.502C335.808 255.572 334.981 253.667 334.03 251.781C334.943 251.656 340.018 251.665 339.32 250.31C338.979 249.646 338.893 249.498 338.243 249.538C337.012 249.604 335.782 249.67 334.551 249.737C333.336 249.805 333.646 249.875 332.942 248.824C332.673 248.423 332.402 248.013 332.133 247.612C330.298 247.34 330.989 247.785 331.491 249.776C331.75 250.793 331.751 250.578 331.36 251.527C330.804 252.891 330.248 254.256 329.691 255.62C329.367 256.413 329.316 256.238 329.586 257.064C330.2 258.87 331.926 253.834 332.531 252.66Z" fill="white"/>
<path fill-rule="evenodd" clip-rule="evenodd" d="M335.052 232.676C336.409 232.447 342.629 232.275 342.627 231.461C342.619 230.797 341.389 230.185 340.853 230.226C338.789 230.384 336.726 230.623 334.645 230.986C334.79 230.076 336.27 225.222 334.771 225.498C334.037 225.631 333.871 225.671 333.72 226.304C333.426 227.501 333.133 228.698 332.839 229.895C332.552 231.078 332.709 230.801 331.499 231.17C331.037 231.312 330.566 231.452 330.105 231.593C329.313 233.27 329.939 232.738 331.99 232.835C333.038 232.883 332.832 232.819 333.627 233.468C334.772 234.396 335.916 235.324 337.06 236.252C337.725 236.792 337.543 236.791 338.411 236.771C340.318 236.708 335.999 233.596 335.052 232.676Z" fill="white"/>
<path fill-rule="evenodd" clip-rule="evenodd" d="M353.557 272.294C354.17 273.527 356.138 279.429 356.917 279.192C357.549 278.991 357.778 277.637 357.584 277.135C356.834 275.206 356.007 273.301 355.056 271.415C355.969 271.29 361.043 271.299 360.345 269.944C360.004 269.28 359.918 269.132 359.268 269.172C358.038 269.238 356.807 269.304 355.576 269.371C354.361 269.439 354.671 269.509 353.967 268.458C353.698 268.057 353.427 267.647 353.158 267.246C351.323 266.975 352.014 267.419 352.516 269.41C352.775 270.427 352.776 270.212 352.385 271.161C351.829 272.525 351.273 273.89 350.717 275.254C350.393 276.047 350.341 275.872 350.612 276.698C351.225 278.504 352.951 273.468 353.557 272.294Z" fill="white"/>
<path fill-rule="evenodd" clip-rule="evenodd" d="M356.077 252.31C357.435 252.081 363.654 251.909 363.652 251.095C363.644 250.431 362.414 249.819 361.878 249.86C359.814 250.018 357.751 250.257 355.67 250.62C355.815 249.71 357.296 244.856 355.796 245.132C355.062 245.265 354.896 245.305 354.745 245.938C354.452 247.135 354.158 248.332 353.865 249.529C353.578 250.712 353.735 250.435 352.524 250.804C352.063 250.946 351.591 251.086 351.13 251.227C350.338 252.904 350.964 252.372 353.015 252.469C354.063 252.517 353.858 252.453 354.653 253.102C355.797 254.03 356.941 254.958 358.086 255.886C358.751 256.426 358.568 256.425 359.437 256.405C361.343 256.342 357.025 253.23 356.077 252.31Z" fill="white"/>
<path fill-rule="evenodd" clip-rule="evenodd" d="M374.376 291.44C374.789 292.753 375.815 298.89 376.622 298.776C377.278 298.677 377.715 297.374 377.601 296.849C377.16 294.826 376.639 292.816 375.993 290.804C376.915 290.823 381.926 291.622 381.447 290.174C381.214 289.466 381.152 289.306 380.504 289.244C379.278 289.118 378.052 288.992 376.826 288.866C375.615 288.745 375.91 288.862 375.378 287.714C375.175 287.276 374.971 286.829 374.768 286.391C372.997 285.837 373.611 286.384 373.797 288.429C373.894 289.474 373.929 289.262 373.395 290.138C372.633 291.399 371.872 292.661 371.11 293.922C370.666 294.655 370.643 294.474 370.782 295.331C371.106 297.211 373.595 292.505 374.376 291.44Z" fill="white"/>
<path fill-rule="evenodd" clip-rule="evenodd" d="M379.975 272.091C381.351 272.076 387.522 272.874 387.647 272.069C387.742 271.412 386.622 270.617 386.086 270.573C384.023 270.409 381.948 270.324 379.835 270.359C380.121 269.482 382.338 264.918 380.814 264.957C380.068 264.974 379.898 264.987 379.65 265.59C379.174 266.727 378.698 267.863 378.222 269C377.754 270.123 377.953 269.875 376.699 270.051C376.221 270.119 375.734 270.184 375.256 270.252C374.213 271.786 374.914 271.357 376.925 271.772C377.953 271.982 377.76 271.887 378.444 272.652C379.43 273.747 380.416 274.842 381.402 275.936C381.975 276.573 381.796 276.543 382.656 276.659C384.55 276.894 380.768 273.147 379.975 272.091Z" fill="white"/>
</svg>
