<svg width="304" height="128" viewBox="0 0 304 128" fill="none" xmlns="http://www.w3.org/2000/svg">
<path fill-rule="evenodd" clip-rule="evenodd" d="M73.6253 116.492V121.421C55.7486 121.421 40.9156 109.908 34.6405 93.1669L35.7985 92.7368C41.3457 107.548 57.8108 116.492 73.6253 116.492Z" fill="white"/>
<path fill-rule="evenodd" clip-rule="evenodd" d="M72.9201 24.3724C57.3151 25.1333 42.846 31.2209 35.0822 46.5723C36.1078 30.449 39.0523 11.0944 43.6732 0C45.4818 12.881 49.849 20.325 57.4033 20.9978C71.6518 11.5245 83.2535 11.9215 95.4287 15.2741C76.2065 17.2923 73.6479 20.6338 76.3057 20.0935C87.6759 17.7775 102.024 22.8395 102.906 23.1483C81.2905 24.9238 108.034 39.3708 126.495 25.5745C129.021 28.2654 128.138 36.5697 124.72 42.1058H122.933C123.705 37.8048 123.374 32.8531 121.93 32.1804C99.6195 41.5654 93.3333 23.3799 72.9201 24.3724Z" fill="white"/>
<path fill-rule="evenodd" clip-rule="evenodd" d="M106.269 119.215C104.659 116.766 95.8474 106.819 97.2039 105.672C98.2957 104.746 101.108 105.815 101.825 106.709C104.582 110.149 107.195 113.712 109.644 117.461C110.923 115.95 116.735 106.808 118.466 109.532C119.316 110.855 119.492 111.186 118.687 112.311C117.154 114.462 115.61 116.601 114.077 118.752C112.555 120.869 112.776 120.229 113.945 122.633C114.397 123.56 114.838 124.486 115.29 125.402C113.691 129.008 113.647 127.276 110.493 124.211C108.883 122.645 109.291 122.876 107.063 122.545C103.865 122.071 100.678 121.586 97.4796 121.112C95.6158 120.836 95.8915 121.123 94.6564 119.733C91.9434 116.678 103.369 119.027 106.269 119.215Z" fill="white"/>
<path fill-rule="evenodd" clip-rule="evenodd" d="M94.568 54.0054C90.7522 54.0054 87.2122 55.1193 84.2125 57.0272C81.4003 48.0281 73.0409 41.7861 63.4684 41.7861C51.4586 41.7861 41.7317 51.5241 41.7317 63.5228C41.7317 74.8488 50.3889 84.1456 61.4502 85.1602H61.4281C69.3133 89.373 72.7872 93.1998 75.3127 102.618L76.5148 103.169C82.9994 95.1518 86.9034 92.8579 94.568 92.7918C105.276 92.7918 113.967 84.1125 113.967 73.3931C113.967 62.6957 105.276 54.0054 94.568 54.0054ZM46.3635 64.4271C46.3635 54.4796 54.4252 46.418 64.3727 46.418C72.2689 46.418 79.2057 51.5682 81.5437 59.0564C77.6397 62.6075 75.1804 67.7025 75.1804 73.3931C75.1804 75.0914 75.423 76.7236 75.831 78.2896C72.6108 80.9474 68.5744 82.4252 64.3837 82.4252C54.4252 82.4362 46.3635 74.3746 46.3635 64.4271ZM83.3744 89.2407C80.9151 90.2112 78.7756 91.8103 77.2206 94.5673C76.581 90.6964 74.8164 87.0571 71.4859 83.7265L71.4087 83.7376C73.2725 83.0097 75.026 82.0172 76.6361 80.782C78.0477 84.2118 80.4188 87.1453 83.4185 89.2517L83.3744 89.2407ZM94.7555 88.8988C85.6462 88.8988 78.2683 81.5209 78.2683 72.4116C78.2683 63.3023 85.6462 55.9244 94.7555 55.9244C103.865 55.9244 111.243 63.3023 111.243 72.4116C111.254 81.5099 103.865 88.8988 94.7555 88.8988Z" fill="white"/>
<path d="M89.1755 60.302C88.2602 60.3902 88.4366 60.9968 88.1058 62.3753C87.7529 64.0296 90.4217 62.6951 90.8408 61.3828C91.1606 60.4123 90.2563 60.4785 89.1755 60.302Z" fill="white"/>
<path d="M92.2744 56.5529C88.3373 56.5529 84.7531 58.152 82.1505 60.7326C80.7499 53.4429 74.3204 47.8958 66.6337 47.8958C57.9214 47.8958 50.8192 54.9979 50.8192 63.7102C50.8192 72.4226 57.9214 79.5247 66.6337 79.5247C71.2435 79.5247 75.3901 77.5176 78.2906 74.3525C79.8235 80.6717 85.5141 85.3918 92.2854 85.3918C100.226 85.3918 106.699 78.9182 106.699 70.9779C106.688 63.0265 100.215 56.5529 92.2744 56.5529ZM67.3947 57.9976C67.0748 58.1851 66.733 58.3285 66.3801 58.4277C65.3324 58.946 64.1634 59.0453 63.0826 58.3946C61.0865 57.8212 59.6528 56.2993 60.7667 54.4245C60.7777 54.1598 60.8218 53.9061 60.888 53.6745C60.899 52.8805 61.1858 52.2629 61.6489 51.7998C62.1893 50.8072 63.2701 50.0242 65.0567 49.7485C66.6337 49.4948 67.8248 49.8257 68.6519 50.4653C69.5893 50.719 69.9753 51.524 69.9532 52.5386C70.4715 54.5678 69.5452 57.0933 67.3947 57.9976ZM93.697 64.1073C93.3772 64.9454 92.4067 65.574 91.3149 65.8608C91.2046 65.9159 91.1054 65.971 90.9951 66.0151C87.8079 67.4709 86.6279 65.6843 86.8154 63.7323C86.7713 63.4566 86.7603 63.1478 86.7713 62.8059C86.5728 62.045 86.65 61.273 87.1793 60.7106C87.9293 58.8799 89.5835 58.7145 91.0282 59.3762C91.337 59.3982 91.6458 59.5305 91.9325 59.7842C93.8404 60.4128 95.263 62.4641 93.697 64.1073Z" fill="white"/>
<path d="M62.6193 54.226C63.4464 55.031 64.2956 54.3142 64.9903 54.623C66.9975 55.5273 68.0783 52.4394 66.4792 50.8734C64.9683 49.6052 62.0348 52.2298 62.6193 54.226Z" fill="white"/>
<path fill-rule="evenodd" clip-rule="evenodd" d="M25.1563 63.2141C20.3259 65.9601 14.9883 67.2615 9.43002 67.1732C9.033 67.1622 8.6801 67.3056 8.36028 67.5372C7.62139 65.0337 7.21333 62.4311 7.21333 59.8063C7.2023 56.5089 7.53316 52.66 10.1358 50.289C11.3379 49.1861 13.0804 48.4473 14.7346 48.5686C15.4735 48.6237 15.9477 48.9325 16.5984 49.1861C16.8851 49.2964 17.0175 49.506 17.0836 49.6383C17.2711 51.3367 17.8335 53.2776 19.5209 53.9614C21.1861 54.6341 22.6088 53.2335 22.8735 51.5793C23.866 45.2711 19.3444 37.5624 12.1981 38.2572C5.6363 38.8858 1.78744 45.4586 0.673589 51.3146C-1.79674 64.3169 2.69176 78.4551 11.4482 88.2041C14.2714 91.3582 16.7969 87.7961 17.0285 84.8846C17.216 82.5356 17.0505 80.1424 16.5543 77.8045C20.8332 77.231 24.9578 75.8635 28.8066 73.7681C33.0305 71.4853 29.9426 60.5011 25.1563 63.2141ZM17.1057 49.6824C17.1277 49.7486 17.1277 49.7707 17.1057 49.6824V49.6824ZM17.0505 49.2303C17.0505 49.1531 17.0395 49.0759 17.0285 48.9876C17.0395 49.0648 17.0395 49.142 17.0505 49.2303Z" fill="white"/>
<path fill-rule="evenodd" clip-rule="evenodd" d="M150.647 65.1111C147.989 63.1371 144.68 62.321 141.405 62.4092C137.953 62.4975 134.137 63.9863 130.697 63.3356C130.388 63.2805 129.969 63.1922 129.682 63.0158C129.649 62.9055 129.616 62.7511 129.583 62.5305C129.395 61.3174 129.351 60.0933 129.715 58.9023C130.167 57.4355 131.182 56.0239 132.45 55.1526C133.068 54.7225 133.983 54.2594 134.733 54.1381C135.648 53.9947 136.167 54.6564 135.472 53.6418C136.288 54.8218 137.81 56.1893 139.288 55.2298C140.666 54.3366 140.567 51.9655 139.927 50.6531C138.13 47.0359 134.81 44.6538 130.652 45.6132C126.958 46.4624 124.311 49.7599 123.23 53.2448C120.87 60.7881 123.958 71.8494 132.99 72.6324C136.729 72.9522 140.412 71.6399 144.151 71.684C145.783 71.7061 147.162 72.0259 148.595 72.7978C148.342 72.6545 148.639 72.8971 148.893 73.0735C148.871 73.1066 148.86 73.1397 148.838 73.1838C148.11 74.43 147.68 75.5108 146.665 76.5916C145.386 77.948 143.908 79.1391 142.298 80.0765C139.166 81.9072 135.891 82.8005 132.373 83.2195C131.998 83.2306 131.612 83.2636 131.226 83.3408C125.844 84.3223 128.767 94.2147 133.498 94.0934C140.578 93.9059 148.066 90.1784 152.499 84.6422C157.286 78.6428 157.197 69.9856 150.647 65.1111ZM129.682 63.0489C129.847 63.2253 129.792 63.4238 129.682 63.0489V63.0489Z" fill="white"/>
<path fill-rule="evenodd" clip-rule="evenodd" d="M183.556 55.8028C182.166 50.2556 177.093 46.8148 171.402 48.447C166.197 49.9358 162.558 54.8433 161.301 59.9163C160.54 62.9822 160.518 66.0811 161.157 69.169C161.72 71.893 162.8 75.1353 165.657 76.0507C168.072 76.8226 169.009 72.4555 169.02 71.099C169.042 68.3971 167.289 65.4194 167.796 62.9491C168.226 60.8317 170.476 59.0451 172.792 58.7032C173.928 58.5378 175.395 58.6371 176.31 59.4201C177.126 60.1149 177.104 60.9971 177.17 62.0117C177.424 65.9047 177.016 69.6102 176.398 73.459C176.089 75.3779 176.608 78.51 178.769 79.1827C181.052 79.8885 182.442 77.6277 183.181 75.8301L183.401 75.2787C183.666 74.639 183.798 73.7678 183.765 72.8745C184.713 67.3825 184.901 61.1184 183.556 55.8028Z" fill="white"/>
<path fill-rule="evenodd" clip-rule="evenodd" d="M204.288 64.1628C201.421 62.7622 197.803 61.6043 194.484 61.9792C194.517 59.5309 194.429 57.0055 193.679 54.8439C193.304 53.7521 192.741 52.5832 191.396 52.6604C190.183 52.7265 189.19 54.0499 188.915 55.1527C188.088 58.4722 188.297 61.9241 188.121 65.3208C188.077 66.192 188.021 67.0522 187.966 67.9235C187.415 70.3386 187.481 73.0736 187.349 75.3565C187.238 77.2423 187.503 80.4295 189.951 80.7603C192.223 81.0691 193.723 78.0694 193.877 76.2277C193.988 74.8712 194.076 73.5038 194.164 72.1363C195.179 72.1032 196.646 72.3899 197.197 72.5112C198.873 72.8751 200.428 73.5699 202.06 74.0662C204.134 74.6948 205.622 71.5297 205.942 70.085C206.328 68.2764 206.273 65.1333 204.288 64.1628Z" fill="white"/>
<path fill-rule="evenodd" clip-rule="evenodd" d="M243.185 57.2249C239.887 54.2473 235.531 53.8724 231.594 55.1516C231.252 53.3651 230.866 51.5895 230.425 49.836C230.094 48.5237 229.377 46.5386 227.701 46.5386C226.201 46.5386 225.363 48.2921 225.462 49.6485C225.639 51.8983 225.826 54.1371 226.025 56.3868C224.69 56.2765 223.157 56.5963 221.459 57.4234C211.567 62.1987 206.494 77.0207 217.092 83.9795C220.599 86.2844 224.602 86.4388 228.407 85.4021C228.914 86.3836 229.664 87.1666 230.712 87.3652C232.94 87.7842 233.976 85.2477 233.976 83.4391C233.976 83.3068 233.976 83.1744 233.976 83.0421C238.597 80.4394 244.089 76.1715 246.328 71.4955C248.611 66.6872 247.045 60.7099 243.185 57.2249ZM227.458 76.2377C225.22 77.0096 222.915 77.2302 220.698 76.5023C217.699 75.5208 216.629 74.1092 218.272 71.308C219.783 68.7385 222.264 66.5769 224.823 65.1212C226.334 64.261 226.576 63.5111 226.753 64.7573C227.073 68.573 227.326 72.3998 227.458 76.2377ZM240.924 65.9703C240.681 66.8857 239.182 67.9665 238.487 68.6502C237.108 69.9846 235.443 71.4955 233.601 72.852C233.436 69.8082 233.204 66.7534 232.862 63.7206C234.947 63.1692 237.13 62.8824 239.016 63.6765C239.7 63.9522 240.306 64.3492 240.825 64.8785C241.531 65.3417 241.564 65.7057 240.924 65.9703Z" fill="white"/>
<path fill-rule="evenodd" clip-rule="evenodd" d="M274.891 69.9299C274.152 63.4122 270.535 56.1556 263.322 58.3612C262.275 58.6811 261.337 59.1663 260.499 59.7729C260.201 55.7365 259.672 53.0126 257.433 49.9577C256.319 48.4358 254.378 48.3145 253.342 50.057C251.666 52.8802 253.684 57.2033 254.07 60.589C254.323 62.9049 254.412 65.2649 254.522 67.5919C254.599 69.4226 254.643 71.2533 254.676 73.084C254.103 76.7453 254.224 80.4729 254.764 83.274C255.106 85.0496 256.397 87.1339 258.448 86.759C260.565 86.373 261.139 83.5277 261.172 81.7853C261.205 79.6458 261.205 77.4953 261.172 75.3558C261.591 73.4479 262.429 69.8086 263.83 68.7168C265.065 67.7573 266.807 67.7904 267.899 69.0366C269.068 70.36 268.484 72.8083 268.406 74.4074C268.274 77.2196 271.858 81.5978 273.998 77.7489C274.296 77.1534 274.637 76.5799 275.045 76.0506C275.972 74.672 275.873 71.6944 274.891 69.9299Z" fill="white"/>
<path fill-rule="evenodd" clip-rule="evenodd" d="M301.259 67.0186C301.248 66.9744 301.237 66.9303 301.226 66.8752C301.425 66.4451 301.579 66.0371 301.711 65.6511C303.244 61.0854 302.792 52.7811 296.396 51.5239C294.367 51.1269 292.933 53.0458 292.591 54.5015C291.83 57.832 292.117 61.0082 292.712 64.2395C290.44 66.4892 289.845 66.1473 288.775 63.655C287.154 59.8723 286.592 55.2956 287.75 51.2482C287.739 51.2702 287.728 51.2813 287.705 51.3033C287.882 50.5424 287.904 49.7704 287.816 49.23C287.805 49.1638 287.794 49.0977 287.783 49.0315C287.507 47.1898 285.5 44.3886 282.864 45.701C279.986 47.1347 280.052 51.0055 279.875 53.4318C279.655 56.4645 279.897 59.5414 280.592 62.4749C281.629 66.8421 283.79 74.231 289.624 75.4882C291.466 75.8853 293.231 75.4221 294.83 74.4737C295.15 75.9294 295.48 77.3741 295.855 78.8078C296.263 80.3848 297.091 82.3478 299.065 82.8992C300.664 83.3514 302.472 82.6346 303.057 81.1237C303.211 80.7267 303.355 80.3407 303.509 79.9437C304.27 77.9586 304.215 75.764 302.858 74.0656C302.351 71.7166 301.8 69.3676 301.259 67.0186Z" fill="white"/>
</svg>